<svg width="130" height="131" viewBox="0 0 130 131" fill="none" xmlns="http://www.w3.org/2000/svg">
<g clip-path="url(#clip0_263_1490)">
<path d="M128.22 83.0178C129.322 80.2194 129.421 77.2176 128.367 74.3908C127.289 71.4979 125.105 69.139 124.306 66.1231C123.942 64.7428 124.33 63.5563 124.831 62.2658C125.389 60.843 126.126 59.5005 126.821 58.1438C128.135 55.5864 129.038 52.9062 128.806 49.9943C128.594 47.3093 127.648 44.6716 125.772 42.7051C124.25 41.112 122.311 39.9964 120.444 38.8619C118.733 37.822 116.568 36.7678 115.883 34.7446C114.871 31.7571 115.325 28.4907 114.814 25.4181C113.992 20.5019 110.565 16.3042 105.648 15.1177C102.864 14.4465 100.004 14.8105 97.1775 14.5126C96.0146 14.3897 94.8565 14.1628 93.9205 13.4112C92.8191 12.5225 91.9871 11.2557 91.2119 10.0834C89.893 8.10743 88.697 6.04641 86.9386 4.41084C85.1943 2.78471 83.0434 1.71639 80.7177 1.21532C78.6094 0.756786 76.5626 0.922235 74.5299 1.67857C71.9206 2.64763 69.6657 4.32575 67.1226 5.44134C66.4608 5.73442 65.7517 5.98023 65.019 5.99914C64.343 6.01805 63.667 5.84315 63.0336 5.62097C61.9038 5.22862 60.845 4.65664 59.7814 4.11303C57.3044 2.84144 54.903 1.59821 52.0856 1.31458C49.637 1.06405 47.1316 1.40913 44.9572 2.59563C42.6362 3.86249 41.01 5.89987 39.677 8.13579C38.8639 9.49247 38.0982 10.8775 37.1433 12.1396C36.7131 12.7069 36.264 13.2883 35.6873 13.7185C35.1106 14.1487 34.3826 14.3661 33.6925 14.5174C31.3904 15.0184 28.9276 14.8908 26.5877 15.1366C23.827 15.4297 21.298 16.2995 19.1188 18.0532C16.9916 19.7645 15.5073 22.0193 14.9212 24.6996C14.2405 27.7863 14.751 30.9913 14.1837 34.097C14.0656 34.7541 13.9332 35.397 13.5267 35.9406C13.0823 36.5315 12.482 37.0089 11.9053 37.4674C10.6195 38.4932 9.21557 39.3536 7.83998 40.2564C6.5873 41.079 5.37243 41.9582 4.36083 43.0738C3.42487 44.109 2.64962 45.2861 2.06346 46.5529C1.18895 48.4438 0.782418 50.4386 0.867506 52.5138C0.985683 55.4115 2.72998 58.0445 4.09612 60.4884C4.83354 61.8073 5.72224 63.268 5.8546 64.8043C5.98223 66.2744 5.28262 67.8154 4.66809 69.1107C3.49577 71.5688 2.00201 73.8992 1.44421 76.5984C0.905323 79.2219 1.08495 82.0535 2.21 84.5068C3.05143 86.3362 4.3892 87.8914 5.99641 89.0968C8.11888 90.6899 10.6573 91.6778 12.6994 93.3796C13.1863 93.7861 13.6543 94.2494 13.9379 94.8261C14.2405 95.4406 14.3587 96.1308 14.4816 96.802C14.7557 98.2863 14.8219 99.7896 14.8928 101.297C15.0252 104.138 15.3655 106.923 16.864 109.409C18.2301 111.673 20.2297 113.607 22.702 114.6C25.5004 115.72 28.6345 115.554 31.5889 115.588C33.0307 115.602 34.6805 115.658 35.8717 116.571C37.0251 117.45 37.928 118.769 38.7363 119.951C40.3624 122.333 41.7427 124.886 44.0921 126.658C46.0491 128.133 48.4032 128.899 50.8141 129.225C51.8351 129.225 52.7711 129.22 53.7779 128.998C55.3946 128.644 56.9167 127.968 58.3585 127.164C59.9988 126.252 61.5635 125.174 63.3645 124.588C64.3005 124.285 65.2175 124.144 66.1913 124.352C67.0658 124.536 67.8836 124.914 68.6778 125.306C71.8449 126.857 74.9128 128.762 78.5291 128.942C81.6631 129.102 85.1139 128.062 87.4207 125.883C89.8363 123.6 91.0322 120.428 92.9893 117.805C93.4572 117.176 94.0103 116.575 94.7146 116.216C95.5088 115.81 96.4211 115.602 97.2909 115.46C99.1912 115.148 101.125 115.2 103.044 115.068C106.518 114.822 109.671 113.508 112.139 111.016C113.273 109.868 114.148 108.487 114.682 106.965C115.306 105.188 115.405 103.344 115.405 101.477C115.405 99.4776 115.358 97.4496 115.868 95.4973C116.095 94.6323 116.535 94.0556 117.206 93.4741C117.915 92.8643 118.639 92.2735 119.404 91.7393C120.945 90.6568 122.6 89.7445 124.075 88.5674C125.308 87.5842 126.396 86.4308 127.213 85.0788C127.611 84.4123 127.941 83.7269 128.22 83.0178Z" fill="white"/>
<path d="M74.6434 36.8628C75.1302 35.9032 74.407 35.369 73.7263 34.9719C73.3623 34.764 72.658 34.4709 72.6958 34.0502C72.7667 33.1756 74.8703 33.776 74.3739 34.7545C74.6623 34.7403 74.823 34.849 75.0783 34.8679C75.7448 32.9677 72.2987 32.2349 71.9395 33.7807C71.5518 35.4352 74.0808 35.3454 74.0525 36.3239C74.0146 37.3213 71.462 36.6926 72.0434 35.5156C71.7882 35.5061 71.5897 35.4257 71.3391 35.4021C70.6348 37.274 73.9154 38.2998 74.6434 36.8628ZM63.0572 36.4846C63.062 35.8275 63.0667 35.1752 63.0005 34.589H63.979C64.5746 35.057 64.9244 35.7755 65.3877 36.3759C65.7186 36.4043 66.1062 36.3333 66.3047 36.3759C65.8982 35.6432 65.3735 35.0287 64.8961 34.3716C65.936 34.2251 65.9928 32.6793 65.3262 32.2066C64.5368 31.6393 63.2463 32.2208 62.1875 32.0411C62.1638 33.5822 62.3056 34.9578 62.2914 36.4846H63.0572ZM62.9438 32.6935C63.8656 32.736 64.9812 32.4713 65.0048 33.2371C65.0237 33.9934 63.9034 33.8611 63.0005 33.8894C63.0383 33.4309 62.9012 33.1473 62.9438 32.6935ZM40.6271 49.3754C39.3225 48.6616 38.2069 47.7446 36.8975 47.0497C36.8407 47.3239 36.5807 47.3853 36.5618 47.6973C37.8051 48.4773 39.0105 49.2951 40.249 50.0845C40.3388 49.8103 40.5562 49.6779 40.6271 49.3754ZM83.743 42.9796C85.5771 43.8069 86.4895 41.0652 87.4254 40.115C87.1371 40.0583 87.0993 39.751 86.7731 39.7321C86.1018 40.2332 85.4117 42.3226 84.4426 42.3888C83.9179 42.4266 83.379 42.0106 83.3081 41.5237C83.2183 40.8383 83.8707 40.3608 84.1685 39.9543C84.5892 39.3918 84.8586 38.9711 85.199 38.4889C85.0099 38.3376 84.8255 38.1722 84.5986 38.0587C84.211 38.7725 83.1049 39.7889 82.7078 40.6019C82.202 41.6561 82.9725 42.6393 83.743 42.9796ZM81.682 39.5147C81.4693 39.3729 81.3322 39.1412 81.0911 39.0278C80.8122 39.3445 80.6751 39.5194 80.3253 39.5714C78.3069 39.8692 78.8079 36.7446 80.2213 36.4846C81.0769 36.3192 81.9184 36.9195 81.63 37.9453C81.9136 37.9689 82.1027 38.0871 82.3911 38.106C82.6416 36.6312 81.734 35.9032 80.713 35.7755C78.7938 35.5581 77.4324 38.3329 78.6519 39.6281C79.3421 40.3656 81.1526 40.6208 81.682 39.5147ZM38.084 54.0363C37.824 53.9985 37.6916 53.8142 37.3844 53.8236C37.1102 54.6556 36.8076 55.4497 36.4578 56.2014C36.1364 56.0028 35.6448 55.9697 35.3753 55.7145C35.6401 55.0101 35.8953 54.2869 36.1837 53.6014C35.9851 53.4927 35.744 53.4218 35.5361 53.332C35.2382 54.0411 35.0019 54.821 34.671 55.497C34.359 55.3363 33.9194 55.3079 33.6878 55.0716C33.9903 54.32 34.2881 53.5684 34.5623 52.7931C34.3401 52.7269 34.1652 52.6088 33.9099 52.5757C33.5365 53.592 33.1111 54.5563 32.7754 55.6105C34.1605 56.121 35.5219 56.6552 36.8975 57.1846C37.2567 56.1021 37.6916 55.0858 38.084 54.0363ZM70.3086 36.1017C69.4057 35.9599 68.4509 35.9599 67.7607 35.7235C67.8269 35.3501 67.8316 34.9247 67.9261 34.589C68.8243 34.6552 69.3396 34.7687 70.1999 34.8632C70.2802 34.6694 70.2661 34.3763 70.3086 34.1542C69.4057 34.036 68.6021 33.9982 67.9781 33.828C68.1011 33.5396 68.0018 33.0196 68.1956 32.8022C68.8148 32.8873 69.7414 33.0386 70.578 33.0764C70.6537 32.8967 70.6537 32.6368 70.6915 32.4193C69.6846 32.268 68.4083 32.1073 67.4913 32.0411C67.2076 33.5065 67.132 34.9578 66.8956 36.3759C67.9971 36.5413 69.141 36.6642 70.2519 36.8108C70.2282 36.5272 70.3512 36.3948 70.3086 36.1017ZM39.7574 50.7321C39.4832 50.699 39.4265 50.4579 39.1145 50.4627C38.7883 51.063 38.5047 51.7059 38.1312 52.2495C37.0676 51.6539 35.971 51.0961 34.8884 50.5194C34.8034 50.7794 34.5765 50.8928 34.5623 51.219C35.8906 51.8571 37.0913 52.6277 38.4621 53.2233C38.8876 52.3819 39.3414 51.5782 39.7574 50.7321ZM58.7178 37.0802C61.8565 37.378 61.6911 32.3957 58.8832 32.528C58.4436 32.5517 58.1458 32.5942 57.848 32.7502C56.2549 33.5822 56.5764 36.8722 58.7178 37.0802ZM58.7745 33.2371C58.7745 33.2371 58.7839 33.1851 58.8265 33.1851C60.9253 33.1 60.722 37.1133 58.5098 36.3239C57.2854 35.8937 57.172 33.412 58.7745 33.2371ZM85.5299 44.5018C86.1869 45.1683 86.8062 45.8679 87.4822 46.5108C87.5862 46.2886 87.8461 46.2272 87.9691 46.0192C87.5294 45.485 86.9527 45.0879 86.5604 44.5018C87.4065 43.6178 88.3756 42.8567 89.1603 41.9066C88.9854 41.7317 88.8861 41.4953 88.6214 41.415C87.6429 42.4975 86.4706 43.3815 85.5299 44.5018ZM45.6095 42.7717C46.7204 43.0742 48.1385 42.4219 48.3181 41.0368C48.5167 39.4438 47.0749 38.1816 45.7655 38.3329C43.0049 38.6496 43.6619 42.2328 45.6095 42.7717ZM45.6095 39.0892C46.5313 38.886 47.3964 39.6329 47.5618 40.4412C47.7414 41.3299 47.1364 42.0768 46.3706 42.124C44.8579 42.2044 43.7565 39.4958 45.6095 39.0892ZM90.7817 50.7841C90.7439 51.7673 91.4435 52.8593 92.5165 52.8451C93.7976 52.8357 94.8706 51.5073 95.8775 51.1717C95.6884 51.011 95.679 50.6754 95.4379 50.5714C94.795 50.8408 93.7834 51.6113 93.0034 51.9233C92.838 51.9942 92.5354 52.1124 92.3605 52.0888C91.8689 52.0179 91.3915 51.2757 91.5427 50.6754C91.6656 50.2216 92.5118 49.9521 92.9467 49.7063C93.5376 49.3801 93.9536 49.0398 94.5208 48.8413C94.4121 48.5671 94.3128 48.2882 94.0859 48.1369C93.2823 49.0162 90.862 49.1769 90.7817 50.7841ZM89.1083 48.5624C90.0679 47.7918 91.0369 47.0355 92.0864 46.3453C92.3038 46.7377 92.63 47.0308 92.8474 47.4279C93.0838 47.3239 93.2681 47.1584 93.443 46.993C92.7103 46.0712 92.0391 45.0738 91.2828 44.1756C91.1693 44.3836 90.8431 44.3836 90.7911 44.6625C91.0322 45.017 91.3395 45.3101 91.5522 45.693C90.621 46.4777 89.6283 47.201 88.6309 47.9147C88.7254 48.1842 88.9239 48.3638 89.1083 48.5624ZM41.2795 47.7493C42.4754 47.5933 43.2081 46.4588 43.2838 45.0454C42.882 44.653 42.4565 44.2891 41.9838 43.9582C41.5347 44.4309 41.0951 44.913 40.7406 45.4756C40.906 45.5796 41.01 45.745 41.1708 45.8537C41.6057 45.6883 41.6671 45.1541 42.0925 44.9934C42.2344 45.1399 42.4376 45.225 42.5274 45.4236C42.3431 46.4966 41.6576 47.1773 40.6886 46.993C38.7316 46.6195 39.0057 43.3295 41.1188 44.1189C41.2275 43.9156 41.3268 43.7076 41.3882 43.4713C39.7479 42.7338 38.3156 44.2512 38.5709 45.8017C38.7599 46.9646 40.1024 47.9053 41.2795 47.7493ZM55.3615 68.2791C53.3714 74.3109 51.4238 80.3757 49.4526 86.4264C54.6335 82.8764 64.9575 75.1948 64.9575 75.1948L80.5475 86.3697L74.6481 68.2224L90.0348 56.9057H70.9562C68.9283 50.8455 64.9434 38.6496 64.9434 38.6496L58.9919 56.9057H39.9228C39.9228 56.9057 50.3366 64.4029 55.3615 68.2791ZM64.9386 74.2731L51.1308 84.252L64.9575 65.2207L64.9386 74.2731ZM70.4315 57.6904H87.468L65.1135 65.0174L70.4315 57.6904ZM73.7169 67.9293L79.0065 84.1149L65.1088 65.145L73.7169 67.9293ZM64.9055 41.4386L64.9717 64.9559L59.649 57.6337L64.9055 41.4386ZM64.8535 65.093L56.2408 67.8537L42.4991 57.7849L64.8535 65.093ZM52.8136 39.0892C52.53 38.1202 52.0809 37.3308 51.7878 36.3759C52.0715 36.6028 52.4118 37.0377 52.8136 37.5151C53.31 38.106 53.8347 39.1034 54.435 38.3282C54.3736 37.4159 54.2365 36.2908 54.331 35.3974C54.6714 36.2719 55.0353 37.118 55.3568 38.002C55.6546 37.9878 55.7917 37.8224 56.0611 37.7846C55.4986 36.3948 55.0353 34.9152 54.331 33.6673C54.0947 33.7949 53.8347 33.8942 53.5699 33.9982C53.5889 35.3501 53.7118 36.3097 53.7307 37.5151C52.9507 36.6548 52.1991 35.7661 51.4569 34.8632C51.126 34.9578 50.8424 35.1043 50.5399 35.2414C51.0599 36.6548 51.594 38.0587 52.218 39.3587C52.3787 39.2311 52.6103 39.1649 52.8136 39.0892ZM44.5837 44.7712C44.787 44.7665 44.9808 44.2229 45.0706 44.1756C44.0117 43.1687 43.1278 42.0011 42.0358 41.0321C41.9035 41.207 41.7616 41.3724 41.5489 41.467C42.0784 42.1571 43.0285 43.1735 43.7707 43.9582C43.9503 44.1472 44.4088 44.7759 44.5837 44.7712ZM92.682 55.0716C93.3201 54.9203 93.8874 54.6792 94.4641 54.4712C95.1637 55.6766 93.9914 56.485 93.4336 57.2319C93.5045 57.5438 93.6321 57.7849 93.7077 58.0969C94.2703 57.5628 94.7808 56.9624 95.1164 56.2014C95.4615 56.4897 95.6364 56.7733 96.0949 56.8017C98.3403 56.953 97.0167 53.9182 96.6385 52.9538C95.211 53.384 93.8637 53.904 92.4598 54.3625C92.4834 54.6461 92.6252 54.8163 92.682 55.0716ZM96.1422 53.8709C96.6007 54.3578 97.1727 56.3479 95.9248 55.9886C95.3764 55.8279 95.4379 54.7738 95.1164 54.2538C95.471 54.1262 95.868 54.0647 96.1422 53.8709ZM93.9299 59.0187C94.4263 59.0423 94.8375 59.1511 95.2819 59.2361C95.4331 59.723 95.4757 60.3092 95.6033 60.8055C95.2299 61.0419 94.8517 61.2735 94.4688 61.5099C94.4452 61.8455 94.5775 62.0204 94.5775 62.3229C96.0051 61.5619 97.2247 60.6023 98.5861 59.7798C98.5909 59.4867 98.4585 59.326 98.4727 59.0187C96.9033 58.7634 95.3622 58.4845 93.8117 58.2104C93.807 58.5224 93.9157 58.7209 93.9299 59.0187ZM97.5509 59.5623C97.168 59.8979 96.6386 60.0823 96.2509 60.4226C96.0571 60.1768 96.0949 59.6852 95.9815 59.3449C96.5487 59.3732 96.9789 59.5387 97.5509 59.5623ZM93.9299 18.8289C91.5238 22.5822 89.0705 26.2835 86.6691 30.0416C87.2174 30.3016 87.6192 30.7175 88.1865 30.9586C90.5453 27.1864 93.0649 23.5607 95.3953 19.7507C94.8801 19.4623 94.431 19.1172 93.9299 18.8289ZM35.9709 60.8623C35.3753 60.711 34.6757 60.6732 34.1888 60.4226C34.2077 59.0849 35.5691 59.066 36.5146 58.6453C36.5098 58.2718 36.6422 58.0496 36.6753 57.7235C35.9142 57.9977 35.1248 58.2576 34.4583 58.6453C34.4961 57.3737 32.8085 57.0948 32.2365 57.8842C31.7166 58.598 31.8773 59.8696 31.5322 60.7015C32.9645 61.023 34.4016 61.3397 35.867 61.6233C35.8622 61.3492 36.0466 61.0325 35.9709 60.8623ZM33.5365 60.3187C33.0591 60.3281 32.7754 60.139 32.3405 60.1012C32.2885 59.2598 33.0165 57.5108 33.6878 58.4278C34.0659 58.9289 33.4798 59.6521 33.5365 60.3187ZM89.5385 16.3377C88.2952 18.914 87.1465 21.5942 85.8513 24.1374C85.9553 21.1924 86.012 17.9024 86.0735 14.6549C85.5582 14.4705 85.1233 14.2058 84.6081 14.0025C82.6274 17.9402 80.8264 22.0575 78.9214 26.0803C79.465 26.3024 79.9377 26.5813 80.4955 26.7846C81.7151 24.232 82.9158 21.3532 84.1732 19.0369C84.0739 22.1331 84.0172 25.2672 83.9605 28.4107C84.4521 28.6565 84.9484 28.8976 85.4779 29.1151C87.3545 25.0876 89.2312 21.0554 91.1126 17.0373C90.5926 16.801 90.1152 16.5173 89.5385 16.3377ZM65.3877 21.4808C63.6198 21.5281 61.7951 21.7219 60.2399 21.807C60.1784 20.6205 60.013 19.2496 60.0224 18.1766C61.6202 18.0584 62.8256 17.9638 64.5699 17.8551C64.5699 17.1177 64.4423 16.4984 64.4659 15.7421C63.0478 15.7374 61.3838 15.9454 59.8617 16.0163C59.7577 14.9432 59.6584 13.6953 59.6443 12.8207C61.2468 12.6978 62.854 12.5702 64.5132 12.4899C64.4706 11.7666 64.4517 11.0103 64.3572 10.3296C62.2773 10.443 59.9421 10.651 57.692 10.7597C58.0229 15.5246 58.316 19.3678 58.6138 24.0854C61.1428 23.9436 63.0951 23.7971 65.487 23.5985C65.4822 22.776 65.3357 22.1615 65.3877 21.4808ZM52.9791 23.2156C52.0667 19.59 51.0977 16.0257 50.1097 12.4851C49.6417 12.4993 49.0177 12.8066 48.4269 12.868C49.5945 17.1886 50.6722 21.6037 51.9533 25.8061C53.759 25.253 55.6593 24.7898 57.5265 24.2934C57.38 23.556 57.1625 22.8895 56.9829 22.1804C55.6782 22.5208 54.2128 22.984 52.9791 23.2156ZM98.2032 37.1937C99.2337 36.5413 100.099 35.7283 101.129 35.0807C102.018 36.3144 102.963 37.4773 103.843 38.7111C104.481 38.3613 104.982 37.8744 105.573 37.4678C104.736 36.1726 103.724 35.0618 102.864 33.7807C103.658 33.0716 104.556 32.476 105.412 31.8379C106.376 33.1473 107.369 34.4236 108.338 35.733C108.972 35.3737 109.458 34.8727 110.078 34.4898C108.754 32.6651 107.431 30.8499 106.008 29.1292C103.124 31.3321 99.7443 33.8847 96.6953 36.1679C96.3738 36.4043 95.4048 37.0235 95.4001 37.1984C95.3906 37.241 95.7593 37.6238 95.9295 37.8507C97.2058 39.5241 98.345 41.0604 99.5079 42.6157C100.146 42.2611 100.647 41.7742 101.238 41.3677C100.288 39.907 99.1297 38.6685 98.2032 37.1937ZM80.2213 12.4379C79.5784 12.3953 79.1294 12.1542 78.4912 12.1164C78.1603 13.9411 77.6829 15.7374 77.248 17.8551C76.9218 19.4245 76.6571 22.4262 75.239 22.8375C73.6034 23.3102 72.9227 22.0055 73.022 20.507C73.1118 19.07 73.6176 17.5195 73.939 15.9595C74.2652 14.376 74.5961 12.8066 74.8561 11.2986C74.2794 11.2324 73.7783 11.0764 73.23 10.9772C73.1685 11.0008 73.126 11.0481 73.126 11.1379C72.8234 12.556 72.4973 14.168 72.1474 15.7988C71.7173 17.8315 70.9846 19.7743 71.2304 22.0859C71.4337 24.0854 73.8256 25.9479 76.0993 24.733C78.1556 23.6411 78.4487 20.6961 79.0301 18.0206C79.4508 16.0541 79.8999 14.1112 80.2213 12.4379ZM128.915 73.4269C127.781 70.7277 125.625 68.402 125.015 65.353C124.855 64.5494 125.313 63.4291 125.611 62.6444C127.01 59.0234 129.312 56.5275 129.672 51.9753C129.818 50.1412 129.544 48.3685 129.076 46.7755C127.663 41.9302 124.183 40.1198 120.354 37.7798C119.031 36.9715 117.145 35.9457 116.677 34.3669C115.911 31.8095 116.081 28.7983 115.807 26.2977C115.533 23.7451 114.767 21.5139 113.472 19.6278C111.018 16.0304 107.516 13.7803 101.403 13.7803C99.8672 13.7803 98.4065 13.7662 97.1255 13.6196C95.5419 13.4447 94.8139 13.1422 93.9819 12.2677C92.6205 10.8306 91.4529 8.79798 90.2475 7.01114C87.8792 3.54618 84.8681 0.757186 79.2476 0.0859375H77.5127C73.8445 0.431016 71.0933 2.42113 68.2003 3.9338C67.3164 4.3876 66.0306 5.10139 65.0048 5.1203C63.6198 5.15339 61.6864 4.08506 60.6133 3.5509C57.8527 2.16586 55.579 0.705188 51.8398 0.412107C45.8979 -0.0606026 42.1965 2.78984 39.8661 6.20281C38.6701 7.96129 37.7342 9.93722 36.4011 11.6721C35.9899 12.2062 35.4321 12.9153 34.8884 13.1942C33.5932 13.8513 31.8631 13.8985 30.2275 14.0025C28.5683 14.1065 26.7767 14.1869 25.2452 14.4327C21.974 14.9621 19.8043 16.2432 17.8756 17.9591C15.9706 19.6467 14.5335 21.9346 13.9757 24.9458C13.4085 28.0184 13.9474 31.923 13.106 34.9105C12.9311 35.5486 11.91 36.3523 11.2718 36.8581C9.30538 38.4275 6.78583 39.7132 4.93281 41.3015C2.3849 43.4996 0.366428 46.9551 0.00244141 50.8408V52.5757C0.342793 56.3715 2.45581 59.1322 3.95902 62.0535C4.42701 62.9564 5.12189 64.3461 4.98481 65.4097C4.81463 66.8846 4.07247 68.3878 3.41541 69.6878C2.03509 72.4342 0.583875 74.6843 0.328611 78.4093C-0.063738 84.1527 2.6638 87.906 6.07204 90.2128C7.14982 90.9455 8.47813 91.6499 9.75445 92.4346C10.7613 93.0491 12.4631 94.0512 13.0634 95.0345C13.399 95.5876 13.5314 96.4479 13.659 97.1475C14.0939 99.5583 13.9332 102.428 14.3114 104.73C14.8266 107.954 16.0415 110.138 17.8283 112.156C19.549 114.099 21.7896 115.541 24.8103 116.103C26.3608 116.396 28.2138 116.377 29.9581 116.434C31.6835 116.486 33.4798 116.321 34.8932 116.968C35.5266 117.261 36.1837 118.046 36.7273 118.703C38.4196 120.731 39.6392 123.203 41.2275 125.094C43.5816 127.902 46.5266 129.519 50.7573 130.076H52.4449C54.955 129.812 56.9356 128.928 58.7839 127.907C60.618 126.886 62.4333 125.586 64.5746 125.151C66.0873 124.834 67.7843 125.836 69.0748 126.446C71.9725 127.826 74.2179 129.396 77.9003 129.75C79.8526 129.939 81.526 129.661 83.2656 129.155C86.3524 128.261 88.3236 126.626 90.1388 123.955C90.8809 122.863 91.6751 121.511 92.4693 120.216C93.1641 119.081 94.067 117.427 95.2299 116.916C97.9621 115.716 101.763 116.231 104.821 115.72C108.007 115.191 110.177 113.924 112.129 112.203C114.034 110.52 115.462 108.318 116.029 105.269C116.629 102.059 115.821 98.5373 116.842 95.2472C117.031 94.6516 117.863 94.056 118.36 93.6211C120 92.2029 122.014 91.1063 123.663 89.9387C126.131 88.1991 127.871 86.2704 129.029 83.3255C129.591 81.8979 130.031 80.1347 129.998 78.3431C129.969 76.4759 129.53 74.8734 128.915 73.4269ZM119.22 87.3955C116.327 94.4341 112.366 100.248 107.681 105.278C102.893 110.435 97.3429 114.416 90.7344 117.739C84.2016 121.024 76.4349 123.312 67.3305 123.638C58.1836 123.969 49.6228 122.159 42.6314 119.303C35.6495 116.462 29.8588 112.307 24.8055 107.717C19.6483 103.014 15.5215 97.4028 12.2976 90.7612C9.09266 84.1622 6.80474 76.3672 6.45021 67.4188C6.07204 58.0922 7.97706 49.6496 10.7755 42.8331C13.6874 35.7425 17.5163 30.155 22.3144 24.9552C30.341 16.2668 41.4402 9.51178 56.0091 7.13404C58.1741 6.78424 60.533 6.61879 62.7263 6.5337C72.0434 6.17444 80.6799 8.04638 87.4774 10.9252C94.4972 13.8938 100.222 17.8551 105.299 22.516C110.442 27.2384 114.469 32.7927 117.759 39.5194C120.912 45.9861 123.238 54.2349 123.607 62.8666C124.013 72.1648 122.07 80.4797 119.22 87.3955ZM100.212 43.528C100.472 44.0763 100.661 44.7003 101.025 45.1494C102.694 44.3316 104.344 43.4902 106.06 42.7197C106.187 43.2538 106.655 43.5658 106.655 44.1189C106.66 45.0028 105.455 46.0475 104.868 46.7188C104.079 47.6264 103.389 48.3685 102.864 49.106C103.242 49.6543 103.441 50.3776 103.843 50.8928C105.166 49.1722 106.849 47.8013 107.903 45.8017C109.964 47.65 114.398 45.4236 114.46 43.0411C114.479 42.0957 113.897 41.1219 113.476 40.2805C113.023 39.3398 112.526 38.4085 112.181 37.7326C108.177 39.6518 104.249 41.6466 100.212 43.528ZM112.29 43.2018C112.139 43.9818 110.702 44.9414 109.633 44.5585C108.645 44.2087 108.593 42.5731 107.955 41.7364C109.014 41.2495 110.059 40.7343 111.094 40.219C111.288 41.0794 112.512 42.0862 112.29 43.2018ZM116.946 40.167C110.612 27.2857 100.794 17.8409 87.3167 11.9982C80.7839 9.17143 72.034 7.13877 63.2132 7.55476C54.1656 7.98965 46.7015 9.96085 40.1403 13.1375C33.6547 16.281 28.0814 20.2848 23.4063 25.2767C18.6745 30.3063 14.9354 35.7141 11.9809 42.7197C9.2392 49.2005 6.99382 57.714 7.42872 66.7617C7.8447 75.5352 9.85372 83.212 13.0067 89.8347C16.1077 96.3439 20.1399 102.012 25.1459 106.625C30.0999 111.201 35.6495 115.186 42.5274 118.103C49.1737 120.93 57.3942 123.043 66.6309 122.603C71.0602 122.395 75.239 121.903 79.1436 120.92C82.9489 119.97 86.4895 118.637 89.7654 117.077C96.2793 113.976 101.933 109.93 106.561 104.942C111.179 99.9696 115.084 94.4389 118.038 87.5515C120.889 80.8863 122.964 72.6706 122.529 63.344C122.113 54.424 120.151 46.681 116.946 40.167ZM41.7097 112.539C41.0715 112.217 40.5137 111.825 39.9228 111.452C40.8682 109.745 41.9555 108.176 42.9576 106.526C41.3078 107.746 39.7054 109.017 38.084 110.265C37.4694 109.977 36.9353 109.613 36.4058 109.235C36.7982 107.249 37.2094 105.278 37.5971 103.279C36.6186 104.701 35.5408 106.488 34.567 108.1C33.9336 107.736 33.338 107.339 32.7234 106.961C34.4772 104.092 36.3018 101.293 38.032 98.4049C38.793 98.8918 39.625 99.3078 40.3057 99.8656C39.8519 102.319 39.3508 104.72 38.845 107.122C40.8257 105.812 42.7827 104.021 44.8579 102.631C45.5575 103.099 46.2808 103.557 47.0276 103.983C45.3022 106.89 43.4918 109.688 41.7097 112.539ZM26.3891 65.9486C26.1055 59.9783 27.7458 54.0222 29.5279 49.867C31.5275 45.1967 33.9099 41.5804 37.2189 38.2715C40.4097 35.0807 43.9834 32.2822 48.4269 30.2023C52.7191 28.198 57.9189 26.5152 64.0263 26.5152C64.0641 26.5152 64.1066 26.5199 64.1397 26.5152C70.2093 26.2268 76.0662 27.7962 80.3253 29.654C84.887 31.6441 88.6876 34.2251 91.8642 37.4017C98.3309 43.8683 103.034 51.9517 103.62 64.2658C103.772 67.3951 103.318 70.411 102.751 73.096C101.096 80.9335 97.4091 87.2159 92.682 91.9477C86.2437 98.386 78.0989 103.113 65.8651 103.699C59.7341 103.988 54.1514 102.376 49.7221 100.504C45.1841 98.5845 41.2889 95.9705 38.1265 92.8127C31.6126 86.2941 26.9611 78.1493 26.3891 65.9486ZM52.6529 115.947C52.5442 115.068 52.5583 114.028 52.4402 113.021C51.4238 112.624 50.2515 112.392 49.2446 111.991C48.4269 112.643 47.9967 113.669 47.1789 114.326C46.5502 114.056 45.8222 113.881 45.1273 113.669C47.3585 110.771 49.7032 107.991 52.062 105.221C52.7049 105.458 53.4281 105.618 54.0616 105.869C54.3121 109.613 54.6525 112.818 54.9361 116.652C54.1656 116.42 53.3809 116.221 52.6529 115.947ZM67.2171 117.682C66.4466 117.673 65.7895 117.559 65.0521 117.517C63.7285 115.21 62.3813 112.941 61.1002 110.587C60.7551 112.827 60.7504 114.685 60.4479 117.086C59.701 117.077 59.0487 116.973 58.3396 116.926C58.6516 113.655 58.869 110.038 59.2566 106.904C60.1075 106.904 60.7693 107.051 61.4831 107.065C62.7689 109.377 64.0405 111.693 65.383 113.948C65.5957 112.175 65.7328 109.58 65.9739 107.5C66.7302 107.5 67.3873 107.604 68.0869 107.661C67.8032 111.026 67.5102 114.231 67.2171 117.682ZM72.1002 117.138C71.566 113.858 70.9846 110.341 70.5308 107.169C71.254 107.098 71.8449 106.989 72.5871 106.848H72.6958C73.2252 110.156 73.7736 113.456 74.2699 116.808C73.5419 116.921 72.8518 117.063 72.1002 117.138ZM78.6519 115.947C77.5978 112.742 76.4444 109.627 75.3997 106.413C76.0615 106.162 76.7422 105.945 77.404 105.708C78.4109 108.171 79.2145 110.842 80.1173 113.404C81.734 112.851 83.3696 112.326 84.9343 111.726C85.2841 112.227 85.3833 112.974 85.6386 113.565C83.2892 114.335 81.0013 115.172 78.6519 115.947ZM94.795 108.147C93.9725 107.58 93.2398 106.923 92.4078 106.351C91.4151 106.952 90.4224 107.547 89.4865 108.199C89.685 109.159 89.8315 110.166 90.0301 111.126C89.3352 111.447 88.6781 112.08 88.021 112.26C87.4585 108.653 86.844 105.098 86.2342 101.539C86.8724 101.218 87.4207 100.806 88.021 100.447C90.9849 102.541 93.8543 104.725 96.7993 106.848C96.1753 107.325 95.419 107.675 94.795 108.147ZM114.02 92.7135C113.713 93.2618 113.453 93.8952 113.103 94.1221C112.645 94.4058 111.817 94.4909 111.203 94.2261C110.116 93.7676 110.016 92.0895 109.69 90.9266C109.359 89.7496 108.962 88.3693 108.225 87.6224C106.391 85.7457 103.337 87.802 101.512 87.9486C100.009 88.062 99.3235 86.6911 99.5079 85.4007C99.6072 84.7058 100.255 83.8029 100.586 83.1789C103.176 78.3242 105.076 71.9237 104.864 64.4927C104.632 56.0926 102.363 49.5645 98.9643 44.0763C95.6317 38.6922 91.2449 34.3338 85.7473 30.9634C80.3301 27.6497 73.7783 25.2341 65.3262 25.1679C56.5433 25.097 49.9773 27.5882 44.6404 30.7979C39.2185 34.0596 34.5859 38.5031 31.258 43.7502C27.7883 49.2194 25.335 55.6105 25.1412 63.9538C24.9521 71.5786 26.7295 77.6246 29.2537 82.796C29.8021 83.9163 30.8562 85.2305 30.3315 86.97C30.1992 87.4333 29.9061 87.9344 29.3057 87.9958C28.0483 88.1424 26.5167 87.4522 25.3492 87.2348C24.1674 87.0173 22.806 86.9133 21.9409 87.8871C21.0097 88.946 20.849 90.9266 20.4802 92.6048C20.2912 93.4604 20.1777 94.1836 19.341 94.4956C18.5894 94.7934 17.7527 94.7225 16.8498 94.2261C12.2078 86.2893 8.72867 77.1188 8.72867 65.4097C8.72867 53.5022 12.0093 44.1047 16.5851 36.3806C23.4016 24.8607 33.8059 16.1723 47.5051 11.5728C51.0409 10.3863 54.8084 9.55432 58.9919 9.12888C66.0211 8.41036 73.9437 9.12415 80.0606 10.807C85.0713 12.1873 89.4865 14.2152 93.3863 16.4937C101.394 21.1783 107.861 27.4984 112.663 35.1799C117.334 42.6488 121.276 52.3913 121.276 64.4312C121.281 76.1355 118.355 85.0603 114.02 92.7135ZM46.3706 25.7068C44.8154 22.3411 43.3972 18.8289 41.7711 15.5199C41.2748 15.7894 40.665 15.9406 40.2537 16.281C42.0122 20.351 43.8652 24.336 45.6142 28.4202C47.4247 27.6449 49.2116 26.8366 50.9795 26.0283C50.7573 25.3287 50.3886 24.7803 50.157 24.0807C48.8334 24.5581 47.6658 25.201 46.3706 25.7068ZM110.394 52.4622C110.295 53.1524 110.38 54.2018 109.96 54.8967C109.6 55.497 108.329 55.8657 107.582 55.5537C106.906 55.2701 106.599 54.5658 106.599 53.8709C106.599 52.4149 107.922 51.9328 109.042 51.4884C108.806 51.0299 108.612 50.5241 108.447 49.971C106.405 50.5808 104.528 51.3797 104.448 53.7149C104.254 58.5554 111.132 58.2104 112.351 54.8967C112.758 53.7953 112.437 52.0368 112.994 51.2143C113.774 50.0798 116.351 50.6376 115.864 52.7317C115.514 53.4975 114.772 53.8851 113.864 54.0883C113.978 54.7029 114.271 55.133 114.403 55.7145C116.54 55.1047 118.303 54.1876 117.977 51.6539C117.759 49.9049 116.398 48.8271 114.403 48.8838C112.011 48.9594 110.669 50.4059 110.394 52.4622ZM118.955 71.3139C117.093 71.7488 114.795 72.2309 112.829 72.6658C112.125 72.8266 111.373 73.1575 110.825 73.1527C110.442 73.1527 109.903 72.9684 109.468 72.8833C108.031 72.6091 106.802 72.2924 105.351 72.075C105.247 72.6469 105.119 73.2095 105.034 73.8051C105.979 73.9563 106.844 74.1691 107.738 74.3487C108.655 74.5283 109.671 74.5189 110.498 74.8403C111.061 75.0436 111.661 75.6723 112.238 76.0835C114.011 77.3693 115.779 78.6125 117.495 79.7659C117.58 79.0805 117.693 78.414 117.873 77.8231C116.303 76.7264 114.498 75.5919 113.108 74.5189C115.013 74.1502 116.837 73.7011 118.738 73.3276C118.78 73.0109 118.823 72.6233 118.898 72.2451C118.96 71.919 119.22 71.4273 118.955 71.3139ZM117.107 64.7054C113.543 64.677 109.86 64.5541 106.003 64.5447C105.889 65.0268 105.979 65.7123 105.951 66.2795C109.619 66.4308 113.557 66.3221 117.164 66.549C117.069 67.3762 117.126 68.3453 117.107 69.2576C117.821 69.2623 118.582 69.2198 119.22 69.3096C119.348 66.9366 119.305 64.4076 119.381 61.9968H117.329C117.055 62.46 117.296 63.8923 117.107 64.7054ZM105.842 61.023C110.163 60.5219 114.597 59.9783 119.059 59.3969C118.936 58.8438 119.059 58.0307 118.738 57.6668C114.436 58.2151 109.874 58.7398 105.63 59.2881C105.686 59.879 105.733 60.4794 105.842 61.023ZM102.543 25.6548C99.7443 27.5551 96.9931 29.4932 94.1474 31.3368C95.783 28.4107 97.3665 25.4279 99.0163 22.5113C98.6476 21.9819 98.1323 21.5895 97.6123 21.2161C95.5182 25.2814 93.3532 29.2616 91.278 33.3458C91.6562 33.7429 92.0107 34.1636 92.5212 34.4331C96.3266 31.9324 100.075 29.3845 103.899 26.9028C103.54 26.3923 103.049 26.0094 102.543 25.6548ZM22.9667 70.2881C22.1725 69.8012 20.5748 69.4136 19.1756 69.5838C16.2164 69.9336 12.7373 70.6946 11.5933 72.8313C10.7282 74.448 11.8107 76.457 11.9762 78.518C16.4197 77.7569 20.6693 76.8115 25.0844 76.0221C24.5786 73.6774 24.6543 71.3044 22.9667 70.2881ZM13.8103 76.4097C13.659 75.573 13.3943 74.845 13.4321 73.8051C13.971 72.4484 16.6229 71.5833 18.7927 71.4179C20.1399 71.3233 21.5344 71.4652 22.0449 72.2357C22.4845 72.8927 22.3805 73.7294 22.6453 74.6701C19.7192 75.261 16.7411 75.8094 13.8103 76.4097ZM23.8365 60.3754C23.0754 60.3943 22.3711 60.3659 21.6667 60.3187C21.5817 62.0535 21.714 63.7931 21.506 65.4617C20.745 65.353 18.9203 65.5185 17.9276 65.301C17.9796 63.8356 17.9371 62.3324 18.0411 60.8008C17.4265 60.6779 16.5804 60.7819 15.876 60.7488C15.7342 62.1953 15.928 63.9774 15.7153 65.3483C14.595 65.2727 13.763 65.3577 12.5671 65.2443C12.5387 63.5662 12.6663 62.0535 12.6238 60.3707C11.9053 60.3896 11.234 60.3517 10.5722 60.3139C10.5013 60.3376 10.4588 60.3801 10.4635 60.4746C10.4966 62.6728 10.3548 65.1734 10.4115 67.0311C14.8692 67.0784 19.2796 67.1824 23.7278 67.2486C23.723 64.9039 23.8176 62.7909 23.8365 60.3754ZM23.1321 53.2753C19.5963 52.1739 16.0604 51.0677 12.4631 50.0278C12.3307 50.6186 12.1133 51.1197 11.9762 51.7059C16.2448 52.9964 20.4991 54.3105 24.7583 55.6057C25.2641 53.6818 25.907 51.8855 26.4317 49.971C25.7557 49.7819 25.1128 49.5645 24.4274 49.3801C23.8979 50.5666 23.6569 52.0651 23.1321 53.2753ZM50.4311 110.473C51.0835 110.62 51.6602 110.842 52.27 111.022C52.1896 110.142 52.2085 109.169 52.0573 108.365C51.5373 109.093 50.8755 109.674 50.4311 110.473ZM50.3224 99.2132C54.5957 101.062 59.9799 102.465 65.8699 102.187C77.5505 101.638 85.459 97.1617 91.7035 90.9219C96.232 86.3933 99.7443 80.1725 101.351 72.6658C101.9 70.1132 102.302 67.3384 102.165 64.3745C101.616 52.6891 97.1538 44.6909 90.9519 38.4842C87.884 35.421 84.1732 32.9771 79.8006 31.0059C75.7637 29.2002 70.0061 27.7017 64.1917 27.9758C58.297 28.2595 53.3383 29.4649 49.1359 31.4975C40.717 35.5723 34.6143 41.7979 30.8799 50.4532C29.0836 54.6225 27.5756 60.2241 27.8498 65.9439C28.3981 77.53 32.8889 85.4479 39.1665 91.7302C42.2249 94.7934 45.9215 97.3035 50.3224 99.2132ZM30.2322 73.9138C28.8756 68.6714 28.8945 61.4721 30.2322 56.2533C33.0401 45.3007 40.2868 37.066 49.7835 32.6368C51.7878 31.7055 53.8488 30.9492 56.1226 30.3677C59.2992 29.5452 63.0289 29.1056 67.0138 29.2805C72.1096 29.5027 76.6996 30.9539 80.5475 32.8022C89.8835 37.2882 96.9505 45.329 99.7821 56.2533C101.276 62.0535 101.21 69.6074 99.3992 75.1618C98.6476 75.0341 98.0472 74.7458 97.2862 74.8403C95.5135 75.0341 95.0124 76.9061 93.9819 77.8656C94.5303 77.01 94.7572 75.7574 95.3386 74.8403C95.8633 74.0083 96.4684 73.6822 96.5818 72.3444C96.7756 69.9856 95.868 68.8274 95.2252 67.0879C93.807 68.6242 93.4052 72.2877 94.3081 74.7316C94.1663 74.9254 94.223 75.2941 94.0859 75.4927C93.9063 73.772 92.7671 73.0156 92.4598 71.4226C91.6656 72.0513 90.7391 73.616 91.1646 75.0578C91.5002 76.2253 92.2802 77.5678 92.5685 78.5747C92.5827 78.5322 92.6253 78.5227 92.6253 78.4707C92.5402 78.9056 92.11 79.4681 91.8642 79.9314C91.8736 78.0406 90.3232 77.1944 90.517 75.4927C89.6803 76.0457 88.853 77.2275 88.8908 78.5747C88.9145 79.2791 89.3163 79.8983 89.5432 80.5837C89.7843 81.3259 89.7984 82.0491 90.0773 82.6353C89.8174 83.0655 89.5337 83.5004 89.1603 83.8313C89.009 82.6968 88.2243 81.6899 88.6214 80.3616C87.364 81.1321 86.2531 81.8553 86.3997 83.8833C86.4422 84.4127 86.6455 84.9469 86.7258 85.4574C86.7731 85.7694 86.8724 86.2893 86.8345 86.4832C86.7306 86.9984 85.9742 87.2915 85.752 87.5137C85.7189 86.3886 85.5204 85.4243 85.5913 84.2094C82.9914 84.4458 83.0387 87.1686 82.93 89.9529C82.2965 90.3641 81.7151 90.8274 81.0344 91.1961C81.1289 89.863 81.3369 88.6482 81.9042 87.7784C78.8316 87.3671 78.1178 90.3783 77.8956 92.9782C77.1629 93.2382 76.5389 93.5975 75.7826 93.848C76.3215 92.5622 76.6524 91.0732 77.5127 90.1088C76.2695 89.9245 75.0972 90.0805 74.4306 90.6525C73.8114 91.1772 73.575 92.1179 73.1874 92.9262C72.7762 93.7629 72.2562 94.4389 71.8827 95.0959C71.1217 95.2236 70.4079 95.3937 69.661 95.5308C70.9184 94.4294 71.4147 92.5528 72.5256 91.3048C71.2351 91.007 69.8643 91.0826 69.1174 91.683C68.4887 92.1982 68.153 93.0491 67.6567 93.7913C67.1556 94.5429 66.6026 95.2094 66.196 95.857C65.4728 95.7814 64.8724 96.1123 64.187 95.909C63.9176 95.8239 63.5347 95.1858 63.2747 94.8218C62.9532 94.3916 62.6271 94.0512 62.4049 93.6873C61.9511 92.9546 61.6675 92.0848 61.0482 91.6215C60.2966 91.0732 59.1007 91.0259 57.692 91.3001C58.7178 92.5858 59.4032 94.505 60.5093 95.5261C59.8475 95.5686 59.0912 95.2567 58.3443 95.1999C58.0276 94.4389 57.3894 93.7723 56.9924 92.9215C56.6756 92.2502 56.496 91.5222 56.0706 90.9739C55.4135 90.1278 54.2412 89.9481 52.7143 90.0568C52.9932 90.6194 53.4329 91.1488 53.6928 91.8957C53.9292 92.6189 54.227 93.3422 54.5012 94.0087C53.7212 93.7818 53.0925 93.3989 52.3314 93.1436C52.0147 90.3547 51.5657 87.4806 48.3276 87.7784C48.9279 88.6954 49.0319 90.1088 49.2494 91.4088C48.5356 90.9834 47.8218 90.5626 47.2451 90.0048C47.1884 87.2631 47.212 84.4316 44.6452 84.2047C44.6641 85.2305 44.5034 86.4642 44.4277 87.5609C44.2765 87.6933 44.059 87.3057 43.8888 87.1355C43.6856 86.9322 43.402 86.7715 43.3452 86.5352C43.4114 85.4007 43.9077 84.3749 43.8321 83.2924C43.7376 81.7891 42.6787 80.9808 41.6151 80.3616C41.9885 81.7277 41.1613 82.64 41.0762 83.8833C40.6697 83.524 40.3813 83.0655 40.093 82.5786C40.4664 82.0586 40.4144 81.2928 40.6366 80.579C40.8257 79.9692 41.2133 79.4634 41.2889 78.9009C41.5064 77.3031 40.5799 76.2301 39.7148 75.4312C39.8377 77.4497 38.3345 77.8373 38.4243 79.8179C38.0509 79.5438 37.9469 78.9907 37.6585 78.6314C37.8807 77.3882 38.8876 76.0315 39.1239 74.8403C39.3886 73.4931 38.5614 72.2262 37.7672 71.3706C37.5593 72.7509 36.3822 73.6302 36.1931 75.2137C35.6117 74.6465 36.0797 73.7578 36.1459 72.8313C36.3066 70.4441 35.6495 68.6667 34.7892 67.3053C33.4703 69.234 32.2271 74.2683 35.2241 75.2705C35.5361 76.249 36.0182 77.0715 36.3538 78.0264C35.1343 77.1708 34.7277 75.0719 32.8936 74.8356C32.1136 74.7316 31.4849 75.0294 30.7239 75.157C31.7969 76.4475 32.4634 79.0758 34.6805 79.2696C35.555 79.3452 35.9946 78.9482 36.7935 78.8394C37.3938 80.0212 38.0792 81.1321 38.741 82.2477C37.7342 81.0139 35.0633 80.1488 33.5459 81.4961C33.8059 81.9924 34.3401 82.1531 34.8412 82.5738C35.6968 83.3065 36.1742 84.3323 37.3938 84.4789C38.2825 84.5781 39.001 84.1196 39.8283 83.8785C40.4948 84.616 41.0904 85.4337 41.7191 86.209C40.4428 85.2068 38.1832 85.9395 37.4411 86.9133C37.8334 87.2915 38.3534 87.2915 38.8498 87.6177C39.7148 88.1802 40.1733 89.0642 41.2889 89.0783C42.1871 89.0878 42.7307 88.4165 43.402 87.9911C44.3096 88.738 45.1084 89.5747 46.0539 90.2696C44.5175 89.4612 42.3147 90.383 41.7191 91.6782C42.206 91.9004 42.6834 91.8579 43.1845 92.0564C43.9834 92.3873 44.5743 93.3469 46.0019 93.0869C46.8527 92.9357 47.2167 92.0659 47.8454 91.5742C48.5545 92.0517 49.273 92.5102 50.0672 92.9215C49.0508 93.0727 48.1763 92.9498 47.5193 93.3611C46.9047 93.744 46.7724 94.4767 46.3848 95.0912C47.8407 95.3985 49.9915 96.2021 51.2111 95.2567C51.6177 94.9399 51.7264 94.4672 52.0195 93.9567C52.634 94.212 53.2154 94.4909 53.863 94.7178C52.322 94.9683 51.6886 96.1217 51.3671 97.5871C53.0641 97.814 55.2859 97.9842 56.2408 96.826C56.4866 96.5282 56.5291 96.1028 56.7324 95.6868C57.2098 95.7861 57.6211 95.9515 58.141 96.0177C57.0538 96.637 56.5622 97.8377 56.4015 99.374C58.6847 98.9012 61.4595 99.0289 61.8187 96.6133C63.7379 96.8875 66.2953 96.793 68.3752 96.6133C68.6163 99.0572 71.4856 98.8776 73.6838 99.374C73.6459 97.8707 73.0409 96.4904 71.8449 95.961C72.4405 95.9232 72.8376 95.6868 73.4143 95.6395C73.5514 96.0981 73.6648 96.4668 73.9012 96.7741C74.8135 97.9606 76.8036 97.7998 78.7748 97.6391C78.4392 96.117 77.8247 94.8785 76.1182 94.7178C76.7186 94.3916 77.4513 94.2025 78.0138 93.848C78.4392 94.316 78.4723 94.9778 78.9308 95.3134C80.2261 96.2352 82.2114 95.3323 83.7572 95.1479C83.2987 93.5549 82.2256 92.7749 79.8526 92.9782C80.6042 92.4677 81.4787 92.0753 82.1831 91.5175C83.0198 92.392 83.9794 93.5785 85.7 92.8695C86.4753 92.5528 87.2222 91.7539 88.3519 91.6782C87.7705 90.2223 85.251 89.3809 83.6958 90.4917C84.7499 89.7165 85.6906 88.8373 86.6738 87.9958C87.3971 88.3551 87.8083 89.0405 88.7348 89.0831C90.3421 89.154 91.1599 87.2253 92.6347 87.0315C92.214 86.0057 89.789 85.1974 88.5221 86.157C89.0043 85.4668 89.7323 84.5592 90.413 83.888C91.1315 84.1669 91.7933 84.5498 92.6347 84.4883C93.9914 84.3796 94.4452 83.2404 95.4048 82.4793C95.8539 82.12 96.2982 81.9641 96.5913 81.5575C95.3764 80.2434 92.6252 80.891 91.6089 82.0491C92.3038 81.0564 92.8663 79.9503 93.5045 78.9056C94.223 79.0143 94.6106 79.3358 95.4048 79.2791C97.5887 79.1278 98.156 76.7217 99.2952 75.3792C97.1869 82.5597 93.1641 88.3409 87.7563 92.7655C82.2634 97.2562 75.3099 100.49 66.144 100.896C59.597 101.18 54.0521 99.5583 49.5141 97.4264C41.8987 93.8433 36.0135 87.7406 32.506 80.2008C31.5889 78.2249 30.809 76.1592 30.2322 73.9138ZM16.2495 40.3325C19.6814 43.3815 23.0234 46.525 26.4884 49.5409C26.7247 48.9594 27.0793 48.5056 27.2967 47.9147C26.3749 46.9646 25.231 46.2319 24.3754 45.2014C24.9048 44.4356 25.2593 43.4855 25.784 42.7197C27.1029 42.9797 28.3225 43.3484 29.6272 43.6367C29.8777 43.0222 30.2464 42.5211 30.497 41.9066C26.0346 40.8808 21.5533 39.8692 17.124 38.8151C16.7506 39.2358 16.5473 39.8314 16.2495 40.3325ZM23.7278 42.1713C23.4205 42.7575 23.118 43.3342 22.8107 43.9109C21.7755 43.0506 20.8253 42.1051 19.7759 41.2543C21.0239 41.4103 22.3994 41.9113 23.7278 42.1713ZM90.7344 105.221C90.1435 104.593 89.2832 103.959 88.6214 103.595C88.8199 104.423 88.9665 105.311 89.1083 106.2C89.685 105.907 90.1672 105.529 90.7344 105.221ZM32.2318 29.6067C31.3857 29.602 30.6435 29.9518 30.0101 30.259C29.4759 30.5143 28.7101 31.1241 27.8971 31.0106C27.1265 30.9114 26.4411 30.0038 26.5924 29.1198C26.6869 28.5856 27.3109 27.9191 27.8971 27.8151C28.9701 27.6308 29.3577 28.406 30.1188 28.7936C30.3788 28.2547 30.842 27.9286 31.0926 27.3802C30.0148 26.5246 29.0127 25.6312 27.2967 25.8628C25.8171 26.0614 24.3943 27.6118 24.6448 29.498C24.867 31.1524 26.6018 33.0102 28.5447 33.0764C30.4024 33.1189 31.466 31.4881 33.0449 31.715C33.9478 31.8473 34.775 32.84 34.5623 33.9367C34.3732 34.8916 33.215 35.5392 32.1751 35.3501C31.4282 35.213 30.9839 34.5796 30.3882 34.2629C30.0715 34.7261 29.7312 35.1563 29.4097 35.6148C30.6246 36.5272 31.4991 37.638 33.5318 37.4017C34.4016 37.2977 35.2383 36.7446 35.7488 36.1584C37.8949 33.6767 35.243 29.6209 32.2318 29.6067ZM33.1489 20.559C34.7939 24.8607 36.3917 29.2049 38.084 33.4545C38.5283 33.0291 39.1712 32.8069 39.5494 32.32C39.0719 31.1288 38.6039 29.9423 38.136 28.7416C38.4999 28.4107 38.8403 28.2169 39.3319 27.8766C39.4974 27.7537 40.3766 26.9926 40.5799 27.0115C40.6413 27.0115 41.2228 27.5598 41.3362 27.6544C42.1587 28.3587 42.83 29.0631 43.6147 29.6067C44.059 29.1671 44.6735 28.8929 45.1321 28.4675C41.5773 25.5414 38.1218 22.5113 34.5103 19.6372C34.0517 19.9445 33.6263 20.2754 33.1489 20.559ZM38.9538 25.6028C38.4669 26.0424 37.9091 26.4017 37.3276 26.7421C36.8502 25.461 36.3397 24.2178 35.8622 22.9509C36.9116 23.8018 37.876 24.7519 38.9538 25.6028Z" fill="#006937"/>
</g>
<defs>
<clipPath id="clip0_263_1490">
<rect width="129.995" height="130" fill="white" transform="translate(0.00244141 0.0859375)"/>
</clipPath>
</defs>
</svg>
