<svg width="302" height="71" viewBox="0 0 302 71" fill="none" xmlns="http://www.w3.org/2000/svg">
<g clip-path="url(#clip0_263_1437)">
<path d="M91.6528 37.9136V17.4736H100.345C101.299 17.4736 102.14 17.6696 102.953 18.0616C103.738 18.4536 104.439 18.9576 105.028 19.6296C105.617 20.2736 106.066 21.0016 106.402 21.8136C106.738 22.6256 106.879 23.4376 106.879 24.2776C106.879 25.4256 106.598 26.5176 106.066 27.5536C105.533 28.5896 104.776 29.4296 103.85 30.0736C102.897 30.7176 101.803 31.0536 100.514 31.0536H95.6626V37.9136H91.6528ZM95.6346 27.5816H100.261C100.738 27.5816 101.187 27.4416 101.551 27.1896C101.944 26.9096 102.252 26.5456 102.476 26.0136C102.701 25.5096 102.813 24.9216 102.813 24.2776C102.813 23.5776 102.673 22.9616 102.42 22.4576C102.168 21.9536 101.831 21.5896 101.411 21.3376C100.99 21.0856 100.542 20.9736 100.065 20.9736H95.6346V27.5816Z" fill="#223843"/>
<path d="M113.552 17.4736L118.6 27.0776L123.731 17.4736H128.021L120.59 30.7736V37.9136H116.637V30.7176L109.234 17.4736H113.552Z" fill="#223843"/>
<path d="M147.733 20.9736H141.2V37.9416H137.246V20.9736H130.713V17.4736H147.761V20.9736H147.733Z" fill="#223843"/>
<path d="M169.661 17.4736V37.9136H165.707V29.2056H156.426V37.9416H152.444V17.5016H156.426V25.7616H165.707V17.4736H169.661Z" fill="#223843"/>
<path d="M184.831 38.0543C183.345 38.0543 181.971 37.7743 180.737 37.1863C179.503 36.5983 178.466 35.8423 177.596 34.8343C176.727 33.8543 176.054 32.7343 175.549 31.5023C175.073 30.2703 174.82 28.9823 174.82 27.6943C174.82 26.3223 175.073 25.0343 175.577 23.8023C176.082 22.5703 176.783 21.4503 177.68 20.4983C178.578 19.5183 179.643 18.7623 180.849 18.2023C182.083 17.6423 183.401 17.3623 184.859 17.3623C186.345 17.3623 187.691 17.6703 188.897 18.2583C190.13 18.8463 191.168 19.6583 192.037 20.6383C192.906 21.6463 193.579 22.7383 194.056 23.9703C194.533 25.2023 194.785 26.4623 194.785 27.7783C194.785 29.1223 194.533 30.4103 194.028 31.6423C193.523 32.8743 192.822 33.9943 191.925 34.9463C191.028 35.9263 189.962 36.6823 188.756 37.2423C187.607 37.7743 186.261 38.0543 184.831 38.0543ZM178.886 27.6943C178.886 28.5903 179.026 29.4303 179.279 30.2703C179.559 31.0823 179.924 31.8383 180.456 32.4823C180.961 33.1263 181.578 33.6303 182.335 33.9943C183.064 34.3583 183.905 34.5543 184.859 34.5543C185.812 34.5543 186.681 34.3583 187.438 33.9663C188.196 33.5743 188.812 33.0423 189.317 32.3703C189.822 31.6983 190.186 30.9703 190.467 30.1583C190.719 29.3463 190.859 28.5343 190.859 27.6943C190.859 26.7983 190.719 25.9583 190.439 25.1463C190.158 24.3343 189.766 23.6063 189.261 22.9623C188.756 22.3183 188.139 21.8143 187.382 21.4503C186.653 21.0863 185.812 20.8903 184.887 20.8903C183.905 20.8903 183.036 21.0863 182.307 21.4783C181.578 21.8703 180.933 22.4023 180.456 23.0463C179.952 23.6903 179.587 24.4183 179.307 25.2303C179.026 26.0423 178.886 26.8543 178.886 27.6943Z" fill="#223843"/>
<path d="M204.038 24.7816V37.9136H200.057V17.4736H203.225L213.796 30.9416V17.5016H217.778V37.9136H214.469L204.038 24.7816Z" fill="#223843"/>
<path d="M237.967 17.4736H242.005L249.519 37.9136H245.426L243.715 32.8176H236.2L234.49 37.9136H230.396L237.967 17.4736ZM242.818 30.0176L240.014 21.5896L237.182 30.0176H242.818Z" fill="#223843"/>
<path d="M265.895 22.822C265.755 22.682 265.503 22.514 265.166 22.262C264.802 22.038 264.381 21.814 263.876 21.59C263.371 21.366 262.811 21.198 262.222 21.03C261.633 20.862 261.016 20.778 260.399 20.778C259.334 20.778 258.52 20.974 257.96 21.366C257.399 21.758 257.147 22.318 257.147 23.046C257.147 23.606 257.315 24.026 257.679 24.362C258.016 24.698 258.549 24.95 259.25 25.202C259.951 25.426 260.82 25.678 261.857 25.958C263.203 26.294 264.381 26.686 265.362 27.134C266.344 27.61 267.101 28.226 267.634 28.982C268.166 29.738 268.419 30.746 268.419 31.978C268.419 33.07 268.222 33.994 267.802 34.778C267.409 35.562 266.848 36.178 266.119 36.654C265.418 37.13 264.605 37.494 263.708 37.69C262.811 37.914 261.829 38.026 260.82 38.026C259.81 38.026 258.773 37.914 257.763 37.718C256.754 37.494 255.773 37.214 254.819 36.822C253.866 36.43 253.025 35.954 252.211 35.394L253.978 31.978C254.146 32.146 254.455 32.37 254.903 32.65C255.352 32.93 255.885 33.21 256.53 33.49C257.175 33.77 257.848 33.994 258.605 34.19C259.362 34.386 260.119 34.47 260.876 34.47C261.941 34.47 262.783 34.302 263.315 33.938C263.876 33.574 264.157 33.07 264.157 32.398C264.157 31.782 263.932 31.306 263.484 30.97C263.035 30.634 262.418 30.326 261.633 30.074C260.848 29.822 259.923 29.542 258.829 29.234C257.539 28.87 256.474 28.478 255.604 28.002C254.735 27.554 254.09 26.994 253.67 26.294C253.249 25.594 253.025 24.754 253.025 23.718C253.025 22.318 253.361 21.142 254.006 20.218C254.679 19.266 255.576 18.566 256.698 18.062C257.819 17.586 259.081 17.334 260.483 17.334C261.437 17.334 262.362 17.446 263.203 17.642C264.044 17.866 264.858 18.118 265.615 18.482C266.372 18.818 267.045 19.21 267.634 19.602L265.895 22.822Z" fill="#223843"/>
<path d="M273.522 37.9136V17.4736H277.504V37.9136H273.522Z" fill="#223843"/>
<path d="M289.505 17.4736H293.543L301.058 37.9136H296.964L295.253 32.8176H287.738L286.028 37.9136H281.934L289.505 17.4736ZM294.328 30.0176L291.524 21.5896L288.692 30.0176H294.328Z" fill="#223843"/>
<path d="M95.5503 58.5501C94.8212 58.5501 94.1763 58.4101 93.6155 58.1301C93.0267 57.8501 92.5219 57.4581 92.1013 56.9541C91.6807 56.4501 91.3443 55.9181 91.1199 55.3021C90.8956 54.6861 90.7834 54.0421 90.7834 53.3981C90.7834 52.7261 90.8956 52.0821 91.148 51.4661C91.4003 50.8501 91.7368 50.2901 92.1574 49.8141C92.578 49.3381 93.1108 48.9461 93.6716 48.6661C94.2604 48.3861 94.8773 48.2461 95.5783 48.2461C96.3074 48.2461 96.9523 48.3861 97.5131 48.6941C98.102 49.0021 98.6067 49.3941 99.0273 49.8701C99.4479 50.3741 99.7844 50.9061 100.009 51.5221C100.233 52.1381 100.345 52.7541 100.345 53.3981C100.345 54.0701 100.233 54.7141 99.9807 55.3301C99.7283 55.9461 99.3918 56.5061 98.9712 56.9821C98.5226 57.4581 98.0178 57.8501 97.457 58.1301C96.8682 58.4101 96.2233 58.5501 95.5503 58.5501ZM92.0733 53.3981C92.0733 53.9021 92.1574 54.4061 92.3257 54.8821C92.4939 55.3581 92.7182 55.7781 93.0267 56.1701C93.3351 56.5341 93.6996 56.8421 94.1202 57.0661C94.5408 57.2901 95.0175 57.4021 95.5503 57.4021C96.0831 57.4021 96.5878 57.2901 97.0084 57.0661C97.429 56.8421 97.7935 56.5341 98.102 56.1421C98.4104 55.7501 98.6347 55.3301 98.803 54.8541C98.9712 54.3781 99.0273 53.9021 99.0273 53.3981C99.0273 52.8941 98.9432 52.3901 98.7749 51.9141C98.6067 51.4381 98.3824 51.0181 98.0459 50.6261C97.7374 50.2621 97.3729 49.9541 96.9523 49.7301C96.5317 49.5061 96.055 49.3941 95.5503 49.3941C95.0175 49.3941 94.5128 49.5061 94.0922 49.7301C93.6716 49.9541 93.3071 50.2621 92.9986 50.6261C92.6902 51.0181 92.4659 51.4381 92.2976 51.9141C92.1574 52.4181 92.0733 52.8941 92.0733 53.3981Z" fill="#223843"/>
<path d="M111.617 58.4658V48.3018H115.964C116.412 48.3018 116.833 48.3858 117.197 48.5818C117.562 48.7778 117.898 49.0298 118.179 49.3378C118.459 49.6458 118.684 50.0098 118.824 50.3738C118.964 50.7658 119.048 51.1578 119.048 51.5498C119.048 52.0258 118.964 52.4738 118.796 52.8938C118.627 53.3138 118.375 53.6778 118.039 53.9578C117.73 54.2658 117.338 54.4618 116.917 54.5738L119.385 58.4658H117.926L115.599 54.8258H112.907V58.4658H111.617ZM112.907 53.6778H115.992C116.356 53.6778 116.665 53.5938 116.917 53.3978C117.169 53.2018 117.394 52.9498 117.534 52.6138C117.674 52.2778 117.758 51.9418 117.758 51.5778C117.758 51.1858 117.674 50.8498 117.506 50.5138C117.338 50.2058 117.113 49.9258 116.833 49.7578C116.553 49.5618 116.244 49.4778 115.908 49.4778H112.907V53.6778Z" fill="#223843"/>
<path d="M134.611 58.5498C133.938 58.5498 133.321 58.4098 132.732 58.1018C132.143 57.8218 131.638 57.4298 131.218 56.9258C130.797 56.4218 130.461 55.8898 130.208 55.2738C129.956 54.6578 129.844 54.0138 129.844 53.3698C129.844 52.6698 129.956 52.0258 130.208 51.4098C130.461 50.7938 130.769 50.2618 131.218 49.7578C131.638 49.2818 132.143 48.9178 132.732 48.6378C133.321 48.3578 133.938 48.2178 134.611 48.2178C135.592 48.2178 136.405 48.4138 137.05 48.8338C137.695 49.2538 138.172 49.7858 138.508 50.4298L137.527 51.1298C137.218 50.5418 136.826 50.0938 136.321 49.8138C135.816 49.5338 135.227 49.3938 134.611 49.3938C134.106 49.3938 133.629 49.5058 133.209 49.7298C132.788 49.9538 132.423 50.2338 132.115 50.6258C131.807 50.9898 131.582 51.4378 131.414 51.9138C131.246 52.3898 131.19 52.8938 131.19 53.3978C131.19 53.9298 131.274 54.4618 131.442 54.9378C131.61 55.4138 131.863 55.8338 132.199 56.1978C132.536 56.5618 132.9 56.8418 133.321 57.0658C133.741 57.2618 134.218 57.3738 134.723 57.3738C135.312 57.3738 135.872 57.2338 136.377 56.9258C136.91 56.6178 137.387 56.1698 137.863 55.5538V56.8978C136.938 57.9898 135.844 58.5498 134.611 58.5498ZM137.695 54.3778H135.508V53.3978H138.789V58.4658H137.695V54.3778Z" fill="#223843"/>
<path d="M153.313 48.3301H154.407L158.557 58.4941H157.183L156.033 55.5261H151.659L150.509 58.4941H149.135L153.313 48.3301ZM155.669 54.4901L153.874 49.7861L152.079 54.4901H155.669Z" fill="#223843"/>
<path d="M170.698 50.6818V58.4658H169.408V48.3018H170.502L176.727 56.2538V48.3298H178.017V58.4658H176.839L170.698 50.6818Z" fill="#223843"/>
<path d="M189.934 58.4658V48.3018H191.224V58.4658H189.934Z" fill="#223843"/>
<path d="M202.384 57.4861L208.945 49.4781H202.524V48.3301H210.459V49.3381L204.01 57.3461H210.459V58.4941H202.384V57.4861Z" fill="#223843"/>
<path d="M224.76 48.3301H225.854L230.004 58.4941H228.63L227.48 55.5261H223.106L221.956 58.4941H220.582L224.76 48.3301ZM227.087 54.4901L225.293 49.7861L223.498 54.4901H227.087Z" fill="#223843"/>
<path d="M247.22 49.4498H243.715V58.4658H242.425V49.4498H238.92V48.3018H247.22V49.4498Z" fill="#223843"/>
<path d="M258.156 58.4658V48.3018H259.446V58.4658H258.156Z" fill="#223843"/>
<path d="M275.513 58.5501C274.784 58.5501 274.139 58.4101 273.578 58.1301C272.989 57.8501 272.485 57.4581 272.064 56.9541C271.643 56.4501 271.307 55.9181 271.083 55.3021C270.858 54.6861 270.746 54.0421 270.746 53.3981C270.746 52.7261 270.858 52.0821 271.111 51.4661C271.363 50.8501 271.699 50.2901 272.12 49.8141C272.541 49.3381 273.073 48.9461 273.634 48.6661C274.223 48.3861 274.84 48.2461 275.541 48.2461C276.27 48.2461 276.915 48.3861 277.476 48.6941C278.065 49.0021 278.569 49.3941 278.99 49.8701C279.411 50.3741 279.747 50.9061 279.971 51.5221C280.196 52.1381 280.308 52.7541 280.308 53.3981C280.308 54.0701 280.196 54.7141 279.943 55.3301C279.691 55.9461 279.354 56.5061 278.934 56.9821C278.513 57.4581 277.98 57.8501 277.42 58.1301C276.831 58.4101 276.186 58.5501 275.513 58.5501ZM272.008 53.3981C272.008 53.9021 272.092 54.4061 272.26 54.8821C272.428 55.3581 272.653 55.7781 272.961 56.1701C273.27 56.5341 273.634 56.8421 274.055 57.0661C274.475 57.2901 274.952 57.4021 275.485 57.4021C276.018 57.4021 276.522 57.2901 276.943 57.0661C277.364 56.8421 277.728 56.5341 278.037 56.1421C278.345 55.7501 278.569 55.3301 278.738 54.8541C278.906 54.3781 278.962 53.9021 278.962 53.3981C278.962 52.8941 278.878 52.3901 278.71 51.9141C278.541 51.4381 278.317 51.0181 277.98 50.6261C277.672 50.2621 277.308 49.9541 276.887 49.7301C276.466 49.5061 275.99 49.3941 275.485 49.3941C274.952 49.3941 274.447 49.5061 274.027 49.7301C273.606 49.9541 273.242 50.2621 272.933 50.6261C272.625 51.0181 272.4 51.4381 272.232 51.9141C272.092 52.4181 272.008 52.8941 272.008 53.3981Z" fill="#223843"/>
<path d="M292.87 50.6818V58.4658H291.58V48.3018H292.674L298.899 56.2538V48.3298H300.188V58.4658H299.011L292.87 50.6818Z" fill="#223843"/>
<path d="M2.00819 26.5176C6.71896 26.6016 11.3456 27.1336 15.832 28.1136C15.5797 28.6176 15.4114 29.1776 15.2712 29.7376C14.7385 31.9496 14.5142 33.7136 14.5702 35.5056C13 35.1416 11.4297 34.8616 9.83143 34.6376C7.1676 34.2456 4.47574 34.0496 1.75583 34.0216C1.50347 34.0216 1.22307 34.0216 0.970703 34.0216C1.02678 31.4176 1.39131 28.9256 2.00819 26.5176Z" fill="#FAD02E"/>
<path d="M60.4999 60.1182C58.6773 61.8822 56.6865 63.4502 54.5274 64.7942C53.2095 62.5262 51.7233 60.3142 50.125 58.2422C49.8727 57.9062 49.5923 57.5702 49.3119 57.2342C48.1903 55.8342 47.0126 54.4902 45.7788 53.2022C46.5359 52.2502 46.9285 51.1022 46.9285 49.8422V46.1182H49.3119C49.6203 46.3982 49.9007 46.7062 50.2092 46.9862C50.2372 47.0142 50.2372 47.0142 50.2653 47.0422C50.6017 47.3782 50.9102 47.6862 51.2186 48.0222C53.0693 49.9542 54.7797 51.9702 56.378 54.0422C56.6584 54.4062 56.9108 54.7702 57.1912 55.1342C58.3689 56.7302 59.4625 58.4102 60.4999 60.1182Z" fill="#FAD02E"/>
<path d="M21.6363 46.0899H24.9731V48.4979C23.9356 47.9659 22.842 47.4619 21.7485 47.0139C21.6083 46.9579 21.44 46.8739 21.2998 46.8179C21.0194 46.7059 20.7671 46.5939 20.4867 46.4819C16.9816 45.0819 13.3644 44.1019 9.69115 43.4859C7.08341 43.0379 4.44762 42.8139 1.75576 42.7579C1.22299 40.3499 0.914551 37.8299 0.914551 35.2539C1.19495 35.2539 1.44732 35.2539 1.69968 35.2539C6.04592 35.3099 10.3922 35.8699 14.5982 36.8499C14.7104 37.8859 14.9066 38.9779 15.2151 40.2099C16.1685 43.9339 18.4958 46.0899 21.6363 46.0899Z" fill="#FAD02E"/>
<path d="M53.4339 65.4663C51.2748 66.6983 48.9474 67.7343 46.536 68.4903C45.4424 66.6703 44.2366 64.9343 42.9188 63.2543C42.6664 62.9183 42.386 62.5823 42.1336 62.2743C41.012 60.9303 39.8343 59.6143 38.6006 58.3823C38.0678 57.8503 37.535 57.3463 36.9742 56.8423C36.9462 56.8143 36.8901 56.7863 36.8621 56.7583C38.2641 56.6743 39.6661 56.4223 41.1803 56.0023C42.7225 55.5543 43.9562 54.9383 44.9096 54.1543C46.0593 55.3583 47.1809 56.6183 48.2184 57.9343C48.4988 58.2703 48.7511 58.6063 49.0315 58.9423C50.6298 60.9863 52.0879 63.1703 53.4339 65.4663Z" fill="#FAD02E"/>
<path d="M45.2463 68.8539C42.6385 69.5539 39.8906 69.9739 37.0866 70.0579C37.0024 69.9459 36.9183 69.8059 36.8062 69.6939C36.5538 69.3299 36.2734 68.9939 36.021 68.6299C34.8994 67.2019 33.6937 65.8299 32.4038 64.5419C31.8991 64.0379 31.3944 63.5619 30.8897 63.0859C30.5812 62.8059 30.2447 62.5259 29.9363 62.2459C28.0296 60.6219 26.0107 59.1379 23.8516 57.8499C23.487 57.6259 23.1225 57.4019 22.73 57.2059C21.2158 56.3379 19.6175 55.5819 17.9911 54.9099C17.2341 54.6019 16.4489 54.2939 15.6918 54.0139C15.2712 53.8739 14.8506 53.7339 14.43 53.5939C11.4297 52.6419 8.31726 51.9979 5.17675 51.7179C3.8869 49.3099 2.84941 46.7339 2.12036 44.0459C8.09294 44.1859 14.0094 45.3899 19.5614 47.5179C19.982 47.6859 20.4026 47.8539 20.8232 48.0219C22.2533 48.6099 23.6272 49.2539 25.0012 49.9819C25.0853 52.7259 27.1603 54.9099 30.7495 55.9739C32.2076 56.3939 33.5815 56.6459 34.9555 56.7299C34.9836 56.7579 35.0396 56.7859 35.0677 56.8419C35.3761 57.1219 35.7126 57.4019 36.021 57.6819C36.5818 58.2139 37.1427 58.7459 37.7035 59.2779C38.9372 60.5099 40.0869 61.7979 41.1805 63.1139C41.4328 63.4499 41.7132 63.7579 41.9656 64.0939C43.1433 65.6059 44.2368 67.2019 45.2463 68.8539Z" fill="#FAD02E"/>
<path d="M35.5163 70.0858C35.32 70.0858 35.1518 70.0858 34.9555 70.0858C32.1234 70.0018 29.4035 69.5818 26.7958 68.8818C26.3752 68.7698 25.9265 68.6298 25.5059 68.5178C23.0945 67.7618 20.7671 66.7538 18.608 65.4938C18.2435 65.2698 17.8509 65.0458 17.4864 64.8218C15.3273 63.4778 13.3365 61.9098 11.5139 60.1458C11.2054 59.8378 10.897 59.5578 10.6166 59.2218C8.85003 57.3458 7.25173 55.3018 5.93384 53.0898C8.54158 53.3978 11.1213 53.9578 13.6169 54.7138C14.0375 54.8538 14.4581 54.9658 14.8787 55.1338C17.3182 55.9738 19.6736 57.0098 21.9168 58.2698C22.2813 58.4658 22.6739 58.6898 23.0384 58.9138C25.1975 60.1738 27.2164 61.6578 29.1231 63.2818C29.4596 63.5618 29.7681 63.8418 30.0765 64.1218C30.5532 64.5698 31.0299 65.0178 31.5066 65.4658C32.8525 66.8098 34.0863 68.2378 35.2359 69.7218C35.32 69.8338 35.4042 69.9458 35.5163 70.0858Z" fill="#FAD02E"/>
<path d="M13.5886 14.5619C11.2893 15.2619 8.90588 15.7939 6.52246 16.1019C7.81231 14.1139 9.29845 12.2659 10.9248 10.5859C11.794 11.9579 12.6633 13.2739 13.5886 14.5619Z" fill="#FAD02E"/>
<path d="M19.5332 21.7573C14.0653 23.8853 8.26098 25.0613 2.34448 25.2293C3.15765 22.4853 4.27926 19.9093 5.68127 17.5013C8.65354 17.1933 11.5697 16.5773 14.4018 15.6533C16.0001 17.7813 17.7105 19.8253 19.5332 21.7573Z" fill="#FAD02E"/>
<path d="M21.6364 23.9139C20.2624 24.0539 19.0286 24.5579 17.9911 25.3699C17.4023 25.8179 16.8975 26.3499 16.4769 26.9659C14.2337 26.4619 11.9905 26.0699 9.71924 25.7899C13.3925 25.1739 17.0097 24.1659 20.5147 22.7939C20.6549 22.9339 20.7951 23.0739 20.9353 23.2139C21.1597 23.4379 21.412 23.6619 21.6364 23.9139Z" fill="#FAD02E"/>
<path d="M66.0801 53.0898C64.7622 55.3018 63.1919 57.3458 61.4254 59.1938C60.5001 57.6538 59.4906 56.1698 58.4531 54.7138C60.9207 53.9298 63.4723 53.3978 66.0801 53.0898Z" fill="#FAD02E"/>
<path d="M69.8935 44.0459C69.1925 46.7619 68.155 49.3379 66.8371 51.7459C63.6966 52.0539 60.6121 52.6699 57.6118 53.6219C56.0135 51.4939 54.3031 49.4499 52.4805 47.5179C58.0324 45.3619 63.9209 44.1859 69.8935 44.0459Z" fill="#FAD02E"/>
<path d="M71.0433 35.2822C71.0153 37.8582 70.7349 40.3502 70.2021 42.7862C67.5383 42.8422 64.9025 43.0662 62.3228 43.5142C58.6495 44.1302 55.0323 45.1382 51.5273 46.5102C51.3871 46.3702 51.2469 46.2302 51.1067 46.0902C54.5276 45.8382 55.7614 43.0102 56.6587 40.3222C57.0512 39.1742 57.2755 38.0542 57.3877 36.8782C58.1448 36.7102 58.8738 36.5422 59.6309 36.4022C63.136 35.7302 66.6971 35.3382 70.2862 35.2822C70.5386 35.2822 70.791 35.2822 71.0433 35.2822Z" fill="#FAD02E"/>
<path d="M71.0432 33.9942C70.7909 33.9942 70.5385 33.9942 70.3142 33.9942C67.5943 34.0222 64.9024 34.2462 62.2386 34.6102C60.6403 34.8342 59.042 35.1422 57.4717 35.5062C57.4998 33.7422 57.2194 31.8662 56.6866 29.7102C56.5464 29.1222 56.3782 28.5902 56.1819 28.0862C60.6683 27.1062 65.323 26.5742 70.0057 26.4902C70.5946 28.9262 70.9591 31.4182 71.0432 33.9942Z" fill="#FAD02E"/>
<path d="M65.4634 16.1019C63.0799 15.7939 60.7245 15.2619 58.4252 14.5619C58.0046 14.4219 57.584 14.3099 57.1634 14.1419C54.7239 13.3019 52.3685 12.2659 50.1253 11.0059C49.7608 10.8099 49.3682 10.5859 49.0037 10.3619C46.8446 9.10194 44.8257 7.61794 42.919 5.99394C42.5825 5.71394 42.2741 5.43394 41.9656 5.15394C41.4889 4.70594 41.0122 4.25794 40.5356 3.80994C39.3579 2.63394 38.2363 1.37394 37.2268 0.0859375C39.8346 0.169937 42.3582 0.533937 44.7696 1.17794C45.1902 1.28994 45.6389 1.40194 46.0595 1.54194C48.499 2.26994 50.8263 3.24994 53.0135 4.48194C53.378 4.67794 53.7706 4.90194 54.1351 5.12594C56.2942 6.44194 58.3131 7.98194 60.1637 9.71794C60.4722 9.99794 60.7806 10.3059 61.061 10.6139C62.7154 12.2939 64.1735 14.1419 65.4634 16.1019Z" fill="#FAD02E"/>
<path d="M69.6413 25.2306C63.7528 25.0626 57.9485 23.8586 52.4806 21.7586C52.06 21.5906 51.6394 21.4226 51.2188 21.2546C49.7327 20.6386 48.2746 19.9666 46.8726 19.2106C46.4239 16.5506 44.1246 14.3666 41.0402 13.8626C40.1149 13.7226 39.1615 13.6106 38.2081 13.5266C37.7875 13.1906 37.3669 12.8266 36.9463 12.4906C36.6379 12.2106 36.3014 11.9306 35.9929 11.6506C35.4321 11.1186 34.8713 10.5866 34.3105 10.0546C33.0768 8.82258 31.9271 7.53458 30.8335 6.21858C30.5531 5.88258 30.3008 5.57458 30.0484 5.23858C29.039 3.95058 28.1136 2.60658 27.2444 1.23458C29.6558 0.618578 32.2075 0.254578 34.7872 0.170578C35.0396 0.170578 35.32 0.142578 35.5723 0.142578C35.7125 0.310578 35.8527 0.506578 35.9929 0.674578C37.1146 2.10258 38.3203 3.47458 39.6101 4.76258C40.1149 5.26658 40.6196 5.74258 41.1243 6.21858C41.4328 6.49858 41.7412 6.77858 42.0777 7.05858C43.9844 8.68258 46.0314 10.1666 48.1624 11.4546C48.5269 11.6786 48.8915 11.9026 49.284 12.0986C50.7982 12.9386 52.3965 13.7226 54.0228 14.3946C54.7799 14.7026 55.5651 15.0106 56.3221 15.2906C56.7427 15.4306 57.1633 15.5706 57.5839 15.7106C60.416 16.6066 63.3042 17.2226 66.2764 17.5306C67.7065 19.9106 68.8281 22.4866 69.6413 25.2306Z" fill="#FAD02E"/>
<path d="M36.0209 13.3297C36.077 13.3577 36.105 13.4137 36.1611 13.4417C36.077 13.4417 35.9928 13.4417 35.9087 13.4417H35.7405C34.0581 13.4417 32.3757 13.5817 30.8615 13.8617C29.2071 14.1697 27.9733 14.5897 27.1041 15.1777C25.9544 13.9737 24.8328 12.7137 23.7953 11.3977C23.5149 11.0617 23.2626 10.7257 23.0102 10.3897C21.5521 8.48567 20.2062 6.52567 18.9724 4.45367C21.1596 3.24967 23.4869 2.24167 25.9544 1.51367C26.9358 3.05367 27.9733 4.56567 29.0949 6.02167C29.3473 6.35767 29.6277 6.69367 29.8801 7.00167C31.0017 8.34567 32.1794 9.66167 33.4131 10.8937C33.9459 11.4257 34.4787 11.9297 35.0395 12.4337C35.376 12.7697 35.6844 13.0497 36.0209 13.3297Z" fill="#FAD02E"/>
<path d="M62.3226 25.7897C60.0794 26.0697 57.8362 26.4617 55.621 26.9657C54.4994 24.9217 52.817 23.8857 50.6018 23.8857H46.9565V20.7217C48.0501 21.2817 49.1437 21.7857 50.2653 22.2617C50.4055 22.3177 50.5737 22.4017 50.7139 22.4577C50.9663 22.5697 51.2467 22.6817 51.5271 22.7937C55.0321 24.1657 58.6213 25.1737 62.3226 25.7897Z" fill="#FAD02E"/>
<path d="M22.7017 12.07C23.7953 13.442 24.9449 14.758 26.1787 16.018C25.2534 17.082 25.001 18.482 25.001 20.134V23.858H23.4308C22.898 23.354 22.3652 22.85 21.8605 22.318C21.8325 22.29 21.8325 22.29 21.8044 22.262C21.4679 21.926 21.1595 21.59 20.8511 21.282C19.0004 19.35 17.2899 17.334 15.6916 15.262C15.4112 14.898 15.1589 14.534 14.8785 14.17C13.813 12.714 12.8315 11.23 11.8782 9.71798C13.7008 7.98198 15.7197 6.44198 17.9068 5.12598C19.1406 7.16998 20.4865 9.15798 21.9446 11.034C22.169 11.37 22.4213 11.734 22.7017 12.07Z" fill="#FAD02E"/>
<path d="M55.4809 39.9298C54.4994 42.8978 53.4339 44.8578 50.6019 44.8578H35.9929V46.0898H45.7509V49.8138C45.7509 52.6138 43.3394 54.0418 40.8719 54.7698C37.1706 55.8338 34.2263 55.6658 31.1139 54.7698C28.5342 54.0138 26.2349 52.4458 26.2349 49.8138V40.5458C26.2349 37.8858 28.45 35.5898 31.1139 35.5898H40.8719C44.1245 35.5898 46.9566 32.7618 46.9566 29.4018V25.0898H50.6299C53.462 25.0898 54.8079 27.2178 55.5089 30.0178C56.4342 33.9378 56.4903 36.8778 55.4809 39.9298Z" fill="#FE4A49"/>
<path d="M25.0012 40.4058V44.8578H21.6364C18.8043 44.8578 17.1499 42.8138 16.4489 39.9298C15.5236 36.0658 15.5516 33.7418 16.4489 30.0178C17.234 26.7698 19.7296 25.0898 22.5617 25.0898H35.993V23.8578H26.2069V20.1338C26.2069 17.3338 26.964 15.7938 31.0859 15.0658C32.4879 14.8138 34.0862 14.6738 35.7406 14.6738C37.395 14.6738 39.1335 14.7858 40.8159 15.0658C43.4517 15.5138 45.6949 17.5018 45.6949 20.1338V29.4018C45.6949 32.1178 43.5358 34.3578 40.8159 34.3578H31.0579C27.7772 34.3578 25.0012 37.1858 25.0012 40.4058Z" fill="#FE4A49"/>
<path d="M41.4889 52.222C42.4955 52.222 43.3115 51.4072 43.3115 50.402C43.3115 49.3969 42.4955 48.582 41.4889 48.582C40.4823 48.582 39.6663 49.3969 39.6663 50.402C39.6663 51.4072 40.4823 52.222 41.4889 52.222Z" fill="#FAD02E"/>
<path d="M30.4969 21.3099C31.5035 21.3099 32.3196 20.4951 32.3196 19.4899C32.3196 18.4848 31.5035 17.6699 30.4969 17.6699C29.4903 17.6699 28.6743 18.4848 28.6743 19.4899C28.6743 20.4951 29.4903 21.3099 30.4969 21.3099Z" fill="#FAD02E"/>
</g>
<defs>
<clipPath id="clip0_263_1437">
<rect width="300.115" height="70" fill="white" transform="translate(0.942627 0.0859375)"/>
</clipPath>
</defs>
</svg>
