<svg width="40" height="40" viewBox="0 0 40 40" fill="none" xmlns="http://www.w3.org/2000/svg">
<path d="M32.7999 27.9981C33.2475 28.8976 33.598 29.6957 33.598 30.401C33.598 33.5978 30.6799 34.4001 27.9983 34.4001C27.2804 37.314 24.2568 37.6096 22.9096 37.6011C21.25 37.5885 20 36.368 20 34.6662C20 30.2658 20 13.8807 20 6.54962C20 3.23459 20.9586 2.39844 22.9096 2.39844C27.2804 2.39844 29.0921 4.6155 29.5988 6.40182C32.745 6.78611 35.9291 9.88155 36.0009 14.4001C36.0262 16.0893 35.3674 17.977 34.4004 19.9998C35.2281 20.8402 36.0009 21.6003 36.0009 23.2008C36.0009 25.1434 35.4941 27.0944 32.7999 27.9981Z" stroke="#84400F" stroke-width="1.6" stroke-miterlimit="10" stroke-linecap="round"/>
<path d="M5.44328 19.8013C4.6747 20.6417 3.99902 21.6003 3.99902 23.2008C3.99902 25.1391 5.30392 27.0944 7.99819 27.9981C5.81913 31.6679 8.63163 34.4001 12.0016 34.4001C12.7195 37.314 15.6376 37.6011 17.0903 37.6011C18.7499 37.6011 19.9999 36.368 19.9999 34.6662C19.9999 30.2658 19.9999 13.8807 19.9999 6.54962C19.9999 3.23459 19.0413 2.39844 17.0903 2.39844C12.7195 2.39844 10.1097 4.6155 9.5987 6.40182C6.45257 6.78611 3.99902 10.401 3.99902 14.4001C3.99902 16.0893 4.47622 17.7785 5.44328 19.8013Z" stroke="#84400F" stroke-width="1.6" stroke-miterlimit="10" stroke-linecap="round"/>
<path d="M9.59877 19.2017H5.44336" stroke="#84400F" stroke-width="1.6" stroke-miterlimit="10" stroke-linecap="round"/>
<path d="M12.7997 19.2016C12.7997 20.0842 12.0817 20.7979 11.1991 20.7979C10.3165 20.7979 9.59863 20.0842 9.59863 19.2016C9.59863 18.3148 10.3165 17.6011 11.1991 17.6011C12.0817 17.6011 12.7997 18.3148 12.7997 19.2016Z" stroke="#84400F" stroke-width="1.6" stroke-miterlimit="10" stroke-linecap="round"/>
<path d="M20.0001 23.2007H14.4004V27.998" stroke="#84400F" stroke-width="1.6" stroke-miterlimit="10" stroke-linecap="round"/>
<path d="M16.0008 29.5986C16.0008 30.4854 15.2829 31.1991 14.4003 31.1991C13.5177 31.1991 12.7998 30.4854 12.7998 29.5986C12.7998 28.716 13.5177 27.998 14.4003 27.998C15.2829 27.998 16.0008 28.716 16.0008 29.5986Z" stroke="#84400F" stroke-width="1.6" stroke-miterlimit="10" stroke-linecap="round"/>
<path d="M20 15.1984H16.0008V11.1992H12.7998" stroke="#84400F" stroke-width="1.6" stroke-miterlimit="10" stroke-linecap="round"/>
<path d="M12.7997 11.1991C12.7997 12.0817 12.0817 12.7996 11.1991 12.7996C10.3165 12.7996 9.59863 12.0817 9.59863 11.1991C9.59863 10.3165 10.3165 9.59863 11.1991 9.59863C12.0817 9.59863 12.7997 10.3165 12.7997 11.1991Z" stroke="#84400F" stroke-width="1.6" stroke-miterlimit="10" stroke-linecap="round"/>
<path d="M31.1991 11.1991C31.1991 12.0817 30.4854 12.7996 29.5986 12.7996C28.716 12.7996 27.998 12.0817 27.998 11.1991C27.998 10.3165 28.716 9.59863 29.5986 9.59863C30.4854 9.59863 31.1991 10.3165 31.1991 11.1991Z" stroke="#84400F" stroke-width="1.6" stroke-miterlimit="10" stroke-linecap="round"/>
<path d="M20 11.1992H27.9983" stroke="#84400F" stroke-width="1.6" stroke-miterlimit="10" stroke-linecap="round"/>
<path d="M25.5996 20V23.9992H32.7998V27.9983" stroke="#84400F" stroke-width="1.6" stroke-miterlimit="10" stroke-linecap="round"/>
<path d="M27.2 18.3993C27.2 19.2819 26.4821 19.9998 25.5995 19.9998C24.7169 19.9998 23.999 19.2819 23.999 18.3993C23.999 17.5167 24.7169 16.7988 25.5995 16.7988C26.4821 16.7988 27.2 17.5167 27.2 18.3993Z" stroke="#84400F" stroke-width="1.6" stroke-miterlimit="10" stroke-linecap="round"/>
<path d="M27.9981 29.5986C27.9981 30.4854 27.2844 31.1991 26.4018 31.1991C25.515 31.1991 24.8013 30.4854 24.8013 29.5986C24.8013 28.716 25.515 27.998 26.4018 27.998C27.2844 27.998 27.9981 28.716 27.9981 29.5986Z" stroke="#84400F" stroke-width="1.6" stroke-miterlimit="10" stroke-linecap="round"/>
<path d="M20 29.5986H24.8015" stroke="#84400F" stroke-width="1.6" stroke-miterlimit="10" stroke-linecap="round"/>
</svg>
