<svg width="40" height="40" viewBox="0 0 40 40" fill="none" xmlns="http://www.w3.org/2000/svg">
<g clip-path="url(#clip0_263_699)">
<path d="M2.39844 24.8018C2.39844 27.0104 5.54033 28.8009 10.401 28.8009C15.2616 28.8009 18.3993 27.0104 18.3993 24.8018" stroke="#84400F" stroke-width="1.6" stroke-miterlimit="10" stroke-linejoin="round"/>
<path d="M2.39844 29.5991C2.39844 31.812 5.54033 33.5983 10.401 33.5983C15.2616 33.5983 18.3993 31.812 18.3993 29.5991" stroke="#84400F" stroke-width="1.6" stroke-miterlimit="10" stroke-linejoin="round"/>
<path d="M2.39844 20V34.4003C2.39844 36.609 5.54033 38.3995 10.401 38.3995C15.2616 38.3995 18.3993 36.609 18.3993 34.4003V20" stroke="#84400F" stroke-width="1.6" stroke-miterlimit="10" stroke-linejoin="round"/>
<path d="M10.401 16.001C5.54033 16.001 2.39844 17.7915 2.39844 20.0001C2.39844 22.2087 5.54033 23.9993 10.401 23.9993C15.2616 23.9993 18.3993 22.2087 18.3993 20.0001C18.3993 17.7915 15.2616 16.001 10.401 16.001Z" stroke="#84400F" stroke-width="1.6" stroke-miterlimit="10" stroke-linejoin="round"/>
<path d="M29.5984 16.001C24.7378 16.001 21.6001 17.7915 21.6001 20.0001C21.6001 22.2087 24.7378 23.9993 29.5984 23.9993C34.4591 23.9993 37.601 22.2087 37.601 20.0001C37.601 17.7915 34.4591 16.001 29.5984 16.001Z" stroke="#84400F" stroke-width="1.6" stroke-miterlimit="10" stroke-linejoin="round"/>
<path d="M21.6001 24.8018C21.6001 27.0104 24.7378 28.8009 29.5984 28.8009C34.4591 28.8009 37.601 27.0104 37.601 24.8018" stroke="#84400F" stroke-width="1.6" stroke-miterlimit="10" stroke-linejoin="round"/>
<path d="M21.6001 29.5991C21.6001 31.812 24.7378 33.5983 29.5984 33.5983C34.4591 33.5983 37.601 31.812 37.601 29.5991" stroke="#84400F" stroke-width="1.6" stroke-miterlimit="10" stroke-linejoin="round"/>
<path d="M21.6001 20V34.4003C21.6001 36.609 24.7378 38.3995 29.5984 38.3995C34.4591 38.3995 37.601 36.609 37.601 34.4003V20" stroke="#84400F" stroke-width="1.6" stroke-miterlimit="10" stroke-linejoin="round"/>
<path d="M19.9998 1.60059C15.1391 1.60059 12.0015 3.39113 12.0015 5.59974C12.0015 7.81258 15.1391 9.5989 19.9998 9.5989C24.8604 9.5989 27.9981 7.81258 27.9981 5.59974C27.9981 3.39113 24.8604 1.60059 19.9998 1.60059Z" stroke="#84400F" stroke-width="1.6" stroke-miterlimit="10" stroke-linejoin="round"/>
<path d="M12.0015 10.4014C12.0015 12.61 15.1391 14.4005 19.9998 14.4005C24.8604 14.4005 27.9981 12.61 27.9981 10.4014" stroke="#84400F" stroke-width="1.6" stroke-miterlimit="10" stroke-linejoin="round"/>
<path d="M12.0015 5.59961V13.5979" stroke="#84400F" stroke-width="1.6" stroke-miterlimit="10"/>
<path d="M27.998 5.59961V13.5979" stroke="#84400F" stroke-width="1.6" stroke-miterlimit="10"/>
</g>
<defs>
<clipPath id="clip0_263_699">
<rect width="40.0001" height="40" fill="white"/>
</clipPath>
</defs>
</svg>
