<svg width="40" height="40" viewBox="0 0 40 40" fill="none" xmlns="http://www.w3.org/2000/svg">
<g clip-path="url(#clip0_263_749)">
<path d="M32.8801 32.0015H31.1994V30.401H32.8801C33.5769 30.401 34.261 30.2701 34.9072 30.0167C37.0271 29.1763 38.3996 27.162 38.3996 24.8774C38.3996 21.6975 35.7137 18.8005 32.7661 18.8005H31.8582L31.9257 17.9052C31.9764 17.4829 32.0017 17.1324 32.0017 16.7988C32.0017 11.8664 28.1335 7.99814 23.1926 7.99814C19.4595 7.99814 16.3429 10.1476 15.0634 13.602L14.6284 14.776L13.7458 13.8892C13.0448 13.1882 12.0397 12.7997 10.9122 12.7997C8.79224 12.7997 7.18751 14.5184 7.18751 16.7988L7.2213 17.6054L6.61319 17.7701C4.74241 18.2895 1.60051 19.8182 1.60051 24.265C1.60051 27.6476 4.35389 30.401 7.7365 30.401H8.80069V32.0015H7.7365C3.47129 32.0015 0 28.5302 0 24.265C0 20.4475 2.03125 17.6139 5.59967 16.4103C5.78126 13.412 8.00255 11.1992 10.9122 11.1992C12.0482 11.1992 13.1081 11.4948 13.9907 12.0522C15.7053 8.53868 19.1428 6.40186 23.1926 6.40186C29.0288 6.40186 33.598 10.9669 33.598 16.7988C33.598 16.9508 33.598 17.1029 33.5896 17.2633C37.1073 17.7448 40.0001 21.0978 40.0001 24.8774C40.0001 27.825 38.2306 30.4221 35.4941 31.5032C34.658 31.8326 33.7796 32.0015 32.8801 32.0015Z" fill="#84400F"/>
<path d="M31.1992 36.799C31.1992 38.1251 30.1265 39.2019 28.8005 39.2019C27.4745 39.2019 26.4019 38.1251 26.4019 36.799C26.4019 35.473 27.4745 34.4004 28.8005 34.4004C30.1265 34.4004 31.1992 35.473 31.1992 36.799Z" stroke="#84400F" stroke-width="1.6" stroke-miterlimit="10" stroke-linecap="round" stroke-linejoin="round"/>
<path d="M13.5981 36.799C13.5981 38.1251 12.5254 39.2019 11.1994 39.2019C9.87342 39.2019 8.80078 38.1251 8.80078 36.799C8.80078 35.473 9.87342 34.4004 11.1994 34.4004C12.5254 34.4004 13.5981 35.473 13.5981 36.799Z" stroke="#84400F" stroke-width="1.6" stroke-miterlimit="10" stroke-linecap="round" stroke-linejoin="round"/>
<path d="M15.1984 20.7979L12.4957 24.0411C11.6595 25.0504 11.1992 26.3173 11.1992 27.6264V34.4" stroke="#84400F" stroke-width="1.6" stroke-miterlimit="10" stroke-linecap="round" stroke-linejoin="round"/>
<path d="M28.8009 34.4V27.6264C28.8009 26.3173 28.3406 25.0504 27.5045 24.0411L24.8018 20.7979" stroke="#84400F" stroke-width="1.6" stroke-miterlimit="10" stroke-linecap="round" stroke-linejoin="round"/>
<path d="M22.3989 36.799C22.3989 38.1251 21.3262 39.2019 20.0002 39.2019C18.6742 39.2019 17.6016 38.1251 17.6016 36.799C17.6016 35.473 18.6742 34.4004 20.0002 34.4004C21.3262 34.4004 22.3989 35.473 22.3989 36.799Z" stroke="#84400F" stroke-width="1.6" stroke-miterlimit="10" stroke-linecap="round" stroke-linejoin="round"/>
<path d="M20 34.4V20.7979" stroke="#84400F" stroke-width="1.6" stroke-miterlimit="10" stroke-linecap="round" stroke-linejoin="round"/>
</g>
<defs>
<clipPath id="clip0_263_749">
<rect width="40.0001" height="40" fill="white"/>
</clipPath>
</defs>
</svg>
