<svg width="49" height="60" viewBox="0 0 49 60" fill="none" xmlns="http://www.w3.org/2000/svg">
<path d="M13.1992 27.6226L7.42997 33.3919C6.75381 34.068 6.75381 35.1636 7.42997 35.8397L13.1992 41.609C13.8754 42.2851 14.9709 42.2851 15.6471 41.609C16.3232 40.9328 16.3232 39.8372 15.6471 39.1611L11.1015 34.6155L15.6471 30.0699C16.3232 29.3938 16.3232 28.2982 15.6471 27.622C14.9709 26.9465 13.8748 26.9465 13.1992 27.6226ZM32.8146 30.0699L37.3596 34.6155L32.814 39.1611C32.1378 39.8372 32.1378 40.9328 32.814 41.609C33.4902 42.2851 34.5857 42.2851 35.2619 41.609L41.0311 35.8397C41.3536 35.5172 41.5382 35.0713 41.5382 34.6155C41.5382 34.1597 41.3536 33.7138 41.0311 33.3919L35.2619 27.6226C34.5857 26.9465 33.4902 26.9465 32.814 27.6226C32.1384 28.2982 32.1384 29.3944 32.8146 30.0699ZM26.0225 21.468L19.0994 46.8526C18.8478 47.7745 19.3913 48.7265 20.3138 48.978C21.2357 49.2295 22.1877 48.6861 22.4392 47.7636L29.3623 22.379C29.6138 21.457 29.0704 20.5051 28.1479 20.2536C27.2254 20.002 26.274 20.5455 26.0225 21.468Z" fill="#FFE2D1"/>
<path d="M34.3765 1.73077V4.79738e-07H4.61539C3.34615 -0.000576443 2.18135 0.519231 1.35173 1.35173C0.519231 2.18135 -0.000576443 3.34615 4.79738e-07 4.61539V55.3846C-0.000576443 56.6538 0.519231 57.8181 1.35173 58.6483C2.18135 59.4808 3.34615 60.0006 4.61539 60H43.8462C45.1154 60.0006 46.2796 59.4802 47.1098 58.6483C47.9423 57.8187 48.4627 56.6538 48.4615 55.3846V14.085C48.461 13.4729 48.2192 12.8867 47.7842 12.4517L47.786 12.4535L36.0081 0.676154L36.0098 0.677885C35.5742 0.241154 34.9869 4.79738e-07 34.3765 4.79738e-07V1.73077V3.46154V2.30654L33.559 3.12173C33.7783 3.34096 34.0713 3.46154 34.3765 3.46154V2.30596L33.559 3.12173L45.3381 14.9002L45.3398 14.9019L46.155 14.0844H45C45.0006 14.3908 45.1212 14.6827 45.3398 14.9019L46.155 14.0844H45L44.9994 55.3846C44.9988 55.7083 44.8731 55.9858 44.6613 56.2004C44.4467 56.4121 44.1692 56.5379 43.8456 56.5385H4.61539C4.29173 56.5379 4.01423 56.4121 3.79962 56.2004C3.58789 55.9858 3.46269 55.7083 3.46154 55.3846V4.61539C3.46212 4.29115 3.58789 4.01365 3.79962 3.79962C4.01365 3.58789 4.29115 3.46212 4.61539 3.46154H34.3765V1.73077Z" fill="#FFE2D1"/>
<path d="M46.154 12.1154H37.5002C37.1765 12.1148 36.899 11.989 36.6844 11.7773C36.4726 11.5627 36.3469 11.2852 36.3463 10.9615V2.30767C36.3463 1.35171 35.5715 0.576904 34.6155 0.576904C33.6596 0.576904 32.8848 1.35171 32.8848 2.30767V10.9615C32.8842 12.2308 33.404 13.3956 34.2365 14.2252C35.0667 15.0577 36.2309 15.5775 37.5002 15.5769H46.154C47.11 15.5769 47.8848 14.8021 47.8848 13.8461C47.8848 12.8902 47.11 12.1154 46.154 12.1154Z" fill="#FFE2D1"/>
</svg>
