<svg width="55" height="60" viewBox="0 0 55 60" fill="none" xmlns="http://www.w3.org/2000/svg">
<path d="M53.3529 56.9957H9.32381C5.90508 56.9957 3.10794 54.1985 3.10794 50.7798C3.10794 47.3611 5.90508 44.5639 9.32381 44.5639H53.3529C54.2335 44.5639 54.9069 43.8905 54.9069 43.0099C54.9069 42.1294 54.2335 41.456 53.3529 41.456H43.2003C43.3557 41.2488 43.5629 40.9898 43.7183 40.7826L45.3759 38.348C49.9342 31.5106 51.8508 23.2745 50.8666 15.1421C50.1414 9.39241 45.2723 5.0931 39.4708 5.0931C38.2276 5.0931 37.0363 5.30029 35.8449 5.66288C35.0679 5.92188 34.2909 6.12908 33.5139 6.23267L36.4665 2.50315C36.9845 1.82976 36.8809 0.845581 36.2075 0.327592C35.5341 -0.190398 34.5499 -0.0868 34.0319 0.586586L28.852 7.16505C28.334 7.83844 28.4376 8.82262 29.111 9.34061C29.4218 9.54781 29.7326 9.65141 30.0952 9.65141C30.0952 9.65141 30.0952 9.65141 30.147 9.65141C32.4262 9.65141 34.7053 9.28881 36.8809 8.56363C37.7096 8.30463 38.642 8.14924 39.5226 8.14924C43.7183 8.14924 47.2925 11.309 47.8104 15.4529C48.7428 22.8601 46.9817 30.3192 42.8377 36.5351L41.1802 38.9696C40.196 40.42 38.5902 41.2488 36.8809 41.2488C36.1039 41.2488 35.2751 41.0416 34.5499 40.679L34.2391 40.5236C31.6492 39.2286 28.5412 39.2286 25.9513 40.4718L25.5887 40.6272C24.8635 40.9898 24.0865 41.197 23.2577 41.197C21.5484 41.197 19.9426 40.3164 18.9584 38.9178L17.3009 36.4833C13.1569 30.2674 11.3958 22.8083 12.3282 15.4011C12.8461 11.2054 16.4203 8.09744 20.616 8.09744C21.4966 8.09744 22.3772 8.25283 23.2059 8.51183C24.0347 8.77082 24.9153 8.35643 25.1743 7.52765C25.4333 6.69886 25.0189 5.81828 24.1901 5.55929C23.0505 5.19669 21.8074 4.9895 20.616 4.9895C14.8663 4.9895 9.9454 9.28881 9.22021 15.0385C8.18424 23.1709 10.1526 31.407 14.7109 38.2444L16.3685 40.679C16.5239 40.938 16.6793 41.1452 16.8865 41.3524H9.32381C4.19572 41.3524 0 45.5481 0 50.6762C0 55.8043 4.19572 60 9.32381 60H53.3529C54.2335 60 54.9069 59.3266 54.9069 58.446C54.9069 57.5654 54.2335 56.9957 53.3529 56.9957Z" fill="#FFE2D1"/>
</svg>
