<svg width="190" height="45" viewBox="0 0 190 45" fill="none" xmlns="http://www.w3.org/2000/svg">
<path d="M30.7291 14.147C28.6471 14.5091 26.7461 15.2333 25.3882 15.7764C25.2977 15.7764 25.2072 15.867 25.1166 15.867C25.3882 16.3196 25.4787 16.7722 25.4787 17.3153C25.3882 18.0395 25.3882 20.3026 25.3882 22.3847C25.2977 24.5573 25.2977 26.4583 25.2977 26.4583V32.6139C26.2934 32.3423 27.3797 32.0707 28.5565 31.8897C29.9144 31.7086 31.2722 31.6181 32.7206 31.7992C34.169 31.9802 35.5269 32.3423 36.7037 32.8854C39.0573 33.9717 40.5962 35.4201 41.3204 36.1443C42.5877 37.5927 43.1309 39.0411 43.4024 40.3989C43.4024 41.1231 43.4024 41.8473 43.3119 42.3904C43.2214 42.5715 43.2214 42.8431 43.2214 43.2052V43.5673C43.2214 43.6578 43.4024 43.8388 43.5835 43.7483C43.493 43.9294 43.3119 44.2009 43.0403 44.2009C42.6783 44.2009 42.4972 44.0199 42.3162 43.9294C41.9541 43.7483 41.592 43.5673 41.3204 43.2957C41.1393 43.2052 40.9583 43.0241 40.8678 42.8431C40.6867 42.7525 40.5962 42.662 40.5057 42.5715C40.2341 42.3904 40.1436 42.2094 39.872 42.0284C39.0573 41.3947 38.3331 40.6705 37.4279 39.7653C37.0658 39.3126 35.9795 38.3169 34.6216 37.6832C33.8069 37.4116 32.9922 37.1401 32.087 37.0495C31.1817 36.959 30.2765 36.959 29.2807 37.1401C27.2892 37.4116 25.3882 38.1358 23.9398 38.679L21.4957 39.7653C21.4957 39.7653 20.5904 40.2179 19.0515 40.9421C17.6031 41.6663 15.5211 42.662 13.077 43.4767C11.8096 43.8388 10.5423 44.2009 9.18443 44.2914C8.82233 44.382 8.46024 44.382 8.09814 44.4725H7.01186C6.28767 44.4725 5.47295 44.382 4.56771 44.1104C3.84352 43.8388 2.93828 43.2957 2.39514 42.662C1.76147 42.1189 1.39938 41.4852 1.12781 40.761C0.675188 39.5842 0.584664 38.679 0.494141 38.0453C0.494141 36.959 0.675188 36.0538 1.03728 35.2391C1.39938 34.4244 1.76147 33.7907 2.30462 33.2475C3.3909 32.2518 4.56771 31.6181 6.10662 31.256C5.83505 32.7949 5.74452 34.0623 5.74452 35.058C5.654 35.5106 5.654 35.9633 5.654 36.4159C5.74452 36.8685 5.74452 37.3211 5.74452 37.8643C5.74452 38.0453 5.83505 38.4979 5.92557 38.679C5.92557 38.86 6.0161 38.9505 6.10662 39.0411C6.19714 39.0411 6.19714 39.0411 6.28767 39.1316C6.46871 39.1316 6.74029 39.2221 7.10238 39.2221C7.37395 39.2221 8.00762 39.2221 8.46024 39.1316C9.456 39.0411 10.4518 38.7695 11.4475 38.4074C13.439 37.7737 15.4306 36.8685 16.879 36.1443C18.3273 35.4201 19.3231 35.058 19.3231 35.058C19.3231 35.058 19.5947 34.877 20.0473 34.6959V30.5318C20.0473 28.3593 20.0473 26.4583 20.0473 26.4583C20.0473 26.4583 20.0473 24.5573 20.1378 22.3847V18.4016C18.8705 19.1258 17.06 19.9405 15.159 20.8458C14.0727 21.2984 12.8959 21.8415 11.6286 22.2036C10.5423 22.6563 9.18443 23.0183 7.73605 23.1089C7.01186 23.1089 6.28767 23.0183 5.654 22.8373C5.2919 22.7468 4.92981 22.7468 4.56771 22.5657C4.20562 22.3847 4.02457 22.3847 3.57195 22.0226C2.12357 21.2984 1.39938 20.2121 1.21833 19.3069C1.03728 18.9448 1.03728 18.8542 1.03728 18.6732C0.94676 17.949 1.03728 17.1343 1.21833 16.5006C1.30886 16.4101 1.39938 16.2291 1.39938 16.048C1.4899 15.867 1.4899 15.7764 1.58043 15.6859L1.852 15.1428C2.30462 14.4186 2.75724 13.8754 3.3909 13.4228C4.56771 12.5176 6.0161 11.9744 7.64552 12.1555C7.1929 12.8797 7.01186 13.4228 6.83081 13.966C6.64976 14.5996 6.64976 15.0522 6.55924 15.5954L6.28767 17.0438C6.28767 17.1343 6.28767 17.3153 6.28767 17.4059V17.5869C6.28767 17.4964 6.37819 17.5869 6.46871 17.6774C6.55924 17.6774 6.64976 17.6774 6.74029 17.768H7.555C8.82233 17.768 10.9949 16.9532 12.9864 16.048C14.978 15.1428 16.879 14.147 18.3273 13.4228C19.7757 12.6986 20.681 12.1555 20.681 12.1555C20.681 12.1555 21.6767 11.7029 23.3062 11.0692C24.8451 10.345 27.1082 9.43977 29.7333 8.98715C32.3585 8.44401 35.3458 8.53453 37.79 9.34925C40.2341 10.0734 41.9541 11.3408 42.6783 11.8839C44.1266 13.1512 44.9413 14.4186 45.394 15.7764C45.7561 17.1343 45.7561 18.4922 45.4845 20.0311C44.2172 19.1258 43.1309 18.4922 42.2256 17.949C41.3204 17.4059 40.4151 16.7722 39.5099 16.048C38.8762 15.6859 37.79 14.7807 36.2511 14.3281C34.7122 13.8754 32.7206 13.6944 30.7291 14.147Z" fill="#84400F"/>
<path d="M92.0473 5.90934C91.6852 5.45672 91.4136 4.91358 91.3231 4.46096C91.2326 3.91782 91.2326 3.4652 91.3231 3.01258C91.5041 2.19787 91.8662 1.65472 92.0473 1.38315C92.4094 0.840009 92.9525 0.568436 93.4957 0.568436C93.7672 0.568436 94.0388 0.658959 94.2199 0.749481V0.658958C95.2156 -0.0652336 96.0303 -0.246279 96.9356 0.387385C97.1166 0.568436 97.6598 0.930532 98.0219 1.65472C98.2934 2.01681 98.4745 2.46943 98.4745 3.01258C98.565 3.55572 98.4745 4.09886 98.2934 4.64201C97.9313 5.63777 97.2072 6.18091 96.664 6.54301C96.3924 6.72406 96.1209 6.81458 95.9398 6.9051C95.7588 6.9051 95.6682 6.99563 95.6682 6.99563H95.3967C95.2156 7.08615 94.8535 7.08615 94.582 7.08615C94.2199 7.08615 93.7673 7.08615 93.3146 6.81458C92.7715 6.63353 92.4094 6.36196 92.0473 5.90934ZM94.4914 3.01258C94.4009 3.1031 94.3104 3.28415 94.2199 3.55572C94.2199 3.8273 94.2199 4.00834 94.3104 4.09886C94.4009 4.09886 94.4009 4.18939 94.582 4.18939H94.8535C94.8535 4.18939 94.9441 4.09886 95.1251 4.00834C95.3062 3.91782 95.5777 3.73677 95.5777 3.55572V3.37468C95.5777 3.28415 95.5777 3.19363 95.4872 3.1031C95.3967 2.92206 95.2156 2.74101 95.1251 2.65048C94.8535 2.46943 94.763 2.19787 94.582 1.83577C94.4914 2.10734 94.4914 2.28839 94.4914 2.46943C94.4914 2.74101 94.582 2.92206 94.4914 3.01258ZM116.941 18.6732C117.032 19.3069 117.032 20.0311 116.76 20.7553C115.946 19.4879 115.402 18.6732 114.588 17.949C113.864 17.1343 112.868 16.5006 111.6 15.867C111.238 15.7764 110.695 15.5049 109.971 15.3238C109.247 15.1428 108.432 15.0522 107.527 15.0522C105.626 15.1428 103.453 15.6859 101.462 16.4101C99.9229 16.8627 98.384 17.4964 97.1166 17.949L97.3882 19.1258C97.4787 19.669 97.5693 20.4837 97.2977 21.4794C97.1166 22.3847 96.7545 23.3804 96.3019 24.1952C96.0303 24.8288 95.4872 25.553 95.3062 25.7341L95.3967 25.8246C95.4872 25.8246 95.4872 25.9151 95.5777 25.9151C96.1209 26.2772 96.483 26.6393 96.664 26.9109C96.9356 27.0919 97.0261 27.273 97.0261 27.273C97.0261 27.273 97.2072 27.454 97.3882 27.8161C97.6598 28.2687 97.9313 28.8119 98.1124 29.5361C98.2029 30.2603 98.2934 31.075 98.2029 31.8897C98.1124 32.7949 97.7503 33.7002 97.3882 34.4244C96.664 35.9633 95.6682 37.1401 95.0346 38.0453C94.3104 39.0411 94.0388 39.7653 93.8578 40.2179C93.5862 40.9421 93.3146 41.4852 93.2241 42.1189C93.1336 42.3904 93.1336 42.662 93.1336 42.9336C93.1336 43.2957 93.1336 43.6578 93.0431 44.1104C92.4999 44.0199 92.1378 43.7483 91.9568 43.3862C91.6852 43.0241 91.5042 42.662 91.4136 42.2094C91.2326 41.3947 91.1421 40.4894 91.4136 39.4032C91.5042 38.86 91.9568 37.7737 92.5904 36.5969C93.1336 35.5106 93.8578 34.2433 94.2199 33.157C94.3104 32.5233 94.4009 32.1613 94.3104 31.7086C94.3104 31.3465 94.1293 30.9844 94.0388 30.7129C93.7672 30.2603 93.5862 30.1697 93.5862 30.1697H93.4957C93.4052 30.0792 93.4052 30.0792 93.2241 29.9887H92.862C92.681 29.8982 92.4094 29.8982 92.1378 29.8076C92.0473 29.8076 91.8662 29.7171 91.6852 29.7171C91.5947 29.6266 91.5041 29.6266 91.3231 29.5361C91.0515 29.5361 90.78 29.355 90.5084 29.2645C90.3273 29.0834 90.0558 28.9929 89.8747 28.8119C89.6937 28.6308 89.5126 28.4498 89.3316 28.1782C89.1505 27.9972 89.06 27.8161 88.9695 27.5445L88.6979 26.6393C88.6979 26.3677 88.6979 26.1867 88.6979 26.0056C88.6979 25.8246 88.7884 25.553 88.879 25.372C88.9695 24.9193 89.3316 24.3762 89.6031 23.7425C90.5084 22.2942 90.5989 22.1131 90.78 21.57C90.961 21.2079 91.0515 20.8458 91.0515 20.5742C90.961 20.5742 90.8705 20.6647 90.78 20.6647C89.2411 21.3889 86.978 22.2942 84.3528 23.0183L82.3612 23.5615L81.2749 23.7425C80.9129 23.7425 80.5508 23.8331 80.1887 23.8331C78.6498 24.0141 77.0203 24.0141 75.3004 23.3804C74.3951 23.0183 73.5804 22.4752 72.9468 21.8415C72.2226 21.2079 71.77 20.3932 71.4079 19.669C70.8647 18.1301 70.9552 16.9532 71.0458 16.2291C71.3173 14.8712 71.951 13.7849 72.6752 13.0607C73.3994 12.3365 74.1236 11.8839 74.8478 11.6123C76.3867 11.0692 77.7445 11.1597 79.2834 11.2502C78.3782 12.4271 77.7445 13.6039 77.2919 14.5996C77.1109 15.1428 76.9298 15.5954 76.9298 15.9575C76.8393 16.3196 76.8393 16.5912 76.9298 16.8627C76.9298 17.0438 77.0203 17.2248 77.0203 17.2248H77.1109C77.2014 17.2248 77.2919 17.2248 77.3824 17.3153C77.7445 17.4059 78.4687 17.4059 79.374 17.2248C79.555 17.2248 79.8266 17.1343 80.0981 17.1343L80.8223 16.9532C81.3655 16.7722 81.9086 16.5912 82.3612 16.5006C84.4433 15.7764 86.5253 14.9617 88.0642 14.2375L90.5989 13.1512C90.5989 13.1512 91.5947 12.6986 93.3146 11.9744C94.9441 11.3408 97.3882 10.4355 100.104 10.164C102.82 9.80187 105.807 10.0734 108.251 10.7976C110.695 11.6123 112.325 12.6986 113.139 13.2418C114.678 14.3281 115.583 15.5049 116.217 16.7722C116.579 17.3153 116.851 17.949 116.941 18.6732Z" fill="#84400F"/>
<path d="M187.513 22.9278C188.871 24.7383 189.504 27.0919 189.504 28.9929C189.504 30.8939 188.961 32.4328 188.599 33.157C188.237 33.7907 187.694 34.4244 187.241 34.7864C186.698 35.1485 186.245 35.4201 185.612 35.4201C184.978 35.6012 184.525 35.5106 183.982 35.3296C183.53 35.1485 182.987 34.6959 182.806 34.1528C183.349 34.1528 183.711 33.7907 184.073 33.7002C184.344 33.5191 184.616 33.3381 184.797 33.157C184.978 32.976 185.159 32.7949 185.34 32.5233C185.521 32.3423 185.702 32.1613 185.883 31.7086C186.064 31.256 186.245 30.5318 186.064 29.2645C185.793 28.1782 185.069 26.9109 184.254 26.0962C183.801 25.7341 183.349 25.4625 182.987 25.372C182.534 25.1909 182.262 25.1004 181.9 25.1004H181.086C180.995 25.1909 180.905 25.1909 180.905 25.1909L180.633 25.372C180.452 25.372 180.271 25.4625 180.09 25.553C179.818 25.6435 179.637 25.8246 179.366 26.0962L178.37 27.8161C177.465 29.0834 176.197 29.9887 174.93 30.3508C174.206 30.4413 173.482 30.3508 172.938 29.9887C172.214 29.8076 171.762 29.5361 171.309 28.9929C170.766 28.3593 170.494 27.9066 170.132 27.273L170.042 27.0919C170.042 27.0919 170.042 27.0014 169.951 26.9109H169.68L169.499 27.0014L169.227 27.1824L168.684 27.6351C168.684 27.8161 168.684 27.9972 168.774 28.1782C168.865 28.9929 169.046 29.9887 168.955 31.4371C168.774 32.8854 168.322 34.7864 167.145 36.5064C166.602 37.3211 165.878 38.0453 164.972 38.679C164.067 39.2221 163.162 39.6747 162.166 39.9463C161.261 40.1274 160.265 40.3084 159.36 40.2179C158.455 40.2179 157.459 39.9463 156.644 39.7653C155.015 39.2221 153.657 38.5885 152.571 38.0453C151.394 37.5022 150.489 37.1401 149.674 36.959C148.859 36.6874 148.316 36.6874 148.135 36.6874C147.592 36.778 147.501 36.8685 147.23 37.1401C146.958 37.4116 146.687 37.9548 146.505 38.4979C146.324 39.0411 146.143 39.6747 146.053 40.3989C145.962 41.0326 145.962 41.8473 146.143 42.662C145.419 42.2094 144.786 41.6663 144.423 40.761C143.971 40.1274 143.699 39.2221 143.609 38.3169C143.518 37.2306 143.609 36.2348 144.242 35.058C144.423 34.6054 144.876 33.8812 145.51 33.5191C146.053 33.0665 146.868 32.7949 147.501 32.6139C149.131 32.4328 151.575 32.8854 154.019 33.7002C155.286 34.1528 156.554 34.6054 157.73 34.7864C158.364 34.9675 158.817 34.9675 159.269 34.877C159.812 34.7864 160.175 34.6959 160.627 34.5149C161.532 34.1528 162.076 33.6096 162.347 32.976C162.619 32.4328 162.709 31.7992 162.709 31.075C162.709 30.5318 162.619 29.7171 162.438 29.355C162.438 28.9024 162.347 28.6308 162.347 28.6308C162.347 28.6308 162.257 28.2687 162.076 27.8161C161.895 27.3635 161.623 26.5488 161.351 25.553C161.08 24.7383 160.627 23.8331 160.175 22.8373C159.994 22.4752 159.722 22.0226 159.45 21.751C159.179 21.3889 158.907 21.2079 158.726 20.9363C158.002 20.3932 157.278 20.1216 156.192 20.0311C155.739 20.0311 155.196 20.0311 154.743 20.1216C154.2 20.2121 153.747 20.3932 153.204 20.6647C152.118 21.2079 150.941 21.6605 149.674 21.9321C148.588 22.3847 147.32 22.4752 146.505 22.2942C146.143 22.2036 145.691 22.1131 145.419 21.9321C145.057 21.751 144.695 21.6605 144.423 21.3889C144.333 21.3889 144.242 21.2984 144.061 21.0268L143.699 20.6647C143.428 20.3932 143.247 20.1216 143.066 19.9405C142.432 18.5827 142.432 17.5869 142.432 16.6817C142.522 15.7764 142.794 14.7807 143.247 14.0565C143.699 13.2418 144.423 12.6081 145.329 12.4271C144.876 13.1512 144.876 13.966 144.876 14.5091C144.967 15.2333 145.148 15.867 145.419 16.3196C145.691 16.8627 145.872 17.2248 146.143 17.5869C146.234 17.6774 146.324 17.768 146.415 17.768V17.8585C146.505 17.8585 146.596 17.8585 146.596 17.8585C146.777 17.8585 146.958 17.949 147.049 17.949C147.23 17.949 147.592 17.8585 148.316 17.5869C149.04 17.2248 149.855 16.7722 151.032 16.048C151.665 15.7764 152.39 15.2333 153.204 14.9617C154.019 14.5996 154.834 14.4186 155.829 14.2375C157.64 13.966 159.812 14.2375 161.623 15.2333C162.709 15.867 163.433 16.5006 164.067 17.2248C164.882 17.949 165.334 18.5827 165.787 19.3974C166.511 20.7553 166.964 21.8415 167.416 22.8373C167.779 22.3847 168.322 22.1131 168.955 21.8415C169.136 21.751 169.227 21.6605 169.68 21.6605C169.861 21.57 170.042 21.57 170.313 21.57C170.585 21.57 170.856 21.6605 171.309 21.751C171.943 21.9321 172.757 22.3847 173.482 23.2899L174.025 24.1046C174.115 24.1046 174.206 24.2857 174.206 24.3762L174.387 24.5573L175.654 22.6563C176.197 22.0226 176.921 21.4794 177.465 21.2079C178.189 20.6647 178.641 20.4837 179.094 20.3932L179.637 20.1216C179.637 20.1216 179.818 20.1216 180.361 20.0311C180.905 20.0311 181.538 19.9405 182.262 20.0311C183.168 20.0311 184.163 20.3026 184.978 20.8458C186.064 21.3889 186.879 22.1131 187.513 22.9278Z" fill="#84400F"/>
</svg>
