<svg width="112" height="208" viewBox="0 0 112 208" fill="none" xmlns="http://www.w3.org/2000/svg">
<g filter="url(#filter0_d_744_4202)">
<path d="M107.667 194.528C107.667 199.171 102.239 201.697 98.687 198.706L63.522 169.092C59.0497 165.327 52.5156 165.327 48.043 169.092L12.878 198.706C9.32604 201.697 3.89844 199.171 3.89844 194.528V0H107.667V194.528Z" fill="url(#paint0_linear_744_4202)"/>
</g>
<circle cx="55.7824" cy="47.8605" r="39.8722" fill="white"/>
<path d="M19.705 38.7424C24.6952 38.8218 29.6059 39.3874 34.3778 40.4292C34.1199 40.9749 33.9215 41.5504 33.7727 42.1655C33.2072 44.5072 32.9592 46.3824 33.0187 48.3073C31.352 47.9303 29.6754 47.6227 27.9789 47.3746C25.1515 46.9678 22.3043 46.7396 19.4173 46.7099C19.1395 46.7099 18.8618 46.6999 18.584 46.6999C18.6733 43.9714 19.0503 41.3023 19.705 38.7424Z" fill="#FAD02E"/>
<path d="M81.799 74.4628C79.8744 76.348 77.7514 78.0149 75.4597 79.4437C74.0509 77.0227 72.4933 74.691 70.787 72.4684C70.5092 72.1013 70.2215 71.7441 69.9338 71.3869C68.7433 69.9085 67.4933 68.4698 66.1738 67.0907C66.9873 66.0687 67.404 64.8681 67.404 63.5187V59.5598H69.9239C70.2413 59.8674 70.5489 60.175 70.8663 60.4826C70.8862 60.5024 70.906 60.5223 70.9259 60.5421C71.2731 60.8894 71.6104 61.2366 71.9477 61.5938C73.8922 63.6378 75.7176 65.781 77.4041 68.0035C77.6918 68.3805 77.9795 68.7675 78.2573 69.1545C79.5172 70.8809 80.6978 72.647 81.799 74.4628Z" fill="#FAD02E"/>
<path d="M40.5485 59.5584H44.1002V62.1283C42.989 61.5627 41.8482 61.0368 40.6874 60.5407C40.5287 60.4713 40.36 60.4018 40.2013 60.3324C39.9136 60.2133 39.6358 60.0942 39.3481 59.9851C35.6278 58.5067 31.7984 57.445 27.8897 56.7902C25.1218 56.3238 22.3142 56.0758 19.4769 56.0262C18.9014 53.4564 18.5939 50.7873 18.584 48.0488V48.0588C18.8717 48.0588 19.1495 48.0588 19.4272 48.0488C24.0503 48.1183 28.6536 48.6938 33.1278 49.7455C33.2469 50.8469 33.4651 52.0077 33.7826 53.3075C34.735 57.2764 37.1953 59.5584 40.5485 59.5584Z" fill="#FAD02E"/>
<path d="M74.2806 80.1575C71.979 81.4772 69.5286 82.5587 66.9591 83.3723C65.7984 81.4375 64.5186 79.582 63.1297 77.7961C62.8519 77.4389 62.5741 77.0916 62.2864 76.7443C61.1058 75.3056 59.8558 73.9265 58.5364 72.5969C57.9709 72.0313 57.3955 71.4856 56.8201 70.9498C56.7804 70.9201 56.7407 70.8804 56.7109 70.8506C58.1891 70.7712 59.6971 70.5033 61.2943 70.037C62.9213 69.5707 64.2408 68.896 65.2428 68.0625C66.473 69.3524 67.6436 70.6919 68.7647 72.0809C69.0524 72.4381 69.3301 72.7953 69.6178 73.1625C71.3143 75.385 72.8719 77.7266 74.2806 80.1575Z" fill="#FAD02E"/>
<path d="M65.5989 83.7571C62.8211 84.5112 59.9242 84.9576 56.9282 85.0469C56.8389 84.918 56.7397 84.779 56.6405 84.6501C56.3627 84.273 56.0849 83.896 55.7972 83.5289C54.6067 82.0009 53.3269 80.5522 51.9479 79.1731C51.4221 78.6472 50.8765 78.1313 50.3309 77.6252C49.9936 77.3176 49.6562 77.02 49.3189 76.7322C47.2951 74.9959 45.1423 73.4282 42.8605 72.0589C42.4736 71.8208 42.0768 71.5926 41.68 71.3743C40.0629 70.4714 38.3863 69.6479 36.6501 68.9335C35.8366 68.5961 35.0231 68.2886 34.1997 67.9909C33.7533 67.8321 33.3068 67.6833 32.8604 67.5444C29.6659 66.5224 26.3821 65.8477 23.0389 65.5401C21.6599 62.9802 20.5587 60.2417 19.8047 57.3743C26.154 57.5231 32.4338 58.7931 38.3168 61.0554C38.7633 61.224 39.2097 61.4026 39.6561 61.5912C41.1641 62.2162 42.6423 62.9108 44.0907 63.6649C44.1701 66.5919 46.3824 68.9037 50.2019 70.0249C51.7495 70.4813 53.2178 70.7492 54.6563 70.8385C54.696 70.8782 54.7357 70.908 54.7754 70.9477C55.1127 71.2453 55.45 71.543 55.7873 71.8407C56.3924 72.3963 56.9877 72.9619 57.5631 73.5373C58.8627 74.8371 60.0929 76.2064 61.2536 77.6252C61.5314 77.9725 61.8191 78.3198 62.087 78.677C63.3667 80.3141 64.5275 82.0108 65.5989 83.7571Z" fill="#FAD02E"/>
<path d="M55.2604 85.068C55.062 85.068 54.8635 85.0581 54.6651 85.0581C51.6691 84.9688 48.7722 84.5322 45.9944 83.7781C45.538 83.6591 45.0817 83.5202 44.6352 83.3813C42.0658 82.5776 39.6054 81.4961 37.3137 80.1764C36.9169 79.9482 36.5201 79.7101 36.1331 79.472C33.8415 78.0432 31.7184 76.3763 29.7938 74.4911C29.4664 74.1736 29.1489 73.8561 28.8414 73.5187C26.9564 71.5343 25.2798 69.3514 23.8711 66.99C26.639 67.3174 29.3672 67.9028 32.016 68.7164C32.4625 68.8553 32.9089 68.9942 33.3454 69.153C35.9347 70.0361 38.4348 71.1473 40.8257 72.4769C41.2225 72.6952 41.6193 72.9234 42.0162 73.1615C44.2979 74.5109 46.4607 76.0687 48.4845 77.8051C48.8317 78.1027 49.169 78.4004 49.4964 78.708C50.0123 79.1743 50.5083 79.6605 51.0044 80.1467C52.423 81.5655 53.7425 83.0836 54.9627 84.6811C55.062 84.7902 55.1612 84.9291 55.2604 85.068Z" fill="#FAD02E"/>
<path d="M32.0059 26.0523C29.5555 26.8064 27.0456 27.362 24.5059 27.6994C25.865 25.586 27.4424 23.6214 29.1885 21.8354C30.0813 23.2742 31.0238 24.6732 32.0059 26.0523Z" fill="#FAD02E"/>
<path d="M38.3165 33.7029C32.5129 35.9354 26.3323 37.2054 20.0723 37.384C20.9255 34.4768 22.1159 31.7284 23.6041 29.1685C26.7489 28.8312 29.8442 28.1763 32.8601 27.2139C34.5466 29.4761 36.3721 31.6391 38.3165 33.7029Z" fill="#FAD02E"/>
<path d="M40.5474 35.9736C39.099 36.1324 37.7795 36.6682 36.6684 37.5314C36.0533 38.0076 35.5176 38.5831 35.0711 39.2281C32.7001 38.6923 30.3092 38.2755 27.8984 37.9779C31.8072 37.323 35.6366 36.2514 39.3569 34.783C39.5057 34.9318 39.6545 35.0905 39.8033 35.2394C40.0414 35.4775 40.2895 35.7256 40.5474 35.9736Z" fill="#FAD02E"/>
<path d="M87.701 66.99C86.2922 69.3415 84.6355 71.5145 82.7505 73.489C81.7584 71.8518 80.7068 70.2643 79.5957 68.7164C82.2346 67.9028 84.943 67.3174 87.701 66.99Z" fill="#FAD02E"/>
<path d="M91.7596 57.3743C91.0056 60.2517 89.9044 62.9902 88.5254 65.5501C85.2019 65.8676 81.9281 66.5423 78.7435 67.5543C77.057 65.2921 75.2316 63.1291 73.2871 61.0554C79.1602 58.7931 85.4202 57.5231 91.7596 57.3743Z" fill="#FAD02E"/>
<path d="M92.9912 48.0588C92.9714 50.7972 92.6638 53.4564 92.0983 56.0262C89.2709 56.0758 86.4832 56.3338 83.7252 56.7902C79.8164 57.445 75.987 58.5166 72.2667 59.9851C72.1179 59.8363 71.9691 59.6775 71.8203 59.5287C75.4513 59.2608 76.7608 56.2445 77.7033 53.4068C78.1101 52.1963 78.368 50.9957 78.4871 49.7455C79.2807 49.557 80.0744 49.3883 80.878 49.2296C84.5982 48.5052 88.3781 48.1084 92.1876 48.0488H92.1975C92.4456 48.0588 92.7134 48.0588 92.9912 48.0588Z" fill="#FAD02E"/>
<path d="M92.9696 46.7104C92.7117 46.7104 92.4438 46.7104 92.1859 46.7204H92.176C89.2989 46.76 86.4418 46.9783 83.6143 47.3851C81.908 47.6332 80.2215 47.9408 78.5448 48.3277C78.5647 46.4624 78.2869 44.4581 77.7115 42.1661C77.5627 41.551 77.3742 40.9755 77.1758 40.4496C81.9477 39.4078 86.8684 38.8323 91.8585 38.7529C92.5034 41.3029 92.8803 43.9719 92.9696 46.7104Z" fill="#FAD02E"/>
<path d="M87.0468 27.6895C84.517 27.3522 82.017 26.7965 79.5864 26.0524C79.1399 25.9135 78.6935 25.7746 78.257 25.6158C75.6677 24.7328 73.1676 23.6215 70.7767 22.2919C70.3799 22.0736 69.9831 21.8454 69.5862 21.6073C67.3045 20.2579 65.1417 18.7001 63.1179 16.9638C62.7707 16.6661 62.4334 16.3684 62.106 16.0609C61.5901 15.5945 61.0941 15.1083 60.598 14.6222C59.348 13.372 58.1675 12.0424 57.0762 10.6533C59.8341 10.7525 62.5127 11.1395 65.0822 11.8043C65.5386 11.9233 66.0049 12.0523 66.4513 12.1813C69.0505 12.9552 71.5208 14.007 73.8423 15.3068C74.2391 15.5251 74.6359 15.7632 75.0327 15.9914C77.3344 17.3904 79.4772 19.0276 81.4217 20.8731C81.7491 21.1806 82.0666 21.4982 82.384 21.8256C84.1301 23.6413 85.6976 25.596 87.0468 27.6895Z" fill="#FAD02E"/>
<path d="M91.4924 37.3834C85.2423 37.2048 79.0816 35.9348 73.2878 33.7023C72.8414 33.5336 72.395 33.355 71.9485 33.1665C70.3811 32.5117 68.8334 31.7874 67.3255 30.9936C66.8691 28.1559 64.4088 25.8242 61.1349 25.2785C60.1528 25.1197 59.1508 25.0006 58.1388 24.9213C57.6924 24.5542 57.246 24.187 56.8095 23.81C56.4722 23.5123 56.1349 23.2147 55.7975 22.9071C55.1924 22.3515 54.5971 21.7859 54.0217 21.2104C52.7221 19.9106 51.4919 18.5414 50.3312 17.1225C50.0435 16.7752 49.7657 16.428 49.4979 16.0708C48.4363 14.7015 47.4343 13.2727 46.5117 11.8142C49.0812 11.1494 51.7697 10.7625 54.5277 10.6732C54.8055 10.6632 55.0932 10.6533 55.371 10.6533C55.5198 10.8418 55.6587 11.0403 55.8075 11.2288C56.998 12.7568 58.2777 14.2054 59.6567 15.5846C60.1825 16.1105 60.7282 16.6264 61.2738 17.1324C61.6012 17.44 61.9385 17.7377 62.2857 18.0254C64.3096 19.7618 66.4723 21.3295 68.7541 22.6987C69.141 22.9369 69.5378 23.1651 69.9346 23.3833C71.5517 24.2863 73.2283 25.1098 74.9644 25.8242C75.778 26.1615 76.5914 26.4691 77.4149 26.7668C77.8613 26.9255 78.2978 27.0744 78.7443 27.2133C81.7502 28.1757 84.8257 28.8207 87.9606 29.158C89.4488 31.7278 90.6392 34.4762 91.4924 37.3834Z" fill="#FAD02E"/>
<path d="M55.7983 24.732C55.8479 24.7717 55.8876 24.8114 55.9372 24.8511C55.8479 24.8511 55.7685 24.8511 55.6792 24.8511H55.5106C53.7149 24.861 51.9292 25.0098 50.3419 25.2976C48.576 25.6151 47.2863 26.0814 46.3537 26.7065C45.1235 25.4166 43.9529 24.0772 42.8418 22.698C42.5541 22.3408 42.2763 21.9836 41.9985 21.6165C40.4509 19.6023 39.0223 17.4988 37.7227 15.316C40.0441 14.0261 42.5243 12.9744 45.1235 12.2004C46.1553 13.8475 47.2664 15.445 48.4668 16.9829C48.7446 17.3401 49.0224 17.6873 49.3101 18.0346C50.4907 19.4733 51.7407 20.8525 53.0701 22.1821C53.6355 22.7476 54.211 23.2933 54.7864 23.8291C55.1237 24.1268 55.461 24.4344 55.7983 24.732Z" fill="#FAD02E"/>
<path d="M83.7142 37.9788C81.3233 38.2765 78.9621 38.6932 76.6109 39.2191C75.4105 37.0362 73.6248 35.9349 71.2735 35.9349H67.3945V32.6011C68.5453 33.1865 69.716 33.7322 70.9065 34.2382C71.0652 34.3077 71.2339 34.3771 71.3926 34.4466C71.6803 34.5656 71.9581 34.6847 72.2458 34.7939C75.976 36.2524 79.8054 37.324 83.7142 37.9788Z" fill="#FAD02E"/>
<path d="M41.67 23.3826C42.8308 24.8312 44.0609 26.2402 45.3506 27.5896C44.3685 28.7207 44.1006 30.1991 44.1006 31.9652V35.9241H42.4339C41.8684 35.3883 41.303 34.8426 40.7573 34.287C40.7375 34.2671 40.7176 34.2473 40.6978 34.2274C40.3506 33.8802 40.0133 33.523 39.676 33.1757C37.7216 31.1317 35.8962 28.9886 34.2096 26.776C33.9219 26.3989 33.6342 26.012 33.3564 25.625C32.2354 24.0871 31.1739 22.5095 30.1719 20.8922C32.1163 19.0467 34.2592 17.4095 36.5608 16.0105C37.8605 18.1934 39.289 20.2869 40.8367 22.3011C41.0946 22.6583 41.3823 23.0254 41.67 23.3826Z" fill="#FAD02E"/>
<path d="M76.4525 52.9998C75.4108 56.155 74.2799 58.2486 71.2739 58.2486H55.7578V59.5682H66.0952V63.5172C66.0952 66.5038 63.5258 68.0219 60.9166 68.7759C56.9979 69.917 53.853 69.7384 50.5693 68.7759C47.8311 67.9722 45.3906 66.3153 45.3906 63.5172V53.6547C45.3906 50.817 47.7319 48.396 50.5693 48.396H60.9166C64.3591 48.396 67.3849 45.3995 67.3849 41.8276V37.2336H71.2739C74.2898 37.2336 75.7085 39.486 76.4525 42.4824C77.4843 46.6398 77.5339 49.7553 76.4525 52.9998Z" fill="#FE4A49"/>
<path d="M44.1113 53.5166V58.2495H40.5497C37.5437 58.2495 35.7778 56.0666 35.0437 53.0007C34.0516 48.883 34.0913 46.4223 35.0437 42.4734C35.8671 39.0304 38.506 37.2246 41.512 37.2246H55.7582V35.9049H45.401V31.9559C45.401 28.9694 46.1946 27.3422 50.5796 26.5683C52.0677 26.3103 53.7543 26.1515 55.5301 26.1416C57.296 26.1317 59.1412 26.2706 60.927 26.5683C63.7345 27.0346 66.1056 29.148 66.1056 31.9559V41.8185C66.1056 44.7058 63.804 47.0772 60.927 47.0772H50.5796C47.0677 47.0871 44.1113 50.1034 44.1113 53.5166Z" fill="#FE4A49"/>
<path d="M61.6007 66.0774C62.6746 66.0774 63.5452 65.2068 63.5452 64.1327C63.5452 63.0587 62.6746 62.188 61.6007 62.188C60.5268 62.188 59.6562 63.0587 59.6562 64.1327C59.6562 65.2068 60.5268 66.0774 61.6007 66.0774Z" fill="#FAD02E"/>
<path d="M49.9542 33.2164C51.0281 33.2164 51.8987 32.3457 51.8987 31.2716C51.8987 30.1976 51.0281 29.3269 49.9542 29.3269C48.8803 29.3269 48.0098 30.1976 48.0098 31.2716C48.0098 32.3457 48.8803 33.2164 49.9542 33.2164Z" fill="#FAD02E"/>
<g filter="url(#filter1_d_744_4202)">
<path d="M31.7293 109.1C31.7293 105.967 29.9887 104.343 27.0104 104.343C26.4689 104.343 25.9274 104.381 25.4632 104.459V114.322C29.3312 114.322 31.7293 113.664 31.7293 109.1ZM16.1027 99.3143C19.6612 98.2312 23.2971 98.1152 26.9717 98.1152C34.6303 98.1152 39.6586 101.674 39.6586 108.636C39.6586 118.345 32.6576 120.588 25.4632 120.588V126.39C25.4632 127.705 25.6179 128.982 26.6623 130.026C26.1981 130.606 24.3028 131.805 21.4405 131.805C17.3791 131.805 17.3791 127.048 17.3791 124.572V103.414C17.3791 101.558 17.031 100.359 16.1027 99.3143ZM50.7615 115.25L55.2484 115.057C54.9776 111.692 54.5521 108.636 53.3144 106.973L50.7615 115.25ZM47.7832 99.0435C47.7832 99.0435 49.6785 98.4633 51.4964 98.4633C60.0833 98.4633 62.4041 112.117 63.8739 120.627L64.0286 121.632C64.4541 124.263 65.073 127.937 67.0457 129.6C66.4655 130.49 64.0286 131.728 62.172 131.728C57.0663 131.728 56.9503 127.318 56.4474 123.296L56.254 121.748H48.7115L47.3964 126.042C47.2417 126.661 47.1256 127.434 47.1256 128.208C47.1256 129.02 47.2417 129.833 47.5511 130.529C46.9709 130.954 45.5784 131.805 43.5284 131.805C40.434 131.805 38.8869 130.103 38.8869 127.473C38.8869 126.583 39.0803 125.578 39.3897 124.533L47.203 104.381C47.5898 103.066 47.9766 101.751 47.9766 100.475C47.9766 99.9718 47.8992 99.5077 47.7832 99.0435ZM74.1588 115.134C74.1588 122.677 77.2918 125.307 80.4249 125.307C85.2598 125.307 87.2712 121.4 87.2712 115.134C87.2712 107.979 84.641 105.232 81.8947 105.232C77.7173 105.232 74.1588 108.559 74.1588 115.134ZM66.1908 115.212C66.1908 103.878 72.921 98.4246 81.6626 98.4246C89.592 98.4246 95.2005 103.878 95.2005 115.212C95.2005 124.108 90.3656 131.805 80.6956 131.805C72.0314 131.805 66.1908 125.075 66.1908 115.212Z" fill="white"/>
</g>
<g filter="url(#filter2_d_744_4202)">
<path d="M22.3377 150.359C21.8785 150.359 21.4193 150.323 20.9601 150.25C20.5009 150.187 20.0678 150.088 19.6608 149.952C19.2538 149.806 18.8885 149.629 18.565 149.42C18.3772 149.295 18.2467 149.144 18.1737 148.966C18.1006 148.789 18.0745 148.617 18.0954 148.45C18.1267 148.272 18.1945 148.121 18.2989 147.996C18.4137 147.86 18.5546 147.776 18.7216 147.745C18.8885 147.714 19.0712 147.761 19.2694 147.886C19.7286 148.157 20.2139 148.356 20.7253 148.481C21.2366 148.606 21.7741 148.669 22.3377 148.669C23.1621 148.669 23.7622 148.533 24.1379 148.262C24.5136 147.98 24.7014 147.62 24.7014 147.182C24.7014 146.816 24.5658 146.529 24.2944 146.321C24.0335 146.112 23.5795 145.94 22.9325 145.804L21.2106 145.444C20.2191 145.235 19.4782 144.886 18.9877 144.395C18.5076 143.894 18.2676 143.237 18.2676 142.423C18.2676 141.911 18.3719 141.447 18.5807 141.03C18.7894 140.612 19.0816 140.252 19.4573 139.949C19.8434 139.647 20.2974 139.417 20.8192 139.261C21.3514 139.094 21.9359 139.01 22.5725 139.01C23.1986 139.01 23.7935 139.088 24.357 139.245C24.9206 139.402 25.4267 139.631 25.8755 139.934C26.0425 140.049 26.152 140.189 26.2042 140.356C26.2668 140.523 26.2825 140.69 26.2512 140.857C26.2199 141.014 26.1468 141.15 26.032 141.264C25.9172 141.379 25.7711 141.447 25.5937 141.468C25.4267 141.489 25.2337 141.437 25.0145 141.311C24.6284 141.092 24.237 140.936 23.8405 140.842C23.4439 140.748 23.016 140.701 22.5568 140.701C22.0768 140.701 21.6645 140.769 21.3201 140.904C20.9757 141.04 20.7096 141.233 20.5218 141.484C20.3444 141.724 20.2557 142.011 20.2557 142.345C20.2557 142.72 20.3809 143.023 20.6314 143.252C20.8818 143.472 21.3097 143.644 21.915 143.769L23.6213 144.129C24.6545 144.348 25.4215 144.693 25.9225 145.162C26.4338 145.632 26.6895 146.258 26.6895 147.041C26.6895 147.542 26.5851 147.996 26.3764 148.403C26.1781 148.81 25.8859 149.159 25.4998 149.451C25.1241 149.744 24.6701 149.968 24.1379 150.125C23.6056 150.281 23.0056 150.359 22.3377 150.359ZM29.4111 150.328C29.0876 150.328 28.8371 150.239 28.6597 150.062C28.4927 149.874 28.4093 149.618 28.4093 149.295V140.184C28.4093 139.85 28.498 139.6 28.6754 139.433C28.8528 139.255 29.1033 139.167 29.4268 139.167H33.1994C34.41 139.167 35.344 139.469 36.0015 140.075C36.659 140.68 36.9877 141.525 36.9877 142.611C36.9877 143.696 36.659 144.547 36.0015 145.162C35.344 145.768 34.41 146.07 33.1994 146.07H30.413V149.295C30.413 149.618 30.3295 149.874 30.1625 150.062C29.9955 150.239 29.7451 150.328 29.4111 150.328ZM30.413 144.489H32.8863C33.596 144.489 34.1334 144.333 34.4987 144.02C34.864 143.696 35.0466 143.226 35.0466 142.611C35.0466 141.995 34.864 141.53 34.4987 141.217C34.1334 140.904 33.596 140.748 32.8863 140.748H30.413V144.489ZM43.4914 150.359C42.4269 150.359 41.4929 150.125 40.6893 149.655C39.8962 149.185 39.2804 148.528 38.8421 147.683C38.4038 146.827 38.1846 145.825 38.1846 144.677C38.1846 143.811 38.3099 143.033 38.5603 142.345C38.8108 141.645 39.1656 141.05 39.6248 140.56C40.0945 140.059 40.6528 139.678 41.2998 139.417C41.9573 139.146 42.6878 139.01 43.4914 139.01C44.5663 139.01 45.5003 139.245 46.2935 139.715C47.0866 140.174 47.7024 140.826 48.1407 141.671C48.579 142.517 48.7981 143.513 48.7981 144.661C48.7981 145.528 48.6729 146.31 48.4224 147.009C48.172 147.709 47.8119 148.309 47.3423 148.81C46.8831 149.311 46.3248 149.697 45.6673 149.968C45.0203 150.229 44.295 150.359 43.4914 150.359ZM43.4914 148.637C44.1697 148.637 44.7437 148.481 45.2134 148.168C45.6934 147.855 46.0587 147.401 46.3091 146.806C46.57 146.211 46.7005 145.501 46.7005 144.677C46.7005 143.425 46.4187 142.454 45.8552 141.765C45.3021 141.077 44.5141 140.732 43.4914 140.732C42.8235 140.732 42.2495 140.889 41.7694 141.202C41.2894 141.504 40.9189 141.953 40.658 142.548C40.4075 143.132 40.2823 143.842 40.2823 144.677C40.2823 145.919 40.5641 146.889 41.1276 147.589C41.6912 148.288 42.4791 148.637 43.4914 148.637ZM51.7749 150.328C51.4722 150.328 51.2374 150.245 51.0704 150.078C50.9139 149.911 50.8356 149.671 50.8356 149.358V140.043C50.8356 139.72 50.9139 139.475 51.0704 139.308C51.2374 139.13 51.4514 139.041 51.7123 139.041C51.9523 139.041 52.1297 139.088 52.2445 139.182C52.3697 139.266 52.5158 139.412 52.6828 139.621L58.6783 147.401H58.2713V139.996C58.2713 139.694 58.3496 139.459 58.5062 139.292C58.6731 139.125 58.9079 139.041 59.2106 139.041C59.5132 139.041 59.7428 139.125 59.8994 139.292C60.0559 139.459 60.1342 139.694 60.1342 139.996V149.389C60.1342 149.681 60.0611 149.911 59.915 150.078C59.7689 150.245 59.5706 150.328 59.3202 150.328C59.0801 150.328 58.8871 150.281 58.741 150.187C58.6053 150.093 58.454 149.942 58.287 149.733L52.3071 141.953H52.6985V149.358C52.6985 149.671 52.6202 149.911 52.4637 150.078C52.3071 150.245 52.0775 150.328 51.7749 150.328ZM66.3496 150.359C65.8904 150.359 65.4312 150.323 64.972 150.25C64.5129 150.187 64.0798 150.088 63.6727 149.952C63.2657 149.806 62.9005 149.629 62.577 149.42C62.3891 149.295 62.2587 149.144 62.1856 148.966C62.1126 148.789 62.0865 148.617 62.1073 148.45C62.1386 148.272 62.2065 148.121 62.3108 147.996C62.4256 147.86 62.5665 147.776 62.7335 147.745C62.9005 147.714 63.0831 147.761 63.2814 147.886C63.7406 148.157 64.2259 148.356 64.7372 148.481C65.2486 148.606 65.7861 148.669 66.3496 148.669C67.1741 148.669 67.7741 148.533 68.1498 148.262C68.5255 147.98 68.7134 147.62 68.7134 147.182C68.7134 146.816 68.5777 146.529 68.3064 146.321C68.0455 146.112 67.5915 145.94 66.9445 145.804L65.2225 145.444C64.2311 145.235 63.4901 144.886 62.9996 144.395C62.5196 143.894 62.2795 143.237 62.2795 142.423C62.2795 141.911 62.3839 141.447 62.5926 141.03C62.8013 140.612 63.0935 140.252 63.4692 139.949C63.8554 139.647 64.3093 139.417 64.8312 139.261C65.3634 139.094 65.9478 139.01 66.5844 139.01C67.2106 139.01 67.8054 139.088 68.369 139.245C68.9325 139.402 69.4387 139.631 69.8874 139.934C70.0544 140.049 70.164 140.189 70.2162 140.356C70.2788 140.523 70.2944 140.69 70.2631 140.857C70.2318 141.014 70.1588 141.15 70.044 141.264C69.9292 141.379 69.7831 141.447 69.6057 141.468C69.4387 141.489 69.2456 141.437 69.0265 141.311C68.6403 141.092 68.249 140.936 67.8524 140.842C67.4558 140.748 67.0279 140.701 66.5688 140.701C66.0887 140.701 65.6765 140.769 65.3321 140.904C64.9877 141.04 64.7216 141.233 64.5337 141.484C64.3563 141.724 64.2676 142.011 64.2676 142.345C64.2676 142.72 64.3928 143.023 64.6433 143.252C64.8938 143.472 65.3216 143.644 65.9269 143.769L67.6332 144.129C68.6664 144.348 69.4335 144.693 69.9344 145.162C70.4458 145.632 70.7015 146.258 70.7015 147.041C70.7015 147.542 70.5971 147.996 70.3884 148.403C70.1901 148.81 69.8979 149.159 69.5117 149.451C69.136 149.744 68.6821 149.968 68.1498 150.125C67.6176 150.281 67.0175 150.359 66.3496 150.359ZM77.3679 150.359C76.3034 150.359 75.3694 150.125 74.5658 149.655C73.7727 149.185 73.1569 148.528 72.7186 147.683C72.2803 146.827 72.0612 145.825 72.0612 144.677C72.0612 143.811 72.1864 143.033 72.4369 142.345C72.6873 141.645 73.0421 141.05 73.5013 140.56C73.971 140.059 74.5293 139.678 75.1763 139.417C75.8338 139.146 76.5643 139.01 77.3679 139.01C78.4428 139.01 79.3769 139.245 80.17 139.715C80.9631 140.174 81.5789 140.826 82.0172 141.671C82.4555 142.517 82.6747 143.513 82.6747 144.661C82.6747 145.528 82.5494 146.31 82.299 147.009C82.0485 147.709 81.6884 148.309 81.2188 148.81C80.7596 149.311 80.2013 149.697 79.5438 149.968C78.8968 150.229 78.1715 150.359 77.3679 150.359ZM77.3679 148.637C78.0462 148.637 78.6202 148.481 79.0899 148.168C79.5699 147.855 79.9352 147.401 80.1856 146.806C80.4465 146.211 80.577 145.501 80.577 144.677C80.577 143.425 80.2952 142.454 79.7317 141.765C79.1786 141.077 78.3906 140.732 77.3679 140.732C76.7 140.732 76.126 140.889 75.646 141.202C75.1659 141.504 74.7954 141.953 74.5345 142.548C74.284 143.132 74.1588 143.842 74.1588 144.677C74.1588 145.919 74.4406 146.889 75.0041 147.589C75.5677 148.288 76.3556 148.637 77.3679 148.637ZM85.714 150.328C85.3905 150.328 85.14 150.239 84.9626 150.062C84.7956 149.874 84.7121 149.618 84.7121 149.295V140.184C84.7121 139.85 84.8008 139.6 84.9783 139.433C85.1557 139.255 85.4061 139.167 85.7297 139.167H89.5023C90.7129 139.167 91.6469 139.459 92.3044 140.043C92.9619 140.617 93.2906 141.426 93.2906 142.47C93.2906 143.148 93.1393 143.733 92.8366 144.223C92.5444 144.714 92.1165 145.089 91.553 145.35C90.9894 145.611 90.3059 145.741 89.5023 145.741L89.6432 145.507H90.1598C90.5877 145.507 90.9581 145.611 91.2712 145.82C91.5947 146.028 91.8765 146.357 92.1165 146.806L93.2906 148.982C93.4158 149.201 93.4732 149.415 93.4628 149.624C93.4524 149.832 93.3741 150.005 93.228 150.14C93.0819 150.265 92.8679 150.328 92.5862 150.328C92.3044 150.328 92.0748 150.271 91.8974 150.156C91.72 150.031 91.5634 149.843 91.4278 149.592L89.8467 146.681C89.6588 146.326 89.4345 146.091 89.1736 145.976C88.9231 145.851 88.5996 145.788 88.203 145.788H86.7159V149.295C86.7159 149.618 86.6324 149.874 86.4654 150.062C86.2984 150.239 86.048 150.328 85.714 150.328ZM86.7159 144.301H89.1579C89.878 144.301 90.4207 144.155 90.7859 143.863C91.1616 143.56 91.3495 143.112 91.3495 142.517C91.3495 141.932 91.1616 141.494 90.7859 141.202C90.4207 140.899 89.878 140.748 89.1579 140.748H86.7159V144.301Z" fill="white"/>
</g>
<defs>
<filter id="filter0_d_744_4202" x="-1.69277e-05" y="0" width="111.564" height="207.797" filterUnits="userSpaceOnUse" color-interpolation-filters="sRGB">
<feFlood flood-opacity="0" result="BackgroundImageFix"/>
<feColorMatrix in="SourceAlpha" type="matrix" values="0 0 0 0 0 0 0 0 0 0 0 0 0 0 0 0 0 0 127 0" result="hardAlpha"/>
<feOffset dy="3.89845"/>
<feGaussianBlur stdDeviation="1.94923"/>
<feComposite in2="hardAlpha" operator="out"/>
<feColorMatrix type="matrix" values="0 0 0 0 0 0 0 0 0 0 0 0 0 0 0 0 0 0 0.15 0"/>
<feBlend mode="normal" in2="BackgroundImageFix" result="effect1_dropShadow_744_4202"/>
<feBlend mode="normal" in="SourceGraphic" in2="effect1_dropShadow_744_4202" result="shape"/>
</filter>
<filter id="filter1_d_744_4202" x="11.5738" y="98.1152" width="88.1571" height="42.7494" filterUnits="userSpaceOnUse" color-interpolation-filters="sRGB">
<feFlood flood-opacity="0" result="BackgroundImageFix"/>
<feColorMatrix in="SourceAlpha" type="matrix" values="0 0 0 0 0 0 0 0 0 0 0 0 0 0 0 0 0 0 127 0" result="hardAlpha"/>
<feOffset dy="4.52974"/>
<feGaussianBlur stdDeviation="2.26487"/>
<feComposite in2="hardAlpha" operator="out"/>
<feColorMatrix type="matrix" values="0 0 0 0 0 0 0 0 0 0 0 0 0 0 0 0 0 0 0.15 0"/>
<feBlend mode="normal" in2="BackgroundImageFix" result="effect1_dropShadow_744_4202"/>
<feBlend mode="normal" in="SourceGraphic" in2="effect1_dropShadow_744_4202" result="shape"/>
</filter>
<filter id="filter2_d_744_4202" x="15.5341" y="139.01" width="80.4748" height="16.4099" filterUnits="userSpaceOnUse" color-interpolation-filters="sRGB">
<feFlood flood-opacity="0" result="BackgroundImageFix"/>
<feColorMatrix in="SourceAlpha" type="matrix" values="0 0 0 0 0 0 0 0 0 0 0 0 0 0 0 0 0 0 127 0" result="hardAlpha"/>
<feOffset dy="2.53039"/>
<feGaussianBlur stdDeviation="1.2652"/>
<feComposite in2="hardAlpha" operator="out"/>
<feColorMatrix type="matrix" values="0 0 0 0 0 0 0 0 0 0 0 0 0 0 0 0 0 0 0.15 0"/>
<feBlend mode="normal" in2="BackgroundImageFix" result="effect1_dropShadow_744_4202"/>
<feBlend mode="normal" in="SourceGraphic" in2="effect1_dropShadow_744_4202" result="shape"/>
</filter>
<linearGradient id="paint0_linear_744_4202" x1="55.7825" y1="-1.27345e-06" x2="11.3713" y2="189.597" gradientUnits="userSpaceOnUse">
<stop stop-color="#FE4A49"/>
<stop offset="1" stop-color="#FF2928"/>
</linearGradient>
</defs>
</svg>
