<svg width="1440" height="183" viewBox="0 0 1440 183" fill="none" xmlns="http://www.w3.org/2000/svg">
<path d="M-32.6546 88.2302L195.427 100.337L448.954 80.8524L709.999 93.9337L1081.99 116.259L1173.99 122.438L1277.54 107.676L1451.95 122.438L1451.95 47.6133L-32.655 47.6131L-32.6546 88.2302Z" fill="#BD4B06"/>
<path d="M-17.8134 68.6211C-17.2294 75.9789 1.73695 74.585 6.19091 74.6525C17.523 72.9255 30.0838 77.5441 41.1218 74.6498C49.2833 72.2922 56.4871 69.2611 64.9272 69.8665C71.8124 76.3225 79.6142 69.1725 86.3458 71.6349C90.9931 72.9879 95.3034 78.4388 100.14 76.3584C101.755 76.7813 102.28 76.6174 103.689 77.4287C104.638 77.219 105.11 76.5965 106.225 79.8937C109.452 77.208 116.845 80.4551 120.096 80.5101C124.682 81.7391 128.313 80.9553 132.449 78.3324C136.539 76.195 138.448 71.6965 143.404 76.1049C146.835 73.0611 159.66 73.8837 162.882 77.4691C164.607 82.2799 163.576 80.6905 164.381 82.2109C165.383 83.6775 167.549 86.586 169.895 86.4565C176.253 90.7322 187.381 91.7683 194.726 88.3161C204.323 91.8549 215.924 94.6736 225.515 89.9315C228.761 90.1994 228.973 88.3499 232.487 83.4216C235.207 77.7647 238.13 84.0186 240.92 83.083C245.584 83.7973 253.923 83.3335 258.095 82.9952C262.317 79.5534 262.519 80.5347 267.574 78.797C278.214 77.4107 288.906 80.1361 299.03 78.6096C305.705 77.1123 313.678 80.5932 320.583 78.9823C329.5 69.0408 341.782 85.3398 348.587 76.5103C351.037 73.675 352.502 68.765 355.803 71.8053C357.734 72.5743 359.755 69.9673 361.761 69.156C369.256 68.6317 373.268 75.4724 380.469 72.563C383.721 78.6763 387.317 74.3293 390.739 72.8378C395.324 71.6618 401.44 72.8236 405.792 73.0701C409.261 69.8146 411.13 71.7078 415.011 68.8627C418.047 67.2357 420.95 70.5662 424.021 68.8187C432.615 68.5467 441.329 75.9508 450.162 71.5774C457.363 68.6376 465.066 66.4159 472.49 67.3199C471.213 76.1639 499.01 66.8346 504.654 73.4595C513.473 78.1579 522.403 70.1652 531.175 70.5084C538.898 62.6553 545.846 72.8581 553.631 70C559.196 68.6458 562.834 68.8364 567.686 72.2365C570.413 74.8605 568.901 74.2586 572.058 74.1581C572.72 82.2493 574.567 75.2217 575.601 74.2539C580.274 78.2869 585.955 72.6139 590.544 74.9086C594.024 72.5058 596.639 74.4257 599.632 70.7574C604.858 72.3441 610.378 67.8526 616.578 67.069C625.314 67.5632 633.935 69.9103 642.285 66.5853C649.258 63.6678 656.704 69.8393 663.388 70.443C666.972 73.8587 667.866 72.0335 670.925 73.1777C672.661 72.722 673.889 77.8803 675.932 74.4522C680.628 72.793 685.392 72.2018 690.004 74.8626C694.349 80.2234 699.327 72.8509 703.721 75.169C709.097 66.3189 712.995 78.6658 717.984 79.3917C727.198 77.8023 737.145 76.787 746.288 80.3096C750.053 79.3783 754.531 80.9993 758.138 81.0975C762.035 81.3278 762.393 84.9633 765.325 87.2294C771.358 92.7112 782.521 83.9153 789.354 88.695C792.922 86.5999 794.69 93.4823 798.599 90.7904C805.074 93.1523 804.49 91.8833 809.267 95.6765C814.505 101.708 825.448 97.4712 831.02 95.8737C835.522 90.4934 837.49 93.5167 839.517 91.9145C841.584 91.2576 841.835 87.9482 845.762 84.6176C848.996 84.0936 851.816 77.1312 856.124 79.0201C861.151 75.9114 864.234 81.0141 867.94 81.0854C873.686 87.5617 882.796 82.5893 889.089 81.9917C897.746 80.5651 906.281 83.7007 914.921 82.9128C920.931 86.8412 927.132 83.5917 933.215 83.5651C936.614 84.143 942.941 82.2679 942.716 87.07C948.886 89.8473 956.169 88.737 962.554 88.3254C962.945 91.9621 961.812 95.4227 962.566 96.3934C968.618 93.8692 974.039 102.8 980.303 100.862C984.633 101.899 989.168 96.5199 993.4 101.237C1003.3 103.052 1013.39 99.2103 1023.26 102.302C1027.18 103.02 1029.71 103.293 1033.06 104.539C1038.14 106.699 1041.21 112.075 1047.33 108.366C1052.79 109.809 1058.29 106.991 1063.6 108.063C1070.07 108.233 1067.85 110.772 1072.4 111.117C1075.54 115.369 1082.3 109.369 1085.75 111.472C1091.96 105.635 1097.84 115.556 1103.98 112.152C1109.23 110.452 1109.58 110.86 1113.61 107.35C1117.51 109.986 1123.24 105.898 1128.06 104.334C1133.39 101.145 1137.46 105.826 1142.77 102.758C1146.26 103.917 1147.77 98.3697 1151.1 102.842C1153.58 102.565 1154.51 104.303 1156.53 107.663C1158.66 114.497 1159.56 110.998 1162.58 109.035C1165.98 110.709 1169.54 107.609 1172.94 109.405C1176.94 106.016 1180.61 114.58 1184.61 109.821C1188.28 112.509 1194.23 109.89 1197.61 110.102C1200.87 108.635 1202.92 109.682 1206.21 114.488C1210.18 116.669 1211.87 120.383 1216.35 114.88C1225 111.231 1230.25 109.378 1240.47 106.607C1247.27 108.92 1254.26 104.206 1261.04 107.34C1266.94 109.104 1271.73 101.481 1277.33 106.156C1282.12 105.809 1286.89 107.531 1291.69 106.698C1296.22 107.621 1300.76 110.827 1305.41 107.217C1308.46 107.418 1313.35 109.388 1316.04 105.953C1323.51 99.2473 1328.21 98.6842 1336.46 97.9128C1340.56 97.633 1344.81 94.3748 1348.72 97.9542C1351.87 101.446 1355.28 96.8184 1358.65 95.1421C1366.64 92.8396 1376.12 94.7302 1380.7 101.165C1386.54 109.014 1394.77 108.912 1404.56 108.957C1409.28 106.142 1412.89 111.111 1417.35 111.178C1418.5 107.993 1420.25 109.668 1421.15 111.131C1422.93 111.469 1422.6 111.792 1423.91 113.726C1431.02 119.033 1438.44 120.242 1445 112.104C1444.99 112.286 1447.01 123.378 1449.13 130.365C1451.21 138.963 1453.28 147.835 1453.26 148.626C1447.83 145.083 1442.51 138.318 1436.68 137.471C1433.36 138.662 1426.07 134.018 1422.74 137.065C1417.54 137.824 1414.15 143.061 1409.48 139.149C1404.41 141.465 1399.29 142.957 1394.53 138.404C1389.29 136.177 1385.99 124.612 1380.05 130.398C1371.54 129.942 1366.27 128.871 1359.65 123.095C1352.82 117.219 1341.81 122.672 1333.82 126.01C1326.55 126.633 1318.79 130.832 1311.31 126.029C1303.69 127.584 1296.2 126.708 1289.21 127.89C1280.94 134.323 1272.96 137.113 1263.82 134.595C1255.45 132.744 1248.13 129.013 1239.35 134.118C1235.48 128.927 1232.33 133.625 1228.29 135.307C1219.48 136.454 1211.44 137.69 1202.99 139.824C1196.25 141.502 1192.28 150.25 1185.93 149.201C1180.96 157.427 1175.89 145.19 1170.95 148.758C1166.01 146.177 1162.12 149.387 1156.81 152.06C1152.51 147.37 1147.53 153.464 1143.1 151.388C1134.41 151.687 1121.52 153.115 1113.98 148.28C1111.48 150.504 1110.03 150.118 1107.37 143.478C1103.93 143.385 1099.37 147.272 1095.91 142.856C1091.43 142.696 1089.8 136.458 1085.48 138.922C1083.51 135.716 1081.55 138.508 1079.5 138.465C1078.6 138.311 1076.7 141.045 1075.41 134.697C1071.84 134.356 1066.78 137.464 1063.1 131.731C1059.94 129.426 1057.16 125.156 1053.69 129.721C1049.62 133.32 1048.41 138.453 1043.7 135.758C1040.77 134.923 1038.99 133.337 1036.96 130.22C1032.43 123.239 1025.34 129.136 1019.74 128.023C1008.56 125.25 997.342 121.684 985.951 126.818C983.119 125.682 980.876 126.881 978.138 125.87C974.133 121.191 974.296 123.602 969.784 120.853C962.039 121.003 953.768 126.219 946.011 121.985C941.823 115.594 938.031 121.183 933.615 119.716C930.883 122.145 927.511 121.751 925.149 118.866C922.171 115.898 923.556 113.969 921.946 110.928C919.107 107.63 908.793 106.532 903.379 108.317C898.399 114.564 893.663 111.655 888.952 107.803C882.005 104.876 876.76 106.425 870.784 110.961C867.05 120.478 865.615 113.334 861.848 115.544C858.455 113.505 855.996 120.328 852.939 119.092C847.5 123.039 840.826 118.417 833.597 123.608C826.468 125.059 819.06 127.2 812.782 122.379C804.749 123.554 796.662 120.708 789.043 119.797C785.308 114.732 785.466 116.108 781.191 117.873C777.12 116.876 775.38 116.235 772.05 114.29C766.235 120.111 759.1 118.121 753.277 113.316C747.504 115.15 741.768 113.149 736.058 112.611C728.455 109.904 719.969 114.655 711.663 115.12C703.484 110.841 695.25 108.599 687.672 111.007C685.432 107.213 683.78 109.407 681.823 105.958C681.288 108.923 678.165 102.875 677.953 102.289C673.375 98.3506 668.719 103.39 664.402 103.084C658.508 104.579 653.864 99.4207 648.416 106.137C644.474 107.61 640.577 109.815 635.587 113.991C630.207 114.469 625.611 113.635 620.853 111.547C615.99 110.978 613.549 111.043 609.521 114.492C607.097 118.79 607.054 120.402 603.819 116.116C600.298 118.852 597.123 106.226 593.628 109.207C589.022 106.333 583.3 108.656 578.226 107.47C571.262 108.835 563.923 115.698 556.899 108.354C549.733 106.333 542.383 109.967 535.396 107.313C532.406 112.108 526.546 102.583 524.061 106.726C521.742 104.634 521.873 104.608 519.534 99.6237C517.282 91.4149 512.275 91.3581 509.018 97.6047C504.759 97.5442 502.096 97.3884 497.531 99.0522C492.057 105.494 486.766 99.0337 481.507 98.6635C476.067 98.9871 472.744 97.9553 467.754 94.8243C460.332 91.424 455.883 96.045 450.096 99.6137C446.592 104.147 446.171 101.635 442.231 103.047C439.56 106.849 437.514 103.062 434.746 106.86C430.272 105.087 424.224 111.143 419.596 106.624C414.874 108.069 412.123 105.14 407.981 104.323C404.999 105.16 403.533 100.389 401.097 106.36C397.228 112.402 397.48 101.726 392.825 109.201C387.39 103.253 381.355 108.792 375.735 108.531C372.82 111.715 369.693 107.037 366.863 108.275C362.395 108.725 364.52 107.096 361.098 104.934C357.022 100.435 353.066 96.3366 347.507 102.349C343.611 98.4349 339.552 100.634 335.517 101.921C332.375 102.662 329.126 101.298 326.053 101.888C323.221 99.5345 320.31 103.815 317.182 105.256C314.014 109.405 310.867 104.239 307.742 106.746C302.33 104.817 298.073 111.972 292.558 113.876C286.922 121.53 281.145 113.774 275.581 113.849C271.1 117.251 268.033 112.728 263.469 118.014C260.963 109.553 257.993 119.676 255.413 118.854C253.734 118.398 251.714 125.815 249.911 121.489C248.186 123.954 246.398 116.614 244.557 121.024C239.212 120.194 237.477 120.619 233.269 125.949C224.528 130.539 214.281 136.688 203.792 130.012C198.237 130.971 192.723 129.191 187.187 129.42C179.535 132.222 172.106 127.847 164.509 128.551C156.866 130.988 149.398 128.073 141.828 127.772C137.377 126.366 134.373 124.371 130.275 125.595C127.225 124.116 123.604 128.158 120.555 125.4C114.757 126.959 106.725 128.134 102.134 119.812C100.1 116.817 99.6431 113.208 97.726 115.575C96.505 117.45 95.3832 115.613 94.3345 112.258C92.5011 107.839 91.6946 105.161 91.9099 106.844C85.9215 100.907 68.7544 105.561 59.385 102C52.5907 100.662 45.8883 98.3223 38.4594 100.036C34.2946 102.536 32.3183 97.3818 28.6043 96.3969C23.3031 95.1728 16.6803 98.3768 11.3261 95.4764C3.89097 93.7804 -3.62485 98.7487 -10.9219 95.5355C-18.2914 95.0292 -25.6274 93.2759 -33.2024 95.5935C-33.1626 94.1032 -17.746 69.7499 -17.7135 68.5334L-17.8134 68.6211Z" fill="white"/>
</svg>
