<svg width="1440" height="182" viewBox="0 0 1440 182" fill="none" xmlns="http://www.w3.org/2000/svg">
<path d="M-32.6658 87.2783L195.417 99.3496L448.937 80.0685L709.983 93.1147L1081.98 115.363L1173.98 121.518L1277.53 106.89L1451.93 121.584L1451.92 47.3114L-32.6758 46.9613L-32.6658 87.2783Z" fill="#BD4B06"/>
<path d="M-17.8346 67.8261C-17.2483 75.12 1.7175 73.7444 6.1715 73.8128C17.5029 72.1045 30.0652 76.6871 41.1022 73.8216C49.2629 71.4872 56.4657 68.4849 64.9059 69.0878C71.7931 75.4898 79.5925 68.4046 86.325 70.8478C90.9727 72.1905 95.2846 77.5953 100.121 75.5347C101.736 75.9544 102.26 75.7921 103.67 76.5968C104.619 76.3892 105.09 75.7723 106.207 79.0412C109.432 76.3799 116.827 79.6011 120.078 79.6567C124.664 80.8766 128.295 80.1008 132.43 77.502C136.519 75.3846 138.427 70.9259 143.384 75.2975C146.814 72.2813 159.64 73.101 162.862 76.6563C164.589 81.4257 163.558 79.8498 164.363 81.3573C165.365 82.8114 167.533 85.6953 169.878 85.5677C176.237 89.8082 187.366 90.839 194.71 87.4192C204.308 90.9303 215.91 93.7283 225.5 89.0306C228.745 89.2973 228.956 87.464 232.469 82.5797C235.188 76.973 238.112 83.1733 240.902 82.2468C245.566 82.9564 253.905 82.4994 258.077 82.1654C262.298 78.7549 262.5 79.7278 267.554 78.0069C278.194 76.6361 288.887 79.3413 299.01 77.8314C305.684 76.3493 313.658 79.8025 320.563 78.2079C329.477 68.3559 341.764 84.517 348.567 75.7666C351.016 72.9569 352.479 68.09 355.781 71.1049C357.712 71.8679 359.733 69.2843 361.738 68.4807C369.232 67.9634 373.247 74.7458 380.447 71.8641C383.7 77.9253 387.295 73.6173 390.717 72.14C395.301 70.9757 401.418 72.1294 405.769 72.3752C409.238 69.1491 411.107 71.0265 414.987 68.2074C418.022 66.5956 420.927 69.898 423.998 68.1667C432.591 67.8999 441.307 75.2423 450.139 70.91C457.339 67.9981 465.041 65.7983 472.465 66.6968C471.191 75.4634 498.985 66.2245 504.632 72.7936C513.452 77.4539 522.379 69.5337 531.152 69.8768C538.872 62.0946 545.823 72.2109 553.607 69.3802C559.172 68.0396 562.809 68.2297 567.663 71.6018C570.391 74.2039 568.878 73.6067 572.036 73.5081C572.7 81.529 574.544 74.5633 575.578 73.6043C580.253 77.6037 585.931 71.9819 590.522 74.2581C594 71.8774 596.617 73.7814 599.608 70.146C604.835 71.7207 610.353 67.2701 616.553 66.4954C625.289 66.9881 633.911 69.3176 642.26 66.0243C649.232 63.1344 656.679 69.2547 663.363 69.8553C666.948 73.2424 667.842 71.4334 670.902 72.5686C672.637 72.1175 673.867 77.2313 675.909 73.8337C680.604 72.1905 685.368 71.606 689.981 74.2451C694.328 79.5607 699.304 72.254 703.698 74.5534C709.071 65.7821 712.973 78.0228 717.962 78.744C727.176 77.1714 737.123 76.1682 746.266 79.6631C750.031 78.7412 754.509 80.3495 758.117 80.448C762.014 80.6776 762.373 84.2816 765.305 86.5289C771.34 91.965 782.5 83.2493 789.334 87.9896C792.902 85.9139 794.672 92.7369 798.581 90.0698C805.056 92.4133 804.471 91.1551 809.25 94.9168C814.49 100.898 825.432 96.7012 831.003 95.1194C835.503 89.7875 837.473 92.785 839.499 91.1975C841.565 90.547 841.815 87.2665 845.741 83.9662C848.975 83.4478 851.793 76.547 856.101 78.4209C861.127 75.3409 864.212 80.4002 867.918 80.472C873.666 86.8938 882.774 81.9677 889.067 81.3774C897.724 79.966 906.26 83.0771 914.899 82.2989C920.91 86.1951 927.11 82.9759 933.193 82.9515C936.593 83.5254 942.919 81.6688 942.695 86.429C948.866 89.1841 956.148 88.0859 962.534 87.6799C962.926 91.2851 961.794 94.7152 962.549 95.6777C968.6 93.1775 974.023 102.032 980.286 100.113C984.617 101.143 989.15 95.8118 993.383 100.49C1003.29 102.291 1013.37 98.4867 1023.24 101.555C1027.16 102.268 1029.69 102.539 1033.04 103.775C1038.12 105.918 1041.2 111.249 1047.32 107.574C1052.77 109.006 1058.28 106.215 1063.59 107.279C1070.05 107.45 1067.84 109.966 1072.38 110.309C1075.52 114.525 1082.28 108.58 1085.74 110.665C1091.94 104.881 1097.83 114.718 1103.97 111.345C1109.22 109.662 1109.57 110.066 1113.59 106.589C1117.49 109.202 1123.23 105.152 1128.05 103.604C1133.37 100.444 1137.44 105.085 1142.76 102.046C1146.24 103.196 1147.75 97.6974 1151.08 102.132C1153.56 101.858 1154.49 103.581 1156.52 106.913C1158.65 113.688 1159.55 110.22 1162.56 108.275C1165.97 109.936 1169.53 106.864 1172.93 108.645C1176.92 105.287 1180.6 113.777 1184.59 109.061C1188.26 111.727 1194.22 109.133 1197.59 109.344C1200.85 107.891 1202.91 108.93 1206.2 113.694C1210.17 115.858 1211.86 119.54 1216.33 114.086C1224.98 110.472 1230.24 108.637 1240.46 105.893C1247.26 108.188 1254.24 103.518 1261.02 106.627C1266.93 108.377 1271.72 100.822 1277.32 105.458C1282.11 105.116 1286.88 106.825 1291.68 106C1296.21 106.916 1300.74 110.096 1305.39 106.52C1308.44 106.719 1313.33 108.674 1316.03 105.27C1323.49 98.625 1328.19 98.0683 1336.44 97.3064C1340.54 97.0303 1344.79 93.8019 1348.7 97.3514C1351.86 100.814 1355.26 96.2277 1358.63 94.5671C1366.62 92.2872 1376.1 94.1645 1380.68 100.544C1386.52 108.328 1394.75 108.229 1404.54 108.276C1409.27 105.487 1412.88 110.415 1417.33 110.483C1418.49 107.325 1420.23 108.987 1421.14 110.438C1422.92 110.773 1422.58 111.093 1423.9 113.011C1431.01 118.274 1438.43 119.474 1444.98 111.409C1444.98 111.59 1447 122.586 1449.12 129.513C1451.2 138.037 1453.28 146.832 1453.26 147.616C1447.82 144.103 1442.5 137.394 1436.67 136.553C1433.35 137.732 1426.06 133.126 1422.73 136.146C1417.54 136.896 1414.15 142.087 1409.47 138.208C1404.4 140.502 1399.29 141.979 1394.53 137.464C1389.29 135.255 1385.98 123.79 1380.04 129.523C1371.53 129.068 1366.26 128.005 1359.64 122.277C1352.81 116.45 1341.8 121.851 1333.81 125.158C1326.54 125.773 1318.78 129.933 1311.3 125.169C1303.68 126.708 1296.19 125.838 1289.2 127.007C1280.93 133.381 1272.96 136.144 1263.82 133.646C1255.44 131.808 1248.13 128.106 1239.34 133.165C1235.48 128.017 1232.33 132.673 1228.28 134.34C1219.47 135.474 1211.44 136.696 1202.99 138.809C1196.25 140.47 1192.27 149.14 1185.93 148.099C1180.96 156.251 1175.89 144.119 1170.95 147.655C1166 145.095 1162.11 148.275 1156.81 150.923C1152.51 146.273 1147.53 152.312 1143.1 150.253C1134.41 150.546 1121.52 151.958 1113.98 147.162C1111.48 149.366 1110.02 148.982 1107.37 142.399C1103.93 142.307 1099.37 146.158 1095.91 141.779C1091.42 141.619 1089.8 135.435 1085.47 137.876C1083.51 134.698 1081.55 137.464 1079.5 137.422C1078.59 137.268 1076.7 139.977 1075.4 133.684C1071.83 133.346 1066.78 136.424 1063.09 130.74C1059.93 128.455 1057.15 124.221 1053.68 128.745C1049.62 132.312 1048.41 137.399 1043.7 134.726C1040.76 133.897 1038.98 132.324 1036.95 129.234C1032.42 122.313 1025.33 128.156 1019.74 127.051C1008.56 124.298 997.332 120.759 985.943 125.845C983.111 124.718 980.868 125.906 978.13 124.903C974.123 120.263 974.287 122.653 969.774 119.927C962.029 120.073 953.76 125.241 946.001 121.041C941.812 114.705 938.022 120.243 933.605 118.788C930.873 121.195 927.501 120.803 925.138 117.942C922.159 114.999 923.544 113.087 921.933 110.072C919.093 106.802 908.779 105.71 903.366 107.479C898.387 113.669 893.65 110.784 888.939 106.964C881.991 104.06 876.746 105.593 870.772 110.088C867.041 119.521 865.603 112.439 861.837 114.628C858.443 112.606 855.986 119.369 852.929 118.143C847.491 122.053 840.816 117.469 833.588 122.613C826.46 124.049 819.053 126.169 812.773 121.388C804.741 122.55 796.653 119.727 789.034 118.821C785.297 113.799 785.456 115.162 781.181 116.911C777.109 115.921 775.37 115.286 772.039 113.356C766.226 119.124 759.091 117.149 753.266 112.385C747.493 114.201 741.757 112.215 736.047 111.68C728.443 108.994 719.959 113.701 711.653 114.159C703.472 109.914 695.238 107.689 687.661 110.074C685.419 106.313 683.768 108.487 681.81 105.067C681.276 108.006 678.151 102.01 677.939 101.429C673.359 97.5231 668.705 102.518 664.388 102.213C658.494 103.692 653.849 98.5774 648.403 105.234C644.461 106.692 640.565 108.877 635.576 113.015C630.197 113.487 625.601 112.659 620.843 110.588C615.979 110.022 613.538 110.086 609.512 113.503C607.089 117.762 607.046 119.36 603.81 115.111C600.29 117.822 597.111 105.305 593.617 108.259C589.009 105.408 583.289 107.709 578.214 106.532C571.25 107.883 563.914 114.683 556.887 107.401C549.72 105.395 542.372 108.996 535.384 106.362C532.395 111.114 526.532 101.671 524.049 105.777C521.73 103.702 521.86 103.677 519.52 98.7347C517.265 90.5967 512.258 90.5388 509.003 96.7299C504.744 96.6685 502.081 96.5131 497.517 98.161C492.045 104.545 486.752 98.1391 481.493 97.7704C476.052 98.0894 472.73 97.0655 467.739 93.9602C460.315 90.587 455.868 95.1663 450.082 98.702C446.58 103.194 446.158 100.705 442.218 102.103C439.548 105.871 437.502 102.116 434.734 105.88C430.26 104.121 424.214 110.122 419.584 105.641C414.863 107.072 412.111 104.168 407.969 103.356C404.987 104.185 403.52 99.4553 401.085 105.374C397.218 111.362 397.467 100.778 392.814 108.187C387.377 102.29 381.344 107.778 375.724 107.517C372.811 110.672 369.682 106.034 366.852 107.261C362.384 107.705 364.509 106.091 361.086 103.947C357.009 99.486 353.052 95.4217 347.494 101.38C343.597 97.4987 339.539 99.6776 335.504 100.952C332.362 101.685 329.113 100.332 326.041 100.916C323.208 98.582 320.298 102.824 317.17 104.251C314.004 108.363 310.855 103.241 307.732 105.725C302.318 103.812 298.064 110.903 292.55 112.789C286.916 120.374 281.137 112.683 275.573 112.756C271.092 116.127 268.025 111.642 263.462 116.881C260.953 108.493 257.986 118.527 255.406 117.711C253.727 117.258 251.71 124.61 249.905 120.321C248.181 122.764 246.391 115.488 244.551 119.858C239.206 119.034 237.471 119.455 233.265 124.737C224.525 129.284 214.28 135.376 203.789 128.755C198.234 129.704 192.72 127.938 187.185 128.163C179.533 130.938 172.103 126.599 164.506 127.294C156.864 129.707 149.395 126.815 141.825 126.515C137.374 125.118 134.369 123.14 130.271 124.352C127.221 122.885 123.601 126.891 120.552 124.156C114.754 125.7 106.722 126.862 102.128 118.61C100.093 115.64 99.6355 112.063 97.7192 114.409C96.4988 116.267 95.3764 114.446 94.3267 111.119C92.4919 106.738 91.6845 104.084 91.9003 105.752C85.91 99.8643 68.7446 104.473 59.3741 100.94C52.5794 99.6109 45.8762 97.2894 38.448 98.986C34.284 101.463 32.306 96.3527 28.5918 95.3752C23.2902 94.16 16.6683 97.3339 11.3134 94.457C3.8777 92.7734 -3.63648 97.696 -10.9346 94.5083C-18.3041 94.004 -25.6407 92.2636 -33.2149 94.5585C-33.1756 93.0812 -17.7669 68.9451 -17.7347 67.7392L-17.8346 67.8261Z" fill="white"/>
</svg>
