<svg width="40" height="40" viewBox="0 0 40 40" fill="none" xmlns="http://www.w3.org/2000/svg">
<path d="M36.1232 5.59961H3.87648C3.06144 5.59961 2.39844 6.27951 2.39844 7.11566V34.4003H37.6012V7.11566C37.6012 6.27951 36.9382 5.59961 36.1232 5.59961Z" stroke="#84400F" stroke-width="1.6" stroke-miterlimit="10" stroke-linejoin="round"/>
<path d="M12.7997 10.4013C12.7997 11.2839 12.0817 12.0018 11.1991 12.0018C10.3165 12.0018 9.59863 11.2839 9.59863 10.4013C9.59863 9.51446 10.3165 8.80078 11.1991 8.80078C12.0817 8.80078 12.7997 9.51446 12.7997 10.4013Z" fill="#84400F"/>
<path d="M7.99807 10.4013C7.99807 11.2839 7.28438 12.0018 6.40178 12.0018C5.51495 12.0018 4.80127 11.2839 4.80127 10.4013C4.80127 9.51446 5.51495 8.80078 6.40178 8.80078C7.28438 8.80078 7.99807 9.51446 7.99807 10.4013Z" fill="#84400F"/>
<path d="M2.39844 15.1982H37.6012" stroke="#84400F" stroke-width="1.6" stroke-miterlimit="10" stroke-linejoin="round"/>
<path d="M26.4019 19.2017H33.5978V30.401H26.4019V19.2017Z" stroke="#84400F" stroke-width="1.6" stroke-miterlimit="10"/>
<path d="M6.40186 19.2017H22.3985V23.2008H6.40186V19.2017Z" stroke="#84400F" stroke-width="1.6" stroke-miterlimit="10"/>
<path d="M6.40186 26.4019H22.3985V30.401H6.40186V26.4019Z" stroke="#84400F" stroke-width="1.6" stroke-miterlimit="10"/>
<path d="M16.0005 8.80078H33.5976V12.0018H16.0005V8.80078Z" stroke="#84400F" stroke-width="1.6" stroke-miterlimit="10"/>
</svg>
