<svg width="581" height="661" viewBox="0 0 581 661" fill="none" xmlns="http://www.w3.org/2000/svg">
<path d="M509.95 563.046C541.367 559.569 543.064 543.092 546.085 535.143C549.106 527.194 563.171 522.413 563.171 522.413C540.245 507.513 502.387 521.379 497.238 542.313C492.089 563.246 509.928 563.046 509.928 563.046L509.95 563.046Z" fill="#F26D1D"/>
<path opacity="0.4" d="M170.13 263.583C167.393 257.542 162.345 253.77 158.998 248.2C156.25 243.623 156.16 240.338 155.872 235.138C147.274 243.471 146.737 259.126 153.401 268.88C157.281 274.563 162.925 277.346 168.717 280.561C171.161 281.919 173.535 282.624 174.493 285.29L175.022 283.702C177.241 278.249 172.375 268.534 170.133 263.587L170.13 263.583Z" fill="#F77F30"/>
<path opacity="0.4" d="M227.13 153.65C220.729 143.364 211.701 141.188 200.424 142.23C209.502 143.686 219.935 156.323 224.696 163.504C230.455 172.187 229.431 176.793 230.257 186L230.882 186.624C234.762 177.137 232.392 162.104 227.135 153.65H227.13Z" fill="#F77F30"/>
<path opacity="0.4" d="M558.89 197.261C559.496 193.686 558.621 190.554 560.425 187.166C561.535 185.083 563.203 184.151 564.475 182.43C559.224 179.975 551.351 187.403 549.064 191.385C546.95 195.068 544.064 204.289 549.15 207.084C554.16 209.834 558.261 200.964 558.889 197.257L558.89 197.261Z" fill="#F77F30"/>
<path d="M514.046 565.852C488.76 562.813 462.838 575.442 437.299 574.219L440.702 613.749C457.599 613.743 476.383 621.424 493.531 623.74C514.506 626.57 530.193 632.747 532.342 608.04C533.972 589.307 535.552 568.437 514.05 565.853L514.046 565.852Z" fill="#492105"/>
<path opacity="0.6" d="M522.984 626.982C527.532 627.238 531.92 614.951 532.786 599.538C533.651 584.126 530.665 571.425 526.118 571.17C521.57 570.915 517.182 583.202 516.316 598.614C515.451 614.026 518.436 626.727 522.984 626.982Z" fill="#8E5339"/>
<path d="M324.813 544.023C308.463 541.957 290.508 544.781 274.09 545.388C261.972 545.837 245.971 544.02 234.809 549.933C225.297 554.975 220.984 573.025 231.71 581.994C238.772 587.897 262.624 585.886 272.149 586.022C294.37 586.338 315.878 578.018 338.251 579.898L324.809 544.018L324.813 544.023Z" fill="#5B2806"/>
<path d="M340.223 564.842C332.909 560.655 314.617 567.283 306.917 568.649C283.188 572.87 247.928 563.828 229.933 581.092C212.19 598.113 227.736 631.986 254.22 625.291L350.233 591.81C349.795 585.558 346.622 568.506 340.228 564.838L340.223 564.842Z" fill="#7F3B09"/>
<path d="M303.829 591.242C290.029 595.263 274.966 598.227 260.65 595.321C254.493 594.071 247.927 591.674 243.227 587.354C240.439 584.788 238.278 580.357 235.629 576.794C233.592 578.006 231.681 579.427 229.94 581.096C212.197 598.117 227.743 631.991 254.227 625.295L350.24 591.815C349.981 588.083 348.741 580.506 346.427 574.222C332.667 580.962 318.568 586.948 303.834 591.243L303.829 591.242Z" fill="#5B2806"/>
<path d="M427.004 625.631L427.083 625.053C426.092 624.75 425.867 624.844 427.004 625.631Z" fill="#5B2806"/>
<path d="M489.362 592.434C472.047 589.792 441.754 585.537 424.402 586.256L419.577 622.097C422.263 622.909 438.111 629.708 440.779 630.667C448.159 633.32 455.925 636.432 463.085 638.673C477.684 643.243 497.593 651.402 504.985 636.689C514.111 618.529 509.375 595.489 489.357 592.434L489.362 592.434Z" fill="#5B2806"/>
<path d="M426.999 625.631L427.078 625.052C426.086 624.749 425.862 624.844 426.999 625.631Z" fill="#7F3B09"/>
<path d="M438.3 602.367C447.237 605.549 456.697 608.254 466.117 609.568C471.528 610.325 477.283 610.827 482.608 609.218C489.651 607.095 493.828 601.248 496.941 594.91C494.71 593.735 492.189 592.887 489.343 592.452C472.018 589.803 449.232 588.65 431.87 589.379L430.542 599.332C433.094 600.417 435.678 601.435 438.3 602.367Z" fill="#7F3B09"/>
<path opacity="0.6" d="M497.274 643.437C503.338 643.777 508.776 634.734 509.422 623.238C510.067 611.742 505.675 602.147 499.611 601.807C493.547 601.466 488.108 610.51 487.463 622.005C486.818 633.501 491.21 643.097 497.274 643.437Z" fill="#7C442E"/>
<path d="M352.118 584.57C331.024 583.883 308.199 594.013 288.105 599.543C271.66 604.064 244.151 601.524 238.993 622.21C235.807 634.997 238.001 646.302 252.084 648.671C264.446 650.754 277.714 646.861 289.912 645.175C298.097 644.045 332.973 640.212 340.814 637.656C351.197 634.268 361.308 632.098 370.776 626.211C389.819 614.365 373.803 585.28 352.113 584.575L352.118 584.57Z" fill="#4C2010"/>
<path d="M261.491 604.153C250.998 606.544 241.764 610.936 238.994 622.035C235.807 634.79 237.999 646.068 252.071 648.433C262.001 650.102 272.514 647.923 282.583 646.135C286.6 640.828 287.92 633.66 284.772 624.605C280.986 613.716 271.825 606.819 261.486 604.157L261.491 604.153Z" fill="#4C2010"/>
<path d="M345.175 607.657C354.191 603.528 362.996 598.969 371.756 594.321C366.788 588.971 359.808 585.138 352.099 584.865C330.99 584.121 308.166 594.133 288.067 599.577C279.492 601.899 271.011 619.312 273.168 620.622C278.694 623.974 284.159 625.038 290.546 624.901C298.302 624.736 305.745 622.368 313.145 620.2C317.951 618.794 346.518 608.911 345.17 607.661L345.175 607.657Z" fill="#7A3C13"/>
<path opacity="0.6" d="M247.075 644.994C251.623 645.249 255.677 638.902 256.131 630.817C256.585 622.732 253.267 615.971 248.719 615.716C244.171 615.46 240.116 621.807 239.662 629.893C239.208 637.978 242.527 644.739 247.075 644.994Z" fill="#9E6346"/>
<path d="M477.426 587.135C517.841 569.659 577.37 478.454 580.647 404.725C581.222 391.785 578.686 368.471 578.686 368.471C578.686 368.471 554.429 300.695 544.054 290.037L194.343 292.83C183.047 305.767 160.761 368.471 160.761 368.471C160.761 368.471 159.834 389.407 162.125 400.06C174.262 456.494 207.031 552.115 264.679 587.135L290.194 598.229C325.161 612.382 345.041 612.546 378.304 612.819L379.473 612.828C413.444 613.109 437.012 604.612 477.426 587.135Z" fill="#C5621B"/>
<path d="M3.42907 520.325H2.63861C2.67813 520.072 2.59908 519.787 2.63861 519.535L3.42907 520.325Z" fill="#BD5E14"/>
<path d="M548.328 295.976C547.83 295.446 548.526 295.825 548.328 295.976C536.163 342.953 492.751 369.742 449.607 384.444C447.307 385.227 444.414 385.132 442.501 386.816C442.248 386.863 441.963 386.768 441.711 386.816C441.458 386.863 441.173 386.76 440.92 386.816C439.964 387.013 439.213 387.456 438.549 387.606C438.296 387.662 438.003 387.543 437.758 387.606C436.857 387.836 436.43 388.326 436.177 388.397C435.743 388.523 435.039 388.27 434.596 388.397C433.719 388.65 433.158 389.148 433.015 389.187C391.864 397.495 349.163 398.104 308.098 388.942C263.919 379.085 219.432 356.723 197.789 315.231L190.175 298.05C191.298 296.39 192.374 293.984 194.54 292.814C194.738 293.304 195.995 294.031 196.121 294.395C215.021 351.545 292.676 373.884 346.562 378.121C403.879 382.626 488.514 368.248 527.405 322.053C533.199 315.176 543.68 298.418 544.368 289.652C547.324 291.881 548.635 295.325 548.328 295.976Z" fill="#83400F"/>
<path d="M577.112 432.114C563.23 499.46 512.946 571.775 477.425 587.136C437.011 604.612 413.443 613.109 379.472 612.828L378.303 612.819C345.04 612.546 325.16 612.382 290.193 598.229L264.678 587.136C223.297 561.997 194.734 505.631 177.421 454.949C216.337 497.698 287.816 515.981 340.757 520.144C411.684 525.719 516.417 507.927 564.544 450.762C568.046 446.605 572.931 439.529 577.112 432.114Z" fill="#91430A"/>
<path d="M366.619 148.715C359.726 148.403 353.713 142.649 352.552 135.862C349.826 119.92 361.556 101.912 358.192 83.1838C355.399 67.6438 342.941 58.6477 340.276 44.2009C337.414 28.6988 343.753 13.1284 355.619 3.03911C356.925 1.93074 359.141 2.0522 359.05 0.0252401C360.371 -0.172142 359.665 0.829952 359.468 1.57393C358.549 5.11163 357.084 7.83702 356.735 11.7543C354.548 36.6472 370.962 44.8614 380.406 63.9998C395.558 94.7003 372.146 107.72 366.801 134.868C365.966 139.111 365.45 144.577 366.619 148.722V148.715Z" fill="#EADED2"/>
<path d="M439.431 41.7486C437.822 45.3014 436.007 48.2849 435.111 52.2098C429.607 76.3436 455.594 90.1527 440.061 115.577C435.438 123.146 427.049 129.66 423.101 137.304C420.452 142.429 419.055 148.449 417.825 154.021C401.26 144.676 417.878 124.71 422.357 112.29C424.817 105.457 426.077 97.2357 424.977 89.9705C424.377 86.0077 420.596 80.5266 419.898 76.0855C418.455 66.9527 422.175 57.3266 428.082 50.4941C429.19 49.2187 438.452 40.7541 439.431 41.7486Z" fill="#EADED2"/>
<path d="M298.364 54.647C295.479 64.0986 294.325 72.4114 297.074 82.1135C301.864 99.0352 319.537 107.287 321.033 126.426C321.906 137.585 314.443 148.798 315.81 160.095C300.74 158.751 306.016 141.48 305.189 130.89C303.982 115.448 296.497 112.92 289.406 101.92C280.061 87.4276 284.768 68.3651 295.791 56.2261C296.557 55.3834 296.914 54.3206 298.372 54.6394L298.364 54.647Z" fill="#EADED2"/>
<path d="M320.1 178.275L316.938 179.066C317.499 177.785 319.128 178.433 320.1 178.275Z" fill="#BD5E14"/>
<path d="M330.361 176.694L327.199 177.485C327.554 177.437 328.875 176.852 330.361 176.694Z" fill="#BD5E14"/>
<path d="M4.22113 584.305C4.06304 583.728 3.69942 583.064 3.43066 581.934L4.22113 584.305Z" fill="#E0A54A"/>
<path d="M324.04 177.485L321.669 178.275C321.795 178.259 322.633 177.674 324.04 177.485Z" fill="#E0A54A"/>
<path d="M336.683 175.904L334.312 176.694C334.438 176.686 335.008 176.014 336.683 175.904Z" fill="#BD5E14"/>
<path d="M449.607 384.452H451.18C452.872 385.535 443.41 386.641 442.501 386.823C444.414 385.147 447.307 385.242 449.607 384.452Z" fill="#B2540C"/>
<path d="M436.18 388.405L435.018 389.203L434.599 388.405C435.042 388.278 435.745 388.531 436.18 388.405Z" fill="#B2540C"/>
<path d="M437.76 387.614C438.006 387.551 438.298 387.669 438.551 387.614L438.164 388.389L437.768 387.614H437.76Z" fill="#B2540C"/>
<path d="M440.922 386.824C441.175 386.768 441.46 386.871 441.713 386.824L441.317 387.598L440.922 386.824Z" fill="#B2540C"/>
<path d="M230.075 555.872C229.759 555.39 229.585 554.789 229.284 554.291C229.68 554.639 230.549 554.797 230.85 555.477L230.075 555.872Z" fill="#954403"/>
<path d="M128.199 638.816C129.662 637.433 131.875 636.429 133.725 635.654C132.681 637.796 130.16 638.073 128.199 638.816Z" fill="#FEF9EF"/>
<path d="M120.3 641.978C120.007 642.744 119.328 642.602 118.719 642.768C119.067 642.049 119.755 642.183 120.3 641.978Z" fill="#FEF9EF"/>
<path d="M113.985 644.341C113.74 644.412 113.195 644.894 112.404 645.132L113.985 644.341Z" fill="#FEF9EF"/>
<path d="M269.554 607.221C269.285 606.96 269.024 606.699 268.763 606.43L269.554 607.221Z" fill="#7D3A00"/>
<path d="M146.363 628.548C146.647 627.702 147.216 627.37 147.944 626.967C147.667 627.82 147.106 628.152 146.363 628.548Z" fill="#FEF9EF"/>
<path d="M514.361 297.556C511.381 303.003 510.701 302.987 507.255 307.034C506.03 302.236 499.69 299.967 497.232 297.319C490.086 289.628 491.635 286.767 480.158 280.822C472.387 276.799 472.696 276.048 466.388 271.471C460.08 266.894 455.701 266.736 448.824 265.163C447.859 264.942 446.658 264.626 445.662 264.373C441.654 263.345 440.223 260.729 436.484 258.942C427.56 254.674 422.383 256.942 414.075 255.686C411.68 255.322 408.589 253.03 406.02 252.287C398.787 250.2 389.657 250.255 382.488 252.524C382.227 252.524 381.958 252.524 381.697 252.524C380.195 251.757 378.599 251.322 376.962 250.943C368.536 248.975 359.912 248.342 351.691 251.733C348.814 251.883 347.415 251.733 344.98 251.733H332.349C329.345 251.733 322.318 255.085 319.322 256.476C319.029 256.61 318.792 257.14 318.531 257.267C309.631 256.468 303.323 257.812 295.632 262.009C293.695 263.069 291.355 264.025 290.106 265.962C289.853 265.922 289.577 265.977 289.316 265.962C282.518 265.614 272.305 269.867 267.199 274.246C265.641 275.582 264.234 278.214 263.207 278.941C261.665 280.032 259.033 279.961 257.183 280.814C250.385 283.953 248.472 285.984 243.516 291.233C242.014 292.822 241.066 294.766 239.588 296.387C236.797 299.446 232.853 301.319 230.885 305.453C227.818 301.612 226.735 301.596 223.778 295.976C225.035 290.632 224.442 285.897 225.928 280.348C240.694 225.166 339.708 210.898 386.891 212.993C427.133 214.779 513.294 237.165 514.432 288.45C514.503 291.604 512.938 294.932 514.393 297.556H514.361Z" fill="#632A00"/>
<path d="M356.416 273.858C357.167 277.399 354.756 280.458 354.764 283.739C354.788 290.165 360.305 293.675 366.345 292.869C369.135 292.497 368.186 291.58 369.332 290.687C369.886 290.252 371.071 290.798 371.435 289.928C371.996 288.576 373.253 281.249 372.992 279.818C372.613 277.723 370.581 277.178 369.83 275.447L372.202 273.858C375.332 274 379.237 274.388 382.47 274.648C382.636 274.664 383.316 275.368 384.051 275.439C387.474 283.091 395.568 282.877 400.635 277.02C400.896 277.059 401.164 276.98 401.425 277.02C403.986 277.439 406.8 277.961 409.322 278.601C409.077 288.379 420.855 294.537 426.696 285.707C426.918 285.802 427.258 285.62 427.487 285.707C429.763 286.6 437.486 290.189 438.546 290.45C432.799 299.074 433.874 308.054 445.865 307.698C447.936 307.113 450.853 302.006 451.177 299.928C453.73 299.849 453.493 299.374 453.58 301.896C453.691 305.073 452.142 308.417 452.758 311.777C444.687 311.539 442.079 316.393 444.419 323.673C446.308 329.554 454.797 329.878 459.074 326.788C461.169 325.847 461.469 328.266 461.935 328.329C463.058 328.487 466.077 327.562 467.761 328.353C466.947 326.922 465.319 326.716 464.821 324.614C463.279 318.045 467.461 313.168 474.085 313.358C475.934 313.413 477.436 314.235 478.804 315.381C480.171 316.527 480.282 317.998 480.401 318.1C479.499 319.175 479.792 328.171 481.183 326.788L482.756 324.432L484.353 326.788C484.084 326.961 483.863 327.388 483.562 327.578L465.635 336.131C460.971 332.74 461.761 337.356 459.042 338.992C458.173 339.514 448.339 343.285 447.557 343.395C443.826 343.917 441.036 338.755 434.728 340.755C428.894 342.605 430.673 346.897 429.771 348.035C429.368 348.541 419.053 350.826 417.227 351.284C417.045 351.331 416.523 351.877 415.646 352.075L410.911 351.276L412.579 346.921C409.97 343.308 409.765 340.194 404.769 338.866C400.453 337.712 401.552 339.15 399.757 340.518C399.18 340.961 398.066 340.866 397.71 341.229C395.054 343.909 397.449 349.426 395.86 352.422L397.481 353.64L376.589 355.26L345.366 354.43C346.488 350.201 350.401 351.071 348.954 345.719C347.508 340.368 342.433 336.676 336.734 338.305C329.959 340.241 333.05 343.885 332.734 344.162C332.56 344.312 331.177 343.838 330.576 344.336C330.315 344.549 328.71 348.51 328.853 349.142C329.88 352.201 333.92 350.264 335.097 352.849L331.145 353.648C330.884 353.616 330.616 353.687 330.355 353.648C330.821 351.197 329.145 352.304 327.722 351.972C320.719 350.343 313.668 349.505 306.664 348.114C306.411 348.067 306.127 348.162 305.874 348.114C304.941 346.676 302.206 345.68 301.139 347.324C295.637 346.13 290.381 343.98 285.346 341.791C283.401 340.945 274.595 336.977 273.734 336.02C272.643 334.803 271.386 328.685 271.038 328.455C268.88 328.843 266.177 327.649 264.398 327.697C261.679 327.776 258.873 330.882 256.051 327.206C253.98 324.511 259.118 320.472 259.284 318.883L264.794 319.658C263.679 316.093 268.485 312.709 268.793 310.536C269.149 308.046 266.912 307.002 267.181 304.662L269.41 304.568C269.505 301.833 270.524 299.564 273.497 299.129C273.117 300.007 271.789 305.232 271.963 305.761C275.417 307.737 277.093 310.638 281.575 310.03C283.954 309.706 287.219 307.421 289.069 307.184C290.476 307.002 294.863 308.536 295.582 307.793C295.843 307.524 295.124 305.366 296.388 304.251C297.827 302.987 302.594 302.789 303.874 301.469C307.297 297.936 304.396 293.39 301.471 290.497C297.55 286.608 294.373 288.292 290.08 289.652V288.071C292.223 287.343 294.515 285.502 297.187 285.691C297.535 284.379 295.748 285.312 295.566 284.442C294.491 279.328 302.428 277.834 306.269 278.609C308.087 278.972 308.617 280.798 310.237 280.972C311.858 281.146 321.976 278.34 324.837 277.802C322.877 284.735 318.434 284.237 321.501 292.592C323.161 297.114 328.647 297.564 332.955 296.584C334.655 296.197 338.283 291.264 338.741 289.675C339.445 287.209 336.647 286.419 336.686 284.126L342.204 284.909C343.777 279.36 337.334 280.119 337.469 275.431C342.797 274.783 348.923 274.103 354.053 273.85C354.835 273.811 355.634 273.882 356.424 273.85L356.416 273.858ZM401.702 299.406C395.789 305.54 402.658 315.816 411.741 313.002C420.602 310.251 417.432 295.09 408.223 295.983C406.872 296.118 402.651 298.426 401.702 299.414V299.406ZM376.36 300.125C373.965 302.694 374.597 307.627 376.281 310.472C381.221 318.812 395.615 314.409 393.521 303.508C393.031 300.971 386.857 296.797 384.486 296.726C383.023 296.679 377.213 299.216 376.36 300.133V300.125ZM337.247 302.52C335.659 301.018 328.513 300.062 326.386 301.105C325.375 301.603 325.225 303.145 324.616 303.659C323.778 304.362 322.015 304.409 321.778 304.773C321.304 305.508 321.549 311.381 322.078 312.559C322.537 313.571 327.572 316.915 328.592 317.168C334.987 318.749 341.919 306.931 337.247 302.528V302.52ZM347.729 310.986C343.682 309.769 338.892 318.994 338.979 321.626C339.255 329.799 352.677 334.74 355.8 325.776C357.657 320.448 356.464 316.741 353.128 312.67L347.745 313.342L347.729 310.986ZM291.1 331.009C292.167 330.06 293.827 329.752 294.784 328.716C297.795 325.436 295.788 315.294 290.491 314.859C284.792 314.393 278.951 317.215 278.374 323.42C278.326 323.934 279.97 330.202 280.223 330.716C281.496 333.269 287.978 334.898 290.397 333.159C291.084 332.661 290.744 331.317 291.1 331.009ZM426.53 332.139C428.293 331.119 430.846 324.827 430.688 322.456C430.467 319.096 425.21 315.389 422.167 315.097C415.211 314.425 408.634 323.491 415.132 329.665C417.401 331.823 423.961 333.625 426.53 332.139ZM303.582 324.535C304.135 331.688 305.17 338.21 314.063 337.577C318.166 337.285 317.019 335.514 318.189 333.182C318.687 332.194 319.77 331.87 320.079 330.337C321.201 324.764 319.786 322.314 314.419 321.017C308.396 319.555 308.237 321.792 303.582 324.543V324.535ZM375.98 330.874C373.822 331.151 369.245 334.834 368.226 336.613C363.467 344.913 377.53 352.549 382.517 346.96C383.932 345.371 385.916 340.494 385.624 338.305C385.142 334.621 379.664 330.4 375.98 330.866V330.874Z" fill="#F3C56E"/>
<path d="M514.364 297.556C512.909 294.932 514.475 291.604 514.403 288.45C513.265 237.165 427.105 214.787 386.862 212.992C339.679 210.898 240.666 225.173 225.9 280.348C224.414 285.889 225.006 290.632 223.75 295.975C200.779 252.286 240.073 219.419 277.24 204.527C333.624 181.927 410.845 181.398 466.723 205.783C503.772 221.956 537.706 254.942 514.364 297.556Z" fill="#B8540D"/>
<path d="M381.693 252.531C381.954 252.531 382.223 252.531 382.484 252.531C384.373 252.515 386.476 252.666 388.8 252.531C387.907 254.468 392.27 263.321 393.305 263.606C397.677 264.333 404.815 262.618 407.771 259.226C409.115 257.685 407.439 256.112 407.747 254.12C409.368 254.594 412.577 255.796 414.063 256.491C416.442 257.598 421.296 260.547 421.77 263.297C421.976 264.483 420.687 265.606 421.533 267.526C423.351 271.637 430.165 272.467 434.03 271.336C435.919 270.783 436.504 268.325 437.809 267.21C441.563 264.001 445.247 265.945 449.65 266.301C453.231 272.965 446.377 277.763 451.934 283.77C460.139 292.639 469.688 278.751 464.273 274.585C462.835 273.479 460.424 274.04 458.827 273.123C457.752 272.506 456.298 268.957 455.143 267.929C462.771 268.933 467.103 273.652 472.312 278.569C472.976 279.194 474.486 279.115 475.237 280.205C476.597 282.182 476.668 290.932 474.059 291.636C473.996 294.015 476.715 293.153 477.814 293.825C479.853 295.058 482.383 302.18 487.497 299.137V301.516C491.734 300.773 494.785 298.204 499.346 299.137C501.093 304.014 495.884 308.939 496.169 312.899C496.208 313.437 499.52 314.093 498.556 316.519C498.279 316.772 498.05 317.065 497.765 317.31C493.947 313.357 489.861 318.914 490.659 322.843C489.766 322.851 488.857 322.938 487.956 322.78C486.019 322.448 481.798 319.326 480.391 318.092C480.272 317.99 480.122 316.48 478.794 315.373C477.466 314.267 475.933 313.405 474.075 313.35C474.51 309.547 470.154 309.943 468.558 307.413C467.909 305.785 472.913 305.318 473.854 304.449C474.289 304.046 475.458 300.797 475.537 300.109C476.02 295.675 469.585 297.366 470.81 292.948L461.902 291.975C461.301 294.205 459.127 295.05 459.863 297.564L452.756 295.975C451.397 293.43 450.535 293.896 448.804 292.813C447.073 291.73 447.073 290.885 444.069 290.442C442.417 290.197 439.99 290.798 438.544 290.442C437.484 290.181 429.762 286.592 427.485 285.699C438.283 280.403 424.94 269.961 417.28 271.898C415.304 272.396 409.383 275.723 410.119 278.585C409.874 278.522 409.573 278.648 409.328 278.585C406.807 277.945 403.992 277.423 401.431 277.004C404.704 272.024 397.495 265.835 393.068 265.234C387.488 264.475 378.927 267.874 382.476 274.641C379.243 274.38 375.338 273.992 372.208 273.85C370.635 273.779 369.046 273.882 367.473 273.85C372.145 270.633 366.493 270.277 366.05 269.74C365.505 269.068 366.264 266.356 364.651 266.017C359.568 267.637 354.027 267.036 354.051 273.85C348.921 274.103 342.795 274.783 337.467 275.431C336.044 275.605 334.795 276.04 333.515 276.221V273.85C330.543 273.739 327.539 273.178 327.989 277.012C326.764 277.225 325.768 277.621 324.827 277.802C321.966 278.34 311.824 281.146 310.228 280.972C308.631 280.798 308.085 278.972 306.259 278.609C302.418 277.834 294.489 279.328 295.557 284.442C295.738 285.32 297.533 284.379 297.177 285.691C294.505 285.502 292.221 287.343 290.071 288.071C287.921 288.798 285.075 288.766 282.964 290.442C282.466 290.513 281.795 290.323 281.384 290.442C278.372 286.853 275.02 289.059 271.123 288.869L271.906 292.015L267.21 292.062C266.958 292.307 266.728 297.39 266.215 298.568C265.558 300.086 260.982 302.789 261.638 306.235C259.503 306.575 258.753 303.572 257.148 303.2C255.417 302.797 250.468 304.283 248.247 303.066C248.903 307.31 245.544 306.662 244.69 307.801C243.757 309.042 242.437 314.662 241.117 316.496C235.774 311.618 235.394 311.128 230.849 305.437C232.825 301.303 236.762 299.437 239.552 296.37C241.03 294.75 241.979 292.805 243.481 291.217C245.631 292.884 246.121 288.908 247.378 287.612C252.982 281.826 261.914 282.853 266.784 276.221C268.578 283.059 273.028 287.185 280.419 284.355C280.656 284.268 283.866 281.02 283.968 280.782C285.178 278.047 283.953 274.411 286.846 271.747C287.004 269.874 283.526 270.435 284.545 267.526L289.288 265.945C289.549 265.961 289.826 265.906 290.079 265.945C291.581 266.183 295.699 268.088 296.624 269.068C297.628 270.127 297.248 271.747 298.782 272.649C299.264 272.933 305.026 274.546 305.366 274.482C306.647 274.23 312.125 269.155 312.623 267.582C314.204 262.546 311.366 262.23 310.607 258.057C313.563 257.598 315.358 258.76 318.504 257.266C318.765 257.14 319.002 256.61 319.294 256.476L327.689 263.448C333.404 267.068 333.451 265.511 339.688 264.23C341.617 260.499 340.186 257.408 344.51 256.033L343.783 253.322C345.625 253.986 350.352 253.116 351.632 253.685C352.32 253.994 352.928 255.132 353.758 255.59C354.77 256.152 356.604 256.246 357.015 256.657C357.782 257.408 357.719 261.242 360.043 262.712C363.046 264.617 370.169 263.851 372.263 260.863C373.046 259.74 372.745 258.31 373.283 257.519C374.255 256.088 378.31 255.045 376.152 252.523C376.413 252.555 376.682 252.492 376.943 252.523C379.29 252.847 380.381 252.492 381.678 252.523L381.693 252.531ZM261.598 289.572L258.824 284.181C256.824 285.525 253.741 285.754 251.962 286.482C250.99 286.885 251.377 288.513 250.658 289.28C248.951 291.098 244.983 292.505 245.378 295.991C248.548 301.587 265.962 299.935 259.282 290.853L261.598 289.565V289.572Z" fill="#E0A54A"/>
<path d="M281.406 290.45C280.323 290.766 274.095 297.786 273.51 299.137C270.537 299.564 269.518 301.841 269.423 304.576L267.194 304.671C266.933 307.01 269.162 308.054 268.806 310.544C268.498 312.717 263.692 316.101 264.807 319.666L259.297 318.891C259.447 317.5 259.005 315.69 257.716 314.939C257.297 313.136 259.21 313.792 259.368 312.212C259.811 307.753 258.325 303.635 254.159 307.824L253.764 313.358L252.973 314.148C248.057 312.425 248.254 322.077 243.496 318.891C242.397 317.982 241.899 317.231 241.124 316.52C242.444 314.686 243.757 309.065 244.697 307.824C245.559 306.686 248.91 307.334 248.254 303.09C250.483 304.307 255.424 302.821 257.155 303.224C258.76 303.595 259.51 306.599 261.645 306.259C260.989 302.805 265.565 300.11 266.222 298.592C266.735 297.414 266.965 292.323 267.218 292.086L271.913 292.039L271.13 288.893C275.035 289.083 278.379 286.877 281.391 290.466L281.406 290.45Z" fill="#E8B561"/>
<path d="M483.565 327.578C481.217 329.033 478.925 331.009 476.459 332.321C464.151 338.866 450.334 343.395 436.975 347.332C433.742 348.281 430.517 349.442 427.11 349.719C426.723 349.869 426.667 350.122 426.707 350.494C425.94 350.573 425.079 350.375 424.336 350.494C423.347 350.652 423.039 351.197 422.755 351.284H417.229C419.063 350.826 429.371 348.541 429.774 348.035C430.675 346.897 428.897 342.597 434.73 340.755C441.038 338.755 443.82 343.917 447.559 343.395C448.342 343.285 458.175 339.522 459.045 338.993C461.764 337.356 460.981 332.748 465.637 336.131L483.565 327.578Z" fill="#F6D081"/>
<path d="M445.654 264.381L448.816 265.171C455.685 266.744 460.088 266.926 466.38 271.479C472.672 276.032 472.388 276.807 480.15 280.83C491.628 286.775 490.078 289.636 497.224 297.327C499.682 299.975 506.03 302.244 507.247 307.042C504.085 310.757 502.457 312.955 498.56 316.52C499.524 314.093 496.212 313.437 496.173 312.899C495.888 308.947 501.105 304.015 499.35 299.137C494.789 298.205 491.738 300.774 487.509 301.517V299.137C482.387 302.181 479.85 295.059 477.818 293.825C476.719 293.161 474 294.015 474.063 291.636C476.672 290.924 476.601 282.174 475.241 280.206C474.49 279.115 472.973 279.194 472.316 278.57C467.107 273.653 462.783 268.934 455.148 267.93C456.302 268.957 457.756 272.507 458.831 273.123C460.436 274.032 462.847 273.479 464.277 274.586C469.692 278.751 460.143 292.648 451.938 283.771C446.389 277.763 453.243 272.965 449.654 266.301C445.243 265.946 441.567 264.001 437.813 267.211C436.516 268.325 435.923 270.783 434.034 271.337C430.169 272.467 423.355 271.637 421.537 267.527C420.691 265.606 421.972 264.483 421.774 263.298C421.3 260.547 416.446 257.598 414.067 256.492V255.701C422.375 256.958 427.552 254.69 436.477 258.958C440.224 260.752 441.646 263.369 445.654 264.389V264.381ZM454.341 269.914H451.978V271.487H454.341V269.914Z" fill="#E8B561"/>
<path d="M257.704 314.938C258.993 315.689 259.427 317.5 259.285 318.891C259.119 320.48 253.981 324.527 256.052 327.214C258.874 330.89 261.672 327.784 264.399 327.704C266.178 327.657 268.881 328.843 271.039 328.463C271.387 328.693 272.644 334.819 273.735 336.028C274.596 336.985 283.402 340.953 285.347 341.798C272.731 337.799 259.838 331.254 249.017 323.626C251.175 321.705 252.416 317.183 252.969 314.148L253.76 313.358C254.637 314.772 257.08 314.575 257.712 314.938H257.704Z" fill="#F6D081"/>
<path d="M497.777 317.302C492.663 321.784 489.856 323.302 484.355 326.78L482.758 324.424L481.185 326.78C479.794 328.155 479.501 319.168 480.402 318.093C481.809 319.326 486.031 322.448 487.967 322.78C488.868 322.938 489.777 322.851 490.671 322.843C489.872 318.915 493.959 313.358 497.777 317.31V317.302Z" fill="#E8B561"/>
<path d="M252.974 314.148C252.429 317.192 251.18 321.705 249.022 323.626C246.627 321.942 245.528 320.575 243.497 318.883C248.255 322.077 248.058 312.425 252.974 314.141V314.148Z" fill="#F3C56E"/>
<path d="M306.668 348.114C313.679 349.506 320.73 350.343 327.726 351.972C329.149 352.304 330.825 351.197 330.358 353.648C325.046 352.881 319.798 351.632 314.565 350.486C311.98 349.917 308.439 350.146 306.668 348.114Z" fill="#F6D081"/>
<path d="M305.878 348.115C304.352 347.814 302.795 347.688 301.143 347.324C302.21 345.68 304.945 346.676 305.878 348.115Z" fill="#F6D081"/>
<path d="M426.709 350.486C426.725 350.604 427.42 350.881 427.507 351.26L424.338 350.486C425.073 350.367 425.942 350.565 426.709 350.486Z" fill="#AC4F06"/>
<path d="M376.168 252.531C378.326 255.053 374.271 256.096 373.299 257.527C372.754 258.325 373.062 259.748 372.279 260.871C370.193 263.859 363.07 264.625 360.059 262.72C357.735 261.25 357.798 257.416 357.031 256.665C356.62 256.254 354.778 256.167 353.775 255.598C352.945 255.132 352.328 253.994 351.648 253.693C350.368 253.124 345.641 253.994 343.799 253.33L344.526 256.041C340.21 257.416 341.641 260.507 339.704 264.238C333.468 265.527 333.42 267.076 327.705 263.456L319.31 256.484C322.306 255.092 329.341 251.741 332.337 251.741H344.969C347.403 251.741 348.803 251.891 351.68 251.741C361.584 251.219 366.09 251.235 376.16 252.531H376.168Z" fill="#E8B561"/>
<path d="M289.304 265.962L284.561 267.543C283.542 270.444 287.02 269.89 286.861 271.764C283.968 274.435 285.194 278.064 283.984 280.799C283.881 281.036 280.672 284.285 280.435 284.372C273.044 287.201 268.594 283.075 266.799 276.238C261.93 282.87 252.998 281.842 247.394 287.628C246.137 288.925 245.647 292.893 243.497 291.233C248.453 285.984 250.374 283.953 257.164 280.814C259.006 279.961 261.646 280.024 263.187 278.941C264.215 278.214 265.63 275.582 267.179 274.246C272.285 269.859 282.506 265.614 289.296 265.962H289.304Z" fill="#E8B561"/>
<path d="M310.621 258.057C311.38 262.231 314.218 262.555 312.637 267.582C312.139 269.163 306.661 274.23 305.381 274.483C305.049 274.546 299.286 272.933 298.796 272.649C297.263 271.748 297.642 270.127 296.638 269.068C295.713 268.088 291.595 266.183 290.093 265.946C291.342 264.009 293.682 263.053 295.618 261.993C300.764 261.337 305.42 258.855 310.621 258.041V258.057Z" fill="#E8B561"/>
<path d="M376.957 250.95V252.531C376.696 252.5 376.427 252.563 376.166 252.531C366.096 251.235 361.598 251.219 351.686 251.741C359.907 248.358 368.531 248.982 376.957 250.95Z" fill="#F3C56E"/>
<path d="M414.069 255.686V256.476C412.583 255.781 409.373 254.579 407.753 254.105C399.864 251.797 396.671 252.081 388.798 252.524C386.474 252.658 384.371 252.508 382.482 252.524C389.651 250.247 398.781 250.2 406.014 252.287C408.575 253.03 411.674 255.322 414.069 255.686Z" fill="#F6D081"/>
<path d="M318.518 257.266C315.372 258.76 313.577 257.598 310.621 258.057C305.42 258.871 300.764 261.345 295.618 262.009C303.309 257.82 309.617 256.476 318.518 257.266Z" fill="#F6D081"/>
<path d="M381.692 252.531C380.396 252.5 379.305 252.856 376.957 252.531V250.951C378.594 251.33 380.19 251.765 381.692 252.531Z" fill="#E8B561"/>
<path d="M448.82 265.171L445.658 264.381C446.654 264.634 447.848 264.95 448.82 265.171Z" fill="#BD5E14"/>
<path d="M331.149 353.64L335.101 352.842C333.923 350.257 329.884 352.194 328.857 349.134C328.714 348.502 330.319 344.542 330.58 344.328C331.173 343.83 332.556 344.305 332.738 344.155C333.054 343.878 329.963 340.234 336.738 338.297C342.429 336.669 347.456 340.171 348.958 345.712C350.46 351.253 346.492 350.194 345.369 354.423L376.593 355.253L397.485 353.632L395.864 352.415C397.453 349.411 395.058 343.894 397.714 341.222C398.078 340.858 399.184 340.953 399.761 340.511C401.556 339.143 400.457 337.704 404.773 338.858C409.761 340.186 409.974 343.309 412.583 346.913L410.915 351.269L415.65 352.067C393.019 357.158 364.475 356.834 341.417 355.229C341.362 355.229 341.212 354.486 340.627 354.438C338.603 354.265 336.24 354.715 334.311 354.438C334.216 354.059 333.892 353.711 333.52 353.648C332.793 353.522 331.908 353.751 331.149 353.648V353.64Z" fill="#F6D081"/>
<path d="M290.086 289.66C294.378 288.308 297.556 286.624 301.477 290.505C304.402 293.398 307.303 297.944 303.88 301.477C302.599 302.797 297.833 302.995 296.394 304.259C295.129 305.366 295.849 307.524 295.588 307.801C294.876 308.544 290.481 307.01 289.074 307.192C287.225 307.429 283.96 309.714 281.581 310.038C277.091 310.639 275.423 307.738 271.969 305.769C271.795 305.24 273.123 300.015 273.502 299.137C274.087 297.786 280.316 290.758 281.399 290.45C281.81 290.331 282.482 290.521 282.98 290.45C282.695 294.047 287.865 290.363 290.086 289.66Z" fill="#F6D081"/>
<path d="M452.762 295.976L459.868 297.565C459.133 295.051 461.307 294.213 461.908 291.976L470.816 292.948C469.591 297.367 476.025 295.676 475.543 300.11C475.472 300.798 474.302 304.047 473.86 304.45C472.919 305.327 467.915 305.794 468.563 307.414C470.16 309.943 474.524 309.548 474.081 313.35C467.465 313.161 463.283 318.046 464.817 324.607C465.307 326.709 466.943 326.923 467.757 328.345C466.073 327.547 463.062 328.472 461.931 328.322C461.465 328.259 461.165 325.84 459.07 326.78C464.413 322.923 460.943 312.014 452.754 311.769C452.138 308.41 453.687 305.066 453.576 301.889C453.489 299.367 453.726 299.841 451.173 299.92C451.252 299.422 451.118 298.853 451.173 298.339C451.893 298.458 452.778 298.268 453.537 298.339C453.79 297.256 453.181 296.774 452.754 295.976H452.762Z" fill="#E8B561"/>
<path d="M337.476 275.439C337.341 280.126 343.784 279.368 342.211 284.917L336.693 284.134C336.654 286.434 339.46 287.225 338.748 289.683C338.29 291.264 334.662 296.204 332.962 296.592C328.654 297.572 323.16 297.121 321.508 292.6C318.441 284.245 322.884 284.743 324.844 277.81C325.785 277.636 326.773 277.233 328.006 277.02C329.887 276.696 331.65 276.49 333.531 276.229C334.812 276.055 336.061 275.613 337.484 275.439H337.476Z" fill="#F6D081"/>
<path d="M367.476 273.858C369.049 273.89 370.645 273.787 372.21 273.858L369.839 275.447C370.582 277.178 372.614 277.724 373.001 279.818C373.262 281.257 372.005 288.577 371.444 289.929C371.08 290.798 369.886 290.253 369.341 290.687C368.195 291.581 369.143 292.505 366.353 292.869C360.306 293.675 354.796 290.158 354.773 283.739C354.757 280.459 357.176 277.4 356.425 273.858C360.069 273.724 363.832 273.787 367.483 273.858H367.476Z" fill="#F6D081"/>
<path d="M376.361 300.125C377.215 299.216 383.025 296.671 384.487 296.718C386.867 296.789 393.032 300.963 393.522 303.5C395.617 314.409 381.223 318.804 376.282 310.464C374.599 307.619 373.966 302.686 376.361 300.117V300.125Z" fill="#F6D081"/>
<path d="M291.107 331.009C290.751 331.325 291.091 332.669 290.404 333.159C287.985 334.898 281.511 333.27 280.23 330.716C279.977 330.203 278.333 323.942 278.381 323.42C278.95 317.207 284.791 314.385 290.498 314.86C295.795 315.294 297.802 325.436 294.791 328.717C293.834 329.752 292.182 330.06 291.107 331.009Z" fill="#F6D081"/>
<path d="M347.734 310.986L347.749 313.342L353.132 312.67C356.468 316.741 357.662 320.44 355.804 325.776C352.682 334.748 339.26 329.799 338.983 321.626C338.896 318.994 343.686 309.777 347.734 310.986Z" fill="#F6D081"/>
<path d="M375.985 330.875C379.668 330.4 385.146 334.629 385.628 338.313C385.913 340.502 383.937 345.38 382.522 346.968C377.534 352.557 363.471 344.921 368.23 336.621C369.25 334.835 373.834 331.151 375.985 330.882V330.875Z" fill="#F6D081"/>
<path d="M426.532 332.139C423.963 333.625 417.403 331.823 415.134 329.665C408.636 323.492 415.213 314.417 422.169 315.097C425.212 315.389 430.469 319.097 430.69 322.456C430.848 324.827 428.295 331.12 426.532 332.139Z" fill="#F6D081"/>
<path d="M452.761 311.777C460.959 312.014 464.421 322.922 459.077 326.788C454.809 329.878 446.319 329.554 444.422 323.673C442.082 316.393 444.683 311.54 452.761 311.777Z" fill="#F6D081"/>
<path d="M401.708 299.406C402.656 298.426 406.877 296.109 408.229 295.975C417.438 295.082 420.616 310.243 411.747 312.994C402.664 315.808 395.803 305.532 401.708 299.398V299.406Z" fill="#F6D081"/>
<path d="M303.586 324.535C308.242 321.792 308.4 319.547 314.423 321.01C319.79 322.314 321.197 324.757 320.083 330.329C319.774 331.863 318.684 332.187 318.193 333.175C317.024 335.507 318.17 337.278 314.067 337.57C305.175 338.21 304.139 331.681 303.586 324.527V324.535Z" fill="#F6D081"/>
<path d="M337.251 302.521C341.923 306.924 334.991 318.741 328.596 317.16C327.576 316.907 322.541 313.564 322.082 312.552C321.553 311.374 321.308 305.509 321.782 304.766C322.019 304.402 323.782 304.363 324.62 303.651C325.229 303.137 325.379 301.596 326.39 301.098C328.509 300.054 335.663 301.019 337.251 302.513V302.521Z" fill="#F6D081"/>
<path d="M444.076 290.45L444.179 292.703C445.064 293.082 446.542 293.003 447.238 293.612C448.408 294.623 448.028 297.825 451.19 298.354C451.135 298.868 451.269 299.437 451.19 299.935C450.866 302.014 447.942 307.121 445.878 307.706C433.887 308.061 432.812 299.082 438.559 290.458C440.005 290.813 442.432 290.213 444.084 290.458L444.076 290.45Z" fill="#F6D081"/>
<path d="M410.123 278.601C409.388 275.739 415.316 272.412 417.285 271.914C424.952 269.977 438.287 280.411 427.49 285.715C427.26 285.628 426.92 285.81 426.699 285.715C424.952 284.964 423.213 282.601 422.976 282.545C417.735 281.336 414.969 279.897 410.115 278.609L410.123 278.601Z" fill="#E8B561"/>
<path d="M401.437 277.021C401.184 276.981 400.907 277.06 400.646 277.021C394.599 276.088 389.935 275.977 384.062 275.44C383.327 275.369 382.647 274.665 382.481 274.649C378.932 267.883 387.493 264.484 393.074 265.243C397.5 265.844 404.701 272.033 401.437 277.013V277.021Z" fill="#E8B561"/>
<path d="M410.122 278.601C414.975 279.89 417.75 281.336 422.982 282.538C423.22 282.593 424.951 284.957 426.706 285.708C420.864 294.537 409.086 288.371 409.331 278.601C409.576 278.665 409.877 278.538 410.122 278.601Z" fill="#F6D081"/>
<path d="M354.056 273.858C354.033 267.036 359.574 267.645 364.657 266.025C366.269 266.373 365.51 269.084 366.056 269.748C366.498 270.285 372.15 270.641 367.479 273.858C363.827 273.787 360.072 273.724 356.42 273.858C355.63 273.89 354.839 273.819 354.049 273.858H354.056Z" fill="#E8B561"/>
<path d="M400.645 277.02C395.578 282.877 387.484 283.091 384.061 275.439C389.934 275.976 394.59 276.079 400.645 277.02Z" fill="#F6D081"/>
<path d="M290.084 288.079V289.66C287.862 290.363 282.693 294.047 282.977 290.45C285.088 288.774 287.894 288.822 290.084 288.079Z" fill="#E8B561"/>
<path d="M407.753 254.112C407.445 256.104 409.121 257.677 407.777 259.219C404.821 262.61 397.683 264.333 393.312 263.598C392.276 263.313 387.905 254.46 388.806 252.523C396.679 252.081 399.864 251.796 407.761 254.104L407.753 254.112Z" fill="#E8B561"/>
<path d="M261.594 289.572L259.278 290.861C265.949 299.943 248.543 301.595 245.373 295.999C244.978 292.521 248.946 291.106 250.654 289.288C251.373 288.521 250.978 286.893 251.958 286.49C253.737 285.754 256.819 285.525 258.819 284.189L261.594 289.58V289.572Z" fill="#E8B561"/>
<path d="M452.76 295.975C453.187 296.774 453.796 297.256 453.543 298.339C452.784 298.276 451.898 298.465 451.179 298.339C448.025 297.809 448.405 294.608 447.227 293.596L448.808 292.806C450.531 293.881 451.393 293.422 452.76 295.968V295.975Z" fill="#F3C56E"/>
<path d="M327.994 277.02C327.552 273.186 330.548 273.747 333.528 273.858V276.229C331.638 276.49 329.876 276.696 327.994 277.02Z" fill="#F3C56E"/>
<path d="M448.817 292.814L447.236 293.604C446.541 293.003 445.062 293.075 444.177 292.695L444.074 290.442C447.078 290.885 447.031 291.699 448.809 292.814H448.817Z" fill="#E8B561"/>
<path d="M253.762 313.358L254.157 307.824C258.331 303.635 259.817 307.753 259.367 312.212C259.209 313.8 257.288 313.136 257.715 314.939C257.082 314.575 254.648 314.773 253.762 313.358Z" fill="#F3C56E"/>
<path d="M341.416 355.221L340.626 354.43C341.211 354.478 341.361 355.213 341.416 355.221Z" fill="#BD5E14"/>
<path d="M334.313 354.43C333.942 354.375 333.61 354.019 333.523 353.64C333.894 353.703 334.218 354.051 334.313 354.43Z" fill="#BD5E14"/>
<path d="M454.345 269.914H451.982V271.487H454.345V269.914Z" fill="#E0A54A"/>
<path d="M126.459 393.369C153.864 390.713 173.001 401.874 184.155 426.821C212.793 490.865 161.682 593.364 94.4133 611.727C29.4055 629.472 11.2643 563.927 21.0344 513.045C30.0141 466.273 75.0153 398.349 126.459 393.369ZM131.194 401.273C61.696 407.099 -0.173716 522.61 35.168 582.969C49.5149 607.474 76.9124 611.782 102.12 602.067C155.532 581.491 192.383 511.021 184.953 455.254C181.167 426.876 163.223 398.586 131.194 401.273Z" fill="#7D3A00"/>
<path d="M131.192 401.273C163.229 398.586 181.173 426.877 184.951 455.254C192.381 511.022 155.538 581.499 102.118 602.067C76.9025 611.774 49.505 607.466 35.166 582.97C-0.175674 522.61 61.694 407.099 131.192 401.273ZM60.287 523.479C65.6463 531.748 70.8792 539.447 81.5663 541.296C111.667 546.498 135.934 509.844 128.401 482.596C124.504 468.487 115.888 463.364 102.925 458.709C96.9092 456.543 94.7038 455.009 87.7477 455.776C73.9304 457.294 57.6389 472.629 54.9355 486.146C51.7895 501.868 51.6156 510.12 60.279 523.487L60.287 523.479Z" fill="#C5621B"/>
<path d="M102.936 458.708C129.646 482.564 94.8097 548.054 60.2901 523.487C51.6266 510.12 51.8005 501.868 54.9466 486.145C57.65 472.628 73.9415 457.293 87.7588 455.776C94.7228 455.009 96.9203 456.55 102.936 458.708Z" fill="#B8540D"/>
<path d="M102.935 458.709C115.898 463.364 124.514 468.495 128.411 482.596C135.937 509.844 111.677 546.498 81.5764 541.296C70.8893 539.447 65.6565 531.748 60.2971 523.479C94.8167 548.047 129.652 482.557 102.943 458.701L102.935 458.709Z" fill="#8F4001"/>
<path fill-rule="evenodd" clip-rule="evenodd" d="M326.922 178.394C383.369 171.588 442.148 177.548 493.038 201.981V201.974C509.005 209.641 524.798 224.107 534.102 239.102C533.553 239.263 533.372 239.541 533.394 239.868C533.38 239.548 533.565 239.277 534.108 239.118C539.693 248.13 543.224 255.944 544.373 266.745C545.554 267.292 545.136 268.863 545.159 269.906C544.573 269.642 544.387 269.153 544.344 268.603L544.333 268.325C544.336 268.987 544.473 269.606 545.159 269.914C545.301 275.756 545.68 282.474 544.368 288.086C544.444 274.608 543.594 262.931 538.922 250.965C543.59 262.929 544.439 274.597 544.363 288.071C544.363 288.593 544.402 289.13 544.363 289.652C543.675 298.418 533.186 315.176 527.399 322.053C488.509 368.248 403.873 382.626 346.557 378.121C292.881 373.9 215.622 351.712 196.34 295.063L196.115 294.395C196.093 294.326 196.087 294.246 196.088 294.157L195.943 292.842L194.534 292.814C191.365 271.961 194.384 254.278 206.384 236.73C206.652 236.857 206.723 237.169 206.672 237.575C206.72 237.193 206.662 236.894 206.432 236.756C206.417 236.746 206.4 236.738 206.384 236.73C225.6 208.613 270.285 186.441 303.516 181.437C310.59 180.37 319.381 179.303 326.922 178.394ZM466.739 205.792C410.861 181.406 333.641 181.928 277.257 204.535C240.097 219.427 200.796 252.295 223.766 295.983L223.758 295.976C226.715 301.603 227.797 301.612 230.864 305.453C235.409 311.153 235.789 311.635 241.132 316.512C241.907 317.224 242.405 317.975 243.504 318.884C245.535 320.567 246.634 321.935 249.029 323.626C259.843 331.246 272.743 337.791 285.359 341.799C290.394 343.988 295.651 346.13 301.153 347.332C302.813 347.695 304.37 347.822 305.887 348.122C306.14 348.17 306.425 348.075 306.678 348.122C308.448 350.154 311.99 349.925 314.575 350.494C314.108 352.944 315.776 351.838 317.207 352.17C346.288 358.975 394.277 360.256 422.766 351.284C423.05 351.197 423.351 350.652 424.346 350.494L427.516 351.269C427.429 350.889 426.726 350.612 426.718 350.494C426.678 350.115 426.734 349.87 427.121 349.719C430.528 349.443 433.753 348.288 436.986 347.332C438.456 348.628 442.147 347.174 443.823 346.668C454.162 343.53 464.565 339.246 474.241 334.432C474.462 334.321 478.469 332.906 476.478 332.322C478.944 331.009 481.237 329.033 483.584 327.579C483.884 327.389 484.098 326.962 484.375 326.788C489.884 323.302 492.682 321.792 497.796 317.31C498.073 317.065 498.31 316.773 498.587 316.52C502.484 312.955 504.112 310.757 507.274 307.042C510.721 302.995 511.401 303.003 514.381 297.564C537.723 254.95 503.788 221.964 466.739 205.792ZM544.382 266.976C544.388 267.205 544.372 267.454 544.357 267.709C544.372 267.455 544.388 267.206 544.382 266.976ZM544.379 266.921C544.377 266.864 544.375 266.809 544.369 266.755L544.368 266.752C544.374 266.807 544.377 266.864 544.379 266.921ZM205.225 240.929C205.137 241.078 205.067 241.192 205.024 241.26C204.141 242.684 203.31 244.137 202.534 245.619L202.535 245.62C203.117 244.508 203.729 243.413 204.372 242.334L205.225 240.929Z" fill="#C5621B"/>
<path d="M346.178 175.106C369.038 174.702 389.06 173.785 412.015 176.789C439.776 180.417 468.668 188.236 493.061 201.966L493.038 201.974C442.14 177.548 383.361 171.58 326.922 178.386C319.373 179.295 310.582 180.37 303.516 181.429L316.938 179.058L320.1 178.267C320.598 178.188 321.175 178.346 321.681 178.267L324.052 177.477C325.056 177.343 326.203 177.603 327.214 177.477L330.376 176.686C331.664 176.544 333.032 176.797 334.328 176.686L336.7 175.896C338.001 175.809 339.334 175.919 340.643 175.896C341.73 174.523 344.434 175.145 346.162 175.113C345.993 175.33 345.785 175.498 345.546 175.627C345.791 175.497 346.005 175.327 346.178 175.106Z" fill="#C5621B"/>
<path d="M330.36 353.64C330.621 353.679 330.889 353.608 331.15 353.64C331.901 353.743 332.794 353.513 333.522 353.64C333.609 354.019 333.941 354.375 334.312 354.43C336.241 354.707 338.612 354.256 340.628 354.43L341.418 355.221C364.476 356.833 393.02 357.149 415.651 352.059C416.528 351.861 417.042 351.316 417.232 351.268H422.757C394.269 360.24 346.28 358.96 317.198 352.154C315.776 351.822 314.1 352.928 314.566 350.478C319.799 351.624 325.048 352.873 330.36 353.64Z" fill="#C5621B"/>
<path d="M476.454 332.313C478.446 332.898 474.446 334.305 474.217 334.424C464.55 339.238 454.139 343.522 443.8 346.66C442.124 347.166 438.441 348.628 436.962 347.324C450.321 343.387 464.139 338.858 476.446 332.313H476.454Z" fill="#C5621B"/>
<path d="M218.547 406.64C205.899 386.609 184.499 372.284 160.683 368.679C160.683 368.679 160.495 369.338 161.348 369.464C181.837 372.215 199.781 394.846 206.745 412.924C237.012 491.48 178.28 616.429 96.4122 639.835C77.5622 645.221 61.8522 644.297 43.8093 636.519C43.7737 636.496 43.7376 636.475 43.702 636.452C40.4374 634.373 36.4215 632.223 33.7339 629.464L27.9081 625.385L27.9004 625.393C51.2087 649.367 71.6892 649.909 101.734 647.631C102.974 647.537 103.842 647.44 105.163 647.151C105.819 647.008 106.248 646.89 106.826 646.721C106.84 646.72 106.868 646.762 106.868 646.72C106.87 646.718 106.872 646.715 106.874 646.713C116.814 645.205 128.077 639.822 137.604 634.111L137.666 634.088L137.672 634.07C140.6 632.313 143.363 630.528 145.872 628.813L146.043 628.721C146.146 628.666 146.249 628.611 146.354 628.555C146.363 628.528 146.373 628.502 146.383 628.476L146.391 628.455C149.375 626.399 151.98 624.459 154.049 622.816C168.299 612.338 181.383 598.793 192.129 584.676C202.39 571.199 210.895 556.512 217.448 540.869C218.547 540.648 218.46 540.719 219.084 541.375C222.436 544.9 224.254 549.445 228.491 553.508L219.045 539.691C239.613 498.943 243.612 446.337 218.547 406.64Z" fill="#934400"/>
<path d="M141.231 367.085C142.857 367.027 144.453 367.097 146.032 367.234C153.462 367.435 162.725 368.284 167.217 370.763C167.228 370.77 167.239 370.777 167.251 370.783C185.232 376.545 200.471 396.578 206.759 412.9C237.025 491.456 178.294 616.405 96.4255 639.81C77.5413 645.209 61.7947 644.269 43.7009 636.443C40.4365 634.364 36.4215 632.222 33.7341 629.456L27.908 625.377C17.8298 615.014 11.6475 605.924 6.58862 592.202C6.58639 592.203 6.58406 592.205 6.58179 592.206C5.61032 589.559 4.96224 587.014 4.21167 584.312L3.42163 581.941C-1.32897 562.14 -0.688279 540.316 2.63159 520.325H3.42163C0.939609 543.153 -0.45191 566.504 6.4646 588.771C6.75361 589.704 8.10333 591.226 6.86304 592.052C8.11894 591.228 6.76801 589.699 6.47827 588.762C-0.438168 566.495 0.953257 543.145 3.4353 520.316C3.62496 518.601 3.41949 517.336 3.4353 517.154C3.4902 516.643 3.40427 516.102 3.43433 515.583C3.43202 515.582 3.4298 515.581 3.42749 515.581C3.71228 510.783 6.69954 502.318 8.16187 497.409V497.417C9.63179 498.16 8.71488 500.089 8.43823 501.235C7.51343 505.116 6.48632 509.424 5.37183 513.226C5.09522 514.158 5.29344 515.19 4.66284 515.539C5.31207 515.197 5.10684 514.157 5.37964 513.219C6.49414 509.424 7.53011 505.108 8.44702 501.227C8.72368 500.081 9.63994 498.144 8.16968 497.409C16.9517 468.051 35.0544 434.171 56.3416 412.094C57.4132 410.983 58.3994 410.014 59.4949 408.942C59.495 408.939 59.4947 408.935 59.4949 408.931C60.0322 408.402 60.507 407.881 61.0759 407.351C61.0837 407.344 61.0916 407.336 61.0994 407.329C63.2632 404.253 66.202 401.929 68.9753 399.463C69.3207 399.566 69.483 399.706 69.5232 399.867C69.4879 399.702 69.3257 399.559 68.9724 399.455C82.0467 387.795 97.2876 378.175 113.982 372.594C113.983 372.597 113.984 372.599 113.985 372.601C121.406 370.121 130.007 367.966 138.032 367.279C138.045 367.27 138.058 367.261 138.071 367.252C138.228 367.246 138.39 367.242 138.556 367.237C139.457 367.167 140.349 367.115 141.231 367.085ZM184.152 426.82C172.999 401.865 153.861 390.712 126.456 393.368C75.0125 398.348 30.0109 466.272 21.031 513.044C11.2688 563.926 29.4022 629.471 94.4099 611.725C161.678 593.363 212.79 490.863 184.152 426.82ZM6.58374 592.209H6.57593C6.57788 592.208 6.57985 592.207 6.58179 592.206C6.5822 592.207 6.58333 592.208 6.58374 592.209ZM3.42749 517.163C3.41201 517.338 3.61706 518.611 3.42749 520.325L2.63647 519.534C2.77873 518.696 2.96921 517.898 3.42749 517.163Z" fill="#BD5E14"/>
<path d="M199.931 320.277L200.54 319.666C200.272 319.825 200.113 320.167 199.931 320.277Z" fill="#C5621B"/>
<path d="M400.76 459.669C402.263 463.261 399.189 467.65 395.352 468.278C391.515 468.886 387.676 466.39 385.718 463.033C383.74 459.656 383.374 455.576 383.514 451.653C383.774 445.45 385.38 439.3 388.117 433.69C388.527 432.836 389.747 433.071 389.764 434.017C390.054 441.138 392.172 451.056 396.507 454.963C398.085 456.378 399.932 457.655 400.761 459.628L400.76 459.669Z" fill="#F26D1D"/>
<path d="M422.423 533.128C425.86 527.309 428.131 520.763 430.559 514.468C433.555 506.685 436.639 498.679 441.349 491.841C441.229 491.736 441.13 491.61 441.01 491.525C434.426 502.985 423.173 530.124 413.315 542.575C417.249 539.749 421.163 535.278 422.423 533.128Z" fill="#F26D1D"/>
<path d="M502.017 481.774C498.878 483.737 495.877 485.93 493.071 488.518C480.526 500.054 475.968 516.061 467.426 530.264C465.546 533.41 459.348 545.529 453.731 542C451.811 543.498 448.543 542.515 448.415 539.486C448.251 536.292 448.252 533.02 448.148 529.848C447.886 522.454 447.997 504.387 443.946 495.523C437.031 506.082 433.913 519.323 428.534 530.618C424.428 539.288 415.494 552 403.905 549.235C394.777 547.043 401.481 534.339 402.383 528.619C404.496 515.476 404.917 498.878 399.413 486.029C392.305 493.722 387.46 502.477 383.786 512.66C381.189 519.883 378.332 538.174 368.641 538.005C367.503 539.316 366.011 540.083 363.955 539.685C361.146 539.145 359.166 536.566 358.872 533.678C358.791 532.812 358.649 531.985 358.506 531.159C353.22 501.685 321.182 495.492 302.212 477.322C290.51 466.116 286.145 451.112 288.829 437.243C286.928 440.429 286.008 444.441 285.28 448.149C282.743 461.054 280.226 474.001 277.69 486.907C275.318 498.952 273.125 512.031 278.615 522.986C282.043 529.777 287.952 534.692 293.819 539.647C294.52 540.24 294.52 541.063 294.157 541.672C296.267 543.162 294.133 546.652 291.774 545.299C284.033 540.814 275.228 540.42 267.179 536.792C261.112 534.055 255.311 530.542 250.056 526.425C244.039 521.713 237.874 515.599 236.428 508.094C236.287 508.811 236.186 509.57 236.147 510.31C235.263 522.596 237.656 534.672 242.464 545.899C250.032 563.655 263.625 579.31 279.712 590.208C305.891 608.034 343.576 616.564 385.529 614.863C458.626 611.884 486.421 578.915 495.876 557.715C498.586 551.687 499.798 546.633 500.165 543.472C500.348 541.912 500.468 540.392 500.506 538.911C501.217 520.529 493.856 505.145 502.015 481.836L502.017 481.774Z" fill="#F26D1D"/>
<path d="M263.167 529.696C270.004 533.522 277.556 534.978 284.778 537.373C277.271 532.501 269.571 528.016 258.471 523.676C250.064 520.43 245.189 515.847 242.259 512.031C246.52 519.852 256.773 526.106 263.167 529.696Z" fill="#F26D1D"/>
<path d="M464.623 526.646C469.581 518.108 473.007 508.731 478.085 500.257C470.826 508.515 464.388 517.388 459.782 527.374C458.529 530.058 457.477 532.83 456.507 535.624C458.65 538.964 462.7 529.952 464.623 526.646Z" fill="#F26D1D"/>
<path d="M380.778 508.322C381.456 506.57 382.153 504.819 382.892 503.089C377.79 511.808 373.936 521.254 371.645 531.067C371.621 531.19 371.578 531.312 371.554 531.435C376.064 525.91 379.662 511.256 380.778 508.322Z" fill="#F26D1D"/>
<path d="M297.381 464.282C303.169 474.661 313.572 481.222 323.416 487.234C328.811 490.529 334.248 493.805 339.329 497.401C334.249 492.139 328.713 487.175 323.377 482.339C309.167 469.518 294.639 453.914 293.485 434.967C290.836 444.282 292.006 454.571 297.402 464.283L297.381 464.282Z" fill="#F26D1D"/>
<path d="M462.649 553.713C453.072 561.182 442.474 566.878 431.347 571.637C439.454 571.55 451.276 562.678 455.215 559.755C457.821 557.826 460.285 555.812 462.63 553.692L462.649 553.713Z" fill="#FFA218"/>
<path d="M424.375 567.19C424.838 568.332 425.494 569.15 426.213 569.845C427.055 568.901 427.937 567.977 428.919 567.159C432.702 563.965 431.329 558.218 427.705 555.766C425.184 560.08 423.294 564.554 424.375 567.19Z" fill="#FFA218"/>
<path d="M401.54 568.577C404.509 564.356 408.642 560.225 413.149 556.7C406.792 558.906 400.251 562.751 395.363 567.623C391.553 574.392 387.55 581.587 388.493 589.008C395.062 585.719 397.743 574.011 401.561 568.578L401.54 568.577Z" fill="#FFA218"/>
<path d="M478.943 547.006C469.461 559.779 456.724 570.087 441.53 576.266C434.046 579.307 422.432 581.403 418.15 572.399C415.913 567.679 417.075 562.037 419.439 556.609C411.382 562.163 404.769 569.767 400.341 578.411C397.504 583.93 394.264 591.678 387.556 593.177C386.609 593.379 385.578 592.881 385.336 591.889C385.206 591.331 385.118 590.774 385.029 590.217C384.986 590.318 384.922 590.42 384.899 590.522C376.785 579.225 375.234 566.549 380.25 554.796C382.742 562.523 384.753 570.607 385.34 578.389C385.37 578.821 385.959 579.02 386.193 578.656C386.237 578.534 386.281 578.412 386.325 578.29C389.041 565.206 389.804 555.773 385.789 542.584C384.539 538.484 379.8 538.141 377.349 541.265C368.074 553.077 365.135 567.758 368.546 581.363C357.21 573.788 347.397 564.216 339.909 552.421C332.421 540.647 327.78 527.956 314.57 521.67C311.516 520.218 308.638 522.386 309.048 525.705C311.529 545.534 317.278 564.765 328.221 580.016C327.71 579.983 327.18 579.908 326.669 579.875C324.422 579.716 322.378 581.269 321.387 583.278C305.181 578.172 289.782 571.03 274.823 560.982C307.868 592.93 360.34 609.681 403.74 605.023C412.07 604.14 419.969 602.507 427.533 600.372C449.471 590.394 466.47 574.068 479.085 552.065C480.112 550.261 479.872 548.365 478.925 546.924L478.943 547.006ZM344.712 582.684C330.42 571.317 322.667 552.816 318.297 534.091C327.708 544.229 332.451 560.271 341.075 570.779C345.506 576.19 350.484 580.999 355.821 585.343C352.14 584.409 348.437 583.516 344.712 582.705L344.712 582.684Z" fill="#FFA218"/>
<path d="M304.167 501.912C302.484 499.631 300.779 497.369 299.096 495.088C298.402 494.146 296.701 495.111 297.083 496.189C298.041 498.863 299.019 501.538 299.977 504.212C300.897 506.742 301.765 508.901 304.079 510.499C305.327 511.352 307.215 510.33 307.17 508.808C307.097 505.971 305.792 504.089 304.167 501.912Z" fill="#FFA218"/>
<path d="M324.845 513.233C323.954 512.019 323.083 510.785 322.193 509.55C321.698 508.86 320.495 509.508 321.01 510.199C321.901 511.434 322.772 512.647 323.662 513.881C324.157 514.572 325.36 513.923 324.845 513.233Z" fill="#FFA218"/>
<path d="M342.82 528.102C341.713 526.492 340.179 525.633 338.567 524.606C336.613 523.346 334.375 525.283 334.774 527.389C335.118 529.206 335.322 530.917 336.409 532.464C337.634 534.241 339.015 534.707 341.009 535.167C342.413 535.489 343.417 534.631 343.635 533.259C343.928 531.294 344.026 529.817 342.84 528.103L342.82 528.102Z" fill="#FFA218"/>
<path d="M284.404 544.204C282.103 542.051 277.952 541.065 274.964 540.231C273.664 539.87 272.662 541.468 273.599 542.478C274.636 543.593 275.652 544.727 276.418 546.061C277.223 547.438 277.781 548.869 278.837 550.067C280.748 552.251 282.908 555.12 285.97 555.421C287.155 555.533 288.283 554.575 288.637 553.494C289.743 550.131 286.725 546.378 284.403 544.225L284.404 544.204Z" fill="#FFA218"/>
<path d="M303.82 568.419C301.757 566.559 299.695 564.7 297.633 562.82C297.453 562.672 297.201 562.912 297.382 563.061C299.444 564.92 301.506 566.779 303.568 568.659C303.749 568.807 304 568.567 303.82 568.419Z" fill="#FFA218"/>
<path d="M475.825 531.394C473.968 532.027 472.38 532.501 470.974 533.946C469.609 535.33 468.266 536.714 466.902 538.078C464.299 540.726 468.129 544.786 470.872 542.265L475.123 538.322C476.61 536.962 477.14 535.372 477.84 533.54C478.278 532.38 477.002 530.992 475.805 531.394L475.825 531.394Z" fill="#FFA218"/>
<path d="M480.157 567.482C478.729 568.125 477.87 569.768 476.919 570.998L473.454 575.412C471.996 577.267 475.319 579.465 476.619 577.381C477.599 575.803 478.579 574.224 479.559 572.646C480.39 571.31 481.527 570.023 481.649 568.403C481.71 567.582 480.799 567.19 480.137 567.482L480.157 567.482Z" fill="#FFA218"/>
<path d="M489.344 520.859C486.999 520.513 483.814 521.893 483.38 524.554C483.018 526.785 482.923 529.002 482.806 531.239C482.529 536.718 491.046 538.224 492.408 532.791C492.953 530.606 493.537 528.463 493.837 526.251C494.208 523.651 491.689 521.205 489.324 520.859L489.344 520.859Z" fill="#FFA218"/>
<path d="M485.584 508.068C485.114 508.878 484.644 509.688 484.174 510.498C482.848 512.788 486.846 514.181 487.23 511.889C487.396 510.948 487.563 509.986 487.709 509.045C487.923 507.817 486.311 506.812 485.564 508.067L485.584 508.068Z" fill="#FFA218"/>
<path d="M388.812 523.508C388.719 522.293 387.32 520.902 386.049 521.816C384.611 522.869 383.69 523.73 382.792 525.29C381.809 526.992 381.142 528.311 381.789 530.3C382.303 531.874 383.742 532.423 385.231 531.803C388.27 530.542 389.047 526.431 388.812 523.487L388.812 523.508Z" fill="#FFA218"/>
<path d="M359.783 456.357C358.674 450.678 358.024 444.642 356.276 439.133C356.068 438.449 354.901 438.461 354.942 439.284C355.27 445.128 356.822 451.085 357.827 456.842C358.041 458.122 360.059 457.637 359.803 456.357L359.783 456.357Z" fill="#F26D1D"/>
<path d="M365.962 418.017C365.923 417.132 364.696 417.102 364.613 417.983C364.389 420.403 364.146 422.801 363.923 425.22C363.784 426.737 366.36 426.821 366.296 425.279C366.192 422.851 366.067 420.444 365.962 418.017Z" fill="#F26D1D"/>
<path d="M474.091 454.501C473.906 453.674 473.037 453.221 472.235 453.386C470.301 453.79 468.925 455.667 467.562 456.99C463.809 460.637 471.122 465.379 472.864 460.265C473.482 458.451 474.534 456.443 474.091 454.501Z" fill="#F26D1D"/>
<path d="M520.698 457.545C519.967 458.986 519.236 460.427 518.485 461.846C517.818 463.166 519.842 464.079 520.327 462.673L521.913 458.089C522.155 457.376 521.043 456.834 520.699 457.524L520.698 457.545Z" fill="#F26D1D"/>
<path d="M252.188 487.516C250.275 486.235 248.363 484.935 246.45 483.654C244.578 482.396 242.484 481.83 240.372 481.161C238.808 480.65 237.964 482.54 238.836 483.671C240.265 485.515 241.512 487.231 243.402 488.613C245.272 489.975 247.121 491.356 248.99 492.718C252.147 495.035 255.47 489.713 252.188 487.516Z" fill="#F26D1D"/>
<path d="M515.014 403.855C514.772 402.883 514.139 401.984 513.649 401.129C513.157 400.295 511.987 399.609 510.996 399.975C509.964 400.339 508.79 400.639 507.894 401.295C506.705 402.19 505.953 403.651 505.125 404.884C503.213 407.734 504.936 411.743 508.064 412.704C511.497 413.754 514.447 411.136 514.836 407.796C514.989 406.546 515.331 405.116 515.014 403.875L515.014 403.855Z" fill="#F26D1D"/>
<path d="M486.595 376.069C485.085 375.086 483.457 377.203 482.515 378.064C479.772 380.564 484.98 384.33 486.426 380.482C486.886 379.24 488.146 377.093 486.615 376.09L486.595 376.069Z" fill="#F26D1D"/>
<path d="M517.842 555.521C510.427 545.339 514.071 535.882 522.509 530.285C530.949 524.714 527.54 513.196 527.54 513.196C527.54 513.196 541.774 520.193 532.97 543.837" fill="#F26D1D"/>
<path d="M544.512 490.815C550.242 491.043 547.242 468.337 548.311 466.249C542.652 468.182 539.906 475.36 539.63 480.873C539.516 482.976 539.421 487.186 541.12 488.84C542.504 490.196 543.636 490.801 544.538 490.842L544.512 490.815Z" fill="#F26D1D"/>
<path d="M423.514 606.786C412.214 595.287 395.744 591.596 382.953 601.02C375.196 606.729 370.063 616.381 369.869 625.961C369.771 630.78 370.816 635.546 373.203 639.757C383.445 657.839 411.392 655.876 423.926 641.7C432.883 631.576 433.427 616.873 423.514 606.786Z" fill="#7F3B09"/>
<path opacity="0.6" d="M424.685 626.284C424.307 638.971 412.596 648.913 398.527 648.493C384.457 648.073 373.36 637.451 373.738 624.765C374.116 612.079 385.827 602.132 399.897 602.552C413.966 602.971 425.063 613.598 424.685 626.284Z" fill="#9E6346"/>
</svg>
