<svg width="111" height="111" viewBox="0 0 111 111" fill="none" xmlns="http://www.w3.org/2000/svg">
<path d="M63.7529 31.7693C64.1649 30.9573 63.5529 30.5053 62.9769 30.1693C62.669 29.9933 62.073 29.7453 62.105 29.3893C62.165 28.6494 63.9449 29.1574 63.5249 29.9853C63.7689 29.9733 63.9049 30.0653 64.1209 30.0813C64.6849 28.4734 61.769 27.8534 61.465 29.1614C61.137 30.5613 63.2769 30.4853 63.2529 31.3133C63.2209 32.1572 61.061 31.6253 61.553 30.6293C61.337 30.6213 61.169 30.5533 60.957 30.5333C60.361 32.1172 63.1369 32.9852 63.7529 31.7693ZM53.9493 31.4493C53.9533 30.8933 53.9573 30.3413 53.9013 29.8453H54.7292C55.2332 30.2413 55.5292 30.8493 55.9212 31.3573C56.2012 31.3813 56.5292 31.3213 56.6972 31.3573C56.3532 30.7373 55.9092 30.2173 55.5052 29.6613C56.3852 29.5373 56.4332 28.2294 55.8692 27.8294C55.2012 27.3494 54.1093 27.8414 53.2133 27.6894C53.1933 28.9934 53.3133 30.1573 53.3013 31.4493H53.9493ZM53.8533 28.2414C54.6332 28.2774 55.5772 28.0534 55.5972 28.7014C55.6132 29.3413 54.6652 29.2294 53.9013 29.2534C53.9333 28.8654 53.8173 28.6254 53.8533 28.2414ZM34.97 42.3569C33.866 41.7529 32.922 40.9769 31.8141 40.3889C31.7661 40.6209 31.5461 40.6729 31.5301 40.9369C32.582 41.5969 33.602 42.2889 34.65 42.9569C34.726 42.7249 34.91 42.6129 34.97 42.3569ZM71.4526 36.9451C73.0046 37.645 73.7766 35.3251 74.5685 34.5212C74.3245 34.4732 74.2925 34.2132 74.0165 34.1972C73.4486 34.6212 72.8646 36.3891 72.0446 36.4451C71.6006 36.4771 71.1446 36.1251 71.0846 35.7131C71.0087 35.1331 71.5606 34.7291 71.8126 34.3852C72.1686 33.9092 72.3966 33.5532 72.6846 33.1452C72.5246 33.0172 72.3686 32.8772 72.1766 32.7812C71.8486 33.3852 70.9127 34.2452 70.5767 34.9331C70.1487 35.8251 70.8007 36.6571 71.4526 36.9451ZM69.7087 34.0132C69.5287 33.8932 69.4127 33.6972 69.2087 33.6012C68.9727 33.8692 68.8567 34.0172 68.5607 34.0612C66.8528 34.3132 67.2768 31.6693 68.4727 31.4493C69.1967 31.3093 69.9087 31.8173 69.6647 32.6852C69.9047 32.7052 70.0647 32.8052 70.3087 32.8212C70.5207 31.5733 69.7527 30.9573 68.8887 30.8493C67.2648 30.6653 66.1128 33.0132 67.1448 34.1092C67.7288 34.7332 69.2607 34.9491 69.7087 34.0132ZM32.818 46.3007C32.598 46.2687 32.4861 46.1127 32.2261 46.1207C31.9941 46.8247 31.7381 47.4967 31.4421 48.1327C31.1701 47.9647 30.7541 47.9367 30.5261 47.7207C30.7501 47.1247 30.9661 46.5127 31.2101 45.9327C31.0421 45.8407 30.8381 45.7808 30.6621 45.7048C30.4101 46.3047 30.2101 46.9647 29.9301 47.5367C29.6662 47.4007 29.2942 47.3767 29.0982 47.1767C29.3542 46.5407 29.6062 45.9047 29.8382 45.2488C29.6502 45.1928 29.5022 45.0928 29.2862 45.0648C28.9702 45.9247 28.6102 46.7407 28.3262 47.6327C29.4982 48.0647 30.6501 48.5167 31.8141 48.9646C32.1181 48.0487 32.4861 47.1887 32.818 46.3007ZM60.085 31.1253C59.3211 31.0053 58.5131 31.0053 57.9291 30.8053C57.9851 30.4893 57.9891 30.1293 58.0691 29.8453C58.8291 29.9013 59.2651 29.9973 59.9931 30.0773C60.0611 29.9133 60.049 29.6653 60.085 29.4773C59.3211 29.3773 58.6411 29.3453 58.1131 29.2014C58.2171 28.9574 58.1331 28.5174 58.2971 28.3334C58.8211 28.4054 59.6051 28.5334 60.313 28.5654C60.377 28.4134 60.377 28.1934 60.409 28.0094C59.5571 27.8814 58.4771 27.7454 57.7011 27.6894C57.4611 28.9294 57.3971 30.1573 57.1972 31.3573C58.1291 31.4973 59.0971 31.6013 60.037 31.7253C60.0171 31.4853 60.121 31.3733 60.085 31.1253ZM34.234 43.5048C34.002 43.4768 33.954 43.2728 33.69 43.2768C33.414 43.7848 33.174 44.3288 32.858 44.7888C31.9581 44.2848 31.0301 43.8128 30.1141 43.3248C30.0421 43.5448 29.8501 43.6408 29.8382 43.9168C30.9621 44.4568 31.9781 45.1088 33.138 45.6128C33.498 44.9008 33.882 44.2208 34.234 43.5048ZM50.2774 31.9533C52.9333 32.2052 52.7933 27.9894 50.4174 28.1014C50.0454 28.1214 49.7934 28.1574 49.5414 28.2894C48.1935 28.9934 48.4655 31.7773 50.2774 31.9533ZM50.3254 28.7014C50.3254 28.7014 50.3334 28.6574 50.3694 28.6574C52.1453 28.5854 51.9733 31.9813 50.1014 31.3133C49.0654 30.9493 48.9695 28.8494 50.3254 28.7014ZM72.9646 38.233C73.5206 38.797 74.0445 39.389 74.6165 39.933C74.7045 39.745 74.9245 39.693 75.0285 39.517C74.6565 39.065 74.1685 38.729 73.8365 38.233C74.5525 37.4851 75.3725 36.8411 76.0365 36.0371C75.8885 35.8891 75.8045 35.6891 75.5805 35.6211C74.7525 36.5371 73.7605 37.2851 72.9646 38.233ZM39.1858 36.7691C40.1258 37.0251 41.3257 36.4731 41.4777 35.3011C41.6457 33.9532 40.4258 32.8852 39.3178 33.0132C36.9819 33.2812 37.5379 36.3131 39.1858 36.7691ZM39.1858 33.6532C39.9658 33.4812 40.6978 34.1132 40.8377 34.7971C40.9897 35.5491 40.4778 36.1811 39.8298 36.2211C38.5498 36.2891 37.6179 33.9972 39.1858 33.6532ZM77.4084 43.5488C77.3764 44.3808 77.9684 45.3048 78.8764 45.2928C79.9603 45.2848 80.8683 44.1608 81.7203 43.8768C81.5603 43.7408 81.5523 43.4568 81.3483 43.3688C80.8043 43.5968 79.9483 44.2488 79.2884 44.5128C79.1484 44.5728 78.8924 44.6728 78.7444 44.6528C78.3284 44.5928 77.9244 43.9648 78.0524 43.4568C78.1564 43.0728 78.8724 42.8449 79.2403 42.6369C79.7403 42.3609 80.0923 42.0729 80.5723 41.9049C80.4803 41.6729 80.3963 41.4369 80.2043 41.3089C79.5243 42.0529 77.4764 42.1889 77.4084 43.5488ZM75.9925 41.6689C76.8044 41.0169 77.6244 40.3769 78.5124 39.793C78.6964 40.125 78.9724 40.3729 79.1564 40.7089C79.3563 40.6209 79.5123 40.4809 79.6603 40.341C79.0404 39.561 78.4724 38.717 77.8324 37.957C77.7364 38.133 77.4604 38.133 77.4164 38.369C77.6204 38.669 77.8804 38.917 78.0604 39.241C77.2724 39.905 76.4325 40.5169 75.5885 41.1209C75.6685 41.3489 75.8365 41.5009 75.9925 41.6689ZM35.5219 40.9809C36.5339 40.8489 37.1539 39.889 37.2179 38.693C36.8779 38.361 36.5179 38.053 36.1179 37.773C35.7379 38.173 35.3659 38.581 35.066 39.057C35.206 39.145 35.2939 39.285 35.4299 39.377C35.7979 39.237 35.8499 38.785 36.2099 38.649C36.3299 38.773 36.5019 38.845 36.5779 39.013C36.4219 39.921 35.8419 40.4969 35.022 40.341C33.366 40.025 33.598 37.2411 35.3859 37.909C35.4779 37.737 35.5619 37.5611 35.6139 37.3611C34.226 36.7371 33.014 38.021 33.23 39.333C33.39 40.3169 34.526 41.1129 35.5219 40.9809ZM47.4375 58.3523C45.7536 63.4561 44.1056 68.5879 42.4377 73.7077C46.8215 70.7038 55.5572 64.2041 55.5572 64.2041L68.7487 73.6597L63.7569 58.3043L76.7764 48.7286H60.633C58.9171 43.6008 55.5452 33.2812 55.5452 33.2812L50.5094 48.7286H34.374C34.374 48.7286 43.1857 55.0724 47.4375 58.3523ZM55.5412 63.4241L43.8576 71.8678L55.5572 55.7644L55.5412 63.4241ZM60.189 49.3926H74.6045L55.6892 55.5924L60.189 49.3926ZM62.9689 58.0563L67.4448 71.7518L55.6852 55.7004L62.9689 58.0563ZM55.5132 35.6411L55.5692 55.5404L51.0654 49.3446L55.5132 35.6411ZM55.4692 55.6564L48.1815 57.9923L36.5539 49.4726L55.4692 55.6564ZM45.2816 33.6532C45.0416 32.8332 44.6616 32.1652 44.4136 31.3573C44.6536 31.5493 44.9416 31.9173 45.2816 32.3212C45.7016 32.8212 46.1456 33.6652 46.6535 33.0092C46.6015 32.2372 46.4855 31.2853 46.5655 30.5293C46.8535 31.2693 47.1615 31.9853 47.4335 32.7332C47.6855 32.7212 47.8015 32.5812 48.0295 32.5492C47.5535 31.3733 47.1615 30.1213 46.5655 29.0654C46.3655 29.1734 46.1456 29.2574 45.9216 29.3453C45.9376 30.4893 46.0416 31.3013 46.0576 32.3212C45.3976 31.5933 44.7616 30.8413 44.1336 30.0773C43.8536 30.1573 43.6137 30.2813 43.3577 30.3973C43.7976 31.5933 44.2496 32.7812 44.7776 33.8812C44.9136 33.7732 45.1096 33.7172 45.2816 33.6532ZM38.3178 38.461C38.4898 38.457 38.6538 37.997 38.7298 37.957C37.8339 37.1051 37.0859 36.1171 36.1619 35.2971C36.0499 35.4451 35.9299 35.5851 35.7499 35.6651C36.1979 36.2491 37.0019 37.1091 37.6299 37.773C37.7819 37.933 38.1698 38.465 38.3178 38.461ZM79.0164 47.1767C79.5563 47.0487 80.0363 46.8447 80.5243 46.6687C81.1163 47.6887 80.1243 48.3727 79.6523 49.0046C79.7123 49.2686 79.8203 49.4726 79.8843 49.7366C80.3603 49.2846 80.7923 48.7766 81.0763 48.1327C81.3683 48.3767 81.5163 48.6166 81.9043 48.6406C83.8042 48.7686 82.6842 46.2007 82.3642 45.3848C81.1563 45.7487 80.0163 46.1887 78.8284 46.5767C78.8484 46.8167 78.9684 46.9607 79.0164 47.1767ZM81.9443 46.1607C82.3322 46.5727 82.8162 48.2567 81.7603 47.9527C81.2963 47.8167 81.3483 46.9247 81.0763 46.4847C81.3763 46.3767 81.7123 46.3247 81.9443 46.1607ZM80.0723 50.5166C80.4923 50.5366 80.8403 50.6286 81.2163 50.7006C81.3443 51.1126 81.3803 51.6085 81.4883 52.0285C81.1723 52.2285 80.8523 52.4245 80.5283 52.6245C80.5083 52.9085 80.6203 53.0565 80.6203 53.3125C81.8283 52.6685 82.8602 51.8565 84.0122 51.1606C84.0162 50.9126 83.9042 50.7766 83.9162 50.5166C82.5882 50.3006 81.2843 50.0646 79.9723 49.8326C79.9683 50.0966 80.0603 50.2646 80.0723 50.5166ZM83.1362 50.9766C82.8122 51.2606 82.3642 51.4165 82.0362 51.7045C81.8723 51.4965 81.9043 51.0806 81.8083 50.7926C82.2882 50.8166 82.6522 50.9566 83.1362 50.9766ZM80.0723 16.5098C78.0364 19.6857 75.9605 22.8176 73.9285 25.9975C74.3925 26.2175 74.7325 26.5694 75.2125 26.7734C77.2084 23.5816 79.3403 20.5137 81.3123 17.2898C80.8763 17.0458 80.4963 16.7538 80.0723 16.5098ZM31.0301 52.0765C30.5261 51.9485 29.9341 51.9165 29.5222 51.7045C29.5382 50.5726 30.6901 50.5566 31.4901 50.2006C31.4861 49.8846 31.5981 49.6966 31.6261 49.4206C30.9821 49.6526 30.3141 49.8726 29.7502 50.2006C29.7822 49.1246 28.3542 48.8886 27.8702 49.5566C27.4302 50.1606 27.5662 51.2365 27.2742 51.9405C28.4862 52.2125 29.7022 52.4805 30.9421 52.7205C30.9381 52.4885 31.0941 52.2205 31.0301 52.0765ZM28.9702 51.6165C28.5662 51.6245 28.3262 51.4645 27.9582 51.4325C27.9142 50.7206 28.5302 49.2406 29.0982 50.0166C29.4182 50.4406 28.9222 51.0526 28.9702 51.6165ZM76.3565 14.4019C75.3045 16.5818 74.3325 18.8497 73.2366 21.0017C73.3246 18.5097 73.3726 15.7258 73.4246 12.9779C72.9886 12.8219 72.6206 12.598 72.1846 12.426C70.5087 15.7578 68.9847 19.2417 67.3728 22.6456C67.8328 22.8336 68.2327 23.0696 68.7047 23.2416C69.7367 21.0816 70.7527 18.6457 71.8166 16.6858C71.7326 19.3057 71.6846 21.9576 71.6366 24.6175C72.0526 24.8255 72.4726 25.0295 72.9206 25.2135C74.5085 21.8056 76.0965 18.3937 77.6884 14.9939C77.2484 14.7939 76.8444 14.5539 76.3565 14.4019ZM55.9212 18.7537C54.4253 18.7937 52.8813 18.9577 51.5654 19.0297C51.5134 18.0258 51.3734 16.8658 51.3814 15.9578C52.7333 15.8578 53.7533 15.7778 55.2292 15.6858C55.2292 15.0619 55.1212 14.5379 55.1412 13.8979C53.9413 13.8939 52.5333 14.0699 51.2454 14.1299C51.1574 13.2219 51.0734 12.166 51.0614 11.426C52.4173 11.322 53.7773 11.214 55.1812 11.146C55.1452 10.534 55.1292 9.89405 55.0492 9.31808C53.2893 9.41407 51.3134 9.59007 49.4094 9.68206C49.6894 13.7139 49.9374 16.9658 50.1894 20.9577C52.3293 20.8377 53.9813 20.7137 56.0052 20.5457C56.0012 19.8497 55.8772 19.3297 55.9212 18.7537ZM45.4216 20.2217C44.6496 17.1538 43.8296 14.1379 42.9937 11.142C42.5977 11.154 42.0697 11.414 41.5697 11.466C42.5577 15.1219 43.4697 18.8577 44.5536 22.4136C46.0816 21.9456 47.6895 21.5536 49.2694 21.1336C49.1454 20.5097 48.9615 19.9457 48.8095 19.3457C47.7055 19.6337 46.4655 20.0257 45.4216 20.2217ZM83.6882 32.0492C84.5602 31.4973 85.2921 30.8093 86.1641 30.2613C86.9161 31.3053 87.716 32.2892 88.46 33.3332C89 33.0372 89.424 32.6252 89.924 32.2812C89.216 31.1853 88.36 30.2453 87.632 29.1614C88.304 28.5614 89.064 28.0574 89.788 27.5174C90.6039 28.6254 91.4439 29.7053 92.2639 30.8133C92.7999 30.5093 93.2118 30.0853 93.7358 29.7613C92.6159 28.2174 91.4959 26.6814 90.2919 25.2255C87.852 27.0894 84.9921 29.2494 82.4122 31.1813C82.1402 31.3813 81.3203 31.9053 81.3163 32.0532C81.3083 32.0892 81.6203 32.4132 81.7643 32.6052C82.8442 34.0212 83.8082 35.3211 84.7921 36.6371C85.3321 36.3371 85.7561 35.9251 86.2561 35.5811C85.4521 34.3452 84.4722 33.2972 83.6882 32.0492ZM68.4727 11.102C67.9288 11.066 67.5488 10.862 67.0088 10.83C66.7288 12.374 66.3248 13.8939 65.9568 15.6858C65.6808 17.0138 65.4569 19.5537 64.2569 19.9017C62.8729 20.3017 62.297 19.1977 62.381 17.9298C62.457 16.7138 62.8849 15.4019 63.1569 14.0819C63.4329 12.742 63.7129 11.414 63.9329 10.138C63.4449 10.082 63.0209 9.95005 62.557 9.86606C62.505 9.88605 62.469 9.92605 62.469 10.0021C62.213 11.202 61.937 12.566 61.641 13.9459C61.277 15.6658 60.657 17.3098 60.865 19.2657C61.037 20.9577 63.0609 22.5336 64.9849 21.5056C66.7248 20.5817 66.9728 18.0898 67.4648 15.8258C67.8208 14.1619 68.2008 12.518 68.4727 11.102ZM109.675 62.7081C108.715 60.4242 106.891 58.4563 106.375 55.8764C106.239 55.1964 106.627 54.2484 106.879 53.5845C108.063 50.5206 110.011 48.4087 110.315 44.5568C110.439 43.0048 110.207 41.5049 109.811 40.157C108.615 36.0571 105.671 34.5252 102.432 32.5452C101.312 31.8613 99.7156 30.9933 99.3196 29.6573C98.6716 27.4934 98.8156 24.9455 98.5836 22.8296C98.3517 20.6697 97.7037 18.7817 96.6077 17.1858C94.5318 14.1419 91.5679 12.238 86.3961 12.238C85.0961 12.238 83.8602 12.226 82.7762 12.102C81.4363 11.954 80.8203 11.698 80.1163 10.958C78.9644 9.74206 77.9764 8.02212 76.9564 6.51018C74.9525 3.57828 72.4046 1.21837 67.6488 0.650391H66.1808C63.0769 0.94238 60.749 2.62632 58.3011 3.90627C57.5531 4.29026 56.4652 4.89424 55.5972 4.91024C54.4253 4.93823 52.7893 4.03427 51.8813 3.58228C49.5454 2.41033 47.6215 1.17437 44.4576 0.926381C39.4298 0.526395 36.2979 2.93831 34.326 5.8262C33.314 7.31415 32.5221 8.98609 31.3941 10.454C31.0461 10.906 30.5741 11.506 30.1141 11.742C29.0182 12.298 27.5542 12.338 26.1703 12.426C24.7663 12.514 23.2504 12.582 21.9544 12.7899C19.1865 13.2379 17.3506 14.3219 15.7187 15.7738C14.1067 17.2018 12.8908 19.1377 12.4188 21.6856C11.9388 24.2855 12.3948 27.5894 11.6828 30.1173C11.5348 30.6573 10.6708 31.3373 10.1309 31.7653C8.46693 33.0932 6.33501 34.1812 4.76706 35.5251C2.61114 37.3851 0.903204 40.3089 0.595215 43.5968V45.0648C0.883204 48.2767 2.67114 50.6126 3.94309 53.0845C4.33908 53.8485 4.92706 55.0244 4.81106 55.9244C4.66707 57.1723 4.03909 58.4443 3.48311 59.5443C2.31515 61.8682 1.0872 63.7721 0.871205 66.924C0.539217 71.7838 2.84713 74.9597 5.73103 76.9116C6.64299 77.5316 7.76695 78.1276 8.84691 78.7915C9.69888 79.3115 11.1388 80.1595 11.6468 80.9915C11.9308 81.4595 12.0428 82.1874 12.1508 82.7794C12.5188 84.8193 12.3828 87.2472 12.7028 89.1952C13.1388 91.9231 14.1667 93.771 15.6787 95.4789C17.1346 97.1229 19.0305 98.3428 21.5865 98.8188C22.8984 99.0668 24.4663 99.0508 25.9423 99.0988C27.4022 99.1428 28.9222 99.0028 30.1181 99.5508C30.6541 99.7988 31.2101 100.463 31.6701 101.019C33.102 102.735 34.134 104.827 35.4779 106.427C37.4699 108.802 39.9618 110.17 43.5417 110.642H44.9696C47.0935 110.418 48.7695 109.67 50.3334 108.806C51.8853 107.942 53.4213 106.843 55.2332 106.475C56.5132 106.207 57.9491 107.055 59.0411 107.571C61.493 108.738 63.3929 110.066 66.5088 110.366C68.1608 110.526 69.5767 110.29 71.0486 109.862C73.6606 109.106 75.3285 107.723 76.8644 105.463C77.4924 104.539 78.1644 103.395 78.8364 102.299C79.4243 101.339 80.1883 99.9388 81.1723 99.5068C83.4842 98.4908 86.7001 98.9268 89.288 98.4948C91.9839 98.0469 93.8198 96.9749 95.4718 95.5189C97.0837 94.095 98.2917 92.2311 98.7716 89.6512C99.2796 86.9352 98.5956 83.9554 99.4596 81.1715C99.6196 80.6675 100.324 80.1635 100.744 79.7955C102.132 78.5956 103.835 77.6676 105.231 76.6796C107.319 75.2077 108.791 73.5757 109.771 71.0838C110.247 69.8759 110.619 68.3839 110.591 66.868C110.567 65.288 110.195 63.9321 109.675 62.7081ZM101.472 74.5277C99.0236 80.4835 95.6718 85.4033 91.7079 89.6592C87.656 94.023 82.9602 97.3909 77.3684 100.203C71.8406 102.983 65.2689 104.919 57.5651 105.195C49.8254 105.475 42.5817 103.943 36.6659 101.527C30.7581 99.1228 25.8583 95.6069 21.5825 91.7231C17.2186 87.7432 13.7267 82.9954 10.9988 77.3756C8.28693 71.7918 6.35101 65.196 6.05102 57.6243C5.73103 49.7326 7.34297 42.5889 9.71088 36.8211C12.1748 30.8213 15.4147 26.0935 19.4745 21.6936C26.2663 14.3419 35.6579 8.6261 47.9855 6.61417C49.8174 6.31818 51.8134 6.17819 53.6693 6.10619C61.553 5.8022 68.8607 7.38615 74.6125 9.82206C80.5523 12.334 85.3961 15.6858 89.692 19.6297C94.0438 23.6256 97.4517 28.3254 100.236 34.0172C102.903 39.489 104.871 46.4687 105.183 53.7725C105.527 61.6402 103.883 68.6759 101.472 74.5277ZM85.3881 37.4091C85.6081 37.873 85.7681 38.401 86.0761 38.781C87.4881 38.089 88.884 37.3771 90.3359 36.7251C90.4439 37.1771 90.8399 37.4411 90.8399 37.909C90.8439 38.657 89.824 39.541 89.328 40.109C88.66 40.8769 88.076 41.5049 87.632 42.1289C87.952 42.5929 88.12 43.2048 88.46 43.6408C89.58 42.1849 91.0039 41.0249 91.8959 39.333C93.6398 40.8969 97.3917 39.013 97.4437 36.9971C97.4597 36.1971 96.9677 35.3731 96.6117 34.6612C96.2277 33.8652 95.8077 33.0772 95.5158 32.5052C92.1279 34.1292 88.804 35.8171 85.3881 37.4091ZM95.6077 37.1331C95.4798 37.793 94.2638 38.605 93.3598 38.281C92.5239 37.985 92.4799 36.6011 91.9399 35.8931C92.8359 35.4811 93.7198 35.0451 94.5958 34.6092C94.7598 35.3371 95.7957 36.1891 95.6077 37.1331ZM99.5476 34.5652C94.1878 23.6656 85.8801 15.6738 74.4765 10.73C68.9487 8.33811 61.545 6.61817 54.0813 6.97016C46.4255 7.33815 40.1098 9.00609 34.558 11.694C29.0702 14.3539 24.3543 17.7418 20.3985 21.9656C16.3946 26.2215 13.2308 30.7973 10.7308 36.7251C8.41093 42.2089 6.511 49.4126 6.87899 57.0683C7.23097 64.4921 8.93091 70.9878 11.5988 76.5916C14.2227 82.0994 17.6346 86.8953 21.8704 90.7991C26.0623 94.671 30.7581 98.0429 36.5779 100.511C42.2017 102.903 49.1574 104.691 56.9732 104.319C60.721 104.143 64.2569 103.727 67.5608 102.895C70.7807 102.091 73.7766 100.963 76.5484 99.6428C82.0602 97.0189 86.8441 93.595 90.7599 89.3752C94.6678 85.1673 97.9717 80.4875 100.472 74.6597C102.883 69.0199 104.639 62.0682 104.271 54.1764C103.919 46.6287 102.26 40.077 99.5476 34.5652ZM35.8859 95.8029C35.346 95.5309 34.874 95.199 34.374 94.883C35.174 93.439 36.0939 92.1111 36.9419 90.7151C35.5459 91.7471 34.19 92.823 32.818 93.879C32.2981 93.635 31.8461 93.327 31.3981 93.007C31.7301 91.3271 32.0781 89.6592 32.4061 87.9672C31.5781 89.1712 30.6661 90.6831 29.8422 92.0471C29.3062 91.7391 28.8022 91.4031 28.2822 91.0831C29.7662 88.6552 31.3101 86.2873 32.774 83.8434C33.418 84.2554 34.122 84.6073 34.698 85.0793C34.314 87.1553 33.89 89.1872 33.462 91.2191C35.138 90.1111 36.7939 88.5952 38.5498 87.4192C39.1418 87.8152 39.7538 88.2032 40.3858 88.5632C38.9258 91.0231 37.3939 93.391 35.8859 95.8029ZM22.9224 56.3804C22.6824 51.3285 24.0704 46.2887 25.5783 42.7729C27.2702 38.821 29.2862 35.7611 32.0861 32.9612C34.786 30.2613 37.8099 27.8934 41.5697 26.1335C45.2016 24.4375 49.6014 23.0136 54.7692 23.0136C54.8012 23.0136 54.8372 23.0176 54.8652 23.0136C60.001 22.7696 64.9569 24.0975 68.5607 25.6695C72.4206 27.3534 75.6365 29.5373 78.3244 32.2252C83.7962 37.697 87.776 44.5368 88.272 54.9564C88.4 57.6043 88.016 60.1562 87.536 62.4281C86.1361 69.0599 83.0162 74.3757 79.0164 78.3796C73.5686 83.8274 66.6768 87.8272 56.3252 88.3232C51.1374 88.5672 46.4135 87.2032 42.6657 85.6193C38.8258 83.9954 35.5299 81.7834 32.854 79.1115C27.3422 73.5957 23.4064 66.704 22.9224 56.3804ZM45.1456 98.6868C45.0536 97.9429 45.0656 97.0629 44.9656 96.2109C44.1056 95.8749 43.1137 95.6789 42.2617 95.339C41.5697 95.8909 41.2057 96.7589 40.5138 97.3149C39.9818 97.0869 39.3658 96.9389 38.7778 96.7589C40.6658 94.307 42.6497 91.9551 44.6456 89.6112C45.1896 89.8111 45.8016 89.9471 46.3375 90.1591C46.5495 93.327 46.8375 96.0389 47.0775 99.2828C46.4255 99.0868 45.7616 98.9188 45.1456 98.6868ZM57.4691 100.155C56.8172 100.147 56.2612 100.051 55.6372 100.015C54.5173 98.0629 53.3773 96.1429 52.2933 94.151C52.0013 96.0469 51.9973 97.6189 51.7414 99.6508C51.1094 99.6428 50.5574 99.5548 49.9574 99.5148C50.2214 96.7469 50.4054 93.687 50.7334 91.0351C51.4534 91.0351 52.0133 91.1591 52.6173 91.1711C53.7053 93.127 54.7812 95.087 55.9172 96.9949C56.0972 95.4949 56.2132 93.299 56.4172 91.5391C57.0572 91.5391 57.6131 91.6271 58.2051 91.6751C57.9651 94.523 57.7171 97.2349 57.4691 100.155ZM61.601 99.6948C61.149 96.9189 60.657 93.943 60.273 91.2591C60.885 91.1991 61.385 91.1071 62.013 90.9871H62.105C62.553 93.787 63.0169 96.5789 63.4369 99.4148C62.8209 99.5108 62.237 99.6308 61.601 99.6948ZM67.1448 98.6868C66.2528 95.9749 65.2769 93.339 64.3929 90.6191C64.9529 90.4071 65.5289 90.2231 66.0888 90.0231C66.9408 92.1071 67.6208 94.367 68.3847 96.5349C69.7527 96.0669 71.1366 95.6229 72.4606 95.115C72.7566 95.5389 72.8406 96.1709 73.0566 96.6709C71.0686 97.3229 69.1327 98.0309 67.1448 98.6868ZM80.8043 92.0871C80.1083 91.6071 79.4883 91.0511 78.7844 90.5671C77.9444 91.0751 77.1044 91.5791 76.3125 92.1311C76.4805 92.943 76.6044 93.795 76.7724 94.607C76.1845 94.879 75.6285 95.4149 75.0725 95.5669C74.5965 92.5151 74.0765 89.5072 73.5606 86.4953C74.1005 86.2233 74.5645 85.8753 75.0725 85.5713C77.5804 87.3432 80.0083 89.1912 82.5002 90.9871C81.9723 91.3911 81.3323 91.6871 80.8043 92.0871ZM97.0717 79.0275C96.8117 79.4915 96.5917 80.0275 96.2957 80.2195C95.9077 80.4595 95.2078 80.5315 94.6878 80.3075C93.7678 79.9195 93.6838 78.4996 93.4078 77.5156C93.1278 76.5196 92.7919 75.3517 92.1679 74.7197C90.6159 73.1318 88.032 74.8717 86.4881 74.9957C85.2161 75.0917 84.6362 73.9317 84.7921 72.8398C84.8761 72.2518 85.4241 71.4878 85.7041 70.9598C87.896 66.852 89.504 61.4362 89.324 55.1484C89.128 48.0407 87.2081 42.5169 84.3322 37.873C81.5123 33.3172 77.8004 29.6293 73.1486 26.7774C68.5647 23.9735 63.0209 21.9296 55.8692 21.8736C48.4375 21.8136 42.8817 23.9215 38.3658 26.6374C33.778 29.3973 29.8582 33.1572 27.0423 37.597C24.1064 42.2249 22.0304 47.6327 21.8664 54.6924C21.7064 61.1442 23.2104 66.26 25.3463 70.6358C25.8103 71.5838 26.7023 72.6958 26.2583 74.1677C26.1463 74.5597 25.8983 74.9837 25.3903 75.0357C24.3264 75.1597 23.0304 74.5757 22.0424 74.3917C21.0425 74.2077 19.8905 74.1197 19.1585 74.9437C18.3706 75.8397 18.2346 77.5156 17.9226 78.9355C17.7626 79.6595 17.6666 80.2715 16.9586 80.5355C16.3226 80.7875 15.6147 80.7275 14.8507 80.3075C10.9228 73.5917 7.97895 65.832 7.97895 55.9244C7.97895 45.8487 10.7548 37.897 14.6267 31.3613C20.3945 21.6136 29.1982 14.2619 40.7897 10.37C43.7816 9.36607 46.9695 8.6621 50.5094 8.30211C56.4572 7.69413 63.1609 8.29811 68.3367 9.72206C72.5766 10.89 76.3125 12.606 79.6123 14.5339C86.3881 18.4977 91.8599 23.8455 95.9237 30.3453C99.8756 36.6651 103.211 44.9088 103.211 55.0964C103.215 65.0001 100.74 72.5518 97.0717 79.0275ZM39.8298 22.3296C38.5138 19.4817 37.3139 16.5098 35.9379 13.7099C35.5179 13.9379 35.002 14.0659 34.654 14.3539C36.1419 17.7978 37.7099 21.1696 39.1898 24.6255C40.7218 23.9695 42.2337 23.2856 43.7296 22.6016C43.5416 22.0096 43.2297 21.5456 43.0337 20.9537C41.9137 21.3576 40.9257 21.9016 39.8298 22.3296ZM94.0038 44.9688C93.9198 45.5528 93.9918 46.4407 93.6358 47.0287C93.3318 47.5367 92.2559 47.8487 91.6239 47.5847C91.0519 47.3447 90.7919 46.7487 90.7919 46.1607C90.7919 44.9288 91.9119 44.5208 92.8599 44.1448C92.6599 43.7568 92.4959 43.3288 92.3559 42.8609C90.6279 43.3768 89.04 44.0528 88.972 46.0287C88.808 50.1246 94.6278 49.8326 95.6598 47.0287C96.0037 46.0967 95.7318 44.6088 96.2037 43.9128C96.8637 42.9529 99.0436 43.4248 98.6316 45.1968C98.3357 45.8447 97.7077 46.1727 96.9397 46.3447C97.0357 46.8647 97.2837 47.2287 97.3957 47.7207C99.2036 47.2047 100.696 46.4287 100.42 44.2848C100.236 42.8049 99.0836 41.8929 97.3957 41.9409C95.3718 42.0049 94.2358 43.2288 94.0038 44.9688ZM101.248 60.9202C99.6716 61.2882 97.7277 61.6962 96.0637 62.0642C95.4678 62.2001 94.8318 62.4801 94.3678 62.4761C94.0438 62.4761 93.5878 62.3201 93.2198 62.2482C92.0039 62.0162 90.9639 61.7482 89.736 61.5642C89.648 62.0482 89.54 62.5241 89.468 63.0281C90.268 63.1561 90.9999 63.3361 91.7559 63.4881C92.5319 63.6401 93.3918 63.6321 94.0918 63.9041C94.5678 64.0761 95.0758 64.6081 95.5638 64.9561C97.0637 66.044 98.5596 67.096 100.012 68.0719C100.084 67.492 100.18 66.928 100.332 66.428C99.0036 65.5 97.4757 64.5401 96.2997 63.6321C97.9117 63.3201 99.4556 62.9401 101.064 62.6241C101.1 62.3561 101.136 62.0282 101.2 61.7082C101.252 61.4322 101.472 61.0162 101.248 60.9202ZM99.6836 55.3284C96.6677 55.3044 93.5518 55.2004 90.2879 55.1924C90.192 55.6004 90.268 56.1804 90.2439 56.6604C93.3478 56.7883 96.6797 56.6964 99.7316 56.8883C99.6516 57.5883 99.6996 58.4083 99.6836 59.1803C100.288 59.1843 100.932 59.1483 101.472 59.2243C101.58 57.2163 101.544 55.0764 101.608 53.0365H99.8716C99.6396 53.4285 99.8436 54.6404 99.6836 55.3284ZM90.1519 52.2125C93.8078 51.7885 97.5597 51.3285 101.336 50.8366C101.232 50.3686 101.336 49.6806 101.064 49.3726C97.4237 49.8366 93.5638 50.2806 89.972 50.7446C90.02 51.2446 90.06 51.7525 90.1519 52.2125ZM87.3601 22.2856C84.9921 23.8935 82.6642 25.5335 80.2563 27.0934C81.6403 24.6175 82.9802 22.0936 84.3762 19.6257C84.0642 19.1777 83.6282 18.8457 83.1882 18.5297C81.4163 21.9696 79.5843 25.3375 77.8284 28.7934C78.1484 29.1294 78.4484 29.4853 78.8804 29.7133C82.1003 27.5974 85.2721 25.4415 88.508 23.3416C88.204 22.9096 87.788 22.5856 87.3601 22.2856ZM20.0265 60.0522C19.3545 59.6402 18.0026 59.3123 16.8186 59.4563C14.3147 59.7522 11.3708 60.3962 10.4029 62.2042C9.67088 63.5721 10.5869 65.272 10.7268 67.016C14.4867 66.372 18.0826 65.572 21.8184 64.9041C21.3905 62.9201 21.4545 60.9122 20.0265 60.0522ZM12.2788 65.232C12.1508 64.5241 11.9268 63.9081 11.9588 63.0281C12.4148 61.8802 14.6587 61.1482 16.4946 61.0082C17.6346 60.9282 18.8146 61.0482 19.2465 61.7002C19.6185 62.2562 19.5305 62.9641 19.7545 63.7601C17.2786 64.2601 14.7587 64.7241 12.2788 65.232ZM20.7625 51.6645C20.1185 51.6805 19.5225 51.6565 18.9265 51.6165C18.8546 53.0845 18.9665 54.5564 18.7906 55.9684C18.1466 55.8764 16.6026 56.0164 15.7627 55.8324C15.8067 54.5924 15.7707 53.3205 15.8587 52.0245C15.3387 51.9205 14.6227 52.0085 14.0267 51.9805C13.9067 53.2045 14.0707 54.7124 13.8907 55.8724C12.9428 55.8084 12.2388 55.8804 11.2268 55.7844C11.2028 54.3644 11.3108 53.0845 11.2748 51.6605C10.6668 51.6765 10.0989 51.6445 9.53889 51.6125C9.47889 51.6325 9.44289 51.6685 9.44689 51.7485C9.47489 53.6085 9.3549 55.7244 9.40289 57.2963C13.1748 57.3363 16.9066 57.4243 20.6705 57.4803C20.6665 55.4964 20.7465 53.7085 20.7625 51.6645ZM20.1665 45.6568C17.1746 44.7248 14.1827 43.7888 11.1388 42.9089C11.0268 43.4088 10.8428 43.8328 10.7268 44.3288C14.3387 45.4208 17.9386 46.5327 21.5425 47.6287C21.9704 46.0007 22.5144 44.4808 22.9584 42.8609C22.3864 42.7009 21.8424 42.5169 21.2625 42.3609C20.8145 43.3648 20.6105 44.6328 20.1665 45.6568ZM43.2657 94.055C43.8176 94.179 44.3056 94.367 44.8216 94.519C44.7536 93.775 44.7696 92.951 44.6416 92.2711C44.2016 92.887 43.6416 93.379 43.2657 94.055ZM43.1737 84.5273C46.7895 86.0913 51.3454 87.2792 56.3292 87.0433C66.2128 86.5793 72.9046 82.7914 78.1884 77.5116C82.0202 73.6797 84.9921 68.4159 86.3521 62.0642C86.8161 59.9042 87.1561 57.5563 87.0401 55.0484C86.5761 45.1608 82.8002 38.393 77.5524 33.1412C74.9565 30.5493 71.8166 28.4814 68.1168 26.8134C64.7009 25.2855 59.8291 24.0175 54.9092 24.2495C49.9214 24.4895 45.7256 25.5095 42.1697 27.2294C35.046 30.6773 29.8821 35.9451 26.7223 43.2688C25.2023 46.7967 23.9264 51.5365 24.1584 56.3764C24.6223 66.18 28.4222 72.8798 33.734 78.1956C36.3219 80.7875 39.4498 82.9114 43.1737 84.5273ZM26.1743 63.1201C25.0263 58.6843 25.0423 52.5925 26.1743 48.1767C28.5502 38.909 34.682 31.9413 42.7177 28.1934C44.4136 27.4054 46.1576 26.7654 48.0815 26.2735C50.7694 25.5775 53.9253 25.2055 57.2971 25.3535C61.609 25.5415 65.4929 26.7694 68.7487 28.3334C76.6484 32.1292 82.6282 38.933 85.0241 48.1767C86.2881 53.0845 86.2321 59.4763 84.7002 64.1761C84.0642 64.0681 83.5562 63.8241 82.9122 63.9041C81.4123 64.0681 80.9883 65.652 80.1163 66.464C80.5803 65.74 80.7723 64.6801 81.2643 63.9041C81.7083 63.2001 82.2202 62.9241 82.3162 61.7922C82.4802 59.7962 81.7123 58.8163 81.1683 57.3443C79.9683 58.6443 79.6283 61.7442 80.3923 63.8121C80.2723 63.9761 80.3203 64.2881 80.2043 64.4561C80.0523 63.0001 79.0884 62.3601 78.8284 61.0122C78.1564 61.5442 77.3724 62.8681 77.7324 64.0881C78.0164 65.076 78.6764 66.212 78.9204 67.064C78.9324 67.028 78.9684 67.02 78.9684 66.976C78.8964 67.344 78.5324 67.82 78.3244 68.2119C78.3324 66.612 77.0204 65.896 77.1844 64.4561C76.4764 64.9241 75.7765 65.924 75.8085 67.064C75.8285 67.66 76.1685 68.1839 76.3605 68.7639C76.5644 69.3919 76.5764 70.0039 76.8124 70.4999C76.5924 70.8638 76.3525 71.2318 76.0365 71.5118C75.9085 70.5518 75.2445 69.6999 75.5805 68.5759C74.5165 69.2279 73.5766 69.8399 73.7006 71.5558C73.7365 72.0038 73.9085 72.4558 73.9765 72.8878C74.0165 73.1518 74.1005 73.5917 74.0685 73.7557C73.9805 74.1917 73.3406 74.4397 73.1526 74.6277C73.1246 73.6757 72.9566 72.8598 73.0166 71.8318C70.8167 72.0318 70.8567 74.3357 70.7647 76.6916C70.2287 77.0396 69.7367 77.4316 69.1607 77.7436C69.2407 76.6156 69.4167 75.5877 69.8967 74.8517C67.2968 74.5037 66.6928 77.0516 66.5048 79.2515C65.8848 79.4715 65.3569 79.7755 64.7169 79.9875C65.1729 78.8996 65.4529 77.6396 66.1808 76.8236C65.1289 76.6676 64.1369 76.7996 63.5729 77.2836C63.0489 77.7276 62.8489 78.5236 62.521 79.2075C62.173 79.9155 61.733 80.4875 61.417 81.0435C60.773 81.1515 60.169 81.2955 59.5371 81.4115C60.601 80.4795 61.021 78.8915 61.961 77.8356C60.869 77.5836 59.7091 77.6476 59.0771 78.1556C58.5451 78.5916 58.2611 79.3115 57.8411 79.9395C57.4171 80.5755 56.9492 81.1395 56.6052 81.6874C55.9932 81.6235 55.4852 81.9034 54.9052 81.7314C54.6772 81.6594 54.3533 81.1195 54.1333 80.8115C53.8613 80.4475 53.5853 80.1595 53.3973 79.8515C53.0133 79.2315 52.7733 78.4956 52.2493 78.1036C51.6134 77.6396 50.6014 77.5996 49.4094 77.8316C50.2774 78.9195 50.8574 80.5435 51.7934 81.4075C51.2334 81.4435 50.5934 81.1795 49.9614 81.1315C49.6934 80.4875 49.1534 79.9235 48.8175 79.2035C48.5495 78.6356 48.3975 78.0196 48.0375 77.5556C47.4815 76.8396 46.4895 76.6876 45.1976 76.7796C45.4336 77.2556 45.8056 77.7036 46.0256 78.3356C46.2256 78.9475 46.4775 79.5595 46.7095 80.1235C46.0496 79.9315 45.5176 79.6075 44.8736 79.3915C44.6056 77.0316 44.2256 74.5997 41.4857 74.8517C41.9937 75.6277 42.0817 76.8236 42.2657 77.9236C41.6617 77.5636 41.0577 77.2076 40.5698 76.7356C40.5218 74.4157 40.5418 72.0198 38.3698 71.8278C38.3858 72.6958 38.2498 73.7397 38.1858 74.6677C38.0579 74.7797 37.8739 74.4517 37.7299 74.3077C37.5579 74.1357 37.3179 73.9997 37.2699 73.7997C37.3259 72.8398 37.7459 71.9718 37.6819 71.0558C37.6019 69.7839 36.7059 69.0999 35.8059 68.5759C36.1219 69.7319 35.4219 70.5039 35.3499 71.5558C35.006 71.2518 34.762 70.8638 34.518 70.4519C34.834 70.0119 34.79 69.3639 34.978 68.7599C35.138 68.2439 35.4659 67.8159 35.5299 67.34C35.7139 65.988 34.93 65.08 34.198 64.4041C34.302 66.112 33.03 66.44 33.106 68.1159C32.79 67.8839 32.702 67.416 32.4581 67.112C32.646 66.06 33.498 64.9121 33.698 63.9041C33.922 62.7641 33.222 61.6922 32.5501 60.9682C32.3741 62.1362 31.3781 62.8801 31.2181 64.2201C30.7261 63.7401 31.1221 62.9881 31.1781 62.2042C31.3141 60.1842 30.7581 58.6803 30.0301 57.5283C28.9142 59.1603 27.8622 63.4201 30.3981 64.2681C30.6621 65.096 31.0701 65.792 31.3541 66.6C30.3221 65.876 29.9781 64.1001 28.4262 63.9001C27.7662 63.8121 27.2342 64.0641 26.5903 64.1721C27.4982 65.264 28.0622 67.488 29.9381 67.652C30.6781 67.716 31.0501 67.38 31.7261 67.288C32.2341 68.2879 32.814 69.2279 33.374 70.1719C32.5221 69.1279 30.2621 68.3959 28.9782 69.5359C29.1982 69.9559 29.6502 70.0919 30.0741 70.4479C30.7981 71.0678 31.2021 71.9358 32.2341 72.0598C32.986 72.1438 33.594 71.7558 34.294 71.5518C34.858 72.1758 35.3619 72.8678 35.8939 73.5237C34.814 72.6758 32.902 73.2957 32.2741 74.1197C32.606 74.4397 33.046 74.4397 33.466 74.7157C34.198 75.1917 34.586 75.9397 35.5299 75.9517C36.2899 75.9596 36.7499 75.3917 37.3179 75.0317C38.0858 75.6637 38.7618 76.3716 39.5618 76.9596C38.2618 76.2756 36.3979 77.0556 35.8939 78.1516C36.3059 78.3396 36.7099 78.3036 37.1339 78.4716C37.8099 78.7515 38.3098 79.5635 39.5178 79.3435C40.2378 79.2155 40.5458 78.4796 41.0777 78.0636C41.6777 78.4676 42.2857 78.8555 42.9577 79.2035C42.0977 79.3315 41.3577 79.2275 40.8018 79.5755C40.2818 79.8995 40.1698 80.5195 39.8418 81.0395C41.0737 81.2995 42.8937 81.9794 43.9256 81.1795C44.2696 80.9115 44.3616 80.5115 44.6096 80.0795C45.1296 80.2955 45.6216 80.5315 46.1696 80.7235C44.8656 80.9355 44.3296 81.9114 44.0576 83.1514C45.4936 83.3434 47.3735 83.4874 48.1815 82.5074C48.3895 82.2554 48.4255 81.8954 48.5975 81.5434C49.0015 81.6274 49.3494 81.7674 49.7894 81.8234C48.8695 82.3474 48.4535 83.3634 48.3175 84.6633C50.2494 84.2634 52.5973 84.3713 52.9013 82.3274C54.5253 82.5594 56.6892 82.4794 58.4491 82.3274C58.6531 84.3953 61.081 84.2433 62.9409 84.6633C62.9089 83.3914 62.397 82.2234 61.385 81.7754C61.889 81.7434 62.225 81.5434 62.713 81.5034C62.8289 81.8914 62.9249 82.2034 63.1249 82.4634C63.8969 83.4674 65.5808 83.3314 67.2488 83.1954C66.9648 81.9074 66.4448 80.8595 65.0009 80.7235C65.5089 80.4475 66.1288 80.2875 66.6048 79.9875C66.9648 80.3835 66.9928 80.9435 67.3808 81.2275C68.4767 82.0074 70.1567 81.2435 71.4646 81.0875C71.0766 79.7395 70.1687 79.0795 68.1608 79.2515C68.7967 78.8195 69.5367 78.4876 70.1327 78.0156C70.8407 78.7556 71.6526 79.7595 73.1086 79.1595C73.7645 78.8915 74.3965 78.2156 75.3525 78.1516C74.8605 76.9196 72.7286 76.2076 71.4126 77.1476C72.3046 76.4916 73.1006 75.7477 73.9325 75.0357C74.5445 75.3397 74.8925 75.9197 75.6765 75.9557C77.0364 76.0157 77.7284 74.3837 78.9764 74.2197C78.6204 73.3517 76.5684 72.6678 75.4965 73.4797C75.9045 72.8958 76.5204 72.1278 77.0964 71.5598C77.7044 71.7958 78.2644 72.1198 78.9764 72.0678C80.1243 71.9758 80.5083 71.0118 81.3203 70.3679C81.7003 70.0639 82.0762 69.9319 82.3242 69.5879C81.2963 68.4759 78.9684 69.0239 78.1084 70.0039C78.6964 69.1639 79.1724 68.2279 79.7123 67.344C80.3203 67.436 80.6483 67.708 81.3203 67.66C83.1682 67.532 83.6482 65.496 84.6122 64.3601C82.8282 70.4359 79.4243 75.3277 74.8485 79.0715C70.2007 82.8714 64.3169 85.6073 56.5612 85.9513C51.0214 86.1913 46.3295 84.8193 42.4897 83.0154C36.0459 79.9835 31.0661 74.8197 28.0982 68.4399C27.3222 66.768 26.6623 65.0201 26.1743 63.1201ZM14.3427 34.7052C17.2466 37.2851 20.0745 39.945 23.0064 42.4969C23.2064 42.0049 23.5064 41.6209 23.6904 41.1209C22.9104 40.3169 21.9424 39.697 21.2185 38.825C21.6664 38.177 21.9664 37.3731 22.4104 36.7251C23.5264 36.9451 24.5583 37.2571 25.6623 37.501C25.8743 36.9811 26.1863 36.5571 26.3983 36.0371C22.6224 35.1691 18.8306 34.3132 15.0827 33.4212C14.7667 33.7772 14.5947 34.2812 14.3427 34.7052ZM20.6705 36.2611C20.4105 36.7571 20.1545 37.2451 19.8945 37.733C19.0185 37.0051 18.2146 36.2051 17.3266 35.4851C18.3826 35.6171 19.5465 36.0411 20.6705 36.2611ZM77.3684 89.6112C76.8684 89.0792 76.1405 88.5432 75.5805 88.2352C75.7485 88.9352 75.8725 89.6871 75.9925 90.4391C76.4805 90.1911 76.8884 89.8711 77.3684 89.6112ZM27.8662 25.6295C27.1502 25.6255 26.5223 25.9215 25.9863 26.1815C25.5343 26.3975 24.8863 26.9134 24.1984 26.8174C23.5464 26.7334 22.9664 25.9655 23.0944 25.2175C23.1744 24.7655 23.7024 24.2015 24.1984 24.1135C25.1063 23.9575 25.4343 24.6135 26.0783 24.9415C26.2983 24.4855 26.6903 24.2095 26.9023 23.7456C25.9903 23.0216 25.1423 22.2656 23.6904 22.4616C22.4384 22.6296 21.2345 23.9415 21.4465 25.5375C21.6344 26.9374 23.1024 28.5094 24.7463 28.5654C26.3183 28.6014 27.2182 27.2214 28.5542 27.4134C29.3182 27.5254 30.0181 28.3654 29.8382 29.2934C29.6782 30.1013 28.6982 30.6493 27.8182 30.4893C27.1862 30.3733 26.8103 29.8373 26.3063 29.5693C26.0383 29.9613 25.7503 30.3253 25.4783 30.7133C26.5063 31.4853 27.2462 32.4252 28.9662 32.2252C29.7022 32.1372 30.4101 31.6693 30.8421 31.1733C32.658 29.0734 30.4141 25.6415 27.8662 25.6295ZM28.6422 17.9738C30.0341 21.6136 31.3861 25.2895 32.818 28.8854C33.194 28.5254 33.738 28.3374 34.058 27.9254C33.654 26.9174 33.258 25.9135 32.862 24.8975C33.17 24.6175 33.458 24.4535 33.874 24.1655C34.014 24.0615 34.758 23.4176 34.93 23.4336C34.982 23.4336 35.4739 23.8975 35.5699 23.9775C36.2659 24.5735 36.8339 25.1695 37.4979 25.6295C37.8739 25.2575 38.3938 25.0255 38.7818 24.6655C35.7739 22.1896 32.85 19.6257 29.7942 17.1938C29.4062 17.4538 29.0462 17.7338 28.6422 17.9738ZM33.554 22.2416C33.142 22.6136 32.67 22.9176 32.1781 23.2056C31.7741 22.1216 31.3421 21.0696 30.9381 19.9977C31.8261 20.7177 32.642 21.5216 33.554 22.2416Z" fill="white"/>
</svg>
