<svg width="624" height="808" viewBox="0 0 624 808" fill="none" xmlns="http://www.w3.org/2000/svg">
<path d="M213.216 219.27C310.262 219.27 388.931 297.94 388.931 394.985V460.424H216.325V807.405H-81.1016V394.985C-81.1016 297.94 -2.43181 219.27 94.6135 219.27H213.216Z" fill="#177AC7"/>
<ellipse cx="25.1021" cy="25.1021" rx="25.1021" ry="25.1021" transform="matrix(-1 0 0 1 313.619 322.263)" fill="#101C41"/>
<path d="M366.882 133.897C366.882 133.897 353.134 227.32 306.558 252.852C289.5 258.963 322.455 179.285 366.882 133.897Z" fill="#E48F10"/>
<path d="M319.968 232.994C321.388 227.702 322.847 222.329 324.737 216.917C326.581 211.506 328.714 206.062 331.133 200.659C333.576 195.27 336.303 189.896 339.441 184.818C342.548 179.751 346.107 174.938 349.888 171.257C346.476 175.873 343.454 180.719 340.698 185.747C337.955 190.775 335.432 195.928 333.102 201.15C330.726 206.361 328.563 211.642 326.414 216.945C324.245 222.251 322.321 227.599 319.969 232.992L319.968 232.994Z" fill="#C47A0D"/>
<path d="M419.668 186.961C419.668 186.961 341.317 290.479 308.215 266.432C298.677 253.454 371.296 191.116 419.668 186.961Z" fill="#E48F10"/>
<path d="M324.957 252.216C330.204 248.961 335.313 246.453 340.441 243.51C345.564 240.597 350.669 237.659 355.759 234.338C360.848 231.099 365.923 227.508 370.938 223.513C375.957 219.496 380.876 214.981 385.681 209.747C381.61 215.777 376.6 221.235 371.468 225.864C366.321 230.545 361.008 234.456 355.745 237.866C350.475 241.235 345.236 244.093 340.088 246.452C334.93 248.889 329.902 250.581 324.955 252.215L324.957 252.216Z" fill="#C47A0D"/>
<path opacity="0.1" d="M-85.8823 427.724C-83.953 436.997 -84.7356 456.782 -84.6452 465.882L-84.6469 465.885C-59.9818 516.781 301.226 255.037 314.224 215.694C320.848 201.039 310.604 193.834 304.653 192.063C273.726 202.042 -95.5692 377.769 -85.8823 427.724Z" fill="black"/>
<path d="M-90.6599 456.353C-91.4369 447.43 -95.447 427.67 -97.383 418.373C-107.093 368.29 269.342 190.716 300.356 180.713C311.982 176.064 315.764 193.777 312.38 205.915C302.93 239.83 -65.9322 507.384 -90.6619 456.352L-90.6599 456.353Z" fill="#FFA218"/>
<path d="M13.7014 311.448L20.9906 314.183C23.3503 315.224 25.6463 316.384 27.803 317.76C32.1498 320.462 36.0626 323.848 39.4438 327.942C42.7658 332.095 45.595 336.939 47.3348 342.872C49.1478 348.706 49.7286 355.81 48.5515 363.699C47.9594 356.912 46.2466 351.256 43.9724 346.204C41.6432 341.209 38.7757 336.786 35.4982 332.85C32.3066 328.802 28.6673 325.29 24.9745 321.814C21.2817 318.337 17.2257 315.31 13.7014 311.448Z" fill="#D68815"/>
<path d="M157.413 306.759L165.352 304.145C167.962 303.428 170.547 302.809 173.101 302.309C178.21 301.303 183.123 300.954 187.742 301.347C192.296 301.872 196.721 302.81 200.341 305.228C203.951 307.623 206.999 311.056 208.537 316.133C205.589 312.806 202.132 310.495 198.252 308.949C194.32 307.498 190.037 306.737 185.59 306.337C181.181 305.831 176.454 306.044 171.759 306.128C167.058 306.216 162.091 306.972 157.413 306.759Z" fill="#D68815"/>
<path d="M100.728 352.672C102.6 345.856 104.523 338.934 106.99 331.955C109.399 324.979 112.176 317.957 115.312 310.98C118.478 304.023 122.003 297.081 126.044 290.512C130.045 283.957 134.613 277.721 139.446 272.936C135.065 278.917 131.176 285.186 127.619 291.685C124.079 298.184 120.814 304.839 117.793 311.58C114.715 318.308 111.903 325.123 109.11 331.965C106.292 338.811 103.783 345.709 100.728 352.672Z" fill="#D68815"/>
<path d="M231.06 304.285C234.434 298.713 237.81 293.015 241.585 287.622C245.312 282.188 249.275 276.923 253.442 271.914C257.622 266.942 262.014 262.196 266.598 258.117C271.152 254.003 275.947 250.635 280.431 248.725C275.834 251.981 271.438 255.924 267.171 260.194C262.914 264.496 258.772 269.117 254.754 273.958C250.701 278.756 246.786 283.796 242.867 288.875C238.948 293.954 235.147 299.222 231.061 304.282L231.06 304.285Z" fill="#D68815"/>
<path d="M275.257 241.447C278.93 241.105 282.686 240.678 286.105 241.068C289.563 241.362 292.851 242.083 295.839 243.402C298.779 244.797 301.562 246.54 303.688 249.278C305.825 251.978 307.346 255.584 307.802 260.075C304.735 253.272 299.626 249.609 293.84 247.084C290.993 245.737 287.875 244.879 284.756 243.995C281.63 243.124 278.33 242.569 275.254 241.452L275.257 241.447Z" fill="#D68815"/>
</svg>
