<svg width="616" height="808" viewBox="0 0 616 808" fill="none" xmlns="http://www.w3.org/2000/svg">
<path d="M410.539 219.267C313.493 219.267 234.823 297.937 234.823 394.982V460.422H407.43V807.404H704.858V394.982C704.858 297.937 626.188 219.267 529.142 219.267H410.539Z" fill="#FFC849"/>
<ellipse cx="335.237" cy="347.363" rx="25.1023" ry="25.1022" fill="#101C41"/>
<path d="M256.876 133.893C256.876 133.893 270.624 227.316 317.2 252.849C334.258 258.959 301.303 179.281 256.876 133.893Z" fill="#E06216"/>
<path d="M303.785 232.99C302.365 227.699 300.905 222.325 299.016 216.913C297.172 211.502 295.039 206.059 292.62 200.655C290.177 195.266 287.45 189.893 284.312 184.814C281.204 179.747 277.645 174.934 273.864 171.253C277.277 175.87 280.298 180.715 283.054 185.744C285.797 190.772 288.321 195.925 290.651 201.146C293.026 206.357 295.19 211.639 297.339 216.941C299.507 222.247 301.431 227.596 303.784 232.988L303.785 232.99Z" fill="#C95B19"/>
<path d="M204.091 186.958C204.091 186.958 282.442 290.476 315.545 266.428C325.083 253.451 252.463 191.113 204.091 186.958Z" fill="#E06216"/>
<path d="M298.8 252.212C293.553 248.958 288.444 246.45 283.316 243.507C278.194 240.593 273.088 237.655 267.998 234.334C262.909 231.095 257.834 227.504 252.819 223.509C247.8 219.492 242.881 214.977 238.076 209.743C242.147 215.773 247.157 221.231 252.289 225.86C257.436 230.541 262.749 234.452 268.012 237.863C273.282 241.231 278.521 244.09 283.669 246.448C288.827 248.885 293.855 250.577 298.802 252.211L298.8 252.212Z" fill="#C95B19"/>
<path opacity="0.1" d="M709.644 427.722C707.715 436.994 708.498 456.779 708.407 465.879L708.409 465.882C683.744 516.779 322.534 255.034 309.536 215.69C302.912 201.035 313.157 193.83 319.107 192.059C350.034 202.038 719.331 377.766 709.644 427.722Z" fill="black"/>
<path d="M714.419 456.351C715.196 447.428 719.206 427.668 721.142 418.371C730.852 368.287 354.415 190.712 323.401 180.71C311.775 176.061 307.993 193.774 311.377 205.912C320.827 239.826 689.691 507.382 714.421 456.35L714.419 456.351Z" fill="#F26D1D"/>
<path d="M610.057 311.445L602.767 314.179C600.408 315.221 598.112 316.38 595.955 317.757C591.608 320.459 587.695 323.844 584.314 327.938C580.992 332.092 578.163 336.936 576.423 342.869C574.61 348.703 574.029 355.807 575.206 363.695C575.798 356.909 577.511 351.253 579.786 346.201C582.115 341.206 584.982 336.783 588.26 332.847C591.451 328.799 595.091 325.287 598.784 321.81C602.476 318.334 606.532 315.306 610.057 311.445Z" fill="#CF5C17"/>
<path d="M466.345 306.756L458.406 304.142C455.796 303.424 453.21 302.806 450.657 302.305C445.548 301.299 440.635 300.951 436.016 301.344C431.462 301.869 427.037 302.807 423.417 305.225C419.806 307.619 416.759 311.053 415.221 316.129C418.169 312.802 421.626 310.492 425.506 308.945C429.437 307.494 433.721 306.734 438.168 306.333C442.577 305.828 447.304 306.04 451.999 306.125C456.7 306.212 461.667 306.969 466.345 306.756Z" fill="#CF5C17"/>
<path d="M523.03 352.669C521.158 345.853 519.235 338.931 516.768 331.952C514.359 324.976 511.583 317.953 508.446 310.977C505.28 304.02 501.755 297.078 497.714 290.508C493.713 283.953 489.145 277.718 484.312 272.932C488.693 278.913 492.582 285.182 496.139 291.681C499.679 298.18 502.944 304.836 505.965 311.577C509.043 318.305 511.855 325.12 514.648 331.962C517.467 338.808 519.975 345.706 523.03 352.669Z" fill="#CF5C17"/>
<path d="M392.692 304.282C389.319 298.709 385.942 293.011 382.167 287.619C378.44 282.185 374.478 276.92 370.31 271.911C366.13 266.939 361.738 262.192 357.154 258.113C352.6 253.999 347.805 250.631 343.321 248.721C347.918 251.977 352.314 255.921 356.581 260.19C360.838 264.493 364.979 269.113 368.998 273.955C373.051 278.753 376.966 283.793 380.885 288.872C384.804 293.95 388.605 299.218 392.691 304.279L392.692 304.282Z" fill="#CF5C17"/>
<path d="M348.502 241.443C344.828 241.101 341.072 240.674 337.653 241.064C334.195 241.358 330.907 242.079 327.919 243.398C324.979 244.793 322.196 246.536 320.07 249.274C317.933 251.974 316.412 255.58 315.956 260.071C319.023 253.268 324.132 249.605 329.918 247.08C332.764 245.733 335.883 244.875 339.002 243.991C342.128 243.119 345.429 242.564 348.504 241.448L348.502 241.443Z" fill="#CF5C17"/>
</svg>
