<svg width="582" height="667" viewBox="0 0 582 667" fill="none" xmlns="http://www.w3.org/2000/svg">
<path d="M510.579 563.876C541.996 560.399 543.693 543.923 546.714 535.974C549.735 528.025 563.8 523.244 563.8 523.244C540.874 508.343 503.016 522.21 497.867 543.143C492.718 564.077 510.557 563.876 510.557 563.876L510.579 563.876Z" fill="#F26D1D"/>
<path opacity="0.4" d="M170.759 264.413C168.023 258.372 162.974 254.601 159.627 249.031C156.879 244.454 156.79 241.169 156.502 235.969C147.904 244.302 147.367 259.957 154.03 269.71C157.911 275.393 163.554 278.176 169.346 281.391C171.79 282.75 174.165 283.454 175.122 286.12L175.652 284.532C177.87 279.079 173.005 269.364 170.763 264.417L170.759 264.413Z" fill="#F77F30"/>
<path opacity="0.4" d="M227.759 154.481C221.358 144.195 212.331 142.018 201.053 143.061C210.131 144.516 220.564 157.153 225.326 164.335C231.084 173.018 230.06 177.624 230.887 186.83L231.511 187.455C235.391 177.968 233.022 162.934 227.764 154.481H227.759Z" fill="#F77F30"/>
<path opacity="0.4" d="M559.52 198.091C560.126 194.517 559.25 191.384 561.055 187.996C562.165 185.913 563.832 184.982 565.105 183.261C559.854 180.806 551.981 188.233 549.694 192.215C547.579 195.898 544.694 205.12 549.779 207.914C554.789 210.665 558.89 201.795 559.518 198.088L559.52 198.091Z" fill="#F77F30"/>
<path d="M514.675 566.683C489.389 563.643 463.468 576.272 437.929 575.05L441.331 614.579C458.229 614.573 477.012 622.254 494.161 624.571C515.135 627.401 530.823 633.577 532.972 608.87C534.602 590.137 536.182 569.267 514.68 566.683L514.675 566.683Z" fill="#492105"/>
<path opacity="0.6" d="M523.614 627.813C528.162 628.068 532.55 615.781 533.415 600.369C534.28 584.957 531.295 572.256 526.747 572.001C522.199 571.745 517.811 584.032 516.946 599.444C516.081 614.856 519.066 627.557 523.614 627.813Z" fill="#8E5339"/>
<path d="M325.442 544.853C309.092 542.788 291.137 545.612 274.72 546.218C262.602 546.667 246.6 544.851 235.438 550.764C225.926 555.806 221.613 573.856 232.339 582.824C239.401 588.728 263.254 586.717 272.778 586.852C294.999 587.168 316.508 578.848 338.88 580.728L325.438 544.848L325.442 544.853Z" fill="#5B2806"/>
<path d="M340.853 565.673C333.539 561.485 315.246 568.113 307.547 569.48C283.818 573.701 248.557 564.658 230.562 581.922C212.819 598.943 228.366 632.817 254.85 626.121L350.862 592.641C350.424 586.389 347.251 569.336 340.858 565.668L340.853 565.673Z" fill="#7F3B09"/>
<path d="M304.459 592.073C290.658 596.094 275.596 599.057 261.28 596.152C255.122 594.902 248.557 592.505 243.857 588.184C241.068 585.618 238.908 581.188 236.258 577.625C234.221 578.837 232.31 580.257 230.569 581.927C212.826 598.948 228.373 632.821 254.856 626.125L350.869 592.645C350.611 588.914 349.37 581.336 347.057 575.052C333.296 581.792 319.197 587.779 304.463 592.073L304.459 592.073Z" fill="#5B2806"/>
<path d="M427.569 626.463L427.701 625.859C426.817 625.58 426.599 625.687 427.569 626.463Z" fill="#5B2806"/>
<path d="M491.031 591.099C474.994 588.963 446.897 585.614 430.471 587.021L422.16 624.952C424.605 625.707 438.824 632.275 441.238 633.185C447.912 635.704 454.903 638.692 461.414 640.784C474.691 645.052 492.593 652.902 501.104 637.128C511.611 617.659 509.569 593.568 491.027 591.099L491.031 591.099Z" fill="#5B2806"/>
<path d="M427.563 626.463L427.696 625.858C426.811 625.58 426.594 625.686 427.563 626.463Z" fill="#7F3B09"/>
<path d="M439.317 604.476C447.673 607.652 456.589 610.28 465.617 611.366C470.803 611.993 476.351 612.323 481.71 610.329C488.797 607.697 493.498 601.049 497.216 593.896C495.172 592.681 492.81 591.84 490.086 591.47C473.507 589.215 451.449 588.832 434.468 590.324L432.094 601.415C434.462 602.518 436.867 603.545 439.317 604.476Z" fill="#7F3B09"/>
<path opacity="0.6" d="M497.903 644.267C503.967 644.608 509.406 635.565 510.051 624.069C510.697 612.573 506.304 602.978 500.241 602.637C494.177 602.297 488.738 611.34 488.093 622.836C487.447 634.332 491.84 643.927 497.903 644.267Z" fill="#7C442E"/>
<path d="M354.221 581.581C334.166 581.647 311.309 593.319 291.548 599.979C275.375 605.425 249.396 603.758 242.274 626.023C237.873 639.786 238.764 651.763 251.95 653.758C263.524 655.512 276.599 650.856 288.417 648.596C296.348 647.08 330.034 641.67 337.788 638.646C348.056 634.639 357.935 631.94 367.595 625.301C387.026 611.941 374.837 581.517 354.216 581.586L354.221 581.581Z" fill="#4C2010"/>
<path d="M264.507 604.21C254.65 607.073 245.742 611.962 242.071 623.56C237.849 636.89 238.705 648.49 251.356 650.423C260.282 651.787 270.135 649.143 279.543 646.92C283.765 641.276 285.706 633.803 283.746 624.539C281.391 613.399 273.703 606.592 264.502 604.215L264.507 604.21Z" fill="#4C2010"/>
<path d="M345.805 608.487C354.82 604.358 363.626 599.8 372.386 595.152C367.418 589.802 360.437 585.968 352.729 585.696C331.619 584.951 308.795 594.964 288.696 600.407C280.122 602.73 271.641 620.142 273.798 621.452C279.323 624.805 284.789 625.869 291.175 625.732C298.931 625.566 306.375 623.198 313.775 621.03C318.58 619.625 347.148 609.742 345.8 608.491L345.805 608.487Z" fill="#7A3C13"/>
<path opacity="0.6" d="M247.704 645.824C252.252 646.08 256.307 639.733 256.761 631.648C257.215 623.563 253.896 616.801 249.348 616.546C244.8 616.291 240.746 622.638 240.292 630.723C239.838 638.808 243.157 645.569 247.704 645.824Z" fill="#9E6346"/>
<path d="M478.056 587.966C518.47 570.489 577.999 479.284 581.277 405.556C581.852 392.616 579.315 369.302 579.315 369.302C579.315 369.302 555.058 301.525 544.684 290.867L194.972 293.661C183.676 306.597 161.391 369.302 161.391 369.302C161.391 369.302 160.464 390.238 162.755 400.891C174.891 457.325 207.661 552.946 265.308 587.966L290.824 599.06C325.791 613.213 345.67 613.376 378.933 613.649L380.103 613.659C414.073 613.939 437.642 605.442 478.056 587.966Z" fill="#C5621B"/>
<path d="M4.05847 521.156H3.268C3.30752 520.903 3.22848 520.618 3.268 520.365L4.05847 521.156Z" fill="#BD5E14"/>
<path d="M548.958 296.806C549.155 296.656 548.46 296.277 548.958 296.806C536.793 343.783 493.38 370.572 450.237 385.275C447.936 386.058 445.043 385.963 443.13 387.646C442.877 387.694 442.593 387.599 442.34 387.646C442.087 387.694 441.802 387.591 441.549 387.646C440.593 387.844 439.842 388.287 439.178 388.437C438.925 388.492 438.633 388.374 438.388 388.437C437.486 388.666 437.06 389.156 436.807 389.227C436.372 389.354 435.668 389.101 435.226 389.227C434.348 389.48 433.787 389.978 433.645 390.018C392.493 398.326 349.792 398.934 308.728 389.773C264.549 379.916 220.061 357.553 198.418 316.062L190.805 298.881C191.927 297.221 193.004 294.814 195.17 293.644C195.367 294.134 196.624 294.862 196.75 295.225C215.65 352.376 293.306 374.714 347.192 378.951C404.508 383.457 489.143 369.078 528.034 322.884C533.828 316.007 544.31 299.249 544.998 290.482C547.954 292.712 549.264 296.156 548.958 296.806Z" fill="#83400F"/>
<path d="M577.742 432.945C563.859 500.29 513.575 572.606 478.055 587.966C437.641 605.443 414.072 613.939 380.102 613.659L378.932 613.649C345.669 613.376 325.789 613.213 290.822 599.06L265.308 587.966C223.926 562.828 195.363 506.462 178.05 455.78C216.967 498.528 288.445 516.812 341.386 520.974C412.313 526.55 517.047 508.757 565.173 451.593C568.676 447.436 573.56 440.359 577.742 432.945Z" fill="#91430A"/>
<path d="M367.249 149.545C360.355 149.234 354.343 143.48 353.181 136.693C350.456 120.75 362.185 102.743 358.822 84.0144C356.028 68.4743 343.57 59.4782 340.906 45.0314C338.044 29.5293 344.383 13.9589 356.248 3.86962C357.554 2.76124 359.771 2.88271 359.68 0.855745C361.001 0.658363 360.295 1.66046 360.097 2.40444C359.179 5.94213 357.713 8.66752 357.364 12.5848C355.178 37.4777 371.591 45.6919 381.035 64.8303C396.188 95.5308 372.775 108.55 367.431 135.698C366.596 139.942 366.079 145.408 367.249 149.553V149.545Z" fill="#EADED2"/>
<path d="M440.06 42.5791C438.451 46.132 436.636 49.1155 435.74 53.0403C430.237 77.1741 456.223 90.9833 440.69 116.408C436.067 123.976 427.678 130.49 423.731 138.135C421.081 143.259 419.684 149.279 418.454 154.852C401.889 145.506 418.508 125.54 422.987 113.12C425.446 106.288 426.706 98.0663 425.606 90.8011C425.006 86.8382 421.225 81.3571 420.527 76.916C419.084 67.7833 422.804 58.1571 428.711 51.3246C429.819 50.0492 439.081 41.5846 440.06 42.5791Z" fill="#EADED2"/>
<path d="M298.994 55.4775C296.109 64.9291 294.955 73.2419 297.703 82.944C302.493 99.8657 320.167 108.118 321.662 127.256C322.535 138.416 315.073 149.629 316.439 160.925C301.37 159.581 306.646 142.31 305.818 131.72C304.611 116.279 297.126 113.751 290.035 102.751C280.69 88.2582 285.397 69.1956 296.42 57.0566C297.187 56.2139 297.544 55.1511 299.001 55.4699L298.994 55.4775Z" fill="#EADED2"/>
<path d="M320.729 179.106L317.567 179.896C318.129 178.616 319.757 179.264 320.729 179.106Z" fill="#BD5E14"/>
<path d="M330.99 177.525L327.828 178.315C328.184 178.268 329.504 177.683 330.99 177.525Z" fill="#BD5E14"/>
<path d="M4.85052 585.136C4.69243 584.559 4.32882 583.895 4.06006 582.764L4.85052 585.136Z" fill="#E0A54A"/>
<path d="M324.67 178.315L322.298 179.106C322.425 179.09 323.263 178.505 324.67 178.315Z" fill="#E0A54A"/>
<path d="M337.313 176.734L334.941 177.525C335.068 177.517 335.637 176.845 337.313 176.734Z" fill="#BD5E14"/>
<path d="M450.236 385.282H451.809C453.501 386.365 444.039 387.472 443.13 387.654C445.043 385.978 447.936 386.073 450.236 385.282Z" fill="#B2540C"/>
<path d="M436.809 389.235L435.647 390.033L435.228 389.235C435.671 389.109 436.374 389.362 436.809 389.235Z" fill="#B2540C"/>
<path d="M438.39 388.444C438.635 388.381 438.927 388.5 439.18 388.444L438.793 389.219L438.398 388.444H438.39Z" fill="#B2540C"/>
<path d="M441.552 387.654C441.804 387.599 442.089 387.702 442.342 387.654L441.947 388.429L441.552 387.654Z" fill="#B2540C"/>
<path d="M230.704 556.703C230.388 556.221 230.214 555.62 229.914 555.122C230.309 555.47 231.179 555.628 231.479 556.308L230.704 556.703Z" fill="#954403"/>
<path d="M128.829 639.646C130.291 638.263 132.505 637.259 134.354 636.485C133.311 638.627 130.789 638.903 128.829 639.646Z" fill="#FEF9EF"/>
<path d="M120.93 642.808C120.637 643.575 119.957 643.433 119.349 643.599C119.696 642.879 120.384 643.014 120.93 642.808Z" fill="#FEF9EF"/>
<path d="M114.615 645.172C114.37 645.243 113.824 645.725 113.034 645.962L114.615 645.172Z" fill="#FEF9EF"/>
<path d="M270.183 608.051C269.915 607.791 269.654 607.53 269.393 607.261L270.183 608.051Z" fill="#7D3A00"/>
<path d="M146.992 629.378C147.277 628.532 147.846 628.201 148.573 627.797C148.296 628.651 147.735 628.983 146.992 629.378Z" fill="#FEF9EF"/>
<path d="M514.99 298.387C512.01 303.833 511.331 303.817 507.884 307.865C506.659 303.067 500.319 300.798 497.861 298.15C490.715 290.459 492.265 287.597 480.787 281.653C473.017 277.629 473.325 276.878 467.017 272.302C460.709 267.725 456.33 267.567 449.453 265.994C448.489 265.772 447.287 265.456 446.291 265.203C442.283 264.176 440.853 261.559 437.114 259.773C428.189 255.504 423.012 257.773 414.704 256.516C412.309 256.152 409.218 253.86 406.649 253.117C399.417 251.03 390.287 251.086 383.117 253.354C382.856 253.354 382.588 253.354 382.327 253.354C380.825 252.587 379.228 252.153 377.592 251.773C369.165 249.805 360.542 249.173 352.321 252.564C349.443 252.714 348.044 252.564 345.61 252.564H332.978C329.974 252.564 322.947 255.915 319.951 257.307C319.659 257.441 319.422 257.971 319.161 258.097C310.26 257.299 303.952 258.642 296.261 262.84C294.324 263.899 291.985 264.855 290.736 266.792C290.483 266.753 290.206 266.808 289.945 266.792C283.147 266.444 272.934 270.697 267.828 275.076C266.271 276.412 264.864 279.044 263.836 279.772C262.295 280.862 259.662 280.791 257.813 281.645C251.015 284.783 249.102 286.815 244.146 292.063C242.644 293.652 241.695 295.597 240.217 297.217C237.427 300.276 233.482 302.15 231.514 306.284C228.447 302.442 227.364 302.426 224.408 296.806C225.665 291.463 225.072 286.728 226.558 281.179C241.324 225.996 340.337 211.728 387.52 213.823C427.763 215.61 513.923 237.996 515.062 289.281C515.133 292.435 513.568 295.763 515.022 298.387H514.99Z" fill="#632A00"/>
<path d="M357.046 274.689C357.797 278.23 355.386 281.289 355.394 284.569C355.417 290.996 360.935 294.505 366.974 293.699C369.764 293.328 368.816 292.411 369.962 291.518C370.515 291.083 371.701 291.628 372.064 290.759C372.626 289.407 373.883 282.079 373.622 280.649C373.242 278.554 371.211 278.008 370.46 276.277L372.831 274.689C375.961 274.831 379.866 275.218 383.099 275.479C383.265 275.495 383.945 276.198 384.68 276.269C388.103 283.921 396.197 283.708 401.264 277.85C401.525 277.89 401.794 277.811 402.055 277.85C404.616 278.269 407.43 278.791 409.951 279.431C409.706 289.209 421.484 295.367 427.326 286.538C427.547 286.632 427.887 286.451 428.116 286.538C430.393 287.431 438.116 291.02 439.175 291.28C433.428 299.904 434.503 308.884 446.495 308.528C448.566 307.943 451.482 302.837 451.807 300.758C454.36 300.679 454.123 300.205 454.21 302.726C454.32 305.904 452.771 309.248 453.387 312.607C445.317 312.37 442.708 317.223 445.048 324.504C446.937 330.385 455.427 330.709 459.703 327.618C461.798 326.677 462.098 329.096 462.565 329.159C463.687 329.318 466.707 328.393 468.39 329.183C467.576 327.752 465.948 327.547 465.45 325.444C463.909 318.876 468.09 313.998 474.714 314.188C476.564 314.243 478.066 315.065 479.433 316.212C480.801 317.358 480.911 318.828 481.03 318.931C480.129 320.006 480.421 329.001 481.813 327.618L483.386 325.262L484.982 327.618C484.714 327.792 484.492 328.219 484.192 328.409L466.264 336.961C461.6 333.57 462.391 338.187 459.672 339.823C458.802 340.345 448.969 344.115 448.186 344.226C444.455 344.747 441.665 339.586 435.357 341.586C429.523 343.435 431.302 347.727 430.401 348.866C429.998 349.372 419.682 351.656 417.856 352.115C417.674 352.162 417.153 352.707 416.275 352.905L411.54 352.107L413.208 347.751C410.6 344.139 410.394 341.024 405.398 339.696C401.082 338.542 402.181 339.981 400.387 341.348C399.81 341.791 398.695 341.696 398.34 342.06C395.684 344.74 398.079 350.257 396.49 353.253L398.11 354.47L377.218 356.091L345.995 355.261C347.117 351.032 351.03 351.901 349.584 346.55C348.137 341.198 343.062 337.507 337.363 339.135C330.589 341.072 333.68 344.716 333.363 344.992C333.189 345.143 331.806 344.668 331.205 345.166C330.945 345.38 329.34 349.34 329.482 349.972C330.51 353.031 334.549 351.095 335.727 353.68L331.775 354.478C331.514 354.446 331.245 354.518 330.984 354.478C331.45 352.028 329.775 353.134 328.352 352.802C321.348 351.174 314.297 350.336 307.294 348.945C307.041 348.897 306.756 348.992 306.503 348.945C305.571 347.506 302.836 346.51 301.768 348.154C296.267 346.961 291.01 344.811 285.975 342.621C284.03 341.775 275.225 337.807 274.363 336.851C273.272 335.633 272.015 329.515 271.668 329.286C269.51 329.673 266.806 328.48 265.028 328.527C262.308 328.606 259.502 331.713 256.68 328.037C254.609 325.342 259.747 321.302 259.913 319.713L265.423 320.488C264.308 316.923 269.114 313.54 269.423 311.366C269.778 308.876 267.541 307.833 267.81 305.493L270.039 305.398C270.134 302.663 271.154 300.394 274.126 299.96C273.746 300.837 272.418 306.062 272.592 306.592C276.047 308.568 277.723 311.469 282.204 310.86C284.584 310.536 287.848 308.252 289.698 308.015C291.105 307.833 295.492 309.366 296.211 308.623C296.472 308.354 295.753 306.196 297.018 305.082C298.456 303.817 303.223 303.62 304.503 302.299C307.926 298.766 305.025 294.221 302.1 291.328C298.18 287.439 295.002 289.122 290.71 290.482V288.901C292.852 288.174 295.144 286.332 297.816 286.522C298.164 285.21 296.377 286.142 296.196 285.273C295.121 280.159 303.057 278.665 306.899 279.439C308.717 279.803 309.246 281.629 310.867 281.803C312.487 281.977 322.605 279.17 325.467 278.633C323.506 285.565 319.064 285.067 322.131 293.423C323.791 297.944 329.277 298.395 333.585 297.414C335.284 297.027 338.912 292.095 339.371 290.506C340.074 288.039 337.276 287.249 337.316 284.957L342.833 285.739C344.406 280.19 337.964 280.949 338.098 276.262C343.426 275.613 349.552 274.934 354.682 274.681C355.465 274.641 356.263 274.712 357.054 274.681L357.046 274.689ZM402.331 300.236C396.419 306.37 403.288 316.646 412.37 313.832C421.231 311.082 418.062 295.92 408.853 296.814C407.501 296.948 403.28 299.256 402.331 300.244V300.236ZM376.989 300.956C374.594 303.525 375.226 308.457 376.91 311.303C381.85 319.642 396.245 315.239 394.15 304.339C393.66 301.801 387.486 297.628 385.115 297.557C383.653 297.509 377.843 300.047 376.989 300.964V300.956ZM337.877 303.351C336.288 301.849 329.142 300.892 327.016 301.936C326.004 302.434 325.854 303.975 325.245 304.489C324.407 305.193 322.645 305.24 322.407 305.604C321.933 306.339 322.178 312.212 322.708 313.39C323.166 314.401 328.202 317.745 329.221 317.998C335.616 319.579 342.549 307.762 337.877 303.359V303.351ZM348.358 311.817C344.311 310.599 339.521 319.824 339.608 322.456C339.885 330.63 353.307 335.57 356.429 326.606C358.287 321.279 357.093 317.571 353.757 313.5L348.374 314.172L348.358 311.817ZM291.73 331.839C292.797 330.891 294.457 330.582 295.413 329.547C298.425 326.266 296.417 316.125 291.121 315.69C285.422 315.224 279.58 318.046 279.003 324.251C278.956 324.764 280.6 331.033 280.853 331.547C282.125 334.1 288.607 335.728 291.026 333.989C291.714 333.491 291.374 332.147 291.73 331.839ZM427.16 332.969C428.923 331.95 431.476 325.658 431.318 323.286C431.096 319.927 425.84 316.22 422.797 315.927C415.84 315.255 409.264 324.322 415.761 330.495C418.03 332.653 424.591 334.456 427.16 332.969ZM304.211 325.365C304.764 332.519 305.8 339.04 314.693 338.408C318.795 338.115 317.649 336.345 318.819 334.013C319.317 333.025 320.4 332.701 320.708 331.167C321.83 325.594 320.416 323.144 315.048 321.848C309.025 320.385 308.867 322.622 304.211 325.373V325.365ZM376.61 331.705C374.452 331.981 369.875 335.665 368.855 337.444C364.097 345.743 378.159 353.379 383.147 347.791C384.562 346.202 386.546 341.325 386.253 339.135C385.771 335.452 380.293 331.23 376.61 331.697V331.705Z" fill="#F3C56E"/>
<path d="M514.993 298.387C513.539 295.762 515.104 292.435 515.033 289.281C513.895 237.995 427.734 215.617 387.491 213.823C340.309 211.728 241.295 226.004 226.529 281.178C225.043 286.72 225.636 291.462 224.379 296.806C201.408 253.117 240.702 220.249 277.87 205.357C334.254 182.758 411.474 182.228 467.352 206.614C504.401 222.787 538.336 255.773 514.993 298.387Z" fill="#B8540D"/>
<path d="M382.323 253.362C382.584 253.362 382.852 253.362 383.113 253.362C385.003 253.346 387.105 253.496 389.429 253.362C388.536 255.298 392.899 264.152 393.935 264.436C398.306 265.163 405.444 263.448 408.4 260.057C409.744 258.516 408.068 256.943 408.377 254.951C409.997 255.425 413.206 256.626 414.692 257.322C417.072 258.429 421.925 261.377 422.399 264.128C422.605 265.314 421.316 266.436 422.162 268.357C423.98 272.467 430.794 273.297 434.66 272.167C436.549 271.614 437.134 269.155 438.438 268.041C442.193 264.831 445.876 266.776 450.279 267.132C453.86 273.795 447.007 278.593 452.564 284.601C460.769 293.47 470.317 279.581 464.903 275.416C463.464 274.309 461.053 274.87 459.456 273.953C458.381 273.337 456.927 269.788 455.773 268.76C463.401 269.764 467.733 274.483 472.942 279.4C473.606 280.024 475.116 279.945 475.866 281.036C477.226 283.012 477.297 291.763 474.689 292.466C474.625 294.845 477.345 293.984 478.443 294.656C480.483 295.889 483.012 303.011 488.127 299.968V302.347C492.363 301.604 495.415 299.035 499.976 299.968C501.723 304.845 496.513 309.769 496.798 313.73C496.837 314.267 500.15 314.923 499.185 317.35C498.909 317.603 498.679 317.895 498.395 318.14C494.577 314.188 490.49 319.745 491.288 323.674C490.395 323.681 489.486 323.768 488.585 323.61C486.648 323.278 482.427 320.156 481.02 318.923C480.902 318.82 480.752 317.31 479.424 316.204C478.096 315.097 476.562 314.235 474.704 314.18C475.139 310.378 470.784 310.773 469.187 308.244C468.539 306.615 473.542 306.149 474.483 305.279C474.918 304.876 476.088 301.628 476.167 300.94C476.649 296.505 470.215 298.197 471.44 293.778L462.531 292.806C461.931 295.035 459.757 295.881 460.492 298.395L453.386 296.806C452.026 294.26 451.164 294.727 449.433 293.644C447.702 292.561 447.702 291.715 444.698 291.272C443.046 291.027 440.62 291.628 439.173 291.272C438.114 291.012 430.391 287.423 428.114 286.53C438.912 281.234 425.569 270.792 417.91 272.728C415.933 273.226 410.013 276.554 410.748 279.415C410.503 279.352 410.203 279.479 409.958 279.415C407.436 278.775 404.622 278.253 402.061 277.835C405.333 272.855 398.124 266.665 393.698 266.065C388.117 265.306 379.556 268.705 383.105 275.471C379.872 275.21 375.968 274.823 372.837 274.681C371.264 274.609 369.675 274.712 368.102 274.681C372.774 271.463 367.122 271.108 366.68 270.57C366.134 269.898 366.893 267.187 365.28 266.847C360.198 268.468 354.657 267.867 354.68 274.681C349.55 274.934 343.424 275.613 338.096 276.262C336.674 276.435 335.425 276.87 334.144 277.052V274.681C331.172 274.57 328.168 274.009 328.619 277.842C327.393 278.056 326.398 278.451 325.457 278.633C322.595 279.17 312.454 281.977 310.857 281.803C309.26 281.629 308.715 279.803 306.889 279.439C303.047 278.665 295.119 280.159 296.186 285.273C296.368 286.15 298.162 285.21 297.806 286.522C295.135 286.332 292.85 288.174 290.7 288.901C288.55 289.628 285.704 289.597 283.594 291.272C283.096 291.344 282.424 291.154 282.013 291.272C279.001 287.684 275.65 289.889 271.753 289.699L272.535 292.845L267.84 292.893C267.587 293.138 267.358 298.221 266.844 299.398C266.188 300.916 261.611 303.619 262.267 307.066C260.133 307.406 259.382 304.402 257.777 304.031C256.046 303.627 251.098 305.113 248.877 303.896C249.533 308.141 246.173 307.493 245.32 308.631C244.387 309.872 243.067 315.492 241.747 317.326C236.403 312.449 236.024 311.959 231.479 306.268C233.455 302.133 237.391 300.268 240.182 297.201C241.66 295.58 242.608 293.636 244.11 292.047C246.26 293.715 246.75 289.739 248.007 288.443C253.612 282.656 262.544 283.684 267.413 277.052C269.207 283.89 273.658 288.016 281.049 285.186C281.286 285.099 284.495 281.85 284.598 281.613C285.807 278.878 284.582 275.242 287.475 272.578C287.633 270.705 284.155 271.266 285.175 268.357L289.918 266.776C290.178 266.792 290.455 266.736 290.708 266.776C292.21 267.013 296.328 268.918 297.253 269.898C298.257 270.957 297.878 272.578 299.411 273.479C299.893 273.764 305.656 275.376 305.996 275.313C307.276 275.06 312.754 269.985 313.252 268.412C314.833 263.377 311.995 263.061 311.236 258.887C314.193 258.429 315.987 259.591 319.133 258.097C319.394 257.97 319.631 257.441 319.924 257.306L328.318 264.278C334.033 267.898 334.081 266.341 340.318 265.061C342.246 261.33 340.816 258.239 345.139 256.864L344.412 254.152C346.254 254.816 350.981 253.947 352.261 254.516C352.949 254.824 353.558 255.962 354.388 256.421C355.4 256.982 357.234 257.077 357.645 257.488C358.411 258.239 358.348 262.073 360.672 263.543C363.676 265.448 370.798 264.681 372.893 261.693C373.675 260.571 373.375 259.14 373.912 258.35C374.885 256.919 378.94 255.875 376.782 253.354C377.043 253.385 377.311 253.322 377.572 253.354C379.92 253.678 381.011 253.322 382.307 253.354L382.323 253.362ZM262.228 290.403L259.453 285.012C257.453 286.356 254.37 286.585 252.592 287.312C251.62 287.715 252.007 289.344 251.288 290.11C249.58 291.929 245.612 293.336 246.007 296.821C249.177 302.418 266.591 300.766 259.912 291.683L262.228 290.395V290.403Z" fill="#E0A54A"/>
<path d="M282.036 291.281C280.953 291.597 274.724 298.616 274.139 299.968C271.167 300.395 270.147 302.671 270.052 305.406L267.823 305.501C267.562 307.841 269.791 308.884 269.436 311.374C269.127 313.548 264.321 316.931 265.436 320.496L259.926 319.721C260.077 318.33 259.634 316.52 258.346 315.769C257.927 313.967 259.839 314.623 259.998 313.042C260.44 308.584 258.954 304.466 254.788 308.655L254.393 314.188L253.603 314.979C248.686 313.255 248.884 322.907 244.125 319.721C243.026 318.812 242.528 318.062 241.754 317.35C243.074 315.516 244.386 309.896 245.327 308.655C246.188 307.517 249.54 308.165 248.884 303.92C251.113 305.137 256.053 303.651 257.784 304.055C259.389 304.426 260.14 307.43 262.274 307.09C261.618 303.636 266.195 300.94 266.851 299.422C267.365 298.245 267.594 293.154 267.847 292.917L272.542 292.869L271.76 289.723C275.665 289.913 279.008 287.708 282.02 291.296L282.036 291.281Z" fill="#E8B561"/>
<path d="M484.194 328.409C481.847 329.863 479.554 331.839 477.088 333.152C464.781 339.697 450.963 344.226 437.604 348.162C434.371 349.111 431.146 350.273 427.739 350.55C427.352 350.7 427.297 350.953 427.336 351.324C426.57 351.403 425.708 351.206 424.965 351.324C423.977 351.482 423.669 352.028 423.384 352.115H417.859C419.693 351.656 430 349.372 430.403 348.866C431.304 347.728 429.526 343.428 435.36 341.586C441.667 339.586 444.45 344.748 448.189 344.226C448.971 344.115 458.805 340.353 459.674 339.823C462.393 338.187 461.611 333.578 466.267 336.962L484.194 328.409Z" fill="#F6D081"/>
<path d="M446.284 265.211L449.446 266.002C456.315 267.575 460.718 267.756 467.01 272.31C473.302 276.863 473.017 277.637 480.78 281.661C492.257 287.605 490.708 290.467 497.854 298.158C500.312 300.806 506.659 303.074 507.877 307.873C504.715 311.588 503.087 313.785 499.19 317.35C500.154 314.923 496.842 314.267 496.802 313.73C496.518 309.778 501.735 304.845 499.98 299.968C495.419 299.035 492.368 301.604 488.139 302.347V299.968C483.017 303.011 480.479 295.889 478.448 294.656C477.349 293.992 474.63 294.846 474.693 292.466C477.302 291.755 477.23 283.005 475.871 281.036C475.12 279.945 473.602 280.024 472.946 279.4C467.737 274.483 463.413 269.764 455.777 268.76C456.931 269.788 458.386 273.337 459.461 273.954C461.065 274.863 463.476 274.309 464.907 275.416C470.322 279.582 460.773 293.478 452.568 284.601C447.019 278.594 453.872 273.796 450.284 267.132C445.873 266.776 442.197 264.832 438.442 268.041C437.146 269.156 436.553 271.614 434.664 272.167C430.799 273.298 423.985 272.468 422.167 268.357C421.321 266.436 422.601 265.314 422.404 264.128C421.93 261.377 417.076 258.429 414.697 257.322V256.532C423.005 257.789 428.182 255.52 437.106 259.789C440.853 261.583 442.276 264.199 446.284 265.219V265.211ZM454.971 270.744H452.607V272.317H454.971V270.744Z" fill="#E8B561"/>
<path d="M258.333 315.769C259.622 316.52 260.057 318.33 259.914 319.721C259.748 321.31 254.61 325.357 256.681 328.045C259.503 331.721 262.302 328.614 265.029 328.535C266.807 328.488 269.511 329.673 271.669 329.294C272.016 329.523 273.273 335.649 274.364 336.859C275.226 337.815 284.031 341.783 285.976 342.629C273.36 338.629 260.468 332.084 249.646 324.456C251.804 322.535 253.045 318.014 253.599 314.978L254.389 314.188C255.266 315.603 257.709 315.405 258.341 315.769H258.333Z" fill="#F6D081"/>
<path d="M498.406 318.133C493.292 322.615 490.486 324.132 484.984 327.61L483.388 325.255L481.815 327.61C480.423 328.986 480.131 319.998 481.032 318.923C482.439 320.156 486.66 323.279 488.597 323.611C489.498 323.769 490.407 323.682 491.3 323.674C490.502 319.745 494.589 314.188 498.406 318.141V318.133Z" fill="#E8B561"/>
<path d="M253.604 314.979C253.058 318.022 251.809 322.536 249.651 324.457C247.256 322.773 246.157 321.406 244.126 319.714C248.885 322.907 248.687 313.256 253.604 314.971V314.979Z" fill="#F3C56E"/>
<path d="M307.297 348.945C314.309 350.336 321.36 351.174 328.355 352.802C329.778 353.134 331.454 352.028 330.988 354.478C325.676 353.711 320.427 352.462 315.194 351.316C312.609 350.747 309.068 350.976 307.297 348.945Z" fill="#F6D081"/>
<path d="M306.507 348.945C304.982 348.645 303.424 348.518 301.772 348.155C302.839 346.511 305.574 347.507 306.507 348.945Z" fill="#F6D081"/>
<path d="M427.339 351.316C427.354 351.435 428.05 351.711 428.137 352.091L424.967 351.316C425.702 351.198 426.572 351.395 427.339 351.316Z" fill="#AC4F06"/>
<path d="M376.798 253.362C378.956 255.883 374.901 256.927 373.928 258.358C373.383 259.156 373.691 260.579 372.909 261.701C370.822 264.689 363.7 265.456 360.688 263.551C358.364 262.081 358.427 258.247 357.661 257.496C357.25 257.085 355.408 256.998 354.404 256.429C353.574 255.963 352.957 254.824 352.278 254.524C350.997 253.955 346.27 254.824 344.428 254.16L345.156 256.872C340.84 258.247 342.27 261.338 340.334 265.069C334.097 266.357 334.049 267.906 328.334 264.286L319.94 257.314C322.936 255.923 329.971 252.571 332.967 252.571H345.598C348.033 252.571 349.432 252.722 352.309 252.571C362.214 252.05 366.719 252.066 376.79 253.362H376.798Z" fill="#E8B561"/>
<path d="M289.933 266.792L285.191 268.373C284.171 271.274 287.649 270.721 287.491 272.594C284.598 275.266 285.823 278.894 284.614 281.629C284.511 281.866 281.302 285.115 281.064 285.202C273.674 288.032 269.223 283.906 267.429 277.068C262.56 283.7 253.627 282.673 248.023 288.459C246.766 289.755 246.276 293.723 244.126 292.063C249.082 286.815 251.003 284.783 257.793 281.645C259.635 280.791 262.275 280.854 263.816 279.772C264.844 279.044 266.259 276.412 267.808 275.076C272.915 270.689 283.135 266.444 289.925 266.792H289.933Z" fill="#E8B561"/>
<path d="M311.251 258.887C312.01 263.061 314.847 263.385 313.266 268.413C312.768 269.993 307.291 275.06 306.01 275.313C305.678 275.377 299.915 273.764 299.425 273.479C297.892 272.578 298.271 270.958 297.267 269.899C296.343 268.918 292.224 267.013 290.722 266.776C291.971 264.84 294.311 263.883 296.248 262.824C301.394 262.168 306.05 259.686 311.251 258.872V258.887Z" fill="#E8B561"/>
<path d="M377.586 251.781V253.362C377.325 253.33 377.057 253.393 376.796 253.362C366.725 252.065 362.228 252.05 352.315 252.571C360.536 249.188 369.16 249.813 377.586 251.781Z" fill="#F3C56E"/>
<path d="M414.698 256.516V257.307C413.212 256.611 410.003 255.41 408.383 254.935C400.494 252.627 397.3 252.912 389.427 253.354C387.103 253.489 385.001 253.339 383.111 253.354C390.281 251.078 399.411 251.03 406.643 253.117C409.205 253.86 412.303 256.153 414.698 256.516Z" fill="#F6D081"/>
<path d="M319.147 258.097C316.001 259.591 314.207 258.429 311.25 258.887C306.049 259.702 301.393 262.176 296.247 262.84C303.939 258.65 310.246 257.306 319.147 258.097Z" fill="#F6D081"/>
<path d="M382.321 253.362C381.025 253.33 379.934 253.686 377.586 253.362V251.781C379.223 252.16 380.819 252.595 382.321 253.362Z" fill="#E8B561"/>
<path d="M449.449 266.002L446.287 265.211C447.283 265.464 448.477 265.78 449.449 266.002Z" fill="#BD5E14"/>
<path d="M331.778 354.471L335.731 353.672C334.553 351.087 330.514 353.024 329.486 349.965C329.344 349.333 330.948 345.372 331.209 345.159C331.802 344.661 333.185 345.135 333.367 344.985C333.683 344.708 330.593 341.064 337.367 339.128C343.058 337.499 348.086 341.001 349.587 346.542C351.089 352.083 347.121 351.024 345.999 355.253L377.222 356.083L398.114 354.463L396.494 353.245C398.082 350.242 395.687 344.724 398.343 342.052C398.707 341.689 399.814 341.784 400.391 341.341C402.185 339.973 401.086 338.535 405.402 339.689C410.39 341.017 410.603 344.139 413.212 347.744L411.544 352.099L416.279 352.898C393.648 357.988 365.104 357.664 342.046 356.059C341.991 356.059 341.841 355.316 341.256 355.269C339.232 355.095 336.869 355.546 334.94 355.269C334.845 354.89 334.521 354.542 334.15 354.479C333.422 354.352 332.537 354.581 331.778 354.479V354.471Z" fill="#F6D081"/>
<path d="M290.716 290.49C295.008 289.138 298.185 287.455 302.106 291.336C305.031 294.229 307.932 298.774 304.509 302.307C303.229 303.628 298.462 303.825 297.024 305.09C295.759 306.197 296.478 308.355 296.217 308.631C295.506 309.374 291.111 307.841 289.704 308.023C287.854 308.26 284.589 310.544 282.21 310.868C277.72 311.469 276.052 308.568 272.598 306.6C272.424 306.07 273.752 300.845 274.132 299.968C274.717 298.616 280.945 291.589 282.028 291.281C282.439 291.162 283.111 291.352 283.609 291.281C283.325 294.877 288.494 291.194 290.716 290.49Z" fill="#F6D081"/>
<path d="M453.392 296.806L460.498 298.395C459.763 295.882 461.937 295.044 462.537 292.807L471.446 293.779C470.221 298.198 476.655 296.506 476.173 300.941C476.102 301.628 474.932 304.877 474.489 305.28C473.549 306.158 468.545 306.624 469.193 308.244C470.79 310.774 475.153 310.379 474.71 314.181C468.094 313.991 463.913 318.876 465.446 325.437C465.936 327.54 467.573 327.753 468.387 329.176C466.703 328.378 463.691 329.302 462.561 329.152C462.095 329.089 461.794 326.67 459.7 327.611C465.043 323.753 461.573 312.845 453.384 312.6C452.767 309.24 454.317 305.897 454.206 302.719C454.119 300.198 454.356 300.672 451.803 300.751C451.882 300.253 451.748 299.684 451.803 299.17C452.522 299.288 453.407 299.099 454.166 299.17C454.419 298.087 453.811 297.605 453.384 296.806H453.392Z" fill="#E8B561"/>
<path d="M338.105 276.269C337.971 280.957 344.413 280.198 342.84 285.747L337.323 284.965C337.283 287.265 340.089 288.055 339.378 290.514C338.919 292.095 335.291 297.035 333.592 297.422C329.284 298.402 323.79 297.952 322.138 293.43C319.071 285.075 323.513 285.573 325.474 278.641C326.414 278.467 327.402 278.064 328.635 277.85C330.517 277.526 332.279 277.321 334.161 277.06C335.441 276.886 336.69 276.443 338.113 276.269H338.105Z" fill="#F6D081"/>
<path d="M368.105 274.689C369.678 274.721 371.275 274.618 372.84 274.689L370.468 276.278C371.211 278.009 373.243 278.554 373.63 280.649C373.891 282.088 372.634 289.407 372.073 290.759C371.709 291.629 370.516 291.083 369.97 291.518C368.824 292.411 369.773 293.336 366.982 293.7C360.935 294.506 355.426 290.988 355.402 284.57C355.386 281.289 357.805 278.23 357.054 274.689C360.698 274.555 364.461 274.618 368.113 274.689H368.105Z" fill="#F6D081"/>
<path d="M376.991 300.956C377.844 300.047 383.654 297.501 385.117 297.549C387.496 297.62 393.661 301.794 394.152 304.331C396.246 315.239 381.852 319.634 376.912 311.295C375.228 308.449 374.595 303.517 376.991 300.948V300.956Z" fill="#F6D081"/>
<path d="M291.737 331.839C291.381 332.156 291.721 333.499 291.033 333.989C288.614 335.728 282.141 334.1 280.86 331.547C280.607 331.033 278.963 324.773 279.01 324.251C279.579 318.038 285.421 315.216 291.128 315.69C296.424 316.125 298.432 326.267 295.42 329.547C294.464 330.583 292.812 330.891 291.737 331.839Z" fill="#F6D081"/>
<path d="M348.363 311.817L348.379 314.172L353.762 313.501C357.098 317.571 358.291 321.271 356.434 326.606C353.311 335.578 339.889 330.63 339.612 322.457C339.526 319.824 344.316 310.607 348.363 311.817Z" fill="#F6D081"/>
<path d="M376.614 331.705C380.297 331.231 385.775 335.46 386.257 339.143C386.542 341.333 384.566 346.21 383.151 347.799C378.163 353.388 364.101 345.752 368.859 337.452C369.879 335.665 374.464 331.982 376.614 331.713V331.705Z" fill="#F6D081"/>
<path d="M427.162 332.97C424.593 334.456 418.032 332.654 415.764 330.496C409.266 324.322 415.843 315.248 422.799 315.927C425.842 316.22 431.099 319.927 431.32 323.287C431.478 325.658 428.925 331.95 427.162 332.97Z" fill="#F6D081"/>
<path d="M453.391 312.607C461.588 312.844 465.05 323.753 459.707 327.618C455.438 330.709 446.949 330.385 445.052 324.504C442.712 317.224 445.313 312.37 453.391 312.607Z" fill="#F6D081"/>
<path d="M402.337 300.236C403.286 299.256 407.507 296.94 408.859 296.806C418.068 295.912 421.245 311.073 412.376 313.824C403.294 316.638 396.433 306.362 402.337 300.228V300.236Z" fill="#F6D081"/>
<path d="M304.215 325.366C308.871 322.623 309.029 320.378 315.052 321.84C320.42 323.145 321.827 325.587 320.712 331.16C320.404 332.693 319.313 333.017 318.823 334.006C317.653 336.337 318.799 338.108 314.697 338.401C305.804 339.041 304.768 332.512 304.215 325.358V325.366Z" fill="#F6D081"/>
<path d="M337.881 303.351C342.553 307.754 335.62 319.572 329.225 317.991C328.206 317.738 323.17 314.394 322.712 313.382C322.182 312.204 321.937 306.339 322.411 305.596C322.649 305.233 324.411 305.193 325.249 304.482C325.858 303.968 326.008 302.426 327.02 301.928C329.138 300.885 336.292 301.849 337.881 303.343V303.351Z" fill="#F6D081"/>
<path d="M444.706 291.28L444.808 293.533C445.694 293.913 447.172 293.834 447.867 294.442C449.037 295.454 448.658 298.655 451.82 299.185C451.764 299.699 451.899 300.268 451.82 300.766C451.496 302.845 448.571 307.951 446.508 308.536C434.516 308.892 433.441 299.912 439.188 291.288C440.635 291.644 443.061 291.043 444.713 291.288L444.706 291.28Z" fill="#F6D081"/>
<path d="M410.752 279.431C410.017 276.57 415.946 273.242 417.914 272.744C425.581 270.807 438.916 281.242 428.119 286.546C427.889 286.459 427.55 286.64 427.328 286.546C425.581 285.795 423.842 283.431 423.605 283.376C418.364 282.166 415.598 280.728 410.744 279.439L410.752 279.431Z" fill="#E8B561"/>
<path d="M402.066 277.851C401.813 277.812 401.537 277.891 401.276 277.851C395.229 276.918 390.565 276.808 384.692 276.27C383.957 276.199 383.277 275.496 383.111 275.48C379.562 268.713 388.123 265.314 393.703 266.073C398.13 266.674 405.331 272.863 402.066 277.843V277.851Z" fill="#E8B561"/>
<path d="M410.751 279.432C415.604 280.72 418.379 282.167 423.612 283.368C423.849 283.424 425.58 285.787 427.335 286.538C421.493 295.368 409.716 289.202 409.961 279.432C410.206 279.495 410.506 279.369 410.751 279.432Z" fill="#F6D081"/>
<path d="M354.686 274.689C354.662 267.867 360.203 268.476 365.286 266.855C366.899 267.203 366.14 269.914 366.685 270.578C367.128 271.116 372.78 271.472 368.108 274.689C364.456 274.618 360.701 274.554 357.049 274.689C356.259 274.72 355.468 274.649 354.678 274.689H354.686Z" fill="#E8B561"/>
<path d="M401.274 277.85C396.207 283.708 388.113 283.921 384.69 276.269C390.563 276.807 395.219 276.91 401.274 277.85Z" fill="#F6D081"/>
<path d="M290.713 288.909V290.49C288.492 291.194 283.322 294.877 283.607 291.281C285.717 289.605 288.523 289.652 290.713 288.909Z" fill="#E8B561"/>
<path d="M408.382 254.943C408.074 256.935 409.75 258.508 408.406 260.049C405.45 263.44 398.312 265.163 393.941 264.428C392.905 264.144 388.534 255.29 389.435 253.354C397.308 252.911 400.494 252.627 408.39 254.935L408.382 254.943Z" fill="#E8B561"/>
<path d="M262.223 290.403L259.907 291.691C266.579 300.774 249.173 302.426 246.003 296.829C245.608 293.351 249.576 291.936 251.283 290.118C252.002 289.352 251.607 287.723 252.587 287.32C254.366 286.585 257.449 286.356 259.449 285.02L262.223 290.411V290.403Z" fill="#E8B561"/>
<path d="M453.39 296.806C453.817 297.604 454.425 298.087 454.172 299.169C453.413 299.106 452.528 299.296 451.809 299.169C448.655 298.64 449.034 295.438 447.856 294.427L449.437 293.636C451.161 294.711 452.022 294.253 453.39 296.798V296.806Z" fill="#F3C56E"/>
<path d="M328.624 277.85C328.181 274.017 331.177 274.578 334.157 274.689V277.06C332.268 277.321 330.505 277.526 328.624 277.85Z" fill="#F3C56E"/>
<path d="M449.447 293.644L447.866 294.435C447.17 293.834 445.692 293.905 444.807 293.526L444.704 291.273C447.708 291.715 447.66 292.53 449.439 293.644H449.447Z" fill="#E8B561"/>
<path d="M254.392 314.188L254.787 308.655C258.96 304.465 260.447 308.584 259.996 313.042C259.838 314.631 257.917 313.967 258.344 315.769C257.712 315.406 255.277 315.603 254.392 314.188Z" fill="#F3C56E"/>
<path d="M342.046 356.051L341.255 355.261C341.84 355.308 341.991 356.043 342.046 356.051Z" fill="#BD5E14"/>
<path d="M334.942 355.261C334.571 355.205 334.239 354.85 334.152 354.47C334.523 354.534 334.847 354.881 334.942 355.261Z" fill="#BD5E14"/>
<path d="M454.975 270.744H452.611V272.317H454.975V270.744Z" fill="#E0A54A"/>
<path d="M127.088 394.199C154.494 391.543 173.631 402.705 184.784 427.652C213.423 491.695 162.311 594.195 95.0427 612.557C30.0349 630.303 11.8937 564.758 21.6638 513.876C30.6435 467.104 75.6447 399.179 127.088 394.199ZM131.823 402.104C62.3254 407.93 0.455679 523.44 35.7973 583.8C50.1443 608.304 77.5418 612.612 102.75 602.898C156.161 582.322 193.013 511.852 185.582 456.085C181.796 427.707 163.853 399.416 131.823 402.104Z" fill="#7D3A00"/>
<path d="M131.821 402.104C163.859 399.416 181.802 427.707 185.58 456.085C193.011 511.852 156.167 582.33 102.748 602.898C77.5319 612.605 50.1344 608.297 35.7954 583.8C0.45372 523.44 62.3234 407.93 131.821 402.104ZM60.9163 524.31C66.2757 532.578 71.5086 540.277 82.1956 542.127C112.297 547.328 136.564 510.674 129.031 483.427C125.134 469.317 116.518 464.195 103.554 459.539C97.5386 457.373 95.3332 455.84 88.3771 456.606C74.5598 458.124 58.2683 473.459 55.5649 486.976C52.4189 502.698 52.245 510.951 60.9084 524.318L60.9163 524.31Z" fill="#C5621B"/>
<path d="M103.565 459.539C130.275 483.395 95.4391 548.885 60.9195 524.317C52.256 510.951 52.4299 502.698 55.576 486.976C58.2794 473.459 74.5709 458.124 88.3882 456.606C95.3522 455.839 97.5497 457.381 103.565 459.539Z" fill="#B8540D"/>
<path d="M103.564 459.539C116.528 464.195 125.144 469.325 129.041 483.427C136.566 510.674 112.307 547.328 82.2058 542.127C71.5187 540.277 66.2859 532.578 60.9265 524.31C95.4461 548.877 130.282 483.387 103.572 459.531L103.564 459.539Z" fill="#8F4001"/>
<path fill-rule="evenodd" clip-rule="evenodd" d="M327.551 179.224C383.998 172.419 442.778 178.379 493.668 202.812V202.804C509.635 210.472 525.428 224.937 534.732 239.932C534.182 240.094 534.001 240.372 534.024 240.699C534.009 240.378 534.195 240.107 534.738 239.948C540.322 248.961 543.854 256.774 545.002 267.576C546.183 268.123 545.765 269.694 545.789 270.736C545.202 270.472 545.017 269.983 544.974 269.433L544.963 269.155C544.966 269.818 545.102 270.436 545.788 270.745C545.93 276.586 546.31 283.305 544.998 288.917C545.074 275.438 544.224 263.762 539.552 251.796C544.219 263.76 545.068 275.428 544.992 288.901C544.992 289.423 545.032 289.961 544.992 290.482C544.304 299.249 533.815 316.007 528.029 322.884C489.138 369.078 404.503 383.457 347.186 378.951C293.511 374.731 216.252 352.542 196.969 295.894L196.745 295.225C196.722 295.157 196.717 295.076 196.718 294.987L196.573 293.673L195.164 293.644C191.994 272.792 195.014 255.109 207.013 237.561C207.282 237.687 207.352 237.999 207.302 238.405C207.35 238.024 207.291 237.725 207.062 237.586C207.046 237.577 207.03 237.569 207.013 237.561C226.229 209.444 270.914 187.271 304.145 182.267C311.22 181.2 320.01 180.133 327.551 179.224ZM467.368 206.622C411.49 182.236 334.27 182.758 277.886 205.365C240.727 220.258 201.425 253.125 224.396 296.814L224.388 296.806C227.344 302.434 228.427 302.443 231.493 306.284C236.039 311.983 236.418 312.466 241.762 317.343C242.536 318.054 243.035 318.805 244.133 319.714C246.165 321.398 247.264 322.765 249.659 324.457C260.472 332.077 273.373 338.621 285.988 342.629C291.024 344.819 296.281 346.961 301.782 348.162C303.442 348.526 304.999 348.652 306.517 348.953C306.769 349 307.054 348.906 307.307 348.953C309.078 350.984 312.619 350.755 315.204 351.324C314.738 353.774 316.406 352.668 317.836 353C346.917 359.806 394.907 361.086 423.395 352.115C423.679 352.028 423.98 351.482 424.976 351.324L428.145 352.099C428.058 351.72 427.355 351.443 427.347 351.324C427.308 350.945 427.363 350.7 427.75 350.55C431.157 350.273 434.383 349.119 437.616 348.162C439.086 349.459 442.777 348.004 444.453 347.498C454.792 344.36 465.195 340.076 474.87 335.262C475.092 335.152 479.099 333.737 477.107 333.152C479.573 331.84 481.866 329.864 484.214 328.409C484.514 328.219 484.728 327.793 485.004 327.619C490.513 324.133 493.312 322.623 498.426 318.141C498.702 317.896 498.94 317.603 499.216 317.35C503.113 313.785 504.742 311.588 507.904 307.873C511.35 303.826 512.03 303.833 515.01 298.395C538.352 255.781 504.417 222.795 467.368 206.622ZM545.011 267.807C545.017 268.035 545.002 268.284 544.986 268.539C545.002 268.285 545.017 268.036 545.011 267.807ZM545.008 267.752C545.006 267.695 545.004 267.639 544.998 267.585L544.998 267.583C545.004 267.637 545.006 267.694 545.008 267.752ZM205.854 241.76C205.767 241.908 205.696 242.022 205.654 242.09C204.77 243.514 203.94 244.968 203.163 246.449L203.164 246.45C203.746 245.339 204.359 244.243 205.001 243.164L205.854 241.76Z" fill="#C5621B"/>
<path d="M346.807 175.936C369.667 175.533 389.689 174.616 412.644 177.62C440.405 181.248 469.297 189.066 493.691 202.796L493.668 202.804C442.77 178.379 383.99 172.411 327.551 179.217C320.002 180.126 311.212 181.201 304.145 182.26L317.568 179.888L320.73 179.098C321.227 179.019 321.805 179.177 322.31 179.098L324.682 178.307C325.686 178.173 326.832 178.434 327.844 178.307L331.006 177.517C332.294 177.375 333.662 177.628 334.958 177.517L337.329 176.726C338.63 176.64 339.963 176.749 341.272 176.726C342.359 175.353 345.064 175.975 346.792 175.944C346.623 176.161 346.414 176.329 346.176 176.457C346.42 176.328 346.635 176.158 346.807 175.936Z" fill="#C5621B"/>
<path d="M330.989 354.47C331.25 354.51 331.519 354.439 331.78 354.47C332.531 354.573 333.424 354.344 334.151 354.47C334.238 354.85 334.57 355.205 334.941 355.261C336.87 355.537 339.242 355.087 341.257 355.261L342.048 356.051C365.106 357.664 393.649 357.98 416.28 352.889C417.158 352.692 417.671 352.146 417.861 352.099H423.387C394.898 361.071 346.909 359.79 317.828 352.984C316.405 352.652 314.729 353.759 315.196 351.308C320.429 352.455 325.677 353.704 330.989 354.47Z" fill="#C5621B"/>
<path d="M477.083 333.144C479.075 333.729 475.076 335.136 474.846 335.254C465.179 340.068 454.769 344.352 444.429 347.491C442.753 347.996 439.07 349.459 437.592 348.154C450.951 344.218 464.768 339.689 477.075 333.144H477.083Z" fill="#C5621B"/>
<path d="M219.176 407.47C206.529 387.44 185.129 373.114 161.312 369.51C161.312 369.51 161.124 370.168 161.978 370.294C182.467 373.045 200.411 395.677 207.375 413.755C237.641 492.311 178.91 617.259 97.0416 640.665C78.1916 646.052 62.4816 645.127 44.4387 637.35C44.4031 637.327 44.367 637.305 44.3314 637.282C41.0668 635.203 37.0509 633.053 34.3633 630.295L28.5375 626.216L28.5298 626.224C51.8381 650.198 72.3186 650.74 102.364 648.462C103.604 648.368 104.472 648.271 105.793 647.982C106.448 647.839 106.877 647.721 107.456 647.551C107.47 647.551 107.498 647.593 107.498 647.551C107.499 647.548 107.501 647.546 107.503 647.544C117.444 646.036 128.707 640.653 138.234 634.941L138.296 634.919L138.302 634.901C141.229 633.144 143.993 631.358 146.501 629.643L146.672 629.552C146.775 629.497 146.878 629.441 146.983 629.385C146.992 629.359 147.002 629.332 147.012 629.307L147.02 629.286C150.004 627.229 152.609 625.289 154.678 623.646C168.928 613.168 182.013 599.623 192.759 585.507C203.019 572.03 211.525 557.343 218.078 541.699C219.176 541.478 219.089 541.549 219.713 542.205C223.065 545.731 224.883 550.275 229.12 554.338L219.674 540.521C240.242 499.773 244.242 447.167 219.176 407.47Z" fill="#934400"/>
<path d="M141.861 367.915C143.486 367.857 145.083 367.928 146.661 368.065C154.091 368.266 163.355 369.114 167.846 371.594C167.857 371.6 167.869 371.607 167.88 371.613C185.861 377.375 201.1 397.408 207.388 413.731C237.655 492.287 178.923 617.235 97.0549 640.641C78.1707 646.04 62.4241 645.099 44.3303 637.274C41.0659 635.195 37.0509 633.053 34.3635 630.286L28.5374 626.207C18.4592 615.844 12.2769 606.755 7.21802 593.032C7.21579 593.034 7.21345 593.035 7.21118 593.036C6.23971 590.39 5.59163 587.845 4.84106 585.143L4.05103 582.772C-0.699572 562.971 -0.0588844 541.146 3.26099 521.155H4.05103C1.569 543.984 0.177485 567.335 7.09399 589.602C7.38301 590.535 8.73272 592.057 7.49243 592.882C8.74833 592.058 7.3974 590.529 7.10767 589.593C0.191227 567.326 1.58265 543.975 4.0647 521.147C4.25436 519.432 4.04889 518.166 4.0647 517.985C4.11959 517.474 4.03366 516.932 4.06372 516.413C4.06142 516.413 4.05919 516.412 4.05688 516.411C4.34167 511.613 7.32893 503.148 8.79126 498.239V498.247C10.2612 498.99 9.34427 500.92 9.06763 502.066C8.14282 505.947 7.11571 510.255 6.00122 514.057C5.72462 514.989 5.92284 516.02 5.29224 516.369C5.94146 516.027 5.73624 514.987 6.00903 514.049C7.12354 510.255 8.15951 505.939 9.07642 502.058C9.35308 500.912 10.2693 498.975 8.79907 498.239C17.5811 468.882 35.6837 435.002 56.9709 412.924C58.0426 411.813 59.0288 410.845 60.1243 409.773C60.1244 409.769 60.1241 409.765 60.1243 409.762C60.6616 409.233 61.1364 408.711 61.7053 408.182C61.7131 408.175 61.721 408.167 61.7288 408.159C63.8926 405.084 66.8314 402.759 69.6047 400.293C69.9501 400.397 70.1124 400.537 70.1526 400.697C70.1173 400.533 69.9551 400.389 69.6018 400.285C82.6761 388.626 97.917 379.006 114.612 373.425C114.613 373.427 114.613 373.43 114.615 373.432C122.036 370.951 130.636 368.796 138.661 368.11C138.674 368.1 138.688 368.091 138.7 368.082C138.857 368.076 139.019 368.073 139.186 368.068C140.086 367.998 140.978 367.946 141.861 367.915ZM184.781 427.651C173.628 402.696 154.49 391.543 127.085 394.198C75.6419 399.178 30.6403 467.102 21.6604 513.874C11.8982 564.756 30.0316 630.302 95.0393 612.556C162.308 594.193 213.42 491.694 184.781 427.651ZM7.21313 593.039H7.20532C7.20728 593.038 7.20924 593.037 7.21118 593.036C7.21159 593.037 7.21273 593.038 7.21313 593.039ZM4.05688 517.993C4.04141 518.169 4.24646 519.441 4.05688 521.155L3.26587 520.364C3.40813 519.527 3.5986 518.728 4.05688 517.993Z" fill="#BD5E14"/>
<path d="M200.56 321.107L201.169 320.496C200.901 320.655 200.743 320.997 200.56 321.107Z" fill="#C5621B"/>
<path d="M400.284 460.435C401.495 464.031 398.48 468.502 394.939 469.196C391.399 469.87 387.998 467.415 386.359 464.064C384.702 460.692 384.554 456.588 384.862 452.632C385.383 446.378 387.136 440.156 389.898 434.46C390.313 433.593 391.419 433.81 391.391 434.763C391.33 441.933 392.816 451.894 396.606 455.761C397.986 457.162 399.619 458.419 400.287 460.394L400.284 460.435Z" fill="#F26D1D"/>
<path d="M422.725 534.161C426.143 528.242 428.524 521.61 431.038 515.228C434.141 507.337 437.335 499.22 441.965 492.255C441.86 492.15 441.775 492.025 441.668 491.941C435.108 503.594 423.551 531.121 413.945 543.825C417.68 540.915 421.472 536.347 422.725 534.161Z" fill="#F26D1D"/>
<path d="M500.765 479.403C497.627 481.462 494.611 483.754 491.765 486.447C479.043 498.452 473.848 514.901 464.878 529.57C462.903 532.819 456.306 545.317 451.031 541.797C449.098 543.361 445.977 542.408 446 539.312C445.995 536.047 446.155 532.699 446.208 529.455C446.312 521.894 447.295 503.408 443.798 494.406C436.582 505.319 432.917 518.917 427.154 530.559C422.753 539.495 413.475 552.645 402.374 550.003C393.63 547.907 400.745 534.802 401.897 528.935C404.582 515.456 405.795 498.467 401.082 485.41C393.817 493.395 388.696 502.431 384.64 512.908C381.772 520.34 378.116 539.098 368.728 539.083C367.562 540.442 366.078 541.251 364.104 540.876C361.407 540.369 359.612 537.763 359.466 534.813C359.43 533.928 359.332 533.084 359.234 532.241C355.537 502.173 324.776 496.353 307.265 478.069C296.463 466.794 292.958 451.514 296.232 437.281C294.234 440.571 293.148 444.691 292.262 448.496C289.178 461.74 286.11 475.027 283.025 488.271C280.142 500.632 277.382 514.048 282.174 525.168C285.168 532.06 290.659 536.993 296.107 541.968C296.758 542.563 296.718 543.406 296.336 544.034C298.309 545.525 296.071 549.129 293.85 547.784C286.563 543.32 278.045 543.059 270.417 539.477C264.668 536.774 259.213 533.274 254.318 529.146C248.713 524.423 243.032 518.267 241.994 510.612C241.823 511.348 241.688 512.126 241.614 512.883C240.161 525.468 241.897 537.783 246.014 549.193C252.491 567.236 264.911 583.033 279.979 593.924C304.496 611.739 340.62 619.858 381.377 617.442C452.39 613.216 480.936 579.037 491.131 557.196C494.05 550.985 495.471 545.794 495.979 542.555C496.232 540.956 496.422 539.399 496.531 537.883C498.112 519.065 491.72 503.445 500.76 479.466L500.765 479.403Z" fill="#F26D1D"/>
<path d="M263.562 530.668C270.036 534.488 277.322 535.86 284.239 538.203C277.165 533.321 269.882 528.838 259.282 524.561C251.251 521.362 246.725 516.734 244.056 512.861C247.826 520.826 257.509 527.084 263.562 530.668Z" fill="#F26D1D"/>
<path d="M465.073 527.59C470.042 518.9 473.637 509.39 478.715 500.763C471.634 509.206 465.283 518.257 460.571 528.401C459.29 531.128 458.192 533.939 457.168 536.772C458.991 540.107 463.145 530.954 465.073 527.59Z" fill="#F26D1D"/>
<path d="M381.41 509.048C382.09 507.276 382.788 505.504 383.521 503.753C378.599 512.599 374.753 522.159 372.281 532.061C372.254 532.185 372.21 532.309 372.184 532.432C376.438 526.805 380.288 512.015 381.41 509.048Z" fill="#F26D1D"/>
<path d="M299.146 465.385C304.117 475.796 313.621 482.269 322.624 488.197C327.558 491.445 332.532 494.673 337.156 498.231C332.612 492.987 327.623 488.052 322.818 483.243C310.017 470.496 297.048 454.936 296.853 435.78C293.915 445.248 294.533 455.643 299.165 465.385L299.146 465.385Z" fill="#F26D1D"/>
<path d="M463.279 554.544C453.702 562.012 443.104 567.709 431.977 572.468C440.083 572.381 451.905 563.509 455.845 560.586C458.451 558.657 460.915 556.643 463.259 554.522L463.279 554.544Z" fill="#FFA218"/>
<path d="M425.004 568.021C425.468 569.162 426.123 569.98 426.843 570.676C427.684 569.731 428.567 568.808 429.549 567.989C433.331 564.795 431.958 559.049 428.334 556.596C425.814 560.911 423.923 565.384 425.004 568.021Z" fill="#FFA218"/>
<path d="M402.17 569.408C405.139 565.187 409.272 561.056 413.779 557.53C407.421 559.736 400.88 563.581 395.992 568.453C392.183 575.222 388.179 582.418 389.123 589.839C395.691 586.549 398.373 574.841 402.19 569.408L402.17 569.408Z" fill="#FFA218"/>
<path d="M479.573 547.837C470.091 560.609 457.353 570.917 442.159 577.096C434.676 580.137 423.061 582.233 418.78 573.23C416.542 568.51 417.704 562.867 420.068 557.439C412.012 562.993 405.399 570.597 400.97 579.241C398.133 584.76 394.894 592.509 388.185 594.007C387.239 594.21 386.207 593.712 385.966 592.719C385.836 592.161 385.747 591.604 385.659 591.047C385.615 591.149 385.551 591.25 385.528 591.352C377.415 580.055 375.864 567.38 380.88 555.627C383.371 563.353 385.383 571.437 385.97 579.219C386 579.651 386.589 579.851 386.823 579.487C386.867 579.365 386.91 579.242 386.954 579.12C389.67 566.036 390.434 556.603 386.419 543.414C385.169 539.315 380.429 538.972 377.979 542.096C368.704 553.908 365.765 568.589 369.176 582.194C357.84 574.619 348.026 565.047 340.539 553.252C333.051 541.477 328.41 528.786 315.2 522.5C312.145 521.048 309.268 523.217 309.678 526.535C312.158 546.364 317.908 565.596 328.851 580.846C328.34 580.813 327.81 580.738 327.299 580.705C325.051 580.547 323.008 582.099 322.017 584.109C305.811 579.002 290.412 571.861 275.452 561.812C308.498 593.761 360.97 610.512 404.369 605.853C412.7 604.97 420.599 603.337 428.162 601.202C450.101 591.224 467.1 574.898 479.715 552.895C480.741 551.092 480.501 549.195 479.554 547.754L479.573 547.837ZM345.342 583.515C331.049 572.147 323.297 553.647 318.927 534.922C328.338 545.059 333.081 561.101 341.705 571.61C346.136 577.021 351.114 581.829 356.451 586.174C352.77 585.24 349.067 584.347 345.341 583.535L345.342 583.515Z" fill="#FFA218"/>
<path d="M304.797 502.743C303.113 500.461 301.409 498.2 299.725 495.918C299.032 494.976 297.33 495.941 297.713 497.019C298.671 499.694 299.649 502.369 300.606 505.043C301.527 507.573 302.395 509.731 304.709 511.33C305.957 512.182 307.844 511.161 307.8 509.639C307.726 506.801 306.422 504.92 304.797 502.743Z" fill="#FFA218"/>
<path d="M325.474 514.063C324.583 512.849 323.713 511.615 322.822 510.381C322.328 509.691 321.125 510.339 321.64 511.03C322.531 512.264 323.401 513.478 324.292 514.712C324.787 515.402 325.99 514.754 325.474 514.063Z" fill="#FFA218"/>
<path d="M343.449 528.933C342.343 527.323 340.809 526.463 339.196 525.437C337.242 524.176 335.005 526.114 335.403 528.22C335.748 530.037 335.951 531.747 337.039 533.295C338.264 535.072 339.644 535.537 341.639 535.998C343.043 536.32 344.046 535.461 344.264 534.09C344.558 532.125 344.656 530.647 343.47 528.933L343.449 528.933Z" fill="#FFA218"/>
<path d="M285.034 545.035C282.733 542.882 278.582 541.896 275.594 541.061C274.293 540.7 273.292 542.299 274.229 543.308C275.266 544.423 276.282 545.558 277.047 546.892C277.853 548.268 278.411 549.7 279.466 550.897C281.377 553.081 283.538 555.95 286.6 556.252C287.784 556.363 288.913 555.405 289.267 554.325C290.373 550.962 287.354 547.209 285.033 545.055L285.034 545.035Z" fill="#FFA218"/>
<path d="M304.449 569.249C302.387 567.39 300.325 565.531 298.263 563.651C298.082 563.502 297.831 563.743 298.011 563.891C300.074 565.75 302.136 567.61 304.198 569.489C304.378 569.638 304.63 569.397 304.449 569.249Z" fill="#FFA218"/>
<path d="M476.455 532.225C474.598 532.857 473.01 533.331 471.603 534.776C470.239 536.16 468.895 537.545 467.532 538.908C464.929 541.556 468.759 545.617 471.501 543.096L475.753 539.153C477.239 537.792 477.769 536.203 478.469 534.371C478.907 533.21 477.631 531.823 476.435 532.224L476.455 532.225Z" fill="#FFA218"/>
<path d="M480.787 568.313C479.359 568.955 478.5 570.599 477.549 571.828L474.084 576.243C472.626 578.097 475.949 580.296 477.249 578.212C478.229 576.633 479.209 575.055 480.189 573.476C481.02 572.14 482.157 570.853 482.278 569.233C482.34 568.413 481.428 568.02 480.766 568.312L480.787 568.313Z" fill="#FFA218"/>
<path d="M489.974 521.69C487.629 521.344 484.443 522.724 484.009 525.385C483.648 527.615 483.552 529.832 483.436 532.069C483.158 537.549 491.676 539.054 493.037 533.622C493.582 531.437 494.167 529.294 494.467 527.082C494.837 524.481 492.319 522.035 489.953 521.689L489.974 521.69Z" fill="#FFA218"/>
<path d="M486.214 508.898C485.743 509.708 485.273 510.519 484.803 511.329C483.478 513.618 487.476 515.012 487.859 512.72C488.026 511.779 488.193 510.817 488.339 509.875C488.553 508.648 486.94 507.642 486.193 508.898L486.214 508.898Z" fill="#FFA218"/>
<path d="M389.441 524.338C389.348 523.123 387.95 521.733 386.679 522.646C385.241 523.7 384.319 524.561 383.421 526.121C382.438 527.822 381.771 529.142 382.418 531.13C382.932 532.705 384.372 533.254 385.861 532.633C388.9 531.373 389.676 527.262 389.442 524.318L389.441 524.338Z" fill="#FFA218"/>
<path d="M360.412 457.187C359.303 451.509 358.653 445.472 356.906 439.963C356.698 439.28 355.531 439.292 355.572 440.115C355.899 445.959 357.452 451.915 358.456 457.673C358.67 458.952 360.688 458.468 360.433 457.188L360.412 457.187Z" fill="#F26D1D"/>
<path d="M366.592 418.847C366.552 417.963 365.325 417.932 365.242 418.814C365.019 421.233 364.776 423.631 364.553 426.05C364.413 427.568 366.99 427.652 366.925 426.109C366.821 423.682 366.696 421.275 366.592 418.847Z" fill="#F26D1D"/>
<path d="M474.72 455.331C474.536 454.505 473.667 454.052 472.865 454.217C470.931 454.621 469.555 456.498 468.192 457.82C464.439 461.467 471.752 466.21 473.494 461.095C474.112 459.282 475.164 457.274 474.72 455.331Z" fill="#F26D1D"/>
<path d="M521.328 458.375C520.597 459.816 519.865 461.257 519.114 462.677C518.447 463.996 520.472 464.909 520.956 463.503L522.542 458.919C522.785 458.206 521.673 457.665 521.328 458.355L521.328 458.375Z" fill="#F26D1D"/>
<path d="M252.818 488.346C250.905 487.066 248.993 485.765 247.08 484.485C245.207 483.226 243.113 482.661 241.001 481.992C239.438 481.481 238.593 483.371 239.466 484.502C240.894 486.346 242.142 488.061 244.031 489.444C245.901 490.805 247.75 492.187 249.62 493.548C252.776 495.866 256.1 490.544 252.818 488.346Z" fill="#F26D1D"/>
<path d="M515.644 404.685C515.402 403.714 514.769 402.814 514.278 401.96C513.787 401.126 512.617 400.439 511.626 400.805C510.593 401.17 509.419 401.47 508.523 402.126C507.335 403.021 506.583 404.482 505.754 405.715C503.842 408.565 505.565 412.573 508.693 413.534C512.126 414.585 515.076 411.966 515.465 408.626C515.619 407.377 515.961 405.947 515.643 404.706L515.644 404.685Z" fill="#F26D1D"/>
<path d="M487.225 376.899C485.714 375.917 484.086 378.034 483.144 378.894C480.402 381.395 485.61 385.161 487.055 381.313C487.516 380.071 488.776 377.924 487.245 376.92L487.225 376.899Z" fill="#F26D1D"/>
<path d="M518.472 556.352C511.057 546.17 514.7 536.712 523.139 531.115C531.579 525.544 528.169 514.026 528.169 514.026C528.169 514.026 542.403 521.024 533.6 544.668" fill="#F26D1D"/>
<path d="M545.142 491.646C550.872 491.873 547.871 469.168 548.941 467.08C543.281 469.012 540.536 476.19 540.26 481.703C540.146 483.807 540.051 488.017 541.749 489.671C543.134 491.026 544.266 491.631 545.168 491.673L545.142 491.646Z" fill="#F26D1D"/>
<path d="M424.144 607.616C412.843 596.117 396.373 592.426 383.582 601.85C375.825 607.56 370.692 617.212 370.498 626.791C370.4 631.61 371.446 636.377 373.832 640.587C384.074 658.67 412.022 656.707 424.556 642.531C433.512 632.406 434.056 617.703 424.144 607.616Z" fill="#7F3B09"/>
<path opacity="0.6" d="M425.315 627.115C424.936 639.801 413.226 649.743 399.156 649.323C385.087 648.904 373.989 638.282 374.368 625.595C374.746 612.909 386.457 602.963 400.526 603.382C414.596 603.802 425.693 614.428 425.315 627.115Z" fill="#9E6346"/>
</svg>
