<svg width="212" height="79" viewBox="0 0 212 79" fill="none" xmlns="http://www.w3.org/2000/svg">
<mask id="mask0_1_1318" style="mask-type:luminance" maskUnits="userSpaceOnUse" x="0" y="0" width="74" height="79">
<path fill-rule="evenodd" clip-rule="evenodd" d="M0.408813 0.364609L73.6236 0.364609L73.6236 78.936L0.408813 78.936L0.408813 0.364609Z" fill="white"/>
</mask>
<g mask="url(#mask0_1_1318)">
<path fill-rule="evenodd" clip-rule="evenodd" d="M65.6096 45.8212L62.1398 48.8907L53.9291 47.9442C53.8751 48.4589 53.8002 48.9708 53.7063 49.4815L60.7249 50.6656L58.5157 52.4393L53.3122 51.1714C52.908 52.6223 52.3341 54.035 51.591 55.3812L56.0917 58.296L56.378 61.1313L50.6813 56.8627C50.3956 57.2877 50.0917 57.703 49.7676 58.1078L56.2221 63.2874L56.4763 67.9382L51.8516 67.6586L46.7184 61.1829C46.3135 61.5116 45.897 61.8213 45.4717 62.1122L49.5957 67.9136L46.7822 67.6061L44 63.0299C42.6606 63.784 41.2515 64.3681 39.8059 64.7858L40.924 70.0314L39.1243 72.2393L38.1133 65.194C37.6075 65.2904 37.0986 65.368 36.5882 65.4263L37.4911 73.6539L34.3784 77.1243L31.3101 73.6552L32.256 65.4441C31.7419 65.3898 31.2297 65.3146 30.7199 65.221L29.5342 72.2393L27.7615 70.0298L29.0287 64.8285C27.5776 64.4236 26.1646 63.8503 24.8203 63.1057L21.9045 67.6061L19.0692 67.8934L23.3357 62.1978C22.9128 61.91 22.4969 61.6061 22.0924 61.2835L16.9131 67.7374L12.2602 67.991L12.5438 63.3669L19.0152 58.2327C18.6871 57.8258 18.3774 57.4105 18.0861 56.986L12.2872 61.111L12.5944 58.296L17.1688 55.5137C16.415 54.175 15.8312 52.7671 15.4147 51.3203L10.1698 52.4393L7.96116 50.6383L15.0065 49.6279C14.908 49.1218 14.8306 48.6117 14.7717 48.0992L6.54718 49.0034L3.07715 45.8909L6.54534 42.8242L14.7551 43.7713C14.8098 43.2557 14.8843 42.7413 14.9795 42.2312L7.96085 41.0492L10.1698 39.2762L15.3724 40.5394C15.7784 39.0896 16.3511 37.6759 17.0945 36.3319L12.5944 33.4183L12.3087 30.5817L18.003 34.8491C18.2899 34.4244 18.5953 34.0088 18.9191 33.6027L12.4628 28.4281L12.2083 23.7749L16.8336 24.0572L21.9684 30.5289C22.3729 30.2002 22.7885 29.8912 23.2132 29.5999L19.0895 23.801L21.9039 24.1085L24.6852 28.6822C26.0249 27.9287 27.434 27.3437 28.8808 26.9272L27.7605 21.6844L29.5616 19.4752L30.5732 26.5193C31.0796 26.4217 31.5885 26.3447 32.0995 26.2864L31.1984 18.0603L34.3081 14.5921L37.376 18.0582L36.4307 26.2701C36.9445 26.3257 37.4571 26.3987 37.9665 26.4936L39.1506 19.4746L40.924 21.6844L39.6586 26.887C41.1088 27.2922 42.5215 27.8664 43.8665 28.6101L46.7813 24.1085L49.6163 23.8212L45.3498 29.5186C45.7743 29.8052 46.1889 30.11 46.595 30.4323L51.7736 23.9774L56.4275 23.7239L56.142 28.3464L49.6694 33.483C49.9984 33.8885 50.3072 34.3038 50.5991 34.7282L56.3992 30.6035L56.0908 33.4186L51.5161 36.2008C52.2705 37.5402 52.854 38.949 53.2711 40.3964L58.5157 39.2743L60.7249 41.0762L53.6787 42.0869C53.7769 42.594 53.8542 43.1038 53.9129 43.6154L62.1398 42.7103L65.6096 45.8212ZM49.4651 46.5949C49.4651 50.5354 47.7657 53.6547 45.1996 53.6547H34.3914V54.6948H41.6688V58.0019C41.6685 59.5767 41.1719 61.452 34.934 61.4517H33.5081C27.2703 61.4517 26.5944 59.577 26.5947 58.0019V50.5879C26.5944 48.3806 28.4501 46.3779 30.6565 46.3779H38.9258C41.1323 46.3779 42.7077 44.8096 42.708 42.6028L42.7077 38.061L45.1996 38.0613C47.7657 38.061 49.4651 41.799 49.4651 45.7395V46.5949ZM25.56 49.1139V53.6548L23.5886 53.6551C21.0222 53.6551 18.8031 49.9171 18.8031 45.9769V45.1209C18.8031 41.181 21.0222 38.0614 23.5886 38.0611L33.8766 38.0611V37.0219L26.5998 37.0219V33.7148C26.5998 32.1397 27.616 30.2645 33.8539 30.2645H35.2795C41.5176 30.2645 41.6739 32.1397 41.6739 33.7148V41.1288C41.6739 43.3359 40.3378 45.3382 38.1314 45.3382H29.8621C27.6556 45.3385 25.56 46.9069 25.56 49.1139ZM38.4876 59.5705C39.2941 59.5705 39.9488 58.9162 39.9488 58.1087C39.9488 57.3021 39.2938 56.6474 38.4876 56.6477C37.6804 56.6474 37.026 57.3018 37.026 58.1087C37.026 58.9168 37.6804 59.5705 38.4876 59.5705ZM28.8378 33.6084C28.8378 32.8012 29.4924 32.1466 30.299 32.1466C31.1062 32.1466 31.7606 32.8009 31.7606 33.6084C31.7606 34.4153 31.1062 35.0694 30.299 35.0697C29.4924 35.0694 28.8378 34.4153 28.8378 33.6084Z" fill="white"/>
<path d="M2.20736 77.9911L3.30276 74.7608L1.26266 72.0267L4.67377 72.0703L6.64327 69.2856L7.6558 72.5427L10.9131 73.5555L8.12815 75.525L8.17173 78.9358L5.43769 76.8957L2.20736 77.9911Z" fill="white"/>
<path d="M34.1521 0.364377L35.6618 3.42344L39.0373 3.9136L36.5945 6.29498L37.1712 9.65698L34.1521 8.06929L31.1329 9.65668L31.7096 6.29468L29.2668 3.9136L32.6426 3.42344L34.1521 0.364377Z" fill="white"/>
<path d="M66.4705 77.9911L63.2402 76.896L60.5064 78.9358L60.5497 75.525L57.765 73.5555L61.022 72.543L62.0349 69.2856L64.0044 72.0706L67.4152 72.027L65.3754 74.7608L66.4705 77.9911Z" fill="white"/>
</g>
<path d="M78.7158 42.853V19.5052H88.7784C89.9184 19.5052 90.9707 19.7354 91.9353 20.1958C92.8999 20.6561 93.733 21.2809 94.4345 22.0702C95.136 22.8375 95.6731 23.7034 96.0458 24.668C96.4404 25.6326 96.6377 26.6082 96.6377 27.5947C96.6377 28.9759 96.3089 30.2803 95.6512 31.5079C95.0154 32.7356 94.1166 33.7441 92.9547 34.5333C91.8147 35.3006 90.4774 35.6842 88.9428 35.6842H85.1282V42.853H78.7158ZM85.1282 30.0939H88.5153C88.7784 30.0939 89.0305 30.0172 89.2717 29.8637C89.5128 29.7103 89.7101 29.4472 89.8636 29.0745C90.039 28.7018 90.1267 28.2086 90.1267 27.5947C90.1267 26.937 90.028 26.4328 89.8307 26.082C89.6553 25.7094 89.4251 25.4572 89.1401 25.3257C88.8771 25.1722 88.614 25.0955 88.3509 25.0955H85.1282V30.0939Z" fill="white"/>
<path d="M103.297 19.5052L107.474 29.0416L111.749 19.5052H118.72L110.663 35.1252V42.853H104.284V35.0594L96.3587 19.5052H103.297Z" fill="white"/>
<path d="M138.648 25.0955H131.94V42.853H125.528V25.0955H118.786V19.5052H138.648V25.0955Z" fill="white"/>
<path d="M161.635 19.5052V42.853H155.223V33.7112H147.396V42.853H140.984V19.5052H147.396V28.1209H155.223V19.5052H161.635Z" fill="white"/>
<path d="M176.17 43.0503C174.394 43.0503 172.783 42.7215 171.336 42.0638C169.889 41.3842 168.64 40.4853 167.587 39.3673C166.557 38.2273 165.757 36.9558 165.187 35.5527C164.639 34.1277 164.365 32.6589 164.365 31.1462C164.365 29.5897 164.661 28.1099 165.253 26.7068C165.844 25.3038 166.667 24.0542 167.719 22.958C168.793 21.84 170.054 20.9631 171.501 20.3273C172.969 19.6915 174.57 19.3737 176.302 19.3737C178.077 19.3737 179.689 19.7135 181.136 20.3931C182.583 21.0508 183.821 21.9496 184.852 23.0896C185.882 24.2296 186.671 25.5121 187.219 26.937C187.789 28.3401 188.074 29.787 188.074 31.2778C188.074 32.8124 187.778 34.2812 187.186 35.6842C186.616 37.0873 185.794 38.3479 184.72 39.4659C183.668 40.5621 182.418 41.439 180.971 42.0967C179.524 42.7324 177.924 43.0503 176.17 43.0503ZM170.876 31.212C170.876 32.0012 170.985 32.7685 171.205 33.5139C171.424 34.2373 171.753 34.895 172.191 35.4869C172.63 36.0569 173.178 36.5173 173.835 36.8681C174.515 37.1969 175.315 37.3613 176.236 37.3613C177.157 37.3613 177.957 37.186 178.636 36.8352C179.316 36.4844 179.864 36.0131 180.281 35.4212C180.719 34.8073 181.037 34.1387 181.234 33.4152C181.454 32.6699 181.563 31.9135 181.563 31.1462C181.563 30.357 181.454 29.6007 181.234 28.8772C181.015 28.1538 180.686 27.507 180.248 26.937C179.809 26.3451 179.25 25.8847 178.571 25.5559C177.891 25.2271 177.102 25.0626 176.203 25.0626C175.282 25.0626 174.482 25.238 173.802 25.5888C173.145 25.9395 172.597 26.4109 172.158 27.0028C171.72 27.5728 171.391 28.2305 171.172 28.9759C170.974 29.6993 170.876 30.4447 170.876 31.212Z" fill="white"/>
<path d="M197.204 31.3764V42.853H190.792V19.5052H195.79L205.162 31.3764V19.5052H211.575V42.853H206.478L197.204 31.3764Z" fill="white"/>
<path d="M78.7487 68.661V53.0958H85.1502C85.8079 53.0958 86.4071 53.2346 86.9478 53.5123C87.5032 53.79 87.9855 54.1627 88.3948 54.6304C88.804 55.0835 89.1182 55.595 89.3374 56.165C89.5713 56.735 89.6882 57.3196 89.6882 57.9188C89.6882 58.7519 89.4982 59.5411 89.1182 60.2865C88.7528 61.0173 88.2413 61.6165 87.5836 62.0842C86.9405 62.5519 86.1732 62.7857 85.2817 62.7857H79.8668V68.661H78.7487ZM79.8668 61.7553H85.2379C85.9248 61.7553 86.5167 61.5726 87.0136 61.2073C87.5105 60.8419 87.8905 60.3669 88.1536 59.7823C88.4167 59.1977 88.5482 58.5765 88.5482 57.9188C88.5482 57.2319 88.3874 56.6035 88.0659 56.0335C87.759 55.4489 87.3425 54.9812 86.8163 54.6304C86.3048 54.2796 85.7348 54.1043 85.1063 54.1043H79.8668V61.7553Z" fill="white"/>
<path d="M104.422 53.0958V68.661H103.304V61.2073H93.4829V68.661H92.3648V53.0958H93.4829V60.1988H103.304V53.0958H104.422Z" fill="white"/>
<path d="M108.486 68.661V53.0958H109.604V68.661H108.486Z" fill="white"/>
<path d="M113.688 68.661V53.0958H114.806V67.6526H124.102V68.661H113.688Z" fill="white"/>
<path d="M126.427 68.661V53.0958H127.545V68.661H126.427Z" fill="white"/>
<path d="M131.629 68.661V53.0958H138.03C138.688 53.0958 139.287 53.2346 139.828 53.5123C140.384 53.79 140.866 54.1627 141.275 54.6304C141.684 55.0835 141.998 55.595 142.218 56.165C142.452 56.735 142.568 57.3196 142.568 57.9188C142.568 58.7519 142.378 59.5411 141.998 60.2865C141.633 61.0173 141.122 61.6165 140.464 62.0842C139.821 62.5519 139.054 62.7857 138.162 62.7857H132.747V68.661H131.629ZM132.747 61.7553H138.118C138.805 61.7553 139.397 61.5726 139.894 61.2073C140.391 60.8419 140.771 60.3669 141.034 59.7823C141.297 59.1977 141.429 58.5765 141.429 57.9188C141.429 57.2319 141.268 56.6035 140.946 56.0335C140.639 55.4489 140.223 54.9812 139.697 54.6304C139.185 54.2796 138.615 54.1043 137.987 54.1043H132.747V61.7553Z" fill="white"/>
<path d="M145.245 68.661V53.0958H151.647C152.304 53.0958 152.904 53.2346 153.444 53.5123C154 53.79 154.482 54.1627 154.891 54.6304C155.3 55.0835 155.615 55.595 155.834 56.165C156.068 56.735 156.185 57.3196 156.185 57.9188C156.185 58.7519 155.995 59.5411 155.615 60.2865C155.249 61.0173 154.738 61.6165 154.08 62.0842C153.437 62.5519 152.67 62.7857 151.778 62.7857H146.363V68.661H145.245ZM146.363 61.7553H151.734C152.421 61.7553 153.013 61.5726 153.51 61.2073C154.007 60.8419 154.387 60.3669 154.65 59.7823C154.913 59.1977 155.045 58.5765 155.045 57.9188C155.045 57.2319 154.884 56.6035 154.562 56.0335C154.255 55.4489 153.839 54.9812 153.313 54.6304C152.801 54.2796 152.231 54.1043 151.603 54.1043H146.363V61.7553Z" fill="white"/>
<path d="M158.861 68.661V53.0958H159.979V68.661H158.861Z" fill="white"/>
<path d="M165.182 55.1785V68.661H164.064V53.0958H164.984L175.836 66.7976V53.0958H176.954V68.661H175.858L165.182 55.1785Z" fill="white"/>
<path d="M191.389 67.6526V68.661H181.02V53.0958H191.192V54.1043H182.138V60.2207H190.052V61.1853H182.138V67.6526H191.389Z" fill="white"/>
<path d="M203.326 55.6827C203.077 55.405 202.8 55.1639 202.493 54.9592C202.186 54.74 201.857 54.5646 201.506 54.4331C201.156 54.2869 200.776 54.1773 200.366 54.1043C199.957 54.0312 199.519 53.9946 199.051 53.9946C197.531 53.9946 196.42 54.2869 195.719 54.8716C195.032 55.4415 194.688 56.2162 194.688 57.1954C194.688 57.8531 194.842 58.3792 195.149 58.7738C195.47 59.1538 195.967 59.4607 196.639 59.6946C197.312 59.9284 198.181 60.155 199.248 60.3742C200.374 60.608 201.346 60.8857 202.164 61.2073C202.982 61.5142 203.611 61.938 204.049 62.4788C204.502 63.0195 204.729 63.7503 204.729 64.6711C204.729 65.358 204.597 65.9645 204.334 66.4907C204.071 67.0022 203.691 67.426 203.194 67.7622C202.697 68.0983 202.106 68.3541 201.419 68.5295C200.746 68.7049 199.994 68.7926 199.161 68.7926C198.357 68.7926 197.589 68.7049 196.859 68.5295C196.128 68.3541 195.441 68.0983 194.798 67.7622C194.155 67.426 193.556 66.9949 193 66.4687L193.592 65.5699C193.914 65.9207 194.272 66.2349 194.666 66.5126C195.076 66.7757 195.514 67.0022 195.982 67.1922C196.464 67.3822 196.976 67.5356 197.516 67.6526C198.057 67.7549 198.62 67.806 199.204 67.806C200.564 67.806 201.623 67.5576 202.383 67.0606C203.158 66.5491 203.545 65.7964 203.545 64.8026C203.545 64.1157 203.37 63.5603 203.019 63.1365C202.668 62.7126 202.127 62.3692 201.397 62.1061C200.666 61.8284 199.752 61.5726 198.656 61.3388C197.56 61.1049 196.625 60.8419 195.85 60.5496C195.09 60.2573 194.513 59.8627 194.118 59.3657C193.738 58.8688 193.548 58.1965 193.548 57.3488C193.548 56.4135 193.775 55.6242 194.228 54.9812C194.696 54.3235 195.346 53.8266 196.179 53.4904C197.012 53.1543 197.969 52.9862 199.051 52.9862C199.723 52.9862 200.344 53.052 200.914 53.1835C201.499 53.315 202.032 53.5196 202.515 53.7973C203.012 54.0604 203.472 54.3966 203.896 54.8058L203.326 55.6827Z" fill="white"/>
</svg>
