<svg width="321" height="75" viewBox="0 0 321 75" fill="none" xmlns="http://www.w3.org/2000/svg">
<g clip-path="url(#clip0_1_1339)">
<path d="M97.3014 40.6661V18.8704H106.57C107.587 18.8704 108.484 19.0794 109.351 19.4974C110.188 19.9154 110.936 20.4528 111.564 21.1694C112.192 21.8561 112.67 22.6324 113.029 23.4982C113.388 24.3641 113.537 25.2299 113.537 26.1256C113.537 27.3498 113.238 28.5142 112.67 29.6189C112.102 30.7236 111.295 31.6194 110.308 32.3061C109.291 32.9928 108.125 33.3511 106.75 33.3511H101.577V40.6661H97.3014ZM101.547 29.6488H106.481C106.989 29.6488 107.467 29.4995 107.856 29.2308C108.275 28.9322 108.604 28.5441 108.843 27.9768C109.082 27.4394 109.202 26.8124 109.202 26.1256C109.202 25.3792 109.052 24.7224 108.783 24.1849C108.514 23.6475 108.155 23.2594 107.707 22.9906C107.258 22.7219 106.78 22.6025 106.271 22.6025H101.547V29.6488Z" fill="white"/>
<path d="M120.654 18.8704L126.036 29.1114L131.507 18.8704H136.082L128.159 33.0525V40.6661H123.943V32.9928L116.049 18.8704H120.654Z" fill="white"/>
<path d="M157.102 22.6025H150.135V40.6959H145.919V22.6025H138.952V18.8704H157.132V22.6025H157.102Z" fill="white"/>
<path d="M180.484 18.8704V40.6661H176.268V31.3805H166.371V40.6959H162.125V18.9002H166.371V27.7081H176.268V18.8704H180.484Z" fill="white"/>
<path d="M196.66 40.8154C195.075 40.8154 193.61 40.5168 192.294 39.8898C190.978 39.2628 189.872 38.4567 188.945 37.3818C188.018 36.3368 187.301 35.1425 186.763 33.8288C186.254 32.5151 185.985 31.1417 185.985 29.7683C185.985 28.3053 186.254 26.9318 186.792 25.6181C187.331 24.3044 188.078 23.1101 189.035 22.095C189.992 21.05 191.128 20.2438 192.414 19.6467C193.729 19.0495 195.135 18.751 196.689 18.751C198.274 18.751 199.709 19.0794 200.995 19.7064C202.311 20.3334 203.417 21.1993 204.344 22.2443C205.271 23.3191 205.988 24.4835 206.497 25.7973C207.005 27.111 207.274 28.4545 207.274 29.8578C207.274 31.291 207.005 32.6644 206.467 33.9781C205.929 35.2918 205.181 36.4861 204.224 37.5013C203.267 38.5463 202.131 39.3524 200.846 39.9495C199.62 40.5168 198.184 40.8154 196.66 40.8154ZM190.321 29.7683C190.321 30.7237 190.47 31.6194 190.739 32.5151C191.038 33.381 191.427 34.1871 191.995 34.8738C192.533 35.5605 193.191 36.098 193.998 36.4861C194.776 36.8743 195.673 37.0833 196.689 37.0833C197.706 37.0833 198.633 36.8743 199.44 36.4563C200.248 36.0383 200.905 35.471 201.444 34.7544C201.982 34.0378 202.37 33.2615 202.669 32.3957C202.939 31.5298 203.088 30.664 203.088 29.7683C203.088 28.8128 202.939 27.9171 202.64 27.0513C202.341 26.1854 201.922 25.4091 201.384 24.7224C200.846 24.0357 200.188 23.4983 199.38 23.1101C198.603 22.722 197.706 22.513 196.719 22.513C195.673 22.513 194.746 22.722 193.968 23.14C193.191 23.558 192.503 24.1253 191.995 24.812C191.457 25.4987 191.068 26.275 190.769 27.1408C190.47 28.0067 190.321 28.8725 190.321 29.7683Z" fill="white"/>
<path d="M217.141 26.6631V40.6661H212.895V18.8704H216.274L227.546 33.2316V18.9002H231.792V40.6661H228.264L217.141 26.6631Z" fill="white"/>
<path d="M253.32 18.8704H257.626L265.639 40.6661H261.274L259.45 35.2321H251.437L249.613 40.6661H245.247L253.32 18.8704ZM258.493 32.2464L255.503 23.2594L252.483 32.2464H258.493Z" fill="white"/>
<path d="M283.101 24.5734C282.951 24.4241 282.682 24.245 282.323 23.9763C281.935 23.7374 281.486 23.4986 280.948 23.2597C280.41 23.0209 279.812 22.8417 279.184 22.6626C278.556 22.4834 277.898 22.3939 277.24 22.3939C276.104 22.3939 275.237 22.6029 274.639 23.0209C274.041 23.4389 273.772 24.036 273.772 24.8123C273.772 25.4094 273.951 25.8573 274.34 26.2156C274.699 26.5739 275.267 26.8426 276.014 27.1113C276.762 27.3501 277.689 27.6189 278.795 27.9174C280.23 28.2757 281.486 28.6937 282.533 29.1714C283.579 29.679 284.386 30.3359 284.954 31.142C285.523 31.9481 285.792 33.023 285.792 34.3367C285.792 35.5012 285.582 36.4864 285.134 37.3224C284.715 38.1584 284.117 38.8153 283.34 39.3229C282.592 39.8304 281.725 40.2186 280.768 40.4276C279.812 40.6664 278.765 40.7859 277.689 40.7859C276.612 40.7859 275.506 40.6664 274.43 40.4574C273.353 40.2186 272.307 39.92 271.29 39.502C270.274 39.084 269.377 38.5764 268.509 37.9793L270.393 34.3367C270.573 34.5159 270.901 34.7547 271.38 35.0533C271.858 35.3519 272.426 35.6504 273.114 35.949C273.802 36.2476 274.519 36.4864 275.327 36.6954C276.134 36.9044 276.941 36.994 277.749 36.994C278.885 36.994 279.782 36.8149 280.35 36.4267C280.948 36.0386 281.247 35.5012 281.247 34.7846C281.247 34.1277 281.008 33.6202 280.529 33.2619C280.051 32.9036 279.393 32.5751 278.556 32.3064C277.719 32.0377 276.732 31.7391 275.566 31.4107C274.19 31.0226 273.054 30.6046 272.127 30.097C271.2 29.6193 270.513 29.0221 270.064 28.2757C269.616 27.5293 269.377 26.6336 269.377 25.5289C269.377 24.036 269.735 22.782 270.423 21.7967C271.141 20.7816 272.097 20.0351 273.293 19.4977C274.489 18.9901 275.835 18.7214 277.33 18.7214C278.347 18.7214 279.333 18.8409 280.23 19.0499C281.127 19.2887 281.994 19.5574 282.802 19.9456C283.609 20.3039 284.327 20.7219 284.954 21.1399L283.101 24.5734Z" fill="white"/>
<path d="M291.234 40.6661V18.8704H295.479V40.6661H291.234Z" fill="white"/>
<path d="M308.276 18.8704H312.582L320.595 40.6661H316.23L314.406 35.2321H306.393L304.569 40.6661H300.203L308.276 18.8704ZM313.419 32.2464L310.429 23.2594L307.409 32.2464H313.419Z" fill="white"/>
<path d="M101.458 62.6708C100.68 62.6708 99.9927 62.5215 99.3947 62.2229C98.7668 61.9244 98.2286 61.5064 97.7801 60.9689C97.3316 60.4315 96.9728 59.8642 96.7336 59.2073C96.4944 58.5505 96.3748 57.8638 96.3748 57.1771C96.3748 56.4605 96.4944 55.7738 96.7635 55.1169C97.0326 54.4601 97.3914 53.8629 97.8399 53.3554C98.2884 52.8478 98.8565 52.4298 99.4545 52.1312C100.082 51.8326 100.74 51.6833 101.488 51.6833C102.265 51.6833 102.953 51.8326 103.551 52.1611C104.179 52.4895 104.717 52.9075 105.165 53.4151C105.614 53.9525 105.973 54.5198 106.212 55.1766C106.451 55.8335 106.571 56.4903 106.571 57.1771C106.571 57.8936 106.451 58.5804 106.182 59.2372C105.913 59.8941 105.554 60.4912 105.106 60.9988C104.627 61.5063 104.089 61.9244 103.491 62.2229C102.863 62.5215 102.175 62.6708 101.458 62.6708ZM97.7502 57.1771C97.7502 57.7145 97.8399 58.2519 98.0193 58.7595C98.1987 59.2671 98.4379 59.7149 98.7668 60.1329C99.0957 60.5211 99.4844 60.8495 99.9329 61.0884C100.381 61.3272 100.89 61.4466 101.458 61.4466C102.026 61.4466 102.564 61.3272 103.013 61.0884C103.461 60.8495 103.85 60.5211 104.179 60.1031C104.508 59.6851 104.747 59.2372 104.926 58.7296C105.106 58.2221 105.165 57.7145 105.165 57.1771C105.165 56.6396 105.076 56.1022 104.896 55.5946C104.717 55.0871 104.478 54.6392 104.119 54.2212C103.79 53.8331 103.401 53.5046 102.953 53.2658C102.504 53.0269 101.996 52.9075 101.458 52.9075C100.89 52.9075 100.351 53.0269 99.903 53.2658C99.4545 53.5046 99.0658 53.8331 98.7369 54.2212C98.408 54.6392 98.1688 55.0871 97.9894 55.5946C97.8399 56.1321 97.7502 56.6396 97.7502 57.1771Z" fill="white"/>
<path d="M118.59 62.5812V51.743H123.225C123.703 51.743 124.152 51.8326 124.54 52.0416C124.929 52.2506 125.288 52.5193 125.587 52.8478C125.886 53.1762 126.125 53.5643 126.275 53.9525C126.424 54.3705 126.514 54.7885 126.514 55.2065C126.514 55.714 126.424 56.1918 126.245 56.6396C126.065 57.0875 125.796 57.4756 125.437 57.7742C125.108 58.1026 124.69 58.3116 124.241 58.431L126.873 62.5812H125.318L122.836 58.6998H119.966V62.5812H118.59ZM119.966 57.4756H123.255C123.643 57.4756 123.972 57.386 124.241 57.177C124.51 56.968 124.75 56.6993 124.899 56.341C125.049 55.9828 125.138 55.6245 125.138 55.2363C125.138 54.8183 125.049 54.46 124.869 54.1018C124.69 53.7733 124.451 53.4748 124.152 53.2956C123.853 53.0866 123.524 52.997 123.165 52.997H119.966V57.4756Z" fill="white"/>
<path d="M143.109 62.6709C142.391 62.6709 141.733 62.5216 141.105 62.1931C140.477 61.8946 139.939 61.4766 139.491 60.9391C139.042 60.4017 138.683 59.8344 138.414 59.1776C138.145 58.5207 138.026 57.834 138.026 57.1473C138.026 56.4009 138.145 55.7141 138.414 55.0573C138.683 54.4004 139.012 53.8331 139.491 53.2957C139.939 52.7881 140.477 52.4 141.105 52.1014C141.733 51.8029 142.391 51.6536 143.109 51.6536C144.155 51.6536 145.022 51.8626 145.71 52.3104C146.398 52.7583 146.906 53.3256 147.265 54.0123L146.218 54.7587C145.889 54.1317 145.471 53.654 144.932 53.3554C144.394 53.0569 143.766 52.9076 143.109 52.9076C142.57 52.9076 142.062 53.027 141.614 53.2659C141.165 53.5047 140.776 53.8033 140.447 54.2213C140.119 54.6094 139.879 55.0871 139.7 55.5947C139.521 56.1023 139.461 56.6397 139.461 57.1771C139.461 57.7444 139.55 58.3117 139.73 58.8193C139.909 59.3269 140.178 59.7747 140.537 60.1629C140.896 60.551 141.285 60.8496 141.733 61.0884C142.182 61.2974 142.69 61.4169 143.228 61.4169C143.856 61.4169 144.454 61.2676 144.992 60.9391C145.56 60.6107 146.069 60.133 146.577 59.4761V60.9093C145.59 62.0737 144.424 62.6709 143.109 62.6709ZM146.398 58.2221H144.065V57.1771H147.564V62.5813H146.398V58.2221Z" fill="white"/>
<path d="M163.052 51.7728H164.218L168.643 62.611H167.178L165.952 59.4461H161.288L160.062 62.611H158.597L163.052 51.7728ZM165.564 58.3414L163.65 53.3254L161.736 58.3414H165.564Z" fill="white"/>
<path d="M181.59 54.2809V62.5812H180.214V51.743H181.381L188.018 60.2225V51.7729H189.394V62.5812H188.138L181.59 54.2809Z" fill="white"/>
<path d="M202.101 62.5812V51.743H203.477V62.5812H202.101Z" fill="white"/>
<path d="M215.377 61.5361L222.373 52.997H215.526V51.7728H223.988V52.8477L217.111 61.3868H223.988V62.611H215.377V61.5361Z" fill="white"/>
<path d="M239.237 51.7728H240.403L244.828 62.611H243.363L242.137 59.4461H237.473L236.247 62.611H234.782L239.237 51.7728ZM241.719 58.3414L239.805 53.3254L237.892 58.3414H241.719Z" fill="white"/>
<path d="M263.187 52.9672H259.45V62.5812H258.074V52.9672H254.337V51.743H263.187V52.9672Z" fill="white"/>
<path d="M274.848 62.5812V51.743H276.224V62.5812H274.848Z" fill="white"/>
<path d="M293.356 62.6708C292.579 62.6708 291.891 62.5215 291.293 62.2229C290.665 61.9244 290.127 61.5064 289.679 60.9689C289.23 60.4315 288.871 59.8642 288.632 59.2073C288.393 58.5505 288.273 57.8638 288.273 57.1771C288.273 56.4605 288.393 55.7738 288.662 55.1169C288.931 54.4601 289.29 53.8629 289.738 53.3554C290.187 52.8478 290.755 52.4298 291.353 52.1312C291.981 51.8326 292.639 51.6833 293.386 51.6833C294.164 51.6833 294.851 51.8326 295.449 52.1611C296.077 52.4895 296.615 52.9075 297.064 53.4151C297.512 53.9525 297.871 54.5198 298.11 55.1766C298.35 55.8335 298.469 56.4903 298.469 57.1771C298.469 57.8936 298.35 58.5804 298.081 59.2372C297.811 59.8941 297.453 60.4912 297.004 60.9988C296.556 61.5063 295.988 61.9244 295.39 62.2229C294.762 62.5215 294.074 62.6708 293.356 62.6708ZM289.619 57.1771C289.619 57.7145 289.709 58.2519 289.888 58.7595C290.067 59.2671 290.307 59.7149 290.635 60.1329C290.964 60.5211 291.353 60.8495 291.802 61.0884C292.25 61.3272 292.758 61.4466 293.326 61.4466C293.895 61.4466 294.433 61.3272 294.881 61.0884C295.33 60.8495 295.718 60.5211 296.047 60.1031C296.376 59.6851 296.615 59.2372 296.795 58.7296C296.974 58.2221 297.034 57.7145 297.034 57.1771C297.034 56.6396 296.944 56.1022 296.765 55.5946C296.586 55.0871 296.346 54.6392 295.988 54.2212C295.659 53.8331 295.27 53.5046 294.821 53.2658C294.373 53.0269 293.865 52.9075 293.326 52.9075C292.758 52.9075 292.22 53.0269 291.772 53.2658C291.323 53.5046 290.934 53.8331 290.606 54.2212C290.277 54.6392 290.037 55.0871 289.858 55.5946C289.709 56.1321 289.619 56.6396 289.619 57.1771Z" fill="white"/>
<path d="M311.864 54.2809V62.5812H310.489V51.743H311.655L318.293 60.2225V51.7729H319.668V62.5812H318.413L311.864 54.2809Z" fill="white"/>
<path d="M1.71116 28.5142C6.73437 28.6037 11.6679 29.171 16.4519 30.216C16.1828 30.7534 16.0034 31.3506 15.8539 31.9477C15.2858 34.3064 15.0466 36.1874 15.1064 38.0983C13.432 37.7102 11.7576 37.4116 10.0533 37.1727C7.21278 36.7547 4.34237 36.5457 1.44206 36.5159C1.17296 36.5159 0.873959 36.5159 0.604858 36.5159C0.664659 33.7392 1.05336 31.0819 1.71116 28.5142Z" fill="white"/>
<path d="M64.0828 64.3429C62.1393 66.2239 60.0164 67.8959 57.7141 69.329C56.3088 66.9106 54.7241 64.5519 53.0198 62.3425C52.7507 61.9842 52.4517 61.6259 52.1527 61.2676C50.9567 59.7747 49.7009 58.3416 48.3853 56.9682C49.1926 55.953 49.6112 54.7289 49.6112 53.3853V49.4143H52.1527C52.4816 49.7129 52.7806 50.0413 53.1095 50.3399C53.1394 50.3697 53.1394 50.3697 53.1693 50.3996C53.5281 50.7579 53.857 51.0863 54.1859 51.4446C56.1593 53.5047 57.9832 55.6545 59.6875 57.8639C59.9865 58.252 60.2556 58.6402 60.5546 59.0283C61.8104 60.7302 62.9765 62.5216 64.0828 64.3429Z" fill="white"/>
<path d="M22.6411 49.3843H26.1992V51.952C25.0929 51.3847 23.9268 50.8473 22.7607 50.3696C22.6112 50.3099 22.4318 50.2203 22.2823 50.1606C21.9833 50.0412 21.7142 49.9217 21.4152 49.8023C17.6777 48.3094 13.8206 47.2644 9.90365 46.6076C7.12294 46.1299 4.31233 45.891 1.44192 45.8313C0.873823 43.2636 0.544922 40.5764 0.544922 37.8296C0.843923 37.8296 1.11302 37.8296 1.38212 37.8296C6.01664 37.8893 10.6511 38.4864 15.1362 39.5314C15.2558 40.6362 15.4651 41.8006 15.794 43.1143C16.8106 47.0853 19.2923 49.3843 22.6411 49.3843Z" fill="white"/>
<path d="M56.5477 70.0458C54.2454 71.3595 51.7637 72.4642 49.1923 73.2704C48.0262 71.3297 46.7405 69.4785 45.3352 67.6871C45.0661 67.3288 44.7671 66.9705 44.498 66.6421C43.302 65.209 42.0462 63.8057 40.7306 62.4919C40.1625 61.9247 39.5944 61.3872 38.9964 60.8498C38.9665 60.8199 38.9067 60.7901 38.8768 60.7602C40.3718 60.6707 41.8668 60.4019 43.4814 59.9541C45.1259 59.4764 46.4415 58.8195 47.4581 57.9835C48.684 59.2674 49.88 60.6109 50.9863 62.0142C51.2853 62.3725 51.5544 62.7308 51.8534 63.0891C53.5577 65.2687 55.1125 67.5975 56.5477 70.0458Z" fill="white"/>
<path d="M47.817 73.6584C45.0363 74.4048 42.1061 74.8527 39.1161 74.9422C39.0264 74.8228 38.9367 74.6735 38.8171 74.5541C38.548 74.166 38.249 73.8077 37.9799 73.4195C36.7839 71.8968 35.4982 70.4338 34.1228 69.0604C33.5846 68.523 33.0464 68.0154 32.5082 67.5078C32.1793 67.2092 31.8205 66.9107 31.4916 66.6121C29.4584 64.8804 27.3056 63.298 25.0032 61.9245C24.6145 61.6857 24.2258 61.4468 23.8072 61.2378C22.1926 60.3122 20.4883 59.5061 18.7541 58.7895C17.9468 58.4611 17.1096 58.1327 16.3023 57.8341C15.8538 57.6848 15.4053 57.5355 14.9568 57.3862C11.7575 56.3711 8.43861 55.6844 5.0898 55.3858C3.71439 52.8181 2.60809 50.0712 1.83069 47.205C8.1994 47.3542 14.5083 48.6381 20.4285 50.9072C20.877 51.0864 21.3255 51.2655 21.774 51.4447C23.2989 52.0717 24.764 52.7584 26.2292 53.5347C26.3189 56.4607 28.5315 58.7895 32.3587 59.9241C33.9135 60.372 35.3786 60.6407 36.8437 60.7302C36.8736 60.7601 36.9334 60.79 36.9633 60.8497C37.2922 61.1482 37.651 61.4468 37.9799 61.7454C38.5779 62.3127 39.1759 62.88 39.7739 63.4472C41.0895 64.761 42.3154 66.1344 43.4815 67.5377C43.7506 67.896 44.0496 68.2244 44.3187 68.5827C45.5745 70.195 46.7406 71.8968 47.817 73.6584Z" fill="white"/>
<path d="M37.4416 74.972C37.2323 74.972 37.0529 74.972 36.8436 74.972C33.8237 74.8825 30.9234 74.4346 28.1427 73.6882C27.6942 73.5688 27.2158 73.4195 26.7673 73.3C24.1959 72.4939 21.7142 71.419 19.4119 70.0755C19.0232 69.8366 18.6046 69.5978 18.2159 69.3589C15.9136 67.9258 13.7907 66.2538 11.8471 64.3728C11.5182 64.0443 11.1893 63.7458 10.8903 63.3875C9.00664 61.387 7.30234 59.2075 5.89703 56.8488C8.67774 57.1772 11.4285 57.7743 14.0897 58.5805C14.5382 58.7298 14.9867 58.8492 15.4352 59.0283C18.0365 59.924 20.5481 61.0288 22.9401 62.3723C23.3288 62.5813 23.7474 62.8202 24.1361 63.059C26.4384 64.4026 28.5912 65.985 30.6244 67.7168C30.9832 68.0153 31.3121 68.3139 31.641 68.6125C32.1493 69.0902 32.6576 69.5679 33.1659 70.0456C34.6011 71.4788 35.9167 73.0015 37.1426 74.5839C37.2323 74.7033 37.322 74.8228 37.4416 74.972Z" fill="white"/>
<path d="M14.0598 15.7653C11.608 16.5118 9.06653 17.0791 6.52502 17.4075C7.90043 15.2876 9.48513 13.3171 11.2193 11.5256C12.1462 12.9886 13.0731 14.3919 14.0598 15.7653Z" fill="white"/>
<path d="M20.3984 23.4384C14.5679 25.7076 8.37862 26.9616 2.0697 27.1407C2.9368 24.2147 4.13281 21.4679 5.62781 18.9001C8.79722 18.5717 11.9068 17.9149 14.9267 16.9296C16.631 19.1987 18.4549 21.3783 20.3984 23.4384Z" fill="white"/>
<path d="M22.6411 25.7376C21.176 25.8869 19.8604 26.4243 18.7541 27.2902C18.1262 27.7679 17.588 28.3352 17.1395 28.992C14.7475 28.4546 12.3555 28.0366 9.93359 27.7381C13.8505 27.0812 17.7076 26.0063 21.4451 24.5433C21.5946 24.6926 21.7441 24.8419 21.8936 24.9912C22.1328 25.23 22.4019 25.4689 22.6411 25.7376Z" fill="white"/>
<path d="M70.033 56.8488C68.6277 59.2075 66.9533 61.387 65.0696 63.3576C64.0829 61.7155 63.0065 60.133 61.9002 58.5805C64.5314 57.7445 67.2523 57.1772 70.033 56.8488Z" fill="white"/>
<path d="M74.0993 47.205C73.3518 50.1011 72.2455 52.848 70.8401 55.4157C67.4913 55.7441 64.2023 56.401 61.003 57.4161C59.2987 55.147 57.4748 52.9674 55.5313 50.9072C61.4515 48.6082 67.7305 47.3542 74.0993 47.205Z" fill="white"/>
<path d="M75.3252 37.8597C75.2953 40.6066 74.9963 43.2639 74.4282 45.8615C71.5877 45.9212 68.7771 46.16 66.0263 46.6377C62.1093 47.2946 58.2522 48.3695 54.5147 49.8325C54.3652 49.6832 54.2157 49.5339 54.0662 49.3846C57.714 49.1159 59.0296 46.1003 59.9864 43.234C60.405 42.0099 60.6442 40.8156 60.7638 39.5616C61.5711 39.3825 62.3485 39.2033 63.1558 39.054C66.8934 38.3375 70.6907 37.9195 74.5179 37.8597C74.787 37.8597 75.0561 37.8597 75.3252 37.8597Z" fill="white"/>
<path d="M75.3251 36.4862C75.056 36.4862 74.7869 36.4862 74.5477 36.4862C71.6474 36.5161 68.777 36.7549 65.9364 37.1431C64.2321 37.3819 62.5278 37.7104 60.8534 38.0985C60.8833 36.2175 60.5843 34.2171 60.0162 31.9181C59.8667 31.2911 59.6873 30.7238 59.478 30.1864C64.262 29.1414 69.2255 28.5741 74.2188 28.4845C74.8467 31.0821 75.2354 33.7394 75.3251 36.4862Z" fill="white"/>
<path d="M69.3749 17.4075C66.8334 17.0791 64.3218 16.5118 61.87 15.7654C61.4215 15.6161 60.973 15.4967 60.5245 15.3175C57.9232 14.4218 55.4116 13.3171 53.0196 11.9735C52.6309 11.7645 52.2123 11.5257 51.8236 11.2868C49.5213 9.94322 47.3685 8.3608 45.3353 6.62908C44.9765 6.33051 44.6476 6.03194 44.3187 5.73337C43.8104 5.25565 43.3021 4.77794 42.7938 4.30022C41.538 3.04622 40.342 1.70265 39.2656 0.329224C42.0463 0.418795 44.7373 0.806938 47.3087 1.49365C47.7572 1.61308 48.2356 1.73251 48.6841 1.88179C51.2854 2.65808 53.7671 3.70308 56.0993 5.01679C56.488 5.22579 56.9066 5.46465 57.2953 5.70351C59.5976 7.10679 61.7504 8.74894 63.7238 10.6001C64.0527 10.8987 64.3816 11.2271 64.6806 11.5555C66.4447 13.3469 67.9995 15.3175 69.3749 17.4075Z" fill="white"/>
<path d="M73.83 27.141C67.551 26.9619 61.3617 25.678 55.5312 23.4388C55.0827 23.2596 54.6342 23.0805 54.1857 22.9013C52.601 22.2445 51.0462 21.5279 49.5511 20.7218C49.0727 17.8853 46.6209 15.5565 43.3319 15.019C42.3452 14.8698 41.3286 14.7503 40.312 14.6608C39.8635 14.3025 39.415 13.9143 38.9665 13.556C38.6376 13.2575 38.2788 12.9589 37.9499 12.6603C37.3519 12.093 36.7539 11.5258 36.1559 10.9585C34.8403 9.64475 33.6144 8.27132 32.4483 6.86804C32.1493 6.50975 31.8802 6.18132 31.6111 5.82304C30.5347 4.44961 29.548 3.01647 28.6211 1.55347C31.1925 0.896609 33.9134 0.508467 36.6642 0.418895C36.9333 0.418895 37.2323 0.389038 37.5014 0.389038C37.6509 0.568181 37.8004 0.777181 37.9499 0.956324C39.1459 2.47904 40.4316 3.94204 41.807 5.31547C42.3452 5.8529 42.8834 6.36047 43.4216 6.86804C43.7505 7.16661 44.0794 7.46518 44.4382 7.76375C46.4714 9.49547 48.6541 11.0779 50.9265 12.4513C51.3152 12.6902 51.704 12.929 52.1226 13.138C53.7372 14.0338 55.4415 14.8698 57.1757 15.5863C57.983 15.9148 58.8202 16.2432 59.6275 16.5418C60.076 16.691 60.5245 16.8403 60.973 16.9896C63.9929 17.945 67.0726 18.6019 70.242 18.9303C71.7669 21.4682 72.9629 24.215 73.83 27.141Z" fill="white"/>
<path d="M37.98 14.4516C38.0398 14.4815 38.0697 14.5412 38.1295 14.5711C38.0398 14.5711 37.9501 14.5711 37.8604 14.5711H37.681C35.887 14.5711 34.093 14.7204 32.4783 15.0189C30.7142 15.3474 29.3986 15.7952 28.4717 16.4222C27.2458 15.1384 26.0498 13.7948 24.9435 12.3915C24.6445 12.0332 24.3754 11.6749 24.1063 11.3166C22.5515 9.28636 21.1163 7.19636 19.8007 4.98693C22.1329 3.70307 24.6146 2.62821 27.2458 1.85193C28.2923 3.49407 29.3986 5.10636 30.5946 6.65893C30.8637 7.01721 31.1627 7.3755 31.4318 7.70393C32.6279 9.13707 33.8837 10.5404 35.1993 11.8541C35.7674 12.4214 36.3355 12.9588 36.9335 13.4962C37.2923 13.8545 37.6212 14.1531 37.98 14.4516Z" fill="white"/>
<path d="M66.0261 27.7379C63.6341 28.0365 61.2421 28.4545 58.88 28.9919C57.684 26.8123 55.89 25.7076 53.5279 25.7076H49.6409V22.3337C50.807 22.9309 51.9731 23.4683 53.1691 23.9759C53.3186 24.0356 53.498 24.1252 53.6475 24.1849C53.9166 24.3043 54.2156 24.4237 54.5146 24.5432C58.2521 26.0062 62.0793 27.081 66.0261 27.7379Z" fill="white"/>
<path d="M23.7774 13.1079C24.9435 14.5709 26.1694 15.9742 27.485 17.3178C26.4983 18.4524 26.2292 19.9452 26.2292 21.7068V25.6778H24.5548C23.9867 25.1404 23.4186 24.6029 22.8804 24.0357C22.8505 24.0058 22.8505 24.0058 22.8206 23.9759C22.4618 23.6177 22.1329 23.2594 21.804 22.9309C19.8306 20.8708 18.0067 18.7211 16.3024 16.5117C16.0034 16.1235 15.7343 15.7354 15.4353 15.3472C14.2991 13.7947 13.2526 12.2122 12.236 10.5999C14.1795 8.7488 16.3323 7.10666 18.6645 5.70337C19.9801 7.88294 21.4153 10.0028 22.9701 12.0032C23.2093 12.3615 23.4784 12.7497 23.7774 13.1079Z" fill="white"/>
<path d="M53.5572 26.9916C56.5771 26.9916 58.0128 29.2607 58.7603 32.2465C59.7469 36.4263 59.8064 39.5614 58.73 42.8158C57.6836 45.9804 56.5475 48.0705 53.5279 48.0707H37.9498V49.3842H48.355V53.3549C48.355 56.3406 45.7831 57.8637 43.1519 58.64C39.2053 59.7745 36.0654 59.5954 32.7466 58.64C29.996 57.8338 27.5445 56.1613 27.5445 53.3549V43.472C27.5447 40.6359 29.9065 38.1881 32.7466 38.1879H43.1519C46.6203 38.1879 49.6402 35.1721 49.6402 31.5892V26.9916H53.5572ZM43.8101 52.0414C42.7368 52.0414 41.8669 52.9101 41.8668 53.9818C41.8668 55.0536 42.7368 55.9232 43.8101 55.9232C44.8835 55.9232 45.7535 55.0536 45.7535 53.9818C45.7534 52.9101 44.8834 52.0414 43.8101 52.0414Z" fill="white"/>
<path d="M37.6803 15.8848C39.4443 15.8848 41.2985 16.0042 43.0924 16.3027C45.903 16.7804 48.2955 18.9005 48.2955 21.707V31.5898C48.2954 34.4858 45.9926 36.874 43.0924 36.874H32.6871C29.189 36.8742 26.2292 39.8898 26.2291 43.3232V48.0703H22.6412C19.6213 48.0703 17.8565 45.8907 17.109 42.8154C16.1224 38.6954 16.1522 36.2169 17.109 32.2461C17.9462 28.7828 20.6078 26.9913 23.6276 26.9912H37.9498V25.6777H27.5143V21.707C27.5143 18.7213 28.3221 17.079 32.7174 16.3027C34.2123 16.034 35.9164 15.8848 37.6803 15.8848ZM32.0895 19.0791C31.0163 19.0792 30.1463 19.9479 30.1461 21.0195C30.1461 22.0913 31.0162 22.9609 32.0895 22.9609C33.1628 22.9609 34.0328 22.0914 34.0328 21.0195C34.0326 19.9479 33.1627 19.0791 32.0895 19.0791Z" fill="white"/>
</g>
<defs>
<clipPath id="clip0_1_1339">
<rect width="320.021" height="74.6429" fill="white" transform="translate(0.574707 0.328979)"/>
</clipPath>
</defs>
</svg>
