<svg width="24" height="24" viewBox="0 0 24 24" fill="none" xmlns="http://www.w3.org/2000/svg">
<path d="M12 4C10.4178 4 8.87103 4.46919 7.55544 5.34824C6.23985 6.22729 5.21447 7.47672 4.60897 8.93853C4.00347 10.4003 3.84504 12.0089 4.15372 13.5607C4.4624 15.1126 5.22433 16.538 6.34315 17.6569C7.46197 18.7757 8.88743 19.5376 10.4393 19.8463C11.9911 20.155 13.5997 19.9965 15.0615 19.391C16.5233 18.7855 17.7727 17.7602 18.6518 16.4446C19.5308 15.129 20 13.5822 20 12C19.9978 9.87895 19.1542 7.84542 17.6544 6.34562C16.1546 4.84581 14.121 4.00224 12 4ZM15.5123 12.4354L13.0508 14.8969C12.9353 15.0124 12.7787 15.0773 12.6154 15.0773C12.4521 15.0773 12.2955 15.0124 12.18 14.8969C12.0645 14.7814 11.9997 14.6248 11.9997 14.4615C11.9997 14.2982 12.0645 14.1416 12.18 14.0262L13.5915 12.6154H8.92308C8.75987 12.6154 8.60334 12.5505 8.48794 12.4351C8.37253 12.3197 8.30769 12.1632 8.30769 12C8.30769 11.8368 8.37253 11.6803 8.48794 11.5649C8.60334 11.4494 8.75987 11.3846 8.92308 11.3846H13.5915L12.18 9.97385C12.0645 9.85837 11.9997 9.70176 11.9997 9.53846C11.9997 9.37516 12.0645 9.21855 12.18 9.10308C12.2955 8.9876 12.4521 8.92273 12.6154 8.92273C12.7787 8.92273 12.9353 8.9876 13.0508 9.10308L15.5123 11.5646C15.5695 11.6218 15.6149 11.6896 15.6459 11.7643C15.6769 11.839 15.6928 11.9191 15.6928 12C15.6928 12.0809 15.6769 12.1609 15.6459 12.2357C15.6149 12.3104 15.5695 12.3782 15.5123 12.4354Z" fill="white"/>
</svg>
