<svg width="40" height="40" viewBox="0 0 40 40" fill="none" xmlns="http://www.w3.org/2000/svg">
<path d="M34.4005 7.99854V13.5982H28.8008" stroke="#84400F" stroke-width="1.6" stroke-miterlimit="10" stroke-linecap="round"/>
<path d="M5.6001 32.002V26.4023H11.1998" stroke="#84400F" stroke-width="1.6" stroke-miterlimit="10" stroke-linecap="round"/>
<path d="M21.6811 28.8011H18.3999L17.9987 26.2419C17.682 26.1617 17.4413 26.0815 17.1203 25.921L14.9624 27.361L12.5595 24.9624L13.9995 22.8002C13.8391 22.5595 13.7588 22.2386 13.6786 22.0021L11.1997 21.6009V18.2394L13.6786 17.8424C13.7588 17.5215 13.9193 17.2808 13.9995 16.9598L12.5595 14.9624L14.9624 12.5595L17.1203 14.0798C17.361 13.9193 17.682 13.8391 17.9185 13.7588L18.3999 11.1997H21.7614L22.1583 13.7588C22.399 13.8391 22.72 13.9193 22.9607 14.0798L25.0384 12.5595L27.3611 14.8821L25.921 17.0401C26.0815 17.2808 26.1617 17.6017 26.242 17.8424L28.8011 18.2394V21.6009L26.3222 22.0823C26.242 22.3188 26.1617 22.6397 26.0013 22.9607L27.5215 25.0384L25.1186 27.4413L22.9607 26.0012C22.6398 26.1617 22.399 26.2419 22.1583 26.3222L21.6811 28.8011ZM22.5595 15.6803C22.1583 15.4396 21.6811 15.2791 21.1997 15.1186L20.7183 14.9624L20.4016 12.8002H19.7597L19.3585 15.0384L18.8813 15.1186C18.3999 15.2791 17.9185 15.5198 17.361 15.7605L16.9599 15.921L15.1186 14.6414L14.6414 15.1186L15.921 16.9598L15.6001 17.361C15.3593 17.7622 15.1989 18.2394 15.1186 18.6406L15.0384 19.2022L12.8002 19.5992V20.2411L14.9624 20.6423L15.1186 21.1195C15.2791 21.5207 15.4396 22.0823 15.6803 22.5595L15.921 22.9607L14.6414 24.8019L15.1186 25.2791L17.0401 23.9995L17.5215 24.3205C17.9185 24.5612 18.3999 24.7217 18.8813 24.8821L19.3585 25.0384L19.6795 27.2006H20.3213L20.7183 24.9624L21.1997 24.8019C21.6811 24.6414 22.1583 24.481 22.6398 24.2402L23.0409 23.9995L24.8822 25.2791L25.3594 24.8019L23.9996 22.9607L24.3205 22.4793C24.5612 22.0823 24.7217 21.6009 24.8822 21.1195L25.0384 20.6423L27.2006 20.1609V19.519L24.9624 19.2022L24.8019 18.7208C24.6415 18.2394 24.481 17.7622 24.2403 17.2808L23.9996 16.8796L25.2791 15.0384L24.8822 14.6414M20.0004 23.1212C18.2394 23.1212 16.7994 21.6811 16.7994 19.9201C16.7994 18.1592 18.2394 16.7191 20.0004 16.7191C21.7614 16.7191 23.2014 18.1592 23.2014 19.9201C23.2014 21.7614 21.7614 23.1212 20.0004 23.1212ZM20.0004 18.3999C19.122 18.3999 18.3999 19.122 18.3999 20.0004C18.3999 20.8788 19.122 21.6009 20.0004 21.6009C20.8788 21.6009 21.6009 20.8788 21.6009 20.0004C21.6009 19.0418 20.8788 18.3999 20.0004 18.3999Z" fill="#84400F"/>
<path d="M35.1988 20C35.1988 28.3953 28.3955 35.1985 20.0003 35.1985C13.8938 35.1985 8.62355 31.5963 6.20801 26.402" stroke="#84400F" stroke-width="1.6" stroke-miterlimit="10" stroke-linecap="round"/>
<path d="M4.80176 20.0002C4.80176 11.605 11.605 4.80176 20.0003 4.80176C26.1067 4.80176 31.377 8.40395 33.7925 13.5982" stroke="#84400F" stroke-width="1.6" stroke-miterlimit="10" stroke-linecap="round"/>
</svg>
