<svg width="40" height="40" viewBox="0 0 40 40" fill="none" xmlns="http://www.w3.org/2000/svg">
<g clip-path="url(#clip0_263_812)">
<path d="M39.202 18.3993C39.202 19.2819 38.4841 19.9998 37.6015 19.9998C36.7147 19.9998 36.001 19.2819 36.001 18.3993C36.001 17.5167 36.7147 16.7988 37.6015 16.7988C38.4841 16.7988 39.202 17.5167 39.202 18.3993Z" stroke="#84400F" stroke-width="1.6" stroke-linecap="round"/>
<path d="M37.2003 20.5532L33.3743 24.5524C33.2265 24.7086 33.0196 24.8015 32.8 24.8015H31.2544C31.5753 24.2863 31.8794 23.75 32.1835 23.201H32.4579L36.039 19.4468L37.2003 20.5532Z" fill="#84400F"/>
<path d="M3.99936 18.3993C3.99936 19.2819 3.28568 19.9998 2.39885 19.9998C1.51625 19.9998 0.79834 19.2819 0.79834 18.3993C0.79834 17.5167 1.51625 16.7988 2.39885 16.7988C3.28568 16.7988 3.99936 17.5167 3.99936 18.3993Z" stroke="#84400F" stroke-width="1.6" stroke-linecap="round"/>
<path d="M8.74576 24.8015H7.20015C6.98055 24.8015 6.77363 24.7086 6.62582 24.5524L2.7998 20.5532L3.96112 19.4468L7.54221 23.201H7.8167C8.12076 23.75 8.42481 24.2863 8.74576 24.8015Z" fill="#84400F"/>
<path d="M38.3997 27.9981C38.3997 28.885 37.6818 29.5986 36.7992 29.5986C35.9166 29.5986 35.1987 28.885 35.1987 27.9981C35.1987 27.1155 35.9166 26.4019 36.7992 26.4019C37.6818 26.4019 38.3997 27.1155 38.3997 27.9981Z" stroke="#84400F" stroke-width="1.6" stroke-linecap="round"/>
<path d="M36.0013 36.7987C36.0013 37.6814 35.2834 38.3993 34.4008 38.3993C33.5182 38.3993 32.8003 37.6814 32.8003 36.7987C32.8003 35.9161 33.5182 35.1982 34.4008 35.1982C35.2834 35.1982 36.0013 35.9161 36.0013 36.7987Z" stroke="#84400F" stroke-width="1.6" stroke-linecap="round"/>
<path d="M35.1985 27.2002V28.8007H28.2939C28.7458 28.3024 29.185 27.7661 29.6073 27.2002H35.1985Z" fill="#84400F"/>
<path d="M33.9994 34.6492L32.8423 35.7514L29.257 32.0014H25.0171C25.583 31.5369 26.1742 31.0005 26.7907 30.4009H29.599C29.8186 30.4009 30.0255 30.4896 30.1776 30.6458L33.9994 34.6492Z" fill="#84400F"/>
<path d="M4.80161 27.9981C4.80161 28.885 4.0837 29.5986 3.2011 29.5986C2.31849 29.5986 1.60059 28.885 1.60059 27.9981C1.60059 27.1155 2.31849 26.4019 3.2011 26.4019C4.0837 26.4019 4.80161 27.1155 4.80161 27.9981Z" stroke="#84400F" stroke-width="1.6" stroke-linecap="round"/>
<path d="M7.20053 36.7987C7.20053 37.6814 6.48262 38.3993 5.60002 38.3993C4.71742 38.3993 3.99951 37.6814 3.99951 36.7987C3.99951 35.9161 4.71742 35.1982 5.60002 35.1982C6.48262 35.1982 7.20053 35.9161 7.20053 36.7987Z" stroke="#84400F" stroke-width="1.6" stroke-linecap="round"/>
<path d="M11.7063 28.8007H4.80176V27.2002H10.393C10.8153 27.7661 11.2545 28.3024 11.7063 28.8007Z" fill="#84400F"/>
<path d="M14.9833 32.0014H10.7434L7.15807 35.7514L6.00098 34.6492L9.82277 30.6458C9.9748 30.4896 10.1817 30.4009 10.4013 30.4009H13.2096C13.8262 31.0005 14.4174 31.5369 14.9833 32.0014Z" fill="#84400F"/>
<path d="M20.0003 32.3984C20.0003 32.3984 6.40234 26.1189 6.40234 7.28442C14.8314 5.48121 17.3568 2.39844 20.0003 2.39844C22.6439 2.39844 25.1693 5.48121 33.5983 7.28442C33.5983 26.1189 20.0003 32.3984 20.0003 32.3984Z" stroke="#84400F" stroke-width="1.6" stroke-linecap="round"/>
<path d="M20.0001 11.6255C18.8134 11.6255 17.8506 12.5883 17.8506 13.775C17.8506 14.9616 18.8134 15.9245 20.0001 15.9245C21.1867 15.9245 22.1496 14.9616 22.1496 13.775C22.1496 12.5883 21.1867 11.6255 20.0001 11.6255Z" fill="#84400F"/>
<path d="M22.1496 20.2236H17.8506L18.9274 15.2109H21.0727L22.1496 20.2236Z" fill="#84400F"/>
</g>
<defs>
<clipPath id="clip0_263_812">
<rect width="40.0001" height="40" fill="white"/>
</clipPath>
</defs>
</svg>
