<svg width="66" height="52" viewBox="0 0 66 52" fill="none" xmlns="http://www.w3.org/2000/svg">
<path d="M40.9049 29.8774C40.4893 29.8774 40.0738 29.7216 39.7621 29.3579C39.1906 28.7346 39.2426 27.7475 39.866 27.1761L43.2945 24.1631L39.866 21.1501C39.2426 20.5787 39.1906 19.5917 39.7621 18.9683C40.3335 18.3449 41.3205 18.293 41.9439 18.8644L46.6712 23.0722C46.9829 23.3839 47.1906 23.7995 47.1906 24.2151C47.1906 24.6307 46.9829 25.0982 46.6712 25.3579L41.9439 29.5657C41.6842 29.7216 41.3205 29.8774 40.9049 29.8774ZM25.2166 29.8774C24.853 29.8774 24.4894 29.7735 24.1777 29.4618L19.4504 25.254C19.1387 24.9423 18.9309 24.5268 18.9309 24.1112C18.9309 23.6956 19.1387 23.2281 19.4504 22.9683L24.1777 18.7605C24.801 18.1891 25.7881 18.2411 26.3595 18.8644C26.9309 19.4878 26.879 20.4748 26.2556 21.0462L22.827 24.1112L26.2556 27.1242C26.879 27.6956 26.9309 28.6826 26.3595 29.306C26.0478 29.6696 25.6322 29.8774 25.2166 29.8774ZM30.4634 33.4618C30.3075 33.4618 30.1517 33.4618 29.9958 33.3579C29.1647 33.0982 28.7491 32.2151 29.0088 31.3839L34.2036 15.7995C34.4634 14.9683 35.3465 14.5527 36.1777 14.8125C37.0088 15.0722 37.4244 15.9553 37.1647 16.7865L31.9699 32.3709C31.7101 33.0462 31.1387 33.4618 30.4634 33.4618Z" fill="#FFE2D1"/>
<path d="M38.2555 44.8903H27.8659C26.9828 44.8903 26.3074 44.215 26.3074 43.3319C26.3074 42.4488 26.9828 41.7734 27.8659 41.7734H38.2555C39.1386 41.7734 39.8139 42.4488 39.8139 43.3319C39.8139 44.215 39.1386 44.8903 38.2555 44.8903Z" fill="#FFE2D1"/>
<path d="M59.0347 51.6433H7.08662C3.34636 51.6433 0.333374 48.6303 0.333374 44.8901V43.3316C0.333374 42.4485 1.0087 41.7732 1.89182 41.7732H20.0736C20.9568 41.7732 21.6321 42.4485 21.6321 43.3316C21.6321 44.2148 20.9568 44.8901 20.0736 44.8901H3.45026C3.45026 46.9161 5.06065 48.5264 7.08662 48.5264H59.0347C61.0607 48.5264 62.671 46.9161 62.671 44.8901H46.0477C45.1645 44.8901 44.4892 44.2148 44.4892 43.3316C44.4892 42.4485 45.1645 41.7732 46.0477 41.7732H64.2295C65.1126 41.7732 65.7879 42.4485 65.7879 43.3316V44.8901C65.7879 48.6303 62.7749 51.6433 59.0347 51.6433Z" fill="#FFE2D1"/>
<path d="M59.0345 39.1759C58.1514 39.1759 57.4761 38.5006 57.4761 37.6174V6.96809C57.4761 4.94212 55.8657 3.33173 53.8397 3.33173H12.2813C10.2553 3.33173 8.6449 4.94212 8.6449 6.96809V37.6174C8.6449 38.5006 7.96957 39.1759 7.08646 39.1759C6.20334 39.1759 5.52802 38.5006 5.52802 37.6174V6.96809C5.52802 3.22783 8.541 0.214844 12.2813 0.214844H53.8397C57.58 0.214844 60.593 3.22783 60.593 6.96809V37.6174C60.593 38.5006 59.9176 39.1759 59.0345 39.1759Z" fill="#FFE2D1"/>
</svg>
