<svg width="60" height="60" viewBox="0 0 60 60" fill="none" xmlns="http://www.w3.org/2000/svg">
<path d="M52.6415 59.9999H7.35849C3.28302 59.9999 0 56.7169 0 52.6414V36.7924C0 35.8301 0.735849 35.0942 1.69811 35.0942C2.66038 35.0942 3.39623 35.8301 3.39623 36.7924V52.6414C3.39623 54.849 5.15094 56.6037 7.35849 56.6037H52.6415C54.8491 56.6037 56.6038 54.849 56.6038 52.6414V36.7924C56.6038 35.8301 57.3396 35.0942 58.3019 35.0942C59.2641 35.0942 60 35.8301 60 36.7924V52.6414C60 56.7169 56.717 59.9999 52.6415 59.9999Z" fill="#FFE2D1"/>
<path d="M30 37.8679C19.9245 37.8679 9.84906 35.1509 0.849057 29.7736C0.339623 29.434 0 28.9245 0 28.3019V13.5849C0 12.3396 1.01887 11.3208 2.26415 11.3208H57.7358C58.9811 11.3208 60 12.3396 60 13.5849V28.3019C60 28.9245 59.6604 29.434 59.1509 29.7736C50.1509 35.1509 40.0755 37.8679 30 37.8679ZM3.39623 27.3396C19.8679 36.8491 40.1321 36.8491 56.6038 27.3396V14.717H3.39623V27.3396ZM40.1887 9.0566C39.2264 9.0566 38.4906 8.32075 38.4906 7.35849C38.4906 5.15094 36.7358 3.39623 34.5283 3.39623H25.4717C23.2642 3.39623 21.5094 5.15094 21.5094 7.35849C21.5094 8.32075 20.7736 9.0566 19.8113 9.0566C18.8491 9.0566 18.1132 8.32075 18.1132 7.35849C18.1132 3.28302 21.3962 0 25.4717 0H34.5283C38.6038 0 41.8868 3.28302 41.8868 7.35849C41.8868 8.32075 41.1509 9.0566 40.1887 9.0566Z" fill="#FFE2D1"/>
</svg>
