<svg width="86" height="60" viewBox="0 0 86 60" fill="none" xmlns="http://www.w3.org/2000/svg">
<path d="M23.7317 36.6402C16.1524 36.6402 9.98169 30.4695 9.98169 22.8902C9.98169 15.7134 15.6158 9.67678 22.7927 9.20727C23.9329 9.1402 24.8719 9.94507 24.939 11.0853C25.0061 12.2256 24.2012 13.1646 23.061 13.2317C17.9634 13.567 14.0061 17.7926 14.0061 22.8902C14.0061 28.2561 18.3658 32.6158 23.7317 32.6158C25.4756 32.6158 27.2195 32.1463 28.6951 31.2743C29.6341 30.7378 30.9085 31.0061 31.4451 31.9451C31.9817 32.8841 31.7134 34.1585 30.7744 34.6951C28.628 35.9695 26.2134 36.6402 23.7317 36.6402ZM1.99999 57.4999C1.66462 57.4999 1.32926 57.4329 0.993889 57.2317C0.0548649 56.6951 -0.280501 55.4878 0.256084 54.4817C3.74389 48.3109 9.64633 43.6829 16.4878 41.8048C17.561 41.5365 18.6341 42.1402 18.9695 43.2134C19.2378 44.2865 18.6341 45.4268 17.561 45.6951C11.7927 47.3048 6.76218 51.2621 3.74389 56.4939C3.40852 57.1646 2.73779 57.4999 1.99999 57.4999Z" fill="#FFE2D1"/>
<path d="M61.2926 36.6402C58.8109 36.6402 56.3963 35.9695 54.317 34.6951C53.378 34.1585 53.0426 32.8841 53.6463 31.9451C54.1829 31.0061 55.4573 30.6707 56.3963 31.2743C57.8719 32.1463 59.6158 32.6158 61.3597 32.6158C66.7256 32.6158 71.0853 28.2561 71.0853 22.8902C71.0853 17.7926 67.128 13.567 62.0304 13.2317C60.8902 13.1646 60.0853 12.2256 60.1524 11.0853C60.2195 9.94507 61.1585 9.1402 62.2987 9.20727C69.4756 9.67678 75.1097 15.7134 75.1097 22.8902C75.0426 30.5365 68.8719 36.6402 61.2926 36.6402ZM83.0243 57.4999C82.3536 57.4999 81.6158 57.1646 81.2804 56.4939C78.3292 51.2621 73.2987 47.3048 67.4634 45.6951C66.3902 45.4268 65.7865 44.2865 66.0548 43.2134C66.3231 42.1402 67.4634 41.5365 68.5365 41.8048C75.3109 43.6829 81.2134 48.3109 84.7682 54.4817C85.3048 55.4207 84.9695 56.6951 84.0304 57.2317C83.6951 57.4329 83.3597 57.4999 83.0243 57.4999Z" fill="#FFE2D1"/>
<path d="M42.5123 33.3537C33.994 33.3537 27.0855 26.4451 27.0855 17.9268C27.0855 9.40854 33.994 2.5 42.5123 2.5C51.0306 2.5 57.9391 9.40854 57.9391 17.9268C57.9391 26.4451 51.0306 33.3537 42.5123 33.3537ZM42.5123 6.52439C36.2074 6.52439 31.1099 11.622 31.1099 17.9268C31.1099 24.2317 36.2074 29.3293 42.5123 29.3293C48.8172 29.3293 53.9147 24.2317 53.9147 17.9268C53.9147 11.622 48.8172 6.52439 42.5123 6.52439ZM17.6282 57.5C17.2928 57.5 16.9574 57.4329 16.6221 57.2317C15.683 56.6951 15.3477 55.4878 15.8843 54.4817C21.3172 44.9573 31.5123 38.9878 42.5123 38.9878C53.5123 38.9878 63.7074 44.9573 69.1404 54.4817C69.6769 55.4207 69.3416 56.6951 68.4026 57.2317C67.4635 57.7683 66.1891 57.4329 65.6526 56.4939C60.9574 48.1768 52.1038 43.0122 42.5123 43.0122C32.9879 43.0122 24.1343 48.1768 19.3721 56.4939C19.0367 57.1646 18.366 57.5 17.6282 57.5Z" fill="#FFE2D1"/>
</svg>
