<svg width="40" height="40" viewBox="0 0 40 40" fill="none" xmlns="http://www.w3.org/2000/svg">
<g clip-path="url(#clip0_263_776)">
<path d="M36.7992 37.6017C36.7992 38.4843 36.0855 39.2022 35.1987 39.2022H19.2021C18.3152 39.2022 17.6016 38.4843 17.6016 37.6017V11.1996C17.6016 10.317 18.3152 9.59912 19.2021 9.59912H35.1987C36.0855 9.59912 36.7992 10.317 36.7992 11.1996V37.6017Z" stroke="#84400F" stroke-width="1.6" stroke-miterlimit="10" stroke-linecap="round" stroke-linejoin="round"/>
<path d="M20.7983 12.7998H33.5982V33.5979H20.7983V12.7998Z" stroke="#84400F" stroke-width="1.6" stroke-miterlimit="10" stroke-linecap="round" stroke-linejoin="round"/>
<path d="M28.3996 36.4023C28.3996 37.0611 27.8633 37.6016 27.2003 37.6016C26.5373 37.6016 26.001 37.0611 26.001 36.4023C26.001 35.7393 26.5373 35.1987 27.2003 35.1987C27.8633 35.1987 28.3996 35.7393 28.3996 36.4023Z" fill="#84400F"/>
<path d="M16.001 30.4014H4.80168C3.91486 30.4014 3.20117 29.6835 3.20117 28.8009V2.39885C3.20117 1.51625 3.91486 0.79834 4.80168 0.79834H20.7983C21.6852 0.79834 22.3988 1.51625 22.3988 2.39885V7.99851" stroke="#84400F" stroke-width="1.6" stroke-miterlimit="10" stroke-linejoin="round"/>
<path d="M16.0012 24.8019H6.40234V3.99951H19.2022V7.99867" stroke="#84400F" stroke-width="1.6" stroke-miterlimit="10" stroke-linejoin="round"/>
<path d="M13.9992 27.6017C13.9992 28.2647 13.4629 28.801 12.7999 28.801C12.1369 28.801 11.6006 28.2647 11.6006 27.6017C11.6006 26.9387 12.1369 26.4023 12.7999 26.4023C13.4629 26.4023 13.9992 26.9387 13.9992 27.6017Z" fill="#84400F"/>
</g>
<defs>
<clipPath id="clip0_263_776">
<rect width="40.0001" height="40" fill="white"/>
</clipPath>
</defs>
</svg>
