<svg width="60" height="61" viewBox="0 0 60 61" fill="none" xmlns="http://www.w3.org/2000/svg">
<path d="M38.2641 45.363C37.9811 45.363 37.6981 45.3064 37.4717 45.1932L30 41.231L22.5283 45.1932C21.9622 45.4762 21.283 45.4196 20.717 45.08C20.2075 44.6838 19.9245 44.0612 20.0377 43.4385L21.4528 35.1178L15.3962 29.1178C14.717 28.4385 14.717 27.363 15.3396 26.7404C15.9622 26.1178 17.0943 26.0612 17.717 26.6838L24.3962 33.1932C24.7924 33.5895 24.9622 34.1555 24.9056 34.7215L24 40.5517L29.2075 37.7781C29.717 37.4951 30.283 37.4951 30.7924 37.7781L36 40.5517L34.9811 34.7215C34.8679 34.1555 35.0943 33.5895 35.4905 33.1932L39.7358 29.0612L33.9056 28.2121C33.3396 28.1555 32.8868 27.7593 32.6038 27.3064L30 22.0423L29.7736 22.4951C29.3773 23.3442 28.3585 23.6838 27.5094 23.2876C26.6604 22.8913 26.3207 21.8725 26.717 21.0234L28.4717 17.4574C28.7547 16.8913 29.3207 16.4951 30 16.4951C30.6226 16.4951 31.2453 16.8347 31.5283 17.4574L35.2641 25.0423L43.6415 26.231C44.2641 26.3442 44.8302 26.797 45 27.363C45.2264 27.9857 45.0566 28.6649 44.5472 29.1178L38.5472 35.0612L39.9622 43.3819C40.0755 44.0046 39.7924 44.6838 39.283 45.0234C39 45.2498 38.6038 45.363 38.2641 45.363Z" fill="#FFE2D1"/>
<path d="M25.8679 28.269C25.4151 28.269 24.9623 28.0992 24.6792 27.7596C24.6226 27.703 24.5094 27.5898 24.4528 27.4766C24.3962 27.3634 24.3396 27.3068 24.283 27.1936C24.2264 27.0804 24.2264 26.9671 24.1698 26.8539C24.1698 26.7407 24.1132 26.6275 24.1132 26.5143C24.1132 26.0615 24.283 25.6087 24.6226 25.3256C25.0189 24.9294 25.5849 24.7596 26.1509 24.8728C26.2641 24.8728 26.3774 24.9294 26.4906 24.986C26.6038 25.0426 26.717 25.0992 26.7736 25.1558C26.8868 25.2124 26.9434 25.269 27.0566 25.3822C27.3962 25.7219 27.566 26.1181 27.566 26.5709C27.566 26.6841 27.566 26.7973 27.5094 26.9105C27.5094 27.0238 27.4528 27.137 27.3962 27.2502C27.3396 27.3634 27.283 27.4766 27.2264 27.5332C27.1698 27.6464 27.1132 27.703 27 27.8162C26.9434 27.8728 26.8302 27.986 26.717 28.0426C26.6038 28.0992 26.5472 28.1558 26.434 28.2124C26.3208 28.269 26.2075 28.269 26.0943 28.3256C26.0943 28.269 25.9811 28.269 25.8679 28.269Z" fill="#FFE2D1"/>
<path d="M30 60.9292C13.4717 60.9292 0 47.4575 0 30.9292C0 14.4009 13.4717 0.929199 30 0.929199C46.5283 0.929199 60 14.4009 60 30.9292C60 47.4575 46.5283 60.9292 30 60.9292ZM30 4.32543C15.3396 4.32543 3.39623 16.2688 3.39623 30.9292C3.39623 45.5896 15.3396 57.533 30 57.533C44.6604 57.533 56.6038 45.5896 56.6038 30.9292C56.6038 16.2688 44.6604 4.32543 30 4.32543Z" fill="#FFE2D1"/>
</svg>
